<?xml version="1.0" encoding="utf-8"?>
<!-- Generator: Adobe Illustrator 23.1.0, SVG Export Plug-In . SVG Version: 6.00 Build 0)  -->
<svg version="1.1" id="Capa_1" xmlns="http://www.w3.org/2000/svg" xmlns:xlink="http://www.w3.org/1999/xlink" x="0px" y="0px"
	 viewBox="0 0 80 80" style="enable-background:new 0 0 80 80;" xml:space="preserve">
<style type="text/css">
	.st0{fill:#3B65F5;}
	.st1{fill:#FFFFFF;}
	.st2{fill:#DDDFE0;}
	.st3{fill:#C8CACB;}
	.st4{fill:#BBBDBF;}
</style>
<circle class="st0" cx="40" cy="40" r="39"/>
<g>
	<path class="st1" d="M18.88,49.85c0,0-9.73,0.49-13.01-9.57C1.16,25.85,19.26,1.74,44.96,28.55c0,0,23.32-7.25,28.77,8.38
		c3.85,11.06-2.25,20.34-14.84,18.04C46.29,52.66,18.88,49.85,18.88,49.85z"/>
	<path class="st2" d="M18.61,47.65c0,0-5.19,1.1-9.84-5.36c-2.8-3.89-3.2-8.43-3.07-11.44c-0.78,3.21-0.78,6.51,0.17,9.43
		c3.29,10.06,13.01,9.57,13.01,9.57s9.72,1,20.24,2.29l22.81-2.72C36.44,38.66,18.61,47.65,18.61,47.65z"/>
	<path class="st1" d="M19.26,58.01c0,0-1.16-4.27-0.38-8.16c0,0,4.58-4.94,22.68-4.24c18.1,0.69,20.89,4.24,20.89,4.24
		s1.33,2.67,0,8.16H19.26z"/>
	<g>
		<ellipse class="st3" cx="40.85" cy="58.01" rx="21.59" ry="5.53"/>
		<ellipse class="st4" cx="40.85" cy="58.01" rx="21.08" ry="4.86"/>
	</g>
	<path class="st2" d="M55.24,40.39c0,0-3.75-7.76-7.76-12.48c-1.56,0.34-2.52,0.64-2.52,0.64S52.45,36.04,55.24,40.39z"/>
	<path class="st2" d="M65.53,28.39c0.09,0.08,9.25,8.1,6.7,16.58c-2.56,8.52-9.5,8.04-17.88,5.81c-7.26-1.94-18.53-1.8-26.58,0.03
		c0.42,0.05,0.84,0.09,1.28,0.14c5.49-0.75,14.79-1.45,22.84,0.82c5.32,1.5,8.82,2.71,11.43,3.53c9.54-0.39,13.79-8.7,10.42-18.37
		C72.16,32.41,69.09,29.81,65.53,28.39z"/>
	<path class="st2" d="M22.73,50.34c0,0,11.73-5.36,34.63-0.22C57.37,50.11,39.6,42.85,22.73,50.34z"/>
	<path class="st2" d="M7.03,32.91c0,0,1.36,11.97,11.58,12.63C18.61,45.54,11.39,43.3,7.03,32.91z"/>
</g>
</svg>
