<?xml version="1.0" encoding="utf-8"?>
<!-- Generator: Adobe Illustrator 23.1.0, SVG Export Plug-In . SVG Version: 6.00 Build 0)  -->
<svg version="1.1" id="Capa_1" xmlns="http://www.w3.org/2000/svg" xmlns:xlink="http://www.w3.org/1999/xlink" x="0px" y="0px"
	 viewBox="0 0 150 150" style="enable-background:new 0 0 150 150;" xml:space="preserve">
<style type="text/css">
	.st0{fill:#898D9A;}
	.st1{fill:#FFFFFF;}
</style>
<g>
	<g>
		<path id="XMLID_421_" class="st0" d="M141.37,93.46l-10.92,10.92l-3.04,3.03l-10.86,10.87l-2.17,2.17l-1.17,1.17l-7.92,7.92
			l-1.36,1.36l-10.46,10.45c-4.93,4.94-11.49,7.65-18.46,7.65s-13.53-2.72-18.46-7.65l-10.46-10.46l-1.35-1.35l-7.93-7.92
			l-1.17-1.17l-2.16-2.16l-10.87-10.87l-3.03-3.03L8.65,93.46C3.72,88.53,1,81.97,1,75c0-6.97,2.72-13.53,7.65-18.46L56.54,8.64
			C61.48,3.72,68.03,1,75.01,1s13.53,2.72,18.46,7.64l47.9,47.89C151.54,66.71,151.54,83.28,141.37,93.46z"/>
		<g>
			<g id="XMLID_416_">
				<g id="XMLID_419_">
					<path class="st1" d="M33.4,75.29h8.16c5.88,0,9.91,3.54,9.91,8.98c0,5.44-4.03,8.98-9.91,8.98H33.4V75.29z M41.35,89.83
						c3.57,0,5.9-2.13,5.9-5.57c0-3.44-2.33-5.57-5.9-5.57h-3.8v11.13H41.35z"/>
					<path class="st1" d="M66.16,89.4h-8.34l-1.59,3.85h-4.26l8.01-17.95h4.11l8.03,17.95h-4.36L66.16,89.4z M64.85,86.24L62,79.37
						l-2.85,6.87H64.85z"/>
					<path class="st1" d="M73.98,75.29h4.16v17.95h-4.16V75.29z"/>
					<path class="st1" d="M93.85,93.24l-3.46-5h-0.21h-3.62v5H82.4V75.29h7.78c4.8,0,7.8,2.49,7.8,6.51c0,2.69-1.36,4.67-3.7,5.67
						l4.03,5.77H93.85z M89.94,78.67h-3.39v6.26h3.39c2.54,0,3.82-1.18,3.82-3.13C93.77,79.83,92.49,78.67,89.94,78.67z"/>
					<path class="st1" d="M109.62,86.88v6.36h-4.16v-6.41l-6.95-11.54h4.41l4.8,7.98l4.8-7.98h4.08L109.62,86.88z"/>
				</g>
				<g id="XMLID_417_">
					<path class="st1" d="M45.26,103.38v4.74h8.32v3.33h-8.32V118H41.1v-17.95h13.58v3.33H45.26z"/>
					<path class="st1" d="M68.94,118l-3.46-5h-0.2h-3.62v5h-4.16v-17.95h7.78c4.8,0,7.8,2.49,7.8,6.51c0,2.69-1.36,4.67-3.7,5.67
						l4.03,5.77H68.94z M65.04,103.43h-3.39v6.26h3.39c2.54,0,3.82-1.18,3.82-3.13C68.86,104.59,67.58,103.43,65.04,103.43z"/>
					<path class="st1" d="M90.26,114.67V118H76.35v-17.95h13.58v3.33h-9.44v3.9h8.34v3.23h-8.34v4.16H90.26z"/>
					<path class="st1" d="M107.48,114.67V118H93.57v-17.95h13.58v3.33H97.7v3.9h8.34v3.23H97.7v4.16H107.48z"/>
				</g>
			</g>
			<g>
				<path id="XMLID_415_" class="st1" d="M37.28,69.86h75.43c1.06,0,2.08-0.42,2.83-1.17l5.62-5.62c1.92-1.92,1.92-5.02,0-6.94
					l-42.7-42.7c-0.91-0.91-2.07-1.41-3.35-1.44c-1.41-0.03-2.75,0.59-3.75,1.59c-5.89,5.89-36.51,36.5-42.4,42.4
					c-1,1-1.62,2.34-1.59,3.75c0.03,1.28,0.53,2.43,1.44,3.34l5.62,5.62C35.2,69.44,36.22,69.86,37.28,69.86z"/>
				<path class="st0" d="M84.33,39.12c-1.43-2.75-3.03-5.51-4.51-7.95c-2.83-4.68-5.24-8.18-5.24-8.18S61.47,42.09,60.45,50.54
					c-0.05,0.34-0.07,0.66-0.07,0.97c0,3.25,1.09,6.25,2.93,8.64c2.6,3.38,6.68,5.56,11.28,5.56c7.84,0,14.2-6.36,14.2-14.2
					C88.78,48.59,86.81,43.88,84.33,39.12z M80.72,40.51c0.25,0.45,0.09,1.02-0.36,1.26c-0.14,0.08-0.3,0.12-0.45,0.12
					c-0.33,0-0.64-0.18-0.82-0.48l-2.55-4.61c-0.25-0.45-0.09-1.02,0.36-1.26c0.45-0.25,1.02-0.09,1.26,0.36L80.72,40.51z
					 M76.46,61.69c-0.62,0.11-1.25,0.17-1.88,0.17c-2.76,0-5.36-1.08-7.32-3.03c-0.36-0.37-0.36-0.95,0-1.32
					c0.37-0.36,0.95-0.36,1.32,0c1.61,1.6,3.74,2.49,6,2.49c0.52,0,1.04-0.05,1.54-0.14c4.03-0.74,6.95-4.25,6.95-8.35
					c0-0.65-0.25-2.01-1.45-4.82c-0.2-0.47,0.02-1.02,0.49-1.22c0.48-0.21,1.02,0.02,1.22,0.49c1.07,2.52,1.59,4.33,1.59,5.54
					C84.93,56.5,81.37,60.78,76.46,61.69z"/>
			</g>
		</g>
	</g>
</g>
</svg>
