<?xml version="1.0" encoding="utf-8"?>
<!-- Generator: Adobe Illustrator 23.1.0, SVG Export Plug-In . SVG Version: 6.00 Build 0)  -->
<svg version="1.1" id="Capa_1" xmlns="http://www.w3.org/2000/svg" xmlns:xlink="http://www.w3.org/1999/xlink" x="0px" y="0px"
	 viewBox="0 0 165 100" style="enable-background:new 0 0 165 100;" xml:space="preserve">
<style type="text/css">
	.st0{fill:#898D9A;}
	.st1{fill:#FFFFFF;}
</style>
<g>
	<path id="XMLID_1_" class="st0" d="M18.36,99h128.28c1.81,0,3.54-0.71,4.82-1.99l9.56-9.52c3.26-3.25,3.26-8.51,0-11.75L88.4,3.43
		C86.85,1.89,84.89,1.05,82.72,1c-2.39-0.06-4.68,1-6.38,2.69C66.32,13.66,14.26,65.5,4.23,75.48c-1.69,1.69-2.76,3.96-2.7,6.35
		c0.05,2.17,0.89,4.12,2.44,5.66l9.56,9.52C14.82,98.29,16.55,99,18.36,99z"/>
	<g>
		<path id="XMLID_171_" class="st1" d="M28.08,91.58h108.85c1.53,0,3-0.61,4.09-1.69l8.12-8.08c2.77-2.75,2.77-7.22,0-9.97
			L87.51,10.49c-1.32-1.31-2.98-2.02-4.83-2.06c-2.03-0.05-3.97,0.85-5.41,2.28c-8.5,8.46-52.68,52.45-61.18,60.92
			c-1.44,1.43-2.34,3.36-2.29,5.39c0.04,1.84,0.76,3.5,2.07,4.8l8.11,8.08C25.07,90.97,26.54,91.58,28.08,91.58z"/>
	</g>
</g>
<path class="st0" d="M96.8,46.89c-2.1-4.03-4.44-8.08-6.61-11.66c-4.15-6.86-7.68-12-7.68-12s-19.23,28.02-20.72,40.4
	c-0.07,0.5-0.1,0.97-0.1,1.42c0,4.76,1.6,9.16,4.29,12.66c3.81,4.96,9.8,8.16,16.53,8.16c11.5,0,20.81-9.32,20.81-20.82
	C103.32,60.77,100.42,53.86,96.8,46.89z M91.49,48.93c0.36,0.66,0.13,1.49-0.53,1.85c-0.21,0.12-0.43,0.17-0.66,0.17
	c-0.48,0-0.94-0.26-1.2-0.71l-3.74-6.76c-0.36-0.66-0.13-1.49,0.53-1.85c0.66-0.36,1.49-0.13,1.85,0.53L91.49,48.93z M85.26,79.98
	c-0.9,0.16-1.83,0.25-2.76,0.25c-4.05,0-7.86-1.58-10.73-4.45c-0.53-0.54-0.53-1.4,0-1.93c0.54-0.53,1.4-0.53,1.93,0
	c2.36,2.35,5.48,3.65,8.8,3.65c0.76,0,1.52-0.07,2.26-0.21c5.91-1.08,10.19-6.23,10.19-12.24c0-0.95-0.36-2.95-2.12-7.07
	c-0.29-0.69,0.03-1.49,0.72-1.78c0.7-0.3,1.5,0.03,1.79,0.72c1.57,3.69,2.34,6.35,2.34,8.13C97.68,72.38,92.46,78.65,85.26,79.98z"
	/>
</svg>
