<?xml version="1.0" encoding="utf-8"?>
<!-- Generator: Adobe Illustrator 23.1.0, SVG Export Plug-In . SVG Version: 6.00 Build 0)  -->
<svg version="1.1" id="Capa_1" xmlns="http://www.w3.org/2000/svg" xmlns:xlink="http://www.w3.org/1999/xlink" x="0px" y="0px"
	 viewBox="0 0 165 100" style="enable-background:new 0 0 165 100;" xml:space="preserve">
<style type="text/css">
	.st0{fill:#898D9A;}
	.st1{fill:#FFFFFF;}
</style>
<g>
	<path id="XMLID_1_" class="st0" d="M18.36,99h128.28c1.81,0,3.54-0.71,4.82-1.99l9.56-9.52c3.26-3.25,3.26-8.51,0-11.75L88.4,3.43
		C86.85,1.89,84.89,1.05,82.72,1c-2.39-0.06-4.68,1-6.38,2.69C66.32,13.66,14.26,65.5,4.23,75.48c-1.69,1.69-2.76,3.96-2.7,6.35
		c0.05,2.17,0.89,4.12,2.44,5.66l9.56,9.52C14.82,98.29,16.55,99,18.36,99z"/>
	<g>
		<path id="XMLID_171_" class="st1" d="M28.08,91.58h108.85c1.53,0,3-0.61,4.09-1.69l8.12-8.08c2.77-2.75,2.77-7.22,0-9.97
			L87.51,10.49c-1.32-1.31-2.98-2.02-4.83-2.06c-2.03-0.05-3.97,0.85-5.41,2.28c-8.5,8.46-52.68,52.45-61.18,60.92
			c-1.44,1.43-2.34,3.36-2.29,5.39c0.04,1.84,0.76,3.5,2.07,4.8l8.11,8.08C25.07,90.97,26.54,91.58,28.08,91.58z"/>
	</g>
</g>
<g>
	<g>
		<g>
			<path class="st0" d="M65.66,68.09c0,0-1.33-5.34-4.91-4.77c-3.59,0.57-5.3-0.39-5.3-0.39S54.32,72.16,65.66,68.09z"/>
			<path class="st0" d="M60.3,60.65c0,0,1.14-4.21-1.56-5.2s-3.52-2.31-3.52-2.31S50.88,59.08,60.3,60.65z"/>
			<path class="st0" d="M100.3,68.09c0,0,1.33-5.34,4.91-4.77c3.59,0.57,5.3-0.39,5.3-0.39S111.65,72.16,100.3,68.09z"/>
			<path class="st0" d="M105.66,60.65c0,0-1.14-4.21,1.56-5.2s3.52-2.31,3.52-2.31S115.09,59.08,105.66,60.65z"/>
			<path class="st0" d="M95.52,56.89c0,0-1.98,2.27-7.46,3.3c-3.09,0.59-4.17,3.52-4.52,5.96v-6.62
				c18.37-0.05,11.98-12.74,11.98-12.74s-1.98,2.27-7.46,3.3c-3.09,0.59-4.17,3.52-4.52,5.96v-5.31c7.59-0.39,8.03-10.82,5.38-12.83
				c-2.74-2.08-6.14-8.4-6.14-8.4s-3.4,6.33-6.14,8.4c-2.65,2.01-2.2,12.44,5.38,12.83v5.2c-0.37-2.42-1.45-5.28-4.5-5.86
				c-5.48-1.04-7.46-3.3-7.46-3.3s-6.38,12.68,11.96,12.74v6.52c-0.37-2.42-1.45-5.28-4.5-5.86c-5.48-1.04-7.46-3.3-7.46-3.3
				s-6.38,12.68,11.96,12.74v6.52c-0.37-2.42-1.45-5.28-4.5-5.86c-5.48-1.04-7.46-3.3-7.46-3.3s-6.38,12.68,11.96,12.74v9.07
				c0,0.42,0.34,0.76,0.76,0.76c0.42,0,0.76-0.34,0.76-0.76v-9.07c18.37-0.05,11.98-12.74,11.98-12.74s-1.98,2.27-7.46,3.3
				c-3.09,0.59-4.17,3.52-4.52,5.96v-6.62C101.91,69.58,95.52,56.89,95.52,56.89z"/>
		</g>
		<circle class="st0" cx="62.23" cy="35.77" r="1.68"/>
		<circle class="st0" cx="101.98" cy="35.77" r="1.68"/>
		<circle class="st0" cx="82.99" cy="23.52" r="1.68"/>
	</g>
</g>
</svg>
