<?xml version="1.0" encoding="utf-8"?>
<!-- Generator: Adobe Illustrator 23.1.0, SVG Export Plug-In . SVG Version: 6.00 Build 0)  -->
<svg version="1.1" id="Capa_1" xmlns="http://www.w3.org/2000/svg" xmlns:xlink="http://www.w3.org/1999/xlink" x="0px" y="0px"
	 viewBox="0 0 150 150" style="enable-background:new 0 0 150 150;" xml:space="preserve">
<style type="text/css">
	.st0{fill:#898D9A;}
	.st1{fill:#FFFFFF;}
	.st2{fill:#61AAEA;}
</style>
<g>
	<g>
		<path id="XMLID_421_" class="st0" d="M141.37,93.46l-10.92,10.92l-3.04,3.03l-10.86,10.87l-2.17,2.17l-1.17,1.17l-7.92,7.92
			l-1.36,1.36l-10.46,10.45c-4.93,4.94-11.49,7.65-18.46,7.65s-13.53-2.72-18.46-7.65l-10.46-10.46l-1.35-1.35l-7.93-7.92
			l-1.17-1.17l-2.16-2.16l-10.87-10.87l-3.03-3.03L8.65,93.46C3.72,88.53,1,81.97,1,75c0-6.97,2.72-13.53,7.65-18.46L56.54,8.64
			C61.48,3.72,68.03,1,75.01,1s13.53,2.72,18.46,7.64l47.9,47.89C151.54,66.71,151.54,83.28,141.37,93.46z"/>
		<g>
			<g>
				<path id="XMLID_415_" class="st1" d="M37.28,69.86h75.43c1.06,0,2.08-0.42,2.83-1.17l5.62-5.62c1.92-1.92,1.92-5.02,0-6.94
					l-42.7-42.7c-0.91-0.91-2.07-1.41-3.35-1.44c-1.41-0.03-2.75,0.59-3.75,1.59c-5.89,5.89-36.51,36.5-42.4,42.4
					c-1,1-1.62,2.34-1.59,3.75c0.03,1.28,0.53,2.43,1.44,3.34l5.62,5.62C35.2,69.44,36.22,69.86,37.28,69.86z"/>
				<path class="st2" d="M84.33,39.12c-1.43-2.75-3.03-5.51-4.51-7.95c-2.83-4.68-5.24-8.18-5.24-8.18S61.47,42.09,60.45,50.54
					c-0.05,0.34-0.07,0.66-0.07,0.97c0,3.25,1.09,6.25,2.93,8.64c2.6,3.38,6.68,5.56,11.28,5.56c7.84,0,14.2-6.36,14.2-14.2
					C88.78,48.59,86.81,43.88,84.33,39.12z M80.72,40.51c0.25,0.45,0.09,1.02-0.36,1.26c-0.14,0.08-0.3,0.12-0.45,0.12
					c-0.33,0-0.64-0.18-0.82-0.48l-2.55-4.61c-0.25-0.45-0.09-1.02,0.36-1.26c0.45-0.25,1.02-0.09,1.26,0.36L80.72,40.51z
					 M76.46,61.69c-0.62,0.11-1.25,0.17-1.88,0.17c-2.76,0-5.36-1.08-7.32-3.03c-0.36-0.37-0.36-0.95,0-1.32
					c0.37-0.36,0.95-0.36,1.32,0c1.61,1.6,3.74,2.49,6,2.49c0.52,0,1.04-0.05,1.54-0.14c4.03-0.74,6.95-4.25,6.95-8.35
					c0-0.65-0.25-2.01-1.45-4.82c-0.2-0.47,0.02-1.02,0.49-1.22c0.48-0.21,1.02,0.02,1.22,0.49c1.07,2.52,1.59,4.33,1.59,5.54
					C84.93,56.5,81.37,60.78,76.46,61.69z"/>
			</g>
		</g>
	</g>
</g>
<g>
	<path id="XMLID_96_" class="st1" d="M37.28,69.86h75.43c1.06,0,2.08-0.42,2.83-1.17l5.62-5.62c1.92-1.92,1.92-5.02,0-6.94
		l-42.7-42.7c-0.91-0.91-2.07-1.41-3.35-1.44c-1.41-0.03-2.75,0.59-3.75,1.59c-5.89,5.89-36.51,36.5-42.4,42.4
		c-1,1-1.62,2.34-1.59,3.75c0.03,1.28,0.53,2.43,1.44,3.34l5.62,5.62C35.2,69.44,36.22,69.86,37.28,69.86z"/>
	<g>
		<g>
			<path class="st0" d="M63.11,53.51c0,0-0.92-3.72-3.42-3.32c-2.5,0.4-3.69-0.27-3.69-0.27S55.22,56.35,63.11,53.51z"/>
			<path class="st0" d="M59.38,48.33c0,0,0.8-2.93-1.08-3.62c-1.88-0.69-2.45-1.61-2.45-1.61S52.82,47.24,59.38,48.33z"/>
			<path class="st0" d="M87.22,53.51c0,0,0.92-3.72,3.42-3.32c2.5,0.4,3.69-0.27,3.69-0.27S95.11,56.35,87.22,53.51z"/>
			<path class="st0" d="M90.95,48.33c0,0-0.8-2.93,1.08-3.62c1.88-0.69,2.45-1.61,2.45-1.61S97.51,47.24,90.95,48.33z"/>
			<path class="st0" d="M83.89,45.72c0,0-1.38,1.58-5.19,2.3c-2.15,0.41-2.9,2.45-3.14,4.15v-4.61c12.78-0.04,8.33-8.87,8.33-8.87
				s-1.38,1.58-5.19,2.3c-2.15,0.41-2.9,2.45-3.14,4.15v-3.69c5.28-0.27,5.59-7.53,3.75-8.93c-1.91-1.45-4.27-5.85-4.27-5.85
				s-2.37,4.4-4.27,5.85c-1.85,1.4-1.53,8.66,3.75,8.93v3.62c-0.25-1.69-1.01-3.67-3.13-4.08c-3.81-0.72-5.19-2.3-5.19-2.3
				s-4.44,8.83,8.32,8.87v4.54c-0.25-1.69-1.01-3.67-3.13-4.08c-3.81-0.72-5.19-2.3-5.19-2.3s-4.44,8.83,8.32,8.87v4.54
				c-0.25-1.69-1.01-3.67-3.13-4.08c-3.81-0.72-5.19-2.3-5.19-2.3s-4.44,8.83,8.32,8.87v6.31c0,0.29,0.24,0.53,0.53,0.53
				s0.53-0.24,0.53-0.53v-6.31c12.78-0.04,8.33-8.87,8.33-8.87s-1.38,1.58-5.19,2.3c-2.15,0.41-2.9,2.45-3.14,4.15v-4.61
				C88.34,54.55,83.89,45.72,83.89,45.72z"/>
		</g>
		<circle class="st0" cx="60.72" cy="31.02" r="1.17"/>
		<circle class="st0" cx="88.39" cy="31.02" r="1.17"/>
		<circle class="st0" cx="75.17" cy="22.49" r="1.17"/>
	</g>
</g>
<g id="XMLID_66_">
	<g id="XMLID_89_">
		<path class="st1" d="M38,83.05h3.5v6.72c-1.82,1.37-4.33,2.11-6.7,2.11c-5.21,0-9.04-3.57-9.04-8.57s3.83-8.57,9.11-8.57
			c2.91,0,5.32,0.99,6.93,2.86l-2.46,2.27c-1.21-1.28-2.6-1.87-4.28-1.87c-3.22,0-5.42,2.15-5.42,5.3c0,3.1,2.2,5.3,5.37,5.3
			c1.04,0,2.01-0.19,2.98-0.71V83.05z"/>
		<path class="st1" d="M45.05,75.03h3.83v13.44h8.31v3.12H45.05V75.03z"/>
		<path class="st1" d="M58.99,84.31v-9.28h3.83v9.13c0,3.15,1.37,4.45,3.69,4.45c2.34,0,3.69-1.3,3.69-4.45v-9.13H74v9.28
			c0,4.88-2.79,7.57-7.5,7.57C61.78,91.88,58.99,89.18,58.99,84.31z"/>
		<path class="st1" d="M80.93,78.15h-5.3v-3.12h14.44v3.12h-5.3v13.44h-3.83V78.15z"/>
		<path class="st1" d="M104.95,88.52v3.08H92.12V75.03h12.52v3.08h-8.71v3.6h7.69v2.98h-7.69v3.83H104.95z"/>
		<path class="st1" d="M123.19,75.03v16.57h-3.15l-8.26-10.06v10.06H108V75.03h3.17l8.24,10.06V75.03H123.19z"/>
	</g>
	<g id="XMLID_70_">
		<path class="st1" d="M48.73,101.89v4.38h7.67v3.08h-7.67v6.04H44.9V98.82h12.52v3.08H48.73z"/>
		<path class="st1" d="M70.57,115.38l-3.19-4.62h-0.19h-3.34v4.62h-3.83V98.82h7.17c4.43,0,7.19,2.3,7.19,6.01
			c0,2.49-1.25,4.31-3.41,5.23l3.72,5.33H70.57z M66.98,101.94h-3.12v5.77h3.12c2.34,0,3.53-1.09,3.53-2.89
			C70.5,103,69.32,101.94,66.98,101.94z"/>
		<path class="st1" d="M90.24,112.31v3.08H77.41V98.82h12.52v3.08h-8.71v3.6h7.69v2.98h-7.69v3.83H90.24z"/>
		<path class="st1" d="M106.11,112.31v3.08H93.29V98.82h12.52v3.08H97.1v3.6h7.69v2.98H97.1v3.83H106.11z"/>
	</g>
</g>
</svg>
