<?xml version="1.0" encoding="utf-8"?>
<!-- Generator: Adobe Illustrator 23.1.0, SVG Export Plug-In . SVG Version: 6.00 Build 0)  -->
<svg version="1.1" id="Capa_1" xmlns="http://www.w3.org/2000/svg" xmlns:xlink="http://www.w3.org/1999/xlink" x="0px" y="0px"
	 viewBox="0 0 150 150" style="enable-background:new 0 0 150 150;" xml:space="preserve">
<style type="text/css">
	.st0{fill:#83BA51;}
	.st1{fill:#FFFFFF;}
	.st2{fill:#61AAEA;}
</style>
<g>
	<g>
		<path id="XMLID_421_" class="st0" d="M141.37,93.46l-10.92,10.92l-3.04,3.03l-10.86,10.87l-2.17,2.17l-1.17,1.17l-7.92,7.92
			l-1.36,1.36l-10.46,10.45c-4.93,4.94-11.49,7.65-18.46,7.65s-13.53-2.72-18.46-7.65l-10.46-10.46l-1.35-1.35l-7.93-7.92
			l-1.17-1.17l-2.16-2.16l-10.87-10.87l-3.03-3.03L8.65,93.46C3.72,88.53,1,81.97,1,75c0-6.97,2.72-13.53,7.65-18.46L56.54,8.64
			C61.48,3.72,68.03,1,75.01,1s13.53,2.72,18.46,7.64l47.9,47.89C151.54,66.71,151.54,83.28,141.37,93.46z"/>
		<g>
			<g>
				<path id="XMLID_415_" class="st1" d="M37.28,69.86h75.43c1.06,0,2.08-0.42,2.83-1.17l5.62-5.62c1.92-1.92,1.92-5.02,0-6.94
					l-42.7-42.7c-0.91-0.91-2.07-1.41-3.35-1.44c-1.41-0.03-2.75,0.59-3.75,1.59c-5.89,5.89-36.51,36.5-42.4,42.4
					c-1,1-1.62,2.34-1.59,3.75c0.03,1.28,0.53,2.43,1.44,3.34l5.62,5.62C35.2,69.44,36.22,69.86,37.28,69.86z"/>
				<path class="st2" d="M84.33,39.12c-1.43-2.75-3.03-5.51-4.51-7.95c-2.83-4.68-5.24-8.18-5.24-8.18S61.47,42.09,60.45,50.54
					c-0.05,0.34-0.07,0.66-0.07,0.97c0,3.25,1.09,6.25,2.93,8.64c2.6,3.38,6.68,5.56,11.28,5.56c7.84,0,14.2-6.36,14.2-14.2
					C88.78,48.59,86.81,43.88,84.33,39.12z M80.72,40.51c0.25,0.45,0.09,1.02-0.36,1.26c-0.14,0.08-0.3,0.12-0.45,0.12
					c-0.33,0-0.64-0.18-0.82-0.48l-2.55-4.61c-0.25-0.45-0.09-1.02,0.36-1.26c0.45-0.25,1.02-0.09,1.26,0.36L80.72,40.51z
					 M76.46,61.69c-0.62,0.11-1.25,0.17-1.88,0.17c-2.76,0-5.36-1.08-7.32-3.03c-0.36-0.37-0.36-0.95,0-1.32
					c0.37-0.36,0.95-0.36,1.32,0c1.61,1.6,3.74,2.49,6,2.49c0.52,0,1.04-0.05,1.54-0.14c4.03-0.74,6.95-4.25,6.95-8.35
					c0-0.65-0.25-2.01-1.45-4.82c-0.2-0.47,0.02-1.02,0.49-1.22c0.48-0.21,1.02,0.02,1.22,0.49c1.07,2.52,1.59,4.33,1.59,5.54
					C84.93,56.5,81.37,60.78,76.46,61.69z"/>
			</g>
		</g>
	</g>
</g>
<g>
	<path id="XMLID_171_" class="st1" d="M37.22,69.86h75.56c1.06,0,2.09-0.42,2.84-1.18l5.63-5.63c1.92-1.92,1.92-5.03,0-6.95
		L78.48,13.33c-0.91-0.91-2.07-1.41-3.35-1.44c-1.41-0.03-2.76,0.59-3.76,1.59c-5.9,5.9-36.57,36.57-42.47,42.47
		c-1,1-1.62,2.35-1.59,3.76c0.03,1.28,0.53,2.44,1.44,3.35l5.63,5.63C35.13,69.44,36.15,69.86,37.22,69.86z"/>
	<g>
		<path class="st0" d="M56.57,36.16c0.75,0.96,1.86,1.91,2.66,3.14c3.59,5.22,10.28,16.11,15.5,27.45
			c9.65-5.78,1.91-19.65,1.91-19.65l-0.56,1.84c-3.41-7.46-10.07-11.28-10.07-11.28l0.24,1.61c-3.04-3.82-10.82-5.36-10.82-5.36
			s-2.5,7.52-0.67,12.06l-1.28-1c0,0,0.04,7.67,4.84,14.32l-1.88-0.42c0,0,7.72,12.69,17.07,8.52c0,0-7.94-17.73-14.61-27.92
			C57.46,37.37,56.57,36.16,56.57,36.16z"/>
		<path class="st0" d="M69.86,31.12c0,0.46-0.37,0.83-0.83,0.83s-0.83-0.37-0.83-0.83c0-0.46,0.37-0.83,0.83-0.83
			S69.86,30.66,69.86,31.12z"/>
		<path class="st0" d="M83.09,31.12c0,0.46-0.37,0.83-0.83,0.83c-0.46,0-0.83-0.37-0.83-0.83c0-0.46,0.37-0.83,0.83-0.83
			C82.71,30.29,83.09,30.66,83.09,31.12z"/>
		<path class="st0" d="M76.56,26.08c0,0.46-0.37,0.83-0.83,0.83c-0.46,0-0.83-0.37-0.83-0.83c0-0.46,0.37-0.83,0.83-0.83
			C76.19,25.25,76.56,25.62,76.56,26.08z"/>
		<path class="st0" d="M96.53,44.52l-1.28,1c1.83-4.53-0.67-12.06-0.67-12.06S86.79,35,83.75,38.82l0.24-1.61
			c0,0-4.2,2.41-7.63,7.14c1.16,2.13,3.46,6.76,4.26,11.51c3.96-7.16,7.85-13.37,10.3-16.93c0.8-1.23,1.78-2.25,2.52-3.21
			c0,0-0.82,1.41-2.27,3.51c-3.53,5.39-7.42,12.82-10.32,18.64c0.25,3.59-0.58,7.06-3.61,9.37c9.02,3.2,16.33-8.81,16.33-8.81
			l-1.88,0.42C96.49,52.19,96.53,44.52,96.53,44.52z"/>
	</g>
</g>
<g>
	<g id="XMLID_101_">
		<g id="XMLID_147_">
			<path class="st1" d="M44.24,75.93l-8.71,20.11h-4.6l-8.68-20.11h5.03l6.12,14.36l6.21-14.36H44.24z"/>
			<path class="st1" d="M61.48,92.31v3.73H45.91V75.93h15.2v3.73H50.53v4.37h9.34v3.62h-9.34v4.65H61.48z"/>
			<path class="st1" d="M78.72,85.67h4.25v8.16c-2.21,1.67-5.26,2.56-8.13,2.56c-6.32,0-10.98-4.34-10.98-10.4
				c0-6.06,4.66-10.4,11.06-10.4c3.53,0,6.47,1.21,8.42,3.48l-2.99,2.76c-1.47-1.55-3.16-2.27-5.2-2.27c-3.91,0-6.58,2.61-6.58,6.43
				c0,3.76,2.67,6.43,6.52,6.43c1.26,0,2.44-0.23,3.62-0.86V85.67z"/>
			<path class="st1" d="M100.53,91.73h-9.34l-1.78,4.31h-4.77l8.97-20.11h4.6l8.99,20.11h-4.88L100.53,91.73z M99.06,88.2l-3.19-7.7
				l-3.19,7.7H99.06z"/>
			<path class="st1" d="M127.74,75.93v20.11h-3.82l-10.03-12.21v12.21h-4.6V75.93h3.85l10,12.21V75.93H127.74z"/>
		</g>
	</g>
</g>
</svg>
