<?xml version="1.0" encoding="utf-8"?>
<!-- Generator: Adobe Illustrator 23.1.0, SVG Export Plug-In . SVG Version: 6.00 Build 0)  -->
<svg version="1.1" id="Capa_1" xmlns="http://www.w3.org/2000/svg" xmlns:xlink="http://www.w3.org/1999/xlink" x="0px" y="0px"
	 viewBox="0 0 165 100" style="enable-background:new 0 0 165 100;" xml:space="preserve">
<style type="text/css">
	.st0{fill:#898D9A;}
	.st1{fill:#FFFFFF;}
</style>
<g>
	<path id="XMLID_1_" class="st0" d="M18.36,99h128.28c1.81,0,3.54-0.71,4.82-1.99l9.56-9.52c3.26-3.25,3.26-8.51,0-11.75L88.4,3.43
		C86.85,1.89,84.89,1.05,82.72,1c-2.39-0.06-4.68,1-6.38,2.69C66.32,13.66,14.26,65.5,4.23,75.48c-1.69,1.69-2.76,3.96-2.7,6.35
		c0.05,2.17,0.89,4.12,2.44,5.66l9.56,9.52C14.82,98.29,16.55,99,18.36,99z"/>
	<g>
		<path id="XMLID_171_" class="st1" d="M28.08,91.58h108.85c1.53,0,3-0.61,4.09-1.69l8.12-8.08c2.77-2.75,2.77-7.22,0-9.97
			L87.51,10.49c-1.32-1.31-2.98-2.02-4.83-2.06c-2.03-0.05-3.97,0.85-5.41,2.28c-8.5,8.46-52.68,52.45-61.18,60.92
			c-1.44,1.43-2.34,3.36-2.29,5.39c0.04,1.84,0.76,3.5,2.07,4.8l8.11,8.08C25.07,90.97,26.54,91.58,28.08,91.58z"/>
		<g>
			<path class="st0" d="M55.95,43.24c1.08,1.38,2.67,2.74,3.83,4.5c5.17,7.48,14.81,23.1,22.33,39.37
				c13.9-8.29,2.75-28.19,2.75-28.19l-0.81,2.64c-4.92-10.7-14.51-16.18-14.51-16.18l0.34,2.31C65.51,42.21,54.31,40,54.31,40
				s-3.6,10.79-0.97,17.29l-1.85-1.44c0,0,0.06,11.01,6.98,20.54l-2.71-0.61c0,0,11.12,18.2,24.59,12.22
				c0,0-11.44-25.43-21.04-40.05C57.23,44.97,55.95,43.24,55.95,43.24z"/>
			<path class="st0" d="M75.1,36.01c0,0.66-0.54,1.19-1.2,1.19s-1.2-0.53-1.2-1.19c0-0.66,0.54-1.19,1.2-1.19S75.1,35.35,75.1,36.01
				z"/>
			<path class="st0" d="M94.15,36.01c0,0.66-0.54,1.19-1.2,1.19c-0.66,0-1.2-0.53-1.2-1.19c0-0.66,0.54-1.19,1.2-1.19
				C93.61,34.81,94.15,35.35,94.15,36.01z"/>
			<path class="st0" d="M84.75,28.78c0,0.66-0.54,1.19-1.2,1.19c-0.66,0-1.2-0.53-1.2-1.19c0-0.66,0.54-1.19,1.2-1.19
				C84.21,27.59,84.75,28.12,84.75,28.78z"/>
			<path class="st0" d="M113.51,55.22l-1.85,1.44c2.63-6.5-0.97-17.29-0.97-17.29s-11.2,2.2-15.59,7.69l0.34-2.31
				c0,0-6.05,3.46-11,10.24c1.68,3.05,4.98,9.69,6.13,16.51c5.7-10.26,11.3-19.18,14.84-24.29c1.16-1.76,2.56-3.23,3.64-4.61
				c0,0-1.19,2.03-3.26,5.03c-5.08,7.73-10.69,18.39-14.86,26.73c0.36,5.15-0.83,10.13-5.21,13.44
				c12.99,4.59,23.52-12.64,23.52-12.64l-2.71,0.61C113.46,66.23,113.51,55.22,113.51,55.22z"/>
		</g>
	</g>
</g>
</svg>
