<?xml version="1.0" encoding="utf-8"?>
<!-- Generator: Adobe Illustrator 23.1.0, SVG Export Plug-In . SVG Version: 6.00 Build 0)  -->
<svg version="1.1" id="Capa_1" xmlns="http://www.w3.org/2000/svg" xmlns:xlink="http://www.w3.org/1999/xlink" x="0px" y="0px"
	 viewBox="0 0 803.5 148" style="enable-background:new 0 0 803.5 148;" xml:space="preserve">
<style type="text/css">
	.st0{fill:#898D9A;}
	.st1{fill:#FFFFFF;}
	.st2{fill:none;}
	.st3{font-family:'Montserrat-Bold';}
	.st4{font-size:81.353px;}
</style>
<path class="st0" d="M783.95,148H19.56C8.76,148,0,139.24,0,128.44V19.56C0,8.76,8.76,0,19.56,0h764.39
	c10.8,0,19.56,8.76,19.56,19.56v108.88C803.5,139.24,794.75,148,783.95,148z"/>
<g>
	<path id="XMLID_1_" class="st1" d="M36.72,135.81h158.84c2.24,0,4.38-0.89,5.97-2.47l11.84-11.84c4.04-4.04,4.04-10.58,0-14.62
		l-89.92-89.91c-1.92-1.92-4.35-2.96-7.04-3.03c-2.97-0.07-5.8,1.24-7.89,3.34c-12.4,12.4-76.87,76.87-89.28,89.28
		c-2.1,2.1-3.41,4.93-3.34,7.9c0.06,2.69,1.11,5.12,3.02,7.04l11.84,11.84C32.33,134.92,34.48,135.81,36.72,135.81z"/>
	<g>
		<g>
			<path class="st0" d="M84.99,102.03c0,0-10.48-12.4,1.27-23.14l0.58,1.24c0,0,0.98-3.02,3.27-5.14l0.15,1.5
				c0,0,2.65-3.49,5.09-4.48l-0.47,1.79l6.33-4.34l-0.47,1.79l5.76-2.85l-0.22,0.85l6.47-1.75l-1.28,4.85l1.5-0.51
				c0,0-0.25,4.39-0.84,5.97l1.12-0.43c0,0-1.47,4.53-2.19,5.88l2.17-1.34c0,0-1.93,5.95-3.1,7.28l1.98-0.94
				c0,0-1.21,4.23-3.47,5.91c0,0-3.59,12.36-20.57,9.8c0,0-3.17,6.42-3.16,8.79c0,0-1.48,0.43-1.42-0.83
				c0.06-1.26,11.12-29.1,22.14-36.75C105.62,75.16,98.6,77.32,84.99,102.03z"/>
			<path class="st0" d="M128.8,71.96c0,0,14.97-6.28,21.7,8.14l-1.36,0.18c0,0,2.59,1.84,3.93,4.66l-1.47-0.3
				c0,0,2.54,3.57,2.75,6.2l-1.56-0.98l2.24,7.34l-1.56-0.98l1,6.35l-0.74-0.47l-0.26,6.7l-4.25-2.67l0.04,1.59
				c0,0-4.12-1.55-5.44-2.59l0.08,1.19c0,0-3.88-2.75-4.96-3.85l0.63,2.47c0,0-5.1-3.62-6.02-5.14l0.3,2.16c0,0-3.68-2.42-4.6-5.08
				c0,0-10.72-7.13-3.19-22.56c0,0-5.18-4.95-7.44-5.65c0,0,0.03-1.54,1.22-1.11c1.18,0.43,24.44,19.32,28.44,32.13
				C148.26,99.69,148.31,92.34,128.8,71.96z"/>
			<path class="st0" d="M134.46,121.24c0,0-5.64,15.22-20.77,10.28l0.8-1.12c0,0-3.11,0.63-6.09-0.31l1.23-0.87
				c0,0-4.34-0.59-6.41-2.23l1.79-0.47l-6.89-3.38l1.79-0.47l-5.32-3.61l0.85-0.22l-4.71-4.77l4.85-1.27l-1.19-1.05
				c0,0,3.95-1.95,5.61-2.2l-0.93-0.76c0,0,4.66-0.95,6.2-0.99l-2.23-1.23c0,0,6.13-1.25,7.87-0.88l-1.79-1.26
				c0,0,4.28-1.03,6.85,0.11c0,0,12.53-2.95,18.66,13.09c0,0,7.15-0.4,9.21-1.57c0,0,1.1,1.08-0.02,1.64
				c-1.12,0.57-30.81,4.64-42.9-1.19C100.92,116.5,106.25,121.56,134.46,121.24z"/>
			<path class="st2" d="M136.26,126.32c-0.11,0.2-0.23,0.39-0.34,0.58h17.92c2.93,0,5.54-1.53,6.96-4.09
				c1.43-2.56,1.36-5.58-0.18-8.07l-3.13-5.06l-1.75,2.45C155.74,112.12,141.38,117.28,136.26,126.32z"/>
			<path class="st2" d="M79.04,122.8c1.43,2.56,4.03,4.09,6.96,4.09h17.11l-4.87-3.33l-6.57-5.57c0,0-2.52-11.79-4.58-13.32
				c-0.32-0.24-0.66-0.62-0.98-1.1l-6.9,11.16C77.68,117.23,77.61,120.24,79.04,122.8z"/>
			<path class="st2" d="M119.92,56.08c-2.78,0-5.32,1.41-6.78,3.78l-3.75,6.07l1.18-0.44l-0.12,2.41l6.57-1
				c0,0,8.92,6.34,12.67,3.64c0.75-0.54,1.76-0.92,2.88-1.17l-5.87-9.5C125.24,57.49,122.7,56.08,119.92,56.08z"/>
		</g>
		<path class="st0" d="M116.61,57.64c-0.31,0-0.56-0.25-0.56-0.56V33.12c0-0.31,0.25-0.56,0.56-0.56c0.31,0,0.56,0.25,0.56,0.56
			v23.95C117.18,57.39,116.92,57.64,116.61,57.64z"/>
		<path class="st0" d="M107.37,60.24c-0.17,0-0.34-0.08-0.45-0.23L92.75,40.69c-0.18-0.25-0.13-0.6,0.12-0.79
			c0.25-0.18,0.6-0.13,0.79,0.12l14.16,19.31c0.18,0.25,0.13,0.6-0.12,0.78C107.6,60.2,107.48,60.24,107.37,60.24z"/>
		<path class="st0" d="M126.35,60.24c-0.12,0-0.23-0.04-0.33-0.11c-0.25-0.18-0.3-0.53-0.12-0.78l14.16-19.31
			c0.18-0.25,0.54-0.3,0.79-0.12c0.25,0.18,0.3,0.53,0.12,0.79L126.8,60.01C126.69,60.16,126.52,60.24,126.35,60.24z"/>
	</g>
</g>
<g id="XMLID_2_">
	<g id="XMLID_3_">
		<text transform="matrix(1.0001 0 0 1 223.869 108.6725)" class="st1 st3 st4">VEGETARIAN</text>
	</g>
</g>
</svg>
