<?xml version="1.0" encoding="utf-8"?>
<!-- Generator: Adobe Illustrator 23.1.0, SVG Export Plug-In . SVG Version: 6.00 Build 0)  -->
<svg version="1.1" id="Capa_1" xmlns="http://www.w3.org/2000/svg" xmlns:xlink="http://www.w3.org/1999/xlink" x="0px" y="0px"
	 viewBox="0 0 150 150" style="enable-background:new 0 0 150 150;" xml:space="preserve">
<style type="text/css">
	.st0{fill:#D45F7B;}
	.st1{fill:#FFFFFF;}
	.st2{fill:#61AAEA;}
	.st3{fill:#898D9A;}
	.st4{fill:none;}
</style>
<g>
	<g>
		<path id="XMLID_421_" class="st0" d="M141.37,93.46l-10.92,10.92l-3.04,3.03l-10.86,10.87l-2.17,2.17l-1.17,1.17l-7.92,7.92
			l-1.36,1.36l-10.46,10.45c-4.93,4.94-11.49,7.65-18.46,7.65s-13.53-2.72-18.46-7.65l-10.46-10.46l-1.35-1.35l-7.93-7.92
			l-1.17-1.17l-2.16-2.16l-10.87-10.87l-3.03-3.03L8.65,93.46C3.72,88.53,1,81.97,1,75c0-6.97,2.72-13.53,7.65-18.46L56.54,8.64
			C61.48,3.72,68.03,1,75.01,1s13.53,2.72,18.46,7.64l47.9,47.89C151.54,66.71,151.54,83.28,141.37,93.46z"/>
		<g>
			<g>
				<path id="XMLID_415_" class="st1" d="M37.28,69.86h75.43c1.06,0,2.08-0.42,2.83-1.17l5.62-5.62c1.92-1.92,1.92-5.02,0-6.94
					l-42.7-42.7c-0.91-0.91-2.07-1.41-3.35-1.44c-1.41-0.03-2.75,0.59-3.75,1.59c-5.89,5.89-36.51,36.5-42.4,42.4
					c-1,1-1.62,2.34-1.59,3.75c0.03,1.28,0.53,2.43,1.44,3.34l5.62,5.62C35.2,69.44,36.22,69.86,37.28,69.86z"/>
				<path class="st2" d="M84.33,39.12c-1.43-2.75-3.03-5.51-4.51-7.95c-2.83-4.68-5.24-8.18-5.24-8.18S61.47,42.09,60.45,50.54
					c-0.05,0.34-0.07,0.66-0.07,0.97c0,3.25,1.09,6.25,2.93,8.64c2.6,3.38,6.68,5.56,11.28,5.56c7.84,0,14.2-6.36,14.2-14.2
					C88.78,48.59,86.81,43.88,84.33,39.12z M80.72,40.51c0.25,0.45,0.09,1.02-0.36,1.26c-0.14,0.08-0.3,0.12-0.45,0.12
					c-0.33,0-0.64-0.18-0.82-0.48l-2.55-4.61c-0.25-0.45-0.09-1.02,0.36-1.26c0.45-0.25,1.02-0.09,1.26,0.36L80.72,40.51z
					 M76.46,61.69c-0.62,0.11-1.25,0.17-1.88,0.17c-2.76,0-5.36-1.08-7.32-3.03c-0.36-0.37-0.36-0.95,0-1.32
					c0.37-0.36,0.95-0.36,1.32,0c1.61,1.6,3.74,2.49,6,2.49c0.52,0,1.04-0.05,1.54-0.14c4.03-0.74,6.95-4.25,6.95-8.35
					c0-0.65-0.25-2.01-1.45-4.82c-0.2-0.47,0.02-1.02,0.49-1.22c0.48-0.21,1.02,0.02,1.22,0.49c1.07,2.52,1.59,4.33,1.59,5.54
					C84.93,56.5,81.37,60.78,76.46,61.69z"/>
			</g>
		</g>
	</g>
</g>
<g>
	<path id="XMLID_96_" class="st1" d="M37.28,69.86h75.43c1.06,0,2.08-0.42,2.83-1.17l5.62-5.62c1.92-1.92,1.92-5.02,0-6.94
		l-42.7-42.7c-0.91-0.91-2.07-1.41-3.35-1.44c-1.41-0.03-2.75,0.59-3.75,1.59c-5.89,5.89-36.51,36.5-42.4,42.4
		c-1,1-1.62,2.34-1.59,3.75c0.03,1.28,0.53,2.43,1.44,3.34l5.62,5.62C35.2,69.44,36.22,69.86,37.28,69.86z"/>
	<g>
		<g>
			<path class="st3" d="M63.11,53.51c0,0-0.92-3.72-3.42-3.32c-2.5,0.4-3.69-0.27-3.69-0.27S55.22,56.35,63.11,53.51z"/>
			<path class="st3" d="M59.38,48.33c0,0,0.8-2.93-1.08-3.62c-1.88-0.69-2.45-1.61-2.45-1.61S52.82,47.24,59.38,48.33z"/>
			<path class="st3" d="M87.22,53.51c0,0,0.92-3.72,3.42-3.32c2.5,0.4,3.69-0.27,3.69-0.27S95.11,56.35,87.22,53.51z"/>
			<path class="st3" d="M90.95,48.33c0,0-0.8-2.93,1.08-3.62c1.88-0.69,2.45-1.61,2.45-1.61S97.51,47.24,90.95,48.33z"/>
			<path class="st3" d="M83.89,45.72c0,0-1.38,1.58-5.19,2.3c-2.15,0.41-2.9,2.45-3.14,4.15v-4.61c12.78-0.04,8.33-8.87,8.33-8.87
				s-1.38,1.58-5.19,2.3c-2.15,0.41-2.9,2.45-3.14,4.15v-3.69c5.28-0.27,5.59-7.53,3.75-8.93c-1.91-1.45-4.27-5.85-4.27-5.85
				s-2.37,4.4-4.27,5.85c-1.85,1.4-1.53,8.66,3.75,8.93v3.62c-0.25-1.69-1.01-3.67-3.13-4.08c-3.81-0.72-5.19-2.3-5.19-2.3
				s-4.44,8.83,8.32,8.87v4.54c-0.25-1.69-1.01-3.67-3.13-4.08c-3.81-0.72-5.19-2.3-5.19-2.3s-4.44,8.83,8.32,8.87v4.54
				c-0.25-1.69-1.01-3.67-3.13-4.08c-3.81-0.72-5.19-2.3-5.19-2.3s-4.44,8.83,8.32,8.87v6.31c0,0.29,0.24,0.53,0.53,0.53
				s0.53-0.24,0.53-0.53v-6.31c12.78-0.04,8.33-8.87,8.33-8.87s-1.38,1.58-5.19,2.3c-2.15,0.41-2.9,2.45-3.14,4.15v-4.61
				C88.34,54.55,83.89,45.72,83.89,45.72z"/>
		</g>
		<circle class="st3" cx="60.72" cy="31.02" r="1.17"/>
		<circle class="st3" cx="88.39" cy="31.02" r="1.17"/>
		<circle class="st3" cx="75.17" cy="22.49" r="1.17"/>
	</g>
</g>
<g>
	<path id="XMLID_65_" class="st1" d="M37.32,69.86h75.43c1.06,0,2.08-0.42,2.83-1.17l5.62-5.62c1.92-1.92,1.92-5.02,0-6.94
		l-42.7-42.7c-0.91-0.91-2.07-1.41-3.35-1.44c-1.41-0.03-2.75,0.59-3.75,1.59c-5.89,5.89-36.51,36.5-42.4,42.4
		c-1,1-1.62,2.34-1.59,3.75c0.03,1.28,0.53,2.43,1.44,3.34l5.62,5.62C35.24,69.44,36.26,69.86,37.32,69.86z"/>
	<g>
		<g>
			<path class="st0" d="M60.24,53.82c0,0-4.97-5.89,0.6-10.99l0.27,0.59c0,0,0.47-1.43,1.55-2.44l0.07,0.71c0,0,1.26-1.66,2.42-2.13
				l-0.22,0.85l3.01-2.06l-0.22,0.85l2.73-1.35l-0.11,0.4l3.07-0.83l-0.61,2.3l0.71-0.24c0,0-0.12,2.09-0.4,2.83l0.53-0.21
				c0,0-0.7,2.15-1.04,2.79l1.03-0.64c0,0-0.92,2.83-1.47,3.46l0.94-0.44c0,0-0.57,2.01-1.65,2.81c0,0-1.71,5.87-9.77,4.66
				c0,0-1.51,3.05-1.5,4.17c0,0-0.7,0.2-0.67-0.39c0.03-0.6,5.28-13.82,10.52-17.45C70.04,41.06,66.7,42.09,60.24,53.82z"/>
			<path class="st0" d="M81.05,39.54c0,0,7.11-2.98,10.31,3.87l-0.65,0.09c0,0,1.23,0.87,1.87,2.21l-0.7-0.14c0,0,1.2,1.7,1.31,2.94
				l-0.74-0.47l1.07,3.48l-0.74-0.47l0.47,3.01l-0.35-0.22l-0.12,3.18l-2.02-1.27l0.02,0.75c0,0-1.96-0.74-2.58-1.23l0.04,0.57
				c0,0-1.84-1.31-2.36-1.83l0.3,1.17c0,0-2.42-1.72-2.86-2.44l0.14,1.03c0,0-1.75-1.15-2.19-2.41c0,0-5.09-3.39-1.52-10.71
				c0,0-2.46-2.35-3.53-2.68c0,0,0.02-0.73,0.58-0.53c0.56,0.21,11.61,9.18,13.51,15.26C90.29,52.71,90.31,49.22,81.05,39.54z"/>
			<path class="st0" d="M83.74,62.95c0,0-2.68,7.23-9.87,4.88l0.38-0.53c0,0-1.48,0.3-2.89-0.15l0.58-0.41c0,0-2.06-0.28-3.04-1.06
				l0.85-0.22l-3.27-1.6l0.85-0.22l-2.52-1.71l0.4-0.11l-2.24-2.26l2.3-0.61l-0.56-0.5c0,0,1.87-0.92,2.66-1.05l-0.44-0.36
				c0,0,2.21-0.45,2.94-0.47l-1.06-0.59c0,0,2.91-0.59,3.74-0.42l-0.85-0.6c0,0,2.03-0.49,3.25,0.05c0,0,5.95-1.4,8.86,6.21
				c0,0,3.4-0.19,4.37-0.75c0,0,0.52,0.51-0.01,0.78c-0.53,0.27-14.63,2.2-20.37-0.57C67.81,60.69,70.34,63.1,83.74,62.95z"/>
			<path class="st4" d="M84.59,65.36c-0.05,0.09-0.11,0.18-0.16,0.27h8.51c1.39,0,2.63-0.73,3.31-1.94
				c0.68-1.22,0.65-2.65-0.09-3.83l-1.49-2.4l-0.83,1.16C93.84,58.61,87.02,61.06,84.59,65.36z"/>
			<path class="st4" d="M57.42,63.69c0.68,1.22,1.91,1.94,3.31,1.94h8.13l-2.31-1.58l-3.12-2.65c0,0-1.2-5.6-2.17-6.32
				c-0.15-0.11-0.31-0.3-0.47-0.52l-3.27,5.3C56.77,61.04,56.74,62.47,57.42,63.69z"/>
			<path class="st4" d="M76.83,32c-1.32,0-2.53,0.67-3.22,1.8l-1.78,2.88l0.56-0.21l-0.06,1.14l3.12-0.47c0,0,4.23,3.01,6.02,1.73
				c0.36-0.26,0.84-0.43,1.37-0.56l-2.79-4.51C79.36,32.67,78.15,32,76.83,32z"/>
		</g>
		<path class="st0" d="M75.26,32.74c-0.15,0-0.27-0.12-0.27-0.27V21.1c0-0.15,0.12-0.27,0.27-0.27c0.15,0,0.27,0.12,0.27,0.27v11.37
			C75.53,32.62,75.41,32.74,75.26,32.74z"/>
		<path class="st0" d="M70.87,33.98c-0.08,0-0.16-0.04-0.22-0.11l-6.73-9.17c-0.09-0.12-0.06-0.29,0.06-0.37
			c0.12-0.09,0.29-0.06,0.37,0.06l6.73,9.17c0.09,0.12,0.06,0.29-0.06,0.37C70.98,33.96,70.93,33.98,70.87,33.98z"/>
		<path class="st0" d="M79.88,33.98c-0.06,0-0.11-0.02-0.16-0.05c-0.12-0.09-0.14-0.25-0.06-0.37l6.73-9.17
			c0.09-0.12,0.26-0.14,0.37-0.06c0.12,0.09,0.14,0.25,0.06,0.37l-6.73,9.17C80.05,33.94,79.96,33.98,79.88,33.98z"/>
	</g>
</g>
<g id="XMLID_56_">
	<g id="XMLID_59_">
		<path class="st1" d="M41.5,74.43l-7.58,17.5h-4l-7.55-17.5h4.38l5.33,12.5l5.4-12.5H41.5z"/>
		<path class="st1" d="M56.5,88.67v3.25H42.95v-17.5h13.23v3.25h-9.2v3.8h8.13v3.15h-8.13v4.05H56.5z"/>
		<path class="st1" d="M71.5,82.9h3.7V90c-1.93,1.45-4.58,2.22-7.08,2.22c-5.5,0-9.55-3.77-9.55-9.05s4.05-9.05,9.63-9.05
			c3.08,0,5.63,1.05,7.33,3.02l-2.6,2.4c-1.28-1.35-2.75-1.97-4.53-1.97c-3.4,0-5.73,2.27-5.73,5.6c0,3.27,2.33,5.6,5.68,5.6
			c1.1,0,2.13-0.2,3.15-0.75V82.9z"/>
		<path class="st1" d="M92.51,88.67v3.25H78.95v-17.5h13.23v3.25h-9.2v3.8h8.13v3.15h-8.13v4.05H92.51z"/>
		<path class="st1" d="M99.35,77.73h-5.6v-3.3h15.26v3.3h-5.6v14.2h-4.05V77.73z"/>
		<path class="st1" d="M121.83,88.17h-8.13l-1.55,3.75H108l7.8-17.5h4l7.83,17.5h-4.25L121.83,88.17z M120.56,85.1l-2.78-6.7
			L115,85.1H120.56z"/>
		<path class="st1" d="M55.25,114.92l-3.38-4.87h-0.2h-3.53v4.87H44.1v-17.5h7.58c4.68,0,7.6,2.42,7.6,6.35
			c0,2.63-1.33,4.55-3.6,5.52l3.93,5.62H55.25z M51.45,100.73h-3.3v6.1h3.3c2.48,0,3.73-1.15,3.73-3.05
			C55.18,101.85,53.93,100.73,51.45,100.73z"/>
		<path class="st1" d="M62.47,97.43h4.05v17.5h-4.05V97.43z"/>
		<path class="st1" d="M82.21,111.17h-8.13l-1.55,3.75h-4.15l7.8-17.5h4l7.83,17.5h-4.25L82.21,111.17z M80.93,108.1l-2.78-6.7
			l-2.78,6.7H80.93z"/>
		<path class="st1" d="M105.88,97.43v17.5h-3.33l-8.73-10.62v10.62h-4v-17.5h3.35l8.7,10.62V97.43H105.88z"/>
	</g>
</g>
</svg>
