<?xml version="1.0" encoding="utf-8"?>
<!-- Generator: Adobe Illustrator 23.1.0, SVG Export Plug-In . SVG Version: 6.00 Build 0)  -->
<svg version="1.1" id="Capa_1" xmlns="http://www.w3.org/2000/svg" xmlns:xlink="http://www.w3.org/1999/xlink" x="0px" y="0px"
	 viewBox="0 0 165 100" style="enable-background:new 0 0 165 100;" xml:space="preserve">
<style type="text/css">
	.st0{fill:#898D9A;}
	.st1{fill:#FFFFFF;}
	.st2{fill:none;}
</style>
<g>
	<path id="XMLID_1_" class="st0" d="M18.36,99h128.28c1.81,0,3.54-0.71,4.82-1.99l9.56-9.52c3.26-3.25,3.26-8.51,0-11.75L88.4,3.43
		C86.85,1.89,84.89,1.05,82.72,1c-2.39-0.06-4.68,1-6.38,2.69C66.32,13.66,14.26,65.5,4.23,75.48c-1.69,1.69-2.76,3.96-2.7,6.35
		c0.05,2.17,0.89,4.12,2.44,5.66l9.56,9.52C14.82,98.29,16.55,99,18.36,99z"/>
	<g>
		<path id="XMLID_171_" class="st1" d="M28.08,91.58h108.85c1.53,0,3-0.61,4.09-1.69l8.12-8.08c2.77-2.75,2.77-7.22,0-9.97
			L87.51,10.49c-1.32-1.31-2.98-2.02-4.83-2.06c-2.03-0.05-3.97,0.85-5.41,2.28c-8.5,8.46-52.68,52.45-61.18,60.92
			c-1.44,1.43-2.34,3.36-2.29,5.39c0.04,1.84,0.76,3.5,2.07,4.8l8.11,8.08C25.07,90.97,26.54,91.58,28.08,91.58z"/>
		<g>
			<path class="st0" d="M55.95,43.24c1.08,1.38,2.67,2.74,3.83,4.5c5.17,7.48,14.81,23.1,22.33,39.37
				c13.9-8.29,2.75-28.19,2.75-28.19l-0.81,2.64c-4.92-10.7-14.51-16.18-14.51-16.18l0.34,2.31C65.51,42.21,54.31,40,54.31,40
				s-3.6,10.79-0.97,17.29l-1.85-1.44c0,0,0.06,11.01,6.98,20.54l-2.71-0.61c0,0,11.12,18.2,24.59,12.22
				c0,0-11.44-25.43-21.04-40.05C57.23,44.97,55.95,43.24,55.95,43.24z"/>
			<path class="st0" d="M75.1,36.01c0,0.66-0.54,1.19-1.2,1.19s-1.2-0.53-1.2-1.19c0-0.66,0.54-1.19,1.2-1.19S75.1,35.35,75.1,36.01
				z"/>
			<path class="st0" d="M94.15,36.01c0,0.66-0.54,1.19-1.2,1.19c-0.66,0-1.2-0.53-1.2-1.19c0-0.66,0.54-1.19,1.2-1.19
				C93.61,34.81,94.15,35.35,94.15,36.01z"/>
			<path class="st0" d="M84.75,28.78c0,0.66-0.54,1.19-1.2,1.19c-0.66,0-1.2-0.53-1.2-1.19c0-0.66,0.54-1.19,1.2-1.19
				C84.21,27.59,84.75,28.12,84.75,28.78z"/>
			<path class="st0" d="M113.51,55.22l-1.85,1.44c2.63-6.5-0.97-17.29-0.97-17.29s-11.2,2.2-15.59,7.69l0.34-2.31
				c0,0-6.05,3.46-11,10.24c1.68,3.05,4.98,9.69,6.13,16.51c5.7-10.26,11.3-19.18,14.84-24.29c1.16-1.76,2.56-3.23,3.64-4.61
				c0,0-1.19,2.03-3.26,5.03c-5.08,7.73-10.69,18.39-14.86,26.73c0.36,5.15-0.83,10.13-5.21,13.44
				c12.99,4.59,23.52-12.64,23.52-12.64l-2.71,0.61C113.46,66.23,113.51,55.22,113.51,55.22z"/>
		</g>
	</g>
</g>
<g>
	<path id="XMLID_65_" class="st1" d="M28.44,91.58h108.38c1.53,0,2.99-0.61,4.07-1.69l8.08-8.08c2.75-2.75,2.75-7.22,0-9.97
		L87.62,10.49c-1.31-1.31-2.97-2.02-4.81-2.06c-2.02-0.05-3.96,0.85-5.39,2.28c-8.46,8.46-52.45,52.45-60.92,60.92
		c-1.43,1.43-2.33,3.36-2.28,5.39c0.04,1.84,0.76,3.5,2.06,4.8l8.08,8.08C25.45,90.97,26.91,91.58,28.44,91.58z"/>
	<g>
		<g>
			<path class="st0" d="M61.38,68.53c0,0-7.15-8.46,0.87-15.79l0.4,0.85c0,0,0.67-2.06,2.23-3.51l0.1,1.02c0,0,1.81-2.38,3.48-3.06
				l-0.32,1.22l4.32-2.96l-0.32,1.22l3.93-1.95l-0.15,0.58l4.41-1.2l-0.87,3.31l1.02-0.35c0,0-0.17,3-0.58,4.07l0.76-0.3
				c0,0-1,3.09-1.49,4.02l1.48-0.91c0,0-1.32,4.06-2.12,4.97l1.35-0.64c0,0-0.82,2.89-2.37,4.03c0,0-2.45,8.44-14.04,6.69
				c0,0-2.16,4.38-2.16,6c0,0-1.01,0.29-0.97-0.57c0.04-0.86,7.59-19.86,15.11-25.08C75.46,50.2,70.66,51.67,61.38,68.53z"/>
			<path class="st0" d="M91.27,48.01c0,0,10.22-4.28,14.81,5.56l-0.93,0.12c0,0,1.76,1.25,2.68,3.18l-1.01-0.21
				c0,0,1.73,2.44,1.88,4.23l-1.07-0.67l1.53,5.01l-1.07-0.67l0.68,4.33l-0.51-0.32l-0.18,4.57l-2.9-1.82l0.03,1.08
				c0,0-2.81-1.06-3.71-1.77l0.05,0.81c0,0-2.65-1.88-3.38-2.63l0.43,1.69c0,0-3.48-2.47-4.11-3.51l0.21,1.48
				c0,0-2.51-1.65-3.14-3.47c0,0-7.31-4.87-2.18-15.4c0,0-3.53-3.38-5.08-3.85c0,0,0.02-1.05,0.83-0.75
				c0.81,0.3,16.68,13.19,19.41,21.93C104.55,66.94,104.59,61.92,91.27,48.01z"/>
			<path class="st0" d="M95.14,81.64c0,0-3.85,10.39-14.17,7.01l0.54-0.76c0,0-2.12,0.43-4.15-0.21l0.84-0.59
				c0,0-2.96-0.4-4.37-1.52l1.22-0.32l-4.7-2.3l1.22-0.32l-3.63-2.46l0.58-0.15l-3.21-3.25l3.31-0.87l-0.81-0.72
				c0,0,2.69-1.33,3.83-1.5l-0.63-0.52c0,0,3.18-0.65,4.23-0.68l-1.52-0.84c0,0,4.18-0.85,5.37-0.6l-1.22-0.86
				c0,0,2.92-0.7,4.68,0.08c0,0,8.55-2.02,12.73,8.93c0,0,4.88-0.27,6.28-1.07c0,0,0.75,0.73-0.02,1.12
				c-0.77,0.39-21.02,3.16-29.27-0.81C72.25,78.41,75.89,81.86,95.14,81.64z"/>
			<path class="st2" d="M96.36,85.1c-0.08,0.14-0.16,0.26-0.23,0.39h12.23c2,0,3.78-1.04,4.75-2.79c0.97-1.75,0.93-3.81-0.12-5.51
				l-2.13-3.45l-1.19,1.67C109.65,75.42,99.86,78.93,96.36,85.1z"/>
			<path class="st2" d="M57.32,82.71c0.97,1.75,2.75,2.79,4.75,2.79h11.68l-3.32-2.27l-4.48-3.8c0,0-1.72-8.05-3.12-9.09
				c-0.22-0.16-0.45-0.43-0.67-0.75l-4.71,7.61C56.39,78.9,56.34,80.96,57.32,82.71z"/>
			<path class="st2" d="M85.21,37.18c-1.9,0-3.63,0.96-4.63,2.58l-2.56,4.14l0.8-0.3l-0.08,1.64l4.48-0.68c0,0,6.08,4.32,8.65,2.48
				c0.51-0.37,1.2-0.62,1.97-0.8l-4.01-6.48C88.84,38.14,87.11,37.18,85.21,37.18z"/>
		</g>
		<path class="st0" d="M82.96,38.24c-0.21,0-0.38-0.17-0.38-0.38V21.51c0-0.21,0.17-0.38,0.38-0.38c0.21,0,0.38,0.17,0.38,0.38
			v16.34C83.34,38.07,83.17,38.24,82.96,38.24z"/>
		<path class="st0" d="M76.65,40.01c-0.12,0-0.23-0.05-0.31-0.16l-9.66-13.18c-0.12-0.17-0.09-0.41,0.08-0.54
			c0.17-0.13,0.41-0.09,0.54,0.08l9.66,13.18c0.12,0.17,0.09,0.41-0.08,0.54C76.81,39.99,76.73,40.01,76.65,40.01z"/>
		<path class="st0" d="M89.6,40.01c-0.08,0-0.16-0.02-0.23-0.07c-0.17-0.13-0.21-0.36-0.08-0.54l9.66-13.18
			c0.13-0.17,0.37-0.21,0.54-0.08c0.17,0.13,0.21,0.36,0.08,0.54l-9.66,13.18C89.83,39.96,89.72,40.01,89.6,40.01z"/>
	</g>
</g>
</svg>
