<?xml version="1.0" encoding="utf-8"?>
<!-- Generator: Adobe Illustrator 23.1.0, SVG Export Plug-In . SVG Version: 6.00 Build 0)  -->
<svg version="1.1" id="Capa_1" xmlns="http://www.w3.org/2000/svg" xmlns:xlink="http://www.w3.org/1999/xlink" x="0px" y="0px"
	 viewBox="0 0 939 418" style="enable-background:new 0 0 939 418;" xml:space="preserve">
<style type="text/css">
	.st0{fill:#252C38;}
	.st1{fill:#3B65F5;}
</style>
<path class="st0" d="M288.1,248.84c0,10.37-2.39,21.74-7.18,34.1c-4.79,12.36-11.96,23.86-21.54,34.5
	c-9.57,10.63-21.47,19.54-35.7,26.72c-14.23,7.18-30.91,10.77-50.05,10.77c-10.91,0-22.2-1.99-33.9-5.98
	c-11.7-3.99-22.53-10.37-32.5-19.14c-9.97-8.77-18.15-20.08-24.53-33.9c-6.38-13.82-9.57-30.57-9.57-50.25
	c0-24.19,2.52-46.79,7.58-67.8c5.05-21,11.77-40.21,20.14-57.63c8.38-17.41,18.08-32.84,29.11-46.27
	c11.03-13.42,22.6-24.73,34.7-33.9c12.1-9.17,24.33-16.15,36.69-20.94s24.13-7.18,35.3-7.18c11.97,0,22,2.33,30.11,6.98
	c8.11,4.66,14.62,10.64,19.54,17.95c4.92,7.32,8.38,15.62,10.37,24.93c1.99,9.31,2.99,18.75,2.99,28.32
	c0,6.38-1.13,13.43-3.39,21.14c-2.26,7.71-5.32,15.49-9.17,23.33c-3.86,7.85-8.31,15.49-13.36,22.93
	c-5.05,7.45-10.37,14.03-15.95,19.74c-5.58,5.72-11.37,10.31-17.35,13.76c-5.98,3.46-11.63,5.18-16.95,5.18
	c-8.51,0-15.62-3.05-21.34-9.17c-5.72-6.11-9.77-12.89-12.16-20.34c-2.39-7.44-3.06-14.22-1.99-20.34c1.06-6.11,4.25-9.17,9.57-9.17
	c6.11,0,12.3-2.39,18.55-7.18c6.24-4.79,11.97-10.77,17.15-17.95c5.19-7.18,9.63-14.96,13.36-23.33c3.72-8.38,5.91-16.15,6.58-23.33
	c0.66-7.18-0.4-13.16-3.19-17.95c-2.79-4.79-7.91-7.18-15.36-7.18c-8.51,0-17.35,4.13-26.52,12.36
	c-9.17,8.24-18.02,19.01-26.52,32.31c-8.51,13.3-16.55,28.52-24.13,45.67c-7.58,17.15-13.96,34.64-19.14,52.45
	c-5.19,17.82-8.97,35.3-11.37,52.45c-2.39,17.15-2.73,32.37-1,45.67c1.73,13.3,5.65,24.06,11.77,32.31
	c6.11,8.24,15.16,12.36,27.12,12.36c7.18,0,14.76-2.46,22.73-7.38c7.98-4.92,15.42-11.11,22.33-18.55
	c6.91-7.44,12.96-15.55,18.15-24.33c5.18-8.77,8.71-16.88,10.57-24.33c1.86-7.44,1.6-13.62-0.8-18.55
	c-2.39-4.92-7.58-7.38-15.55-7.38c-4.52,0-6.05-0.93-4.59-2.79c1.46-1.86,4.65-3.72,9.57-5.58c4.92-1.86,10.83-3.32,17.75-4.39
	c6.91-1.06,13.56-0.73,19.94,1c6.38,1.73,11.83,5.32,16.35,10.77C285.84,229.76,288.1,237.94,288.1,248.84z"/>
<path class="st0" d="M442.78,223.74c3.78-6.21,7.11-9.64,10-10.31c2.89-0.67,4.89,0.67,6,3.99c1.11,3.33,1.11,8.26,0,14.81
	c-1.11,6.54-3.78,13.7-8,21.46c-6.45,10.87-12.73,19.74-18.84,26.62c-6.12,6.88-11.95,12.15-17.5,15.81
	c-5.56,3.66-10.84,5.77-15.84,6.32c-5,0.55-9.84-0.06-14.5-1.83c-7.56,7.1-14.95,12.37-22.17,15.81c-7.23,3.44-13.39,5.27-18.5,5.49
	c-12.23,0.67-21.9-1.6-29.01-6.82c-7.12-5.21-12.12-12.09-15-20.63c-2.89-8.54-3.89-18.08-3-28.62c0.89-10.53,3.05-20.96,6.5-31.28
	c3.44-10.31,8-19.85,13.67-28.62s11.95-15.58,18.84-20.46c0-2.44,1.33-5.26,4-8.48c2.67-3.22,6.17-6.27,10.5-9.15
	c4.33-2.88,9.28-5.32,14.84-7.32c5.55-2,11.22-3,17-3c7.55,0,14.45,2.55,20.67,7.65c6.22,5.11,11,12.09,14.34,20.96
	c3.33,8.88,4.72,19.36,4.17,31.44c-0.56,12.09-3.62,25.12-9.17,39.09C421.33,251.8,431.66,240.82,442.78,223.74z M344.42,290.89
	c7.11,0,13.78-2.22,20-6.67c-5.78-7.78-10.73-16.95-14.84-27.51c-4.12-10.55-7.39-21.39-9.84-32.51c-2.67,4.23-5.12,10.06-7.33,17.5
	c-2.22,7.45-3.45,14.84-3.67,22.17c-0.22,7.33,0.78,13.67,3,19C333.97,288.22,338.2,290.89,344.42,290.89z M386.1,254.88
	c3.33-8.22,5.55-16.89,6.67-26.01c1.11-9.11,0.89-17.45-0.67-25.01c-1.56-7.55-4.5-13.84-8.83-18.84c-4.33-5-10.28-7.5-17.84-7.5
	c-2.89,0-4.56,3.17-5,9.5c-0.45,6.33,0.28,13.78,2.17,22.34c1.89,8.56,4.78,17.17,8.67,25.84
	C375.15,243.88,380.1,250.43,386.1,254.88z"/>
<path class="st0" d="M582.47,190.74c3.78-6.21,7.11-9.64,10-10.31c2.89-0.67,4.89,0.67,6,3.99c1.11,3.33,1.11,8.26,0,14.81
	c-1.11,6.54-3.78,13.7-8,21.46c-6.45,10.87-12.73,19.74-18.84,26.62c-6.12,6.88-11.95,12.15-17.5,15.81
	c-5.56,3.66-10.84,5.77-15.84,6.32c-5,0.55-9.84-0.06-14.5-1.83c-7.56,7.1-14.95,12.37-22.17,15.81c-7.23,3.44-13.39,5.27-18.5,5.49
	c-12.23,0.67-21.9-1.6-29.01-6.82c-7.12-5.21-12.12-12.09-15-20.63c-2.89-8.54-3.89-18.08-3-28.62c0.89-10.53,3.05-20.96,6.5-31.28
	c3.44-10.31,8-19.85,13.67-28.62s11.95-15.58,18.84-20.46c0-2.44,1.33-5.26,4-8.48c2.67-3.22,6.17-6.27,10.5-9.15
	c4.33-2.88,9.28-5.32,14.84-7.32c5.55-2,11.22-3,17-3c7.55,0,14.45,2.55,20.67,7.65c6.22,5.11,11,12.09,14.34,20.96
	c3.33,8.88,4.72,19.36,4.17,31.44c-0.56,12.09-3.62,25.12-9.17,39.09C561.02,218.8,571.36,207.82,582.47,190.74z M484.12,257.89
	c7.11,0,13.78-2.22,20-6.67c-5.78-7.78-10.73-16.95-14.84-27.51c-4.12-10.55-7.39-21.39-9.84-32.51c-2.67,4.23-5.12,10.06-7.33,17.5
	c-2.22,7.45-3.45,14.84-3.67,22.17c-0.22,7.33,0.78,13.67,3,19C473.67,255.22,477.89,257.89,484.12,257.89z M525.79,221.88
	c3.33-8.22,5.55-16.89,6.67-26.01c1.11-9.11,0.89-17.45-0.67-25.01c-1.56-7.55-4.5-13.84-8.83-18.84c-4.33-5-10.28-7.5-17.84-7.5
	c-2.89,0-4.56,3.17-5,9.5c-0.45,6.33,0.28,13.78,2.17,22.34c1.89,8.56,4.78,17.17,8.67,25.84
	C514.84,210.88,519.79,217.43,525.79,221.88z"/>
<path class="st0" d="M620.96,287.27c-3.77,0.25-7.91-0.87-12.41-3.37c-4.51-2.49-8.78-5.72-12.83-9.69
	c-4.04-3.97-7.45-8.37-10.21-13.2c-2.76-4.83-4.3-9.58-4.6-14.23c-0.52-7.99-0.08-18.31,1.32-30.99c1.4-12.67,3.53-26.18,6.38-40.51
	c2.85-14.33,6.36-28.76,10.55-43.29c4.18-14.52,8.72-27.68,13.63-39.48c4.91-11.79,10.07-21.42,15.49-28.91
	c5.41-7.48,10.89-11.4,16.44-11.76c1.33-0.09,4.21,0.51,8.64,1.78c4.43,1.27,8.76,2.94,13.02,5c4.25,2.06,7.58,4.47,9.99,7.2
	c2.4,2.74,2.25,5.53-0.46,8.38c-12.85,14.87-22.98,31.85-30.43,50.93c-7.44,19.09-13.12,38-17.02,56.74
	c6.38-4.64,12.77-9.96,19.18-15.95c6.4-5.98,11.98-11.81,16.74-17.46c4.75-5.66,8.15-10.83,10.18-15.53
	c2.03-4.7,1.75-8.19-0.85-10.47c-2.83-2.49-2.85-4.43-0.05-5.84c2.8-1.4,6.52-1.65,11.15-0.73c4.62,0.93,9.17,3.19,13.64,6.8
	c4.46,3.61,6.94,9.07,7.41,16.39c0.17,2.66-1.8,6.52-5.93,11.58c-4.13,5.06-9.34,10.52-15.64,16.39
	c-6.3,5.87-13.09,11.88-20.38,18.03c-7.28,6.15-14.11,11.67-20.47,16.54c2.99,4.93,6.66,10.87,11.02,17.83
	c4.35,6.96,9.11,14.22,14.28,21.79c5.17,7.57,10.67,15.12,16.51,22.65c5.84,7.53,11.72,14.16,17.67,19.9
	c5.94,5.74,11.81,10.37,17.61,13.89c5.79,3.52,11.36,5.11,16.68,4.76c1.55-0.1,2.68-0.68,3.4-1.72c0.71-1.05,1.25-2.09,1.63-3.11
	c0.38-1.03,0.89-1.68,1.54-1.94c0.65-0.27,1.69,0.22,3.1,1.47c1.89,1.66,2.44,4.13,1.65,7.41c-0.79,3.28-2.69,6.63-5.69,10.06
	c-3.01,3.42-6.99,6.47-11.93,9.13c-4.95,2.66-10.75,4.21-17.41,4.64c-7.32,0.48-14.28-1.3-20.89-5.32
	c-6.61-4.03-12.86-9.35-18.75-15.99c-5.89-6.63-11.4-14.18-16.51-22.65c-5.12-8.46-9.74-16.96-13.86-25.49
	c-4.12-8.53-7.71-16.54-10.75-24.02c-3.05-7.49-5.63-13.72-7.73-18.71c-0.64,0.49-1.39,0.98-2.24,1.48
	c-0.84,7.63-1.36,15.07-1.55,22.32c-0.2,7.25-0.22,13.71-0.07,19.38c0.14,5.67,0.45,10.39,0.92,14.14c0.46,3.76,1.06,5.94,1.76,6.57
	c1.18,1.04,1.27,2.48,0.28,4.33C623.12,286.24,622.07,287.19,620.96,287.27z"/>
<path class="st1" d="M898.66,154.34c6.62,4.76,11.15,9.88,13.57,15.36c2.42,5.48,3.63,10.56,3.63,15.23
	c-0.01,4.67-0.77,8.45-2.3,11.34c-1.53,2.89-3.06,4.08-4.59,3.57c-1.02-0.34-1.85-1.25-2.48-2.74c-0.64-1.49-2.04-3.23-4.2-5.23
	c-2.17-2-5.54-4.19-10.13-6.57c-4.59-2.38-11.17-4.72-19.75-7.01c-8.08,8.07-16.42,16.75-25.05,26.05
	c-8.63,9.3-16.89,18.58-24.79,27.84c-7.91,9.26-15.07,18.2-21.48,26.82c-6.42,8.62-11.58,16.46-15.49,23.51
	c-3.91,7.05-6.17,12.96-6.76,17.71c-0.6,4.76,1.14,7.82,5.22,9.18c2.04,0.68,5.22,0.04,9.56-1.91c4.33-1.95,9.24-4.56,14.72-7.83
	c5.48-3.27,11.17-6.96,17.08-11.08c5.9-4.12,11.34-7.9,16.31-11.34c4.97-3.44,9.31-6.24,13-8.41c3.7-2.17,6.18-3.04,7.46-2.61
	c2.54,0.85,4.16,2.17,4.84,3.95c0.68,1.79,0.76,3.87,0.25,6.25c-0.51,2.38-1.51,4.95-3,7.71c-1.49,2.76-3.26,5.5-5.29,8.22
	c-4.68,6.37-10.71,13.42-18.1,21.15c-11.05,10.19-22.22,18.64-33.52,25.35c-4.93,2.89-10.01,5.58-15.23,8.09
	c-5.23,2.5-10.6,4.39-16.12,5.66c-5.52,1.28-10.96,1.86-16.31,1.78c-5.35-0.09-10.5-1.23-15.42-3.45c-3.99-1.61-7.1-4.63-9.3-9.05
	c-2.21-4.42-3.63-9.5-4.26-15.23c-0.63-5.73-0.59-11.81,0.13-18.22c0.73-6.41,2.02-12.42,3.89-18.03
	c3.15-9.43,7.53-19.37,13.14-29.81c5.61-10.45,11.94-21.15,19-32.11c7.05-10.95,14.7-21.78,22.95-32.49
	c8.24-10.7,16.53-20.89,24.86-30.58c-9.01-2.72-15.95-6.1-20.83-10.14c-4.88-4.03-8.22-8.27-10-12.68
	c-1.78-4.42-2.42-8.88-1.91-13.38c0.51-4.5,1.47-8.43,2.87-11.79c1.4-3.35,3.08-6.05,5.04-8.09c1.95-2.04,3.45-2.89,4.46-2.55
	c1.53,0.51,2.25,1.96,2.16,4.33c-0.08,2.38,0.91,5.12,2.99,8.22c2.08,3.1,6.03,6.33,11.85,9.69c5.81,3.36,15.39,6.27,28.73,8.74
	c12.15-12.65,23.03-22.54,32.63-29.68c9.6-7.13,16.18-10.11,19.75-8.91c1.53,0.51,4.39,2.53,8.6,6.06
	c4.2,3.53,8.11,7.53,11.72,11.98c3.61,4.46,6.2,8.8,7.77,13c1.57,4.21,0.61,7.29-2.87,9.24
	C913.23,141.65,906.9,146.62,898.66,154.34z"/>
<g>
	<path class="st0" d="M564.37,329.05c-87.31,11.13-274.12,56.46-413.03,74.17c-124.68,15.9-158.13-30.26-138.22-21.7
		c86.64,33.66,427.72-66.97,537.86-81.01c124.68-15.9,125.58,43.82,112.9,52.49C654.48,360.92,656.97,317.25,564.37,329.05z"/>
</g>
<g>
	<g>
		<path class="st1" d="M770.54,226.2c4.19-0.49,6.55,1.47,7.07,5.88c0.52,4.42,0.31,9.25-0.64,14.51
			c-1.28,6.2-3.24,13.37-5.85,21.51c-3.91,10.53-8.71,20.05-14.42,28.56c-4.96,7.3-11.09,14.13-18.4,20.47
			c-7.31,6.35-15.93,10.11-25.86,11.28c-7.07,0.83-12.85-0.78-17.36-4.83c-4.51-4.05-7.97-9.69-10.39-16.9
			c-2.42-7.21-3.91-15.59-4.48-25.15c-0.57-9.55-0.44-19.36,0.39-29.42c0.83-10.05,2.22-20.01,4.19-29.87
			c1.97-9.85,4.23-18.68,6.78-26.48c2.55-7.8,5.32-14.17,8.32-19.11c2.99-4.94,5.93-7.58,8.8-7.92c1.32-0.16,4.01,0.31,8.05,1.4
			c4.04,1.09,8.08,2.57,12.11,4.45c4.02,1.87,7.3,4.01,9.82,6.39c2.52,2.39,2.92,4.81,1.19,7.25c-2.46,3.87-5.03,9.05-7.74,15.52
			c-2.71,6.48-5.09,13.36-7.13,20.65c-2.05,7.29-3.76,14.6-5.13,21.93c-1.37,7.33-2.1,13.96-2.18,19.9
			c-0.09,5.94,0.59,10.67,2.01,14.2c1.42,3.52,3.9,5.08,7.43,4.66c3.97-0.47,8.06-3.75,12.27-9.84c4.2-6.09,8.34-12.74,12.42-19.93
			c4.07-7.2,7.72-13.78,10.93-19.75C765.95,229.54,768.55,226.43,770.54,226.2z"/>
		<path class="st1" d="M732.75,151.95c-6.33-3.74-10.01-9.97-11.04-18.68c-1.03-8.71,0.87-17.56,5.7-26.54
			c5.13-8.74,11.68-15.05,19.64-18.93c7.95-3.88,15.08-4.09,21.38-0.63c6.33,3.74,9.94,9.97,10.83,18.7
			c0.89,8.73-1.09,17.45-5.95,26.15c-4.83,8.98-11.23,15.35-19.2,19.09C746.14,154.85,739.02,155.14,732.75,151.95z"/>
		<path class="st1" d="M722.95,134.47l3.14,9.6c0,0,2.66,5.22-0.32,11.9c-2.9,6.51-35.26,68.66-36.97,71.94l15.96,7.59l0.23-0.51
			l30.7-73.72c0,0,3.46-6.45,9.57-8.49l10.31-3.4c0,0,4.52-1.61,6.33-6.67l3.03-24.13l-2.22,4.63c-0.56,1.13-1.98,1.58-3.19,1.01
			c-1.2-0.57-1.73-1.92-1.27-3.07c1.13-2.72,2.39-5.39,3.57-8.09l-7.61,0.9c0,0-0.77,1.85-2.02,4.19c-0.59,1.08-1.96,1.5-3.15,0.94
			c-1.2-0.57-1.74-1.94-1.28-3.1c1-1.98,6.84-14.36,7.58-16l4.38-9.43c0.39-0.95-14.07,17.38-14.07,17.38
			c-0.49,1.01-0.98,2.02-1.48,3.03c-0.46,0.92-0.91,1.85-1.36,2.78c-0.6,1.04-1.95,1.45-3.12,0.89c-1.2-0.57-1.75-1.94-1.25-3.09
			c0.64-1.61,1.18-2.5,1.93-4.18l-17.32,16.07C723.05,123.45,719.86,127.67,722.95,134.47z"/>
	</g>
</g>
</svg>
