<?xml version="1.0" encoding="utf-8"?>
<!-- Generator: Adobe Illustrator 23.1.0, SVG Export Plug-In . SVG Version: 6.00 Build 0)  -->
<svg version="1.1" id="Capa_1" xmlns="http://www.w3.org/2000/svg" xmlns:xlink="http://www.w3.org/1999/xlink" x="0px" y="0px"
	 viewBox="0 0 100 100" style="enable-background:new 0 0 100 100;" xml:space="preserve">
<style type="text/css">
	.st0{fill:#3B65F3;}
	.st1{fill:#DCDCDC;}
	.st2{fill:#89B9EF;}
	.st3{fill:#7196A5;}
	.st4{fill:#FFFFFF;}
	.st5{fill:#335939;}
	.st6{fill:#CBDDE3;}
	.st7{fill:#DAEDF2;}
	.st8{fill:#FBF4D6;}
	.st9{opacity:0.83;}
	.st10{fill:#E8AB3E;}
	.st11{fill:#5C5F68;}
	.st12{fill:#EFCC73;}
	.st13{fill:#E8BA48;}
	.st14{fill:#CA3373;}
</style>
<g>
	<g>
		<g>
			<g>
				<path class="st0" d="M47.61,99c-0.01,0-0.03,0-0.04,0c-1.5-0.07-3.01-0.22-4.49-0.43c-0.48-0.07-0.82-0.52-0.75-1
					s0.52-0.82,1-0.75c1.43,0.2,2.88,0.34,4.33,0.41c0.49,0.02,0.86,0.44,0.84,0.93C48.47,98.63,48.08,99,47.61,99z M52.92,98.97
					c-0.46,0-0.85-0.36-0.88-0.83c-0.03-0.49,0.34-0.9,0.83-0.93c1.44-0.09,2.9-0.24,4.32-0.46c0.48-0.07,0.93,0.26,1.01,0.74
					c0.07,0.48-0.26,0.93-0.74,1.01c-1.48,0.23-2.99,0.39-4.48,0.48C52.96,98.97,52.94,98.97,52.92,98.97z M37.99,97.55
					c-0.07,0-0.15-0.01-0.22-0.03c-1.45-0.37-2.9-0.82-4.31-1.33c-0.46-0.16-0.7-0.67-0.53-1.13c0.16-0.46,0.67-0.7,1.13-0.53
					c1.36,0.49,2.76,0.92,4.16,1.28c0.47,0.12,0.76,0.6,0.64,1.08C38.74,97.28,38.38,97.55,37.99,97.55z M62.53,97.41
					c-0.39,0-0.75-0.26-0.85-0.65c-0.13-0.47,0.15-0.96,0.62-1.08c1.4-0.38,2.79-0.82,4.14-1.32c0.46-0.17,0.97,0.06,1.14,0.52
					c0.17,0.46-0.06,0.97-0.52,1.14c-1.4,0.52-2.85,0.98-4.3,1.37C62.68,97.4,62.61,97.41,62.53,97.41z M28.86,94.17
					c-0.13,0-0.26-0.03-0.39-0.09c-1.34-0.66-2.67-1.39-3.96-2.17c-0.42-0.25-0.55-0.8-0.29-1.21c0.25-0.42,0.8-0.55,1.21-0.29
					c1.24,0.75,2.52,1.46,3.81,2.09c0.44,0.21,0.62,0.74,0.4,1.18C29.5,93.99,29.19,94.17,28.86,94.17z M71.62,93.94
					c-0.32,0-0.63-0.18-0.79-0.49c-0.22-0.44-0.04-0.97,0.39-1.19c1.29-0.65,2.57-1.37,3.79-2.13c0.42-0.26,0.96-0.13,1.22,0.28
					c0.26,0.41,0.13,0.96-0.28,1.22c-1.27,0.79-2.59,1.54-3.93,2.21C71.89,93.9,71.75,93.94,71.62,93.94z M20.6,89.03
					c-0.19,0-0.38-0.06-0.54-0.18c-1.18-0.92-2.34-1.9-3.44-2.92c-0.36-0.33-0.38-0.89-0.05-1.25c0.33-0.36,0.89-0.38,1.25-0.05
					c1.06,0.99,2.18,1.93,3.32,2.82c0.39,0.3,0.46,0.85,0.16,1.24C21.12,88.91,20.86,89.03,20.6,89.03z M79.82,88.7
					c-0.26,0-0.52-0.11-0.69-0.34c-0.3-0.38-0.24-0.94,0.14-1.24c1.13-0.9,2.24-1.86,3.28-2.85c0.35-0.33,0.91-0.32,1.25,0.03
					c0.34,0.35,0.32,0.91-0.03,1.25c-1.08,1.03-2.23,2.03-3.41,2.96C80.21,88.64,80.01,88.7,79.82,88.7z M13.54,82.33
					c-0.25,0-0.49-0.1-0.67-0.31c-0.98-1.14-1.92-2.33-2.79-3.55c-0.28-0.4-0.19-0.95,0.21-1.23c0.4-0.28,0.95-0.19,1.23,0.21
					c0.84,1.17,1.74,2.33,2.68,3.42c0.32,0.37,0.28,0.93-0.09,1.25C13.94,82.26,13.74,82.33,13.54,82.33z M86.81,81.92
					c-0.2,0-0.4-0.07-0.57-0.21c-0.37-0.31-0.42-0.87-0.11-1.24c0.93-1.11,1.82-2.27,2.65-3.45c0.28-0.4,0.83-0.5,1.23-0.22
					c0.4,0.28,0.5,0.83,0.22,1.23c-0.86,1.23-1.78,2.43-2.75,3.58C87.31,81.81,87.06,81.92,86.81,81.92z M7.96,74.35
					c-0.31,0-0.61-0.16-0.77-0.45c-0.73-1.31-1.41-2.67-2.01-4.04c-0.2-0.45,0-0.97,0.45-1.17c0.45-0.2,0.97,0,1.16,0.45
					c0.59,1.32,1.24,2.63,1.94,3.89c0.24,0.43,0.09,0.96-0.34,1.2C8.25,74.31,8.1,74.35,7.96,74.35z M92.3,73.88
					c-0.14,0-0.29-0.03-0.42-0.11c-0.43-0.23-0.59-0.77-0.35-1.2c0.69-1.27,1.33-2.59,1.9-3.91c0.19-0.45,0.71-0.66,1.16-0.46
					c0.45,0.19,0.66,0.71,0.46,1.16c-0.59,1.38-1.25,2.74-1.97,4.06C92.92,73.71,92.61,73.88,92.3,73.88z M4.1,65.41
					c-0.38,0-0.72-0.24-0.84-0.62c-0.45-1.43-0.84-2.9-1.16-4.36c-0.1-0.48,0.2-0.95,0.68-1.05c0.48-0.11,0.95,0.2,1.05,0.68
					c0.3,1.41,0.68,2.83,1.11,4.2c0.15,0.46-0.11,0.96-0.58,1.11C4.28,65.4,4.19,65.41,4.1,65.41z M96.06,64.89
					c-0.08,0-0.17-0.01-0.26-0.04c-0.47-0.14-0.73-0.63-0.59-1.1c0.42-1.38,0.78-2.8,1.07-4.22c0.1-0.48,0.57-0.79,1.04-0.69
					c0.48,0.1,0.79,0.56,0.69,1.04c-0.3,1.47-0.67,2.94-1.11,4.38C96.79,64.65,96.44,64.89,96.06,64.89z M2.13,55.88
					c-0.45,0-0.83-0.34-0.88-0.79c-0.15-1.48-0.24-3-0.25-4.5c-0.01-0.49,0.39-0.89,0.87-0.89c0,0,0.01,0,0.01,0
					c0.48,0,0.88,0.39,0.88,0.87c0.02,1.45,0.1,2.91,0.25,4.34c0.05,0.48-0.3,0.92-0.79,0.97C2.19,55.88,2.16,55.88,2.13,55.88z
					 M97.92,55.34c-0.03,0-0.05,0-0.08,0c-0.49-0.04-0.84-0.47-0.8-0.96c0.13-1.44,0.2-2.9,0.2-4.35l0-0.2
					c0-0.49,0.39-0.88,0.88-0.88S99,49.34,99,49.83l0,0.19c0,1.51-0.07,3.03-0.2,4.52C98.75,54.99,98.37,55.34,97.92,55.34z
					 M2.11,46.14c-0.03,0-0.06,0-0.09,0c-0.49-0.05-0.84-0.48-0.79-0.97c0.15-1.5,0.36-3,0.65-4.47c0.09-0.48,0.55-0.79,1.03-0.7
					c0.48,0.09,0.79,0.55,0.7,1.03c-0.27,1.41-0.48,2.86-0.62,4.3C2.95,45.8,2.56,46.14,2.11,46.14z M97.81,45.41
					c-0.44,0-0.83-0.33-0.88-0.78c-0.16-1.44-0.4-2.88-0.69-4.29c-0.1-0.48,0.21-0.95,0.68-1.04c0.47-0.1,0.94,0.21,1.04,0.68
					c0.31,1.46,0.55,2.96,0.72,4.45c0.06,0.48-0.29,0.92-0.78,0.98C97.87,45.4,97.84,45.41,97.81,45.41z M4.04,36.6
					c-0.09,0-0.18-0.01-0.26-0.04c-0.47-0.14-0.73-0.64-0.58-1.11c0.45-1.43,0.96-2.86,1.54-4.24c0.19-0.45,0.7-0.66,1.15-0.48
					c0.45,0.19,0.66,0.7,0.48,1.16c-0.55,1.33-1.05,2.71-1.48,4.09C4.77,36.36,4.42,36.6,4.04,36.6z M95.73,35.9
					c-0.37,0-0.72-0.24-0.84-0.61c-0.45-1.37-0.97-2.74-1.54-4.07c-0.19-0.45,0.01-0.97,0.46-1.16c0.45-0.19,0.97,0.01,1.16,0.46
					c0.6,1.38,1.14,2.8,1.6,4.22c0.15,0.46-0.1,0.96-0.56,1.11C95.91,35.88,95.82,35.9,95.73,35.9z M7.86,27.64
					c-0.14,0-0.29-0.04-0.43-0.11c-0.43-0.24-0.58-0.77-0.35-1.2c0.72-1.31,1.52-2.6,2.36-3.85c0.27-0.4,0.82-0.51,1.23-0.23
					c0.4,0.27,0.51,0.82,0.23,1.23c-0.81,1.2-1.58,2.44-2.28,3.71C8.48,27.48,8.17,27.64,7.86,27.64z M91.77,27
					c-0.31,0-0.6-0.16-0.77-0.44c-0.72-1.25-1.5-2.49-2.33-3.67c-0.28-0.4-0.18-0.95,0.21-1.23c0.4-0.28,0.95-0.18,1.23,0.21
					c0.86,1.23,1.68,2.51,2.42,3.81c0.24,0.42,0.1,0.96-0.33,1.21C92.07,26.97,91.92,27,91.77,27z M13.41,19.64
					c-0.2,0-0.41-0.07-0.57-0.21c-0.37-0.32-0.41-0.87-0.1-1.24c0.98-1.14,2.01-2.25,3.09-3.29c0.35-0.34,0.91-0.33,1.25,0.02
					c0.34,0.35,0.33,0.91-0.02,1.25c-1.03,1-2.03,2.07-2.97,3.17C13.91,19.54,13.66,19.64,13.41,19.64z M86.11,19.09
					c-0.24,0-0.49-0.1-0.66-0.3c-0.96-1.09-1.98-2.14-3.02-3.13c-0.35-0.33-0.37-0.89-0.04-1.25c0.34-0.35,0.89-0.37,1.25-0.04
					c1.08,1.02,2.14,2.12,3.14,3.24c0.32,0.37,0.29,0.92-0.08,1.25C86.52,19.02,86.32,19.09,86.11,19.09z M20.45,12.91
					c-0.26,0-0.52-0.12-0.7-0.34c-0.3-0.38-0.23-0.94,0.15-1.24c1.18-0.92,2.42-1.8,3.68-2.61C24,8.46,24.54,8.58,24.8,8.99
					c0.26,0.41,0.14,0.96-0.27,1.22c-1.22,0.78-2.41,1.63-3.55,2.51C20.83,12.85,20.64,12.91,20.45,12.91z M78.97,12.47
					c-0.19,0-0.37-0.06-0.53-0.18c-1.16-0.87-2.36-1.7-3.59-2.46c-0.41-0.26-0.54-0.8-0.29-1.22c0.26-0.41,0.8-0.55,1.22-0.29
					c1.27,0.79,2.52,1.65,3.72,2.55c0.39,0.29,0.47,0.85,0.17,1.24C79.5,12.35,79.24,12.47,78.97,12.47z M28.69,7.74
					c-0.33,0-0.64-0.18-0.79-0.49c-0.22-0.44-0.04-0.97,0.4-1.18c1.34-0.67,2.73-1.28,4.13-1.81c0.46-0.17,0.97,0.05,1.14,0.51
					c0.17,0.45-0.05,0.97-0.51,1.14C31.71,6.41,30.37,7,29.08,7.64C28.95,7.71,28.82,7.74,28.69,7.74z M70.65,7.41
					c-0.13,0-0.26-0.03-0.38-0.09c-1.3-0.62-2.65-1.19-4.01-1.69c-0.46-0.17-0.69-0.67-0.53-1.13s0.67-0.7,1.13-0.53
					c1.41,0.52,2.81,1.1,4.16,1.75c0.44,0.21,0.63,0.74,0.42,1.18C71.3,7.23,70.98,7.41,70.65,7.41z M37.8,4.33
					c-0.39,0-0.75-0.26-0.85-0.66c-0.12-0.47,0.16-0.96,0.63-1.08c1.45-0.38,2.93-0.69,4.41-0.94C42.47,1.56,42.92,1.9,43,2.38
					c0.08,0.48-0.25,0.94-0.73,1.01c-1.42,0.23-2.86,0.54-4.25,0.9C37.95,4.32,37.87,4.33,37.8,4.33z M61.48,4.15
					c-0.07,0-0.14-0.01-0.21-0.03c-1.4-0.34-2.84-0.63-4.27-0.84c-0.48-0.07-0.81-0.52-0.74-1c0.07-0.48,0.52-0.81,1-0.74
					c1.48,0.22,2.97,0.51,4.43,0.87c0.47,0.12,0.76,0.59,0.65,1.07C62.24,3.88,61.88,4.15,61.48,4.15z M47.41,2.83
					c-0.47,0-0.86-0.36-0.88-0.84c-0.03-0.49,0.35-0.9,0.83-0.93C48.25,1.02,49.13,1.01,50,1c0.63,0,1.25,0.01,1.88,0.04
					c0.49,0.02,0.87,0.43,0.85,0.92c-0.02,0.49-0.41,0.89-0.92,0.85c-0.62-0.02-1.24-0.04-1.86-0.03c-0.82,0-1.66,0.02-2.49,0.07
					C47.45,2.83,47.43,2.83,47.41,2.83z"/>
			</g>
			<ellipse class="st1" cx="50" cy="49.87" rx="38.26" ry="38.28"/>
		</g>
		<g>
			<g>
				<polygon class="st2" points="25.22,73.42 31.61,80.85 31.37,34.98 25,29.96 				"/>
				<polygon class="st3" points="50.06,34.06 31.37,34.98 31.61,80.85 50.29,79.26 				"/>
				<polygon class="st3" points="25,29.96 31.37,34.98 30.02,27.72 				"/>
				<polygon class="st3" points="45.38,22.35 29.99,22.75 30.02,27.72 45.69,27.64 				"/>
				<g>
					<g>
						<path class="st4" d="M36.34,43.5c0.11-0.41,0.28-0.56,0.7-0.57l0.38,0c0.46-0.01,0.7,0.29,0.71,0.72l0.04,3.01
							c0,0.4-0.23,0.6-0.59,0.61c-0.36,0-0.6-0.19-0.61-0.59l-0.02-2.04l-0.01,0l-0.58,2.27c-0.07,0.29-0.21,0.37-0.53,0.38
							c-0.32,0-0.46-0.08-0.53-0.37l-0.63-2.26l-0.01,0l0.02,2.04c0,0.4-0.23,0.6-0.59,0.61c-0.36,0-0.6-0.19-0.61-0.59l-0.04-3.01
							c-0.01-0.43,0.23-0.73,0.69-0.74l0.38,0c0.42-0.01,0.6,0.14,0.72,0.55l0.58,2.07l0.01,0L36.34,43.5z"/>
					</g>
					<g>
						<path class="st4" d="M38.99,43.63c-0.01-0.45,0.25-0.72,0.66-0.73c0.41,0,0.67,0.27,0.68,0.71l0.03,2.9
							c0.01,0.45-0.25,0.72-0.66,0.73c-0.41,0-0.67-0.27-0.68-0.71L38.99,43.63z"/>
					</g>
					<g>
						<path class="st4" d="M44.04,46.03c0.34,0,0.58,0.19,0.58,0.53c0,0.34-0.23,0.54-0.57,0.55l-1.98,0.02
							c-0.52,0.01-0.77-0.23-0.77-0.79l-0.03-2.75c-0.01-0.45,0.25-0.72,0.66-0.73c0.41,0,0.67,0.27,0.68,0.71l0.03,2.46
							L44.04,46.03z"/>
					</g>
					<g>
						<path class="st4" d="M47.54,43.2c0.26-0.29,0.39-0.4,0.61-0.4c0.36,0,0.6,0.31,0.6,0.56c0,0.19-0.08,0.3-0.25,0.49l-0.62,0.7
							l1.04,1.58c0.08,0.12,0.14,0.25,0.14,0.39c0,0.35-0.32,0.62-0.67,0.62c-0.21,0-0.4-0.05-0.56-0.29l-0.93-1.4l-0.37,0.42
							l0.01,0.58c0.01,0.45-0.25,0.72-0.66,0.73c-0.41,0-0.67-0.27-0.68-0.71l-0.03-2.9c-0.01-0.45,0.25-0.72,0.66-0.73
							c0.41,0,0.67,0.27,0.68,0.71l0.01,0.83L47.54,43.2z"/>
					</g>
				</g>
				<g>
					<polygon class="st2" points="45.65,27.05 30.02,27.72 31.37,34.98 50.06,34.06 					"/>
					<path class="st5" d="M50.54,34.06C50.54,34.05,50.53,34.05,50.54,34.06c0-0.02-0.01-0.04-0.01-0.05
						c-0.01-0.06-0.02-0.12-0.05-0.18c0-0.01,0-0.02-0.01-0.03l-4.33-6.89l-0.27-4.59c-0.02-0.26-0.23-0.46-0.49-0.45l-15.38,0.41
						c-0.26,0.01-0.47,0.22-0.47,0.48l0.02,4.65l-4.74,2.11c0,0,0,0-0.01,0.01c0,0-0.01,0-0.01,0c-0.02,0.01-0.03,0.03-0.05,0.05
						c-0.05,0.03-0.1,0.07-0.13,0.12c-0.02,0.03-0.02,0.06-0.04,0.09c-0.02,0.04-0.04,0.07-0.05,0.12c0,0.01,0.01,0.02,0,0.03
						c0,0.01-0.01,0.02-0.01,0.03l0.22,43.47c0,0.11,0.04,0.22,0.12,0.31l6.39,7.43c0.01,0.01,0.02,0.01,0.02,0.02
						c0.01,0.01,0.01,0.02,0.02,0.02c0.03,0.02,0.06,0.04,0.09,0.05c0.02,0.01,0.03,0.02,0.05,0.03c0.06,0.02,0.12,0.04,0.19,0.04
						c0.01,0,0.03,0,0.04,0l18.68-1.6c0.25-0.02,0.44-0.23,0.44-0.48L50.54,34.06z M25.92,30.07l3.74-1.67l1.01,5.41l-1.76-1.38
						L25.92,30.07z M49.21,33.62l-17.44,0.86L30.6,28.2l15.1-0.08c0.02,0,0.03-0.01,0.05-0.01L49.21,33.62z M44.93,22.84l0.22,3.75
						L30.5,27.22l-0.02-3.99L44.93,22.84z M25.48,30.95l1.29,1.02l4.12,3.25l0.23,44.33l-5.42-6.3L25.48,30.95z M32.09,80.33
						l-0.23-44.89l16.81-0.83l0.91-0.05l0.23,44.25L32.09,80.33z"/>
				</g>
				<g>
					<path class="st4" d="M49.04,49.93c0.01,0.37-0.28,0.68-0.65,0.69l-14.23,0.42c-0.37,0.01-0.68-0.28-0.69-0.65l0,0
						c-0.01-0.37,0.28-0.68,0.65-0.69l14.23-0.42C48.72,49.27,49.03,49.56,49.04,49.93L49.04,49.93z"/>
					<path class="st5" d="M34.14,51.53c-0.29,0-0.57-0.11-0.79-0.31c-0.22-0.21-0.35-0.5-0.36-0.81c-0.02-0.64,0.48-1.17,1.12-1.19
						l14.23-0.42c0.29-0.01,0.6,0.1,0.82,0.31c0.22,0.21,0.35,0.5,0.36,0.81c0.02,0.64-0.48,1.17-1.12,1.19l-14.23,0.42
						C34.16,51.53,34.15,51.53,34.14,51.53z M48.37,49.76C48.36,49.76,48.36,49.76,48.37,49.76l-14.23,0.42
						c-0.11,0-0.19,0.09-0.19,0.2c0,0.09,0.12,0.23,0.2,0.19l14.23-0.42c0.11,0,0.19-0.09,0.19-0.2v0c0-0.07-0.04-0.11-0.06-0.13
						C48.48,49.79,48.43,49.76,48.37,49.76z"/>
				</g>
				<g>
					<path class="st4" d="M39.38,39.92c-0.29,0.79-1.71,2.75,0.33,2.56c1.41-0.13,0.24-1.98-0.27-2.43L39.38,39.92z"/>
				</g>
				<g>
					<path class="st4" d="M48.22,66.24l0,0.02c-0.31-0.21-0.47-1.4-1.07-0.99c-0.11-0.09-0.22-0.17-0.25-0.2
						c-0.23-0.18-0.46-0.34-0.71-0.5c-0.18-0.12-0.35-0.28-0.53-0.41c-0.03-0.11-0.06-0.2-0.09-0.26c-0.46-0.88-1.52-0.96-2.42-0.87
						c-0.85,0.09-3.56,0.1-3.56-0.13c-0.01-0.35-0.05-0.74-0.13-1.12c0.22-0.13,0.42-0.32,0.6-0.59c0.3-0.48,0.56-1.52,0.03-1.92
						c-0.12,0.62-0.57,1.03-1.16,1.25c-0.29-0.37-0.84-0.57-1.37-0.51c-0.46,0.05-0.94,0.08-1.26,0.37
						c-0.65-0.23-0.93-0.52-1.12-1.11c-0.38,0.69-0.2,2.06,0.56,2.3c-0.1,1.4-0.37,2.85,0.7,3.08c0.77,0.17,1.16,0.1,1.16,0.1
						c0.1,0.4,0.28,4.09,0.44,4.41c0.15,0.31,1.16,0.31,1.52,0.06c0.31-0.21-0.1-2.42,0.21-2.37c0.85,0.13,3.82-0.1,4.31,0.13
						c0.15,0.07,0.08,1.89,0.16,2.13c0.37,0.12,1.22,0.12,1.59-0.04c0.03-0.69,0.07-2.92-0.06-4.26c0.36,0.29,0.83,0.56,1.18,0.72
						c-0.05,0.18,0.03,0.37,0.2,0.48c0.25,0.16,0.57,0.11,0.83,0.17c0.1,0.02,0.2,0.07,0.29,0.1
						C48.25,66.27,48.23,66.26,48.22,66.24z"/>
					<path class="st5" d="M38.76,69.87c-0.21,0-0.4-0.02-0.56-0.07c-0.3-0.08-0.51-0.23-0.61-0.45c-0.1-0.22-0.16-0.75-0.32-2.82
						c-0.03-0.45-0.07-0.96-0.1-1.31c-0.21-0.01-0.49-0.05-0.84-0.12c-1.36-0.3-1.23-1.85-1.12-3.11l0.01-0.17
						c-0.23-0.17-0.42-0.42-0.55-0.74c-0.26-0.66-0.23-1.51,0.07-2.06c0.09-0.17,0.27-0.27,0.47-0.25c0.19,0.02,0.35,0.15,0.41,0.33
						c0.13,0.38,0.27,0.57,0.6,0.72c0.37-0.22,0.81-0.26,1.21-0.3c0.61-0.06,1.18,0.1,1.58,0.41c0.26-0.15,0.52-0.39,0.59-0.77
						c0.03-0.16,0.14-0.3,0.3-0.36c0.15-0.06,0.33-0.04,0.46,0.06c0.82,0.62,0.46,1.97,0.09,2.56c-0.14,0.21-0.29,0.39-0.47,0.55
						c0.03,0.19,0.05,0.37,0.07,0.56c0.66,0.08,2.34,0.08,3.05,0c1.46-0.15,2.43,0.23,2.9,1.13c0.03,0.06,0.06,0.13,0.08,0.2
						c0.04,0.03,0.07,0.06,0.11,0.09c0.09,0.07,0.17,0.14,0.26,0.2c0.26,0.17,0.51,0.34,0.75,0.53c0.01,0.01,0.02,0.02,0.03,0.02
						c0.14-0.03,0.26-0.01,0.36,0.01c0.42,0.11,0.62,0.53,0.78,0.87c0.04,0.08,0.09,0.18,0.13,0.25c0.03,0.02,0.06,0.05,0.09,0.08
						c0.03,0.03,0.08,0.1,0.1,0.13c0.1,0.18,0.07,0.4-0.06,0.55c-0.13,0.15-0.35,0.2-0.53,0.13c-0.11-0.04-0.17-0.07-0.23-0.08
						c-0.07-0.02-0.14-0.02-0.22-0.02c-0.22-0.02-0.49-0.04-0.76-0.2c-0.22-0.14-0.37-0.35-0.42-0.59c-0.05-0.03-0.1-0.05-0.16-0.09
						c0.05,1.27,0.02,2.76,0,3.34c-0.01,0.19-0.12,0.35-0.29,0.42c-0.49,0.21-1.45,0.2-1.92,0.06c-0.15-0.05-0.26-0.16-0.31-0.31
						c-0.05-0.16-0.06-0.4-0.08-1.04c-0.01-0.24-0.01-0.61-0.03-0.84c-0.42-0.04-1.33-0.03-1.97-0.02c-0.59,0.01-1.16,0.02-1.59,0
						c0,0.17,0.01,0.38,0.02,0.54c0.04,0.96,0.05,1.47-0.31,1.72C39.55,69.79,39.14,69.87,38.76,69.87z M38.45,68.88
						c0.18,0.05,0.53,0.04,0.73-0.02c0.02-0.21,0.01-0.65-0.01-0.92c-0.04-0.83-0.04-1.21,0.22-1.44c0.11-0.1,0.3-0.15,0.44-0.13
						c0.33,0.05,1.11,0.04,1.86,0.03c1.54-0.02,2.25-0.01,2.59,0.15c0.35,0.17,0.36,0.51,0.38,1.66c0,0.16,0.01,0.35,0.01,0.5
						c0.21,0.02,0.47,0.01,0.67-0.01c0.02-0.93,0.04-2.71-0.07-3.83c-0.01-0.12,0.02-0.23,0.09-0.33c-0.09-0.07-0.15-0.16-0.18-0.27
						c-0.03-0.11-0.05-0.15-0.05-0.15c-0.27-0.51-0.92-0.72-1.94-0.61c-0.03,0-3.4,0.23-3.91-0.22c-0.1-0.09-0.18-0.24-0.18-0.38
						c-0.01-0.35-0.05-0.7-0.12-1.03c-0.05-0.2,0.04-0.41,0.22-0.52c0.17-0.11,0.32-0.25,0.44-0.44c0.07-0.1,0.12-0.23,0.16-0.36
						c-0.2,0.16-0.45,0.3-0.72,0.4c-0.2,0.07-0.42,0.01-0.55-0.16c-0.18-0.23-0.56-0.36-0.94-0.33c-0.44,0.04-0.8,0.08-0.98,0.25
						c-0.13,0.12-0.32,0.16-0.49,0.1c-0.24-0.09-0.45-0.19-0.63-0.31c0.02,0.08,0.04,0.15,0.07,0.22c0.05,0.11,0.15,0.31,0.31,0.36
						c0.21,0.07,0.35,0.27,0.33,0.49l-0.04,0.5c-0.12,1.39-0.09,1.98,0.37,2.08c0.65,0.14,0.98,0.1,0.98,0.1
						c0.24-0.04,0.48,0.12,0.54,0.36c0.05,0.19,0.09,0.68,0.17,1.84C38.29,67.24,38.38,68.48,38.45,68.88z"/>
				</g>
			</g>
			<g>
				<g>
					<path class="st6" d="M61.58,80.65c-0.02-0.43-0.04-0.85-0.04-1.26c0-1.81,0-3.62,0-5.44c0-5.78,0-11.56,0-17.35H50.29H39.04
						c0,5.78,0,11.56,0,17.35c0,1.81,0,3.62,0,5.44c0,0.41-0.02,0.84-0.04,1.26c-0.1,0.45-0.11,0.91-0.02,1.36
						c0.04,1.14,0.28,2.22,1.22,3.04c0.97,0.84,2.25,1.22,3.5,1.51c2.16,0.5,11.03,0.5,13.19,0c1.25-0.29,2.53-0.67,3.5-1.51
						c0.94-0.82,1.19-1.9,1.22-3.04C61.69,81.56,61.67,81.1,61.58,80.65z"/>
					<path class="st5" d="M50.29,87.43c-2.79,0-5.58-0.13-6.7-0.39c-1.3-0.3-2.65-0.7-3.7-1.62c-1.17-1.01-1.36-2.34-1.39-3.39
						c-0.09-0.43-0.08-0.95,0.03-1.48l0-0.05c0.02-0.37,0.04-0.75,0.04-1.11V56.61c0-0.27,0.21-0.48,0.48-0.48h22.5
						c0.27,0,0.48,0.21,0.48,0.48v22.78c0,0.35,0.02,0.72,0.03,1.09l0.01,0.12c0.11,0.51,0.11,1.02,0.02,1.51
						c-0.02,0.97-0.21,2.3-1.38,3.31c-1.05,0.91-2.4,1.31-3.7,1.62C55.86,87.3,53.08,87.43,50.29,87.43z M39.52,57.09v22.3
						c0,0.38-0.02,0.76-0.04,1.15l-0.01,0.13c-0.1,0.48-0.1,0.87-0.03,1.25c0.05,1.36,0.37,2.16,1.07,2.77
						c0.89,0.77,2.11,1.13,3.29,1.4c2.12,0.49,10.85,0.49,12.97,0c1.18-0.27,2.39-0.63,3.29-1.4c0.7-0.61,1.02-1.41,1.06-2.69
						c0.08-0.45,0.07-0.85-0.01-1.25c-0.01-0.03-0.01-0.05-0.01-0.08l-0.01-0.15c-0.02-0.38-0.03-0.76-0.03-1.13v-22.3H39.52z"/>
				</g>
				<g>
					<path class="st7" d="M60.24,79.7c-0.02-0.41-0.04-0.82-0.04-1.21c0-1.74,0-3.48,0-5.22c0-5.55,0-11.11,0-16.66h-9.92h-9.92
						c0,5.55,0,11.11,0,16.66c0,1.74,0,3.48,0,5.22c0,0.39-0.02,0.8-0.04,1.21c-0.09,0.43-0.1,0.87-0.02,1.31
						c0.03,1.1,0.25,2.14,1.08,2.92c0.85,0.81,1.98,1.17,3.08,1.45c1.91,0.48,9.72,0.48,11.63,0c1.1-0.28,2.23-0.64,3.08-1.45
						c0.83-0.78,1.05-1.82,1.08-2.92C60.34,80.57,60.33,80.13,60.24,79.7z"/>
				</g>
				<g>
					<path class="st8" d="M60.21,66.28H40.37c0,2.33,0,4.65,0,6.98c0,1.74,0,3.48,0,5.22c0,0.39-0.02,0.8-0.04,1.21
						c-0.09,0.43-0.1,0.87-0.02,1.31c0.03,1.1,0.25,2.14,1.08,2.92c0.85,0.81,1.98,1.17,3.08,1.45c1.91,0.48,9.72,0.48,11.63,0
						c1.1-0.28,2.23-0.64,3.08-1.45c0.83-0.78,1.05-1.82,1.08-2.92c0.08-0.44,0.06-0.88-0.02-1.31c-0.02-0.41-0.04-0.82-0.04-1.21
						c0-1.74,0-3.48,0-5.22C60.21,70.94,60.21,68.61,60.21,66.28z"/>
					<path class="st5" d="M50.29,86.22c-2.47,0-4.93-0.13-5.93-0.38c-1.16-0.29-2.36-0.68-3.3-1.57c-1.03-0.98-1.2-2.25-1.23-3.26
						c-0.08-0.41-0.07-0.91,0.03-1.42l0-0.04c0.02-0.36,0.03-0.72,0.03-1.08v-12.2c0-0.27,0.21-0.48,0.48-0.48h19.84
						c0.27,0,0.48,0.21,0.48,0.48v12.2c0,0.34,0.02,0.7,0.03,1.05l0.01,0.14c0.09,0.43,0.1,0.93,0.02,1.41
						c-0.02,0.93-0.19,2.21-1.22,3.19c-0.94,0.89-2.14,1.28-3.3,1.57C55.22,86.1,52.76,86.22,50.29,86.22z M40.85,66.76v11.72
						c0,0.36-0.02,0.74-0.03,1.12l-0.01,0.12c-0.09,0.46-0.09,0.84-0.03,1.21c0.04,1.3,0.32,2.07,0.94,2.65
						c0.78,0.73,1.84,1.08,2.87,1.33c1.81,0.46,9.59,0.46,11.4,0c1.03-0.26,2.09-0.6,2.87-1.33c0.61-0.58,0.89-1.35,0.93-2.58
						c0.07-0.43,0.06-0.81-0.01-1.2l-0.02-0.21c-0.02-0.37-0.03-0.74-0.03-1.09V66.76H40.85z"/>
				</g>
				<g>
					<ellipse class="st4" cx="50.29" cy="66.92" rx="9.92" ry="1.71"/>
					<path class="st5" d="M50.29,69.11c-1.06,0-10.4-0.06-10.4-2.19c0-2.13,9.34-2.19,10.4-2.19s10.4,0.06,10.4,2.19
						C60.69,69.05,51.36,69.11,50.29,69.11z M40.9,66.92c0.54,0.45,3.67,1.23,9.39,1.23c5.72,0,8.85-0.77,9.39-1.23
						c-0.54-0.45-3.67-1.23-9.39-1.23S41.44,66.46,40.9,66.92z M59.75,66.99L59.75,66.99L59.75,66.99z"/>
				</g>
				<g>
					<ellipse class="st6" cx="50.29" cy="56.61" rx="11.25" ry="1.71"/>
					<path class="st5" d="M50.29,58.8c-1.96,0-11.73-0.11-11.73-2.19c0-2.08,9.77-2.19,11.73-2.19s11.73,0.11,11.73,2.19
						C62.02,58.69,52.25,58.8,50.29,58.8z M39.6,56.61c0.75,0.53,4.71,1.23,10.69,1.23c5.98,0,9.94-0.7,10.69-1.23
						c-0.75-0.53-4.71-1.23-10.69-1.23S40.35,56.07,39.6,56.61z M61.08,56.7L61.08,56.7L61.08,56.7z"/>
				</g>
				<g class="st9">
					<path class="st4" d="M42.8,61.98c0.02,3.82,0.04,7.65,0.06,11.47c0.01,1.16,0.01,2.33,0.22,3.47c0.07,0.37,0.16,0.75,0.41,1.04
						c0.25,0.28,0.69,0.43,1.01,0.24c0.2-0.12,0.32-0.34,0.39-0.57c0.25-0.78,0.06-1.62-0.1-2.42c-0.75-3.76-0.78-7.67-0.08-11.44
						c0.17-0.93,0.8-2.76-0.18-3.44C43.37,59.52,42.8,61.09,42.8,61.98z"/>
				</g>
				<g class="st9">
					<path class="st4" d="M43.39,80.14c-0.12,0.39-0.08,0.81-0.02,1.22c0.13,0.87,0.38,1.81,1.11,2.31
						c0.13,0.09,0.28,0.16,0.44,0.18c0.32,0.04,0.65-0.14,0.84-0.41s0.28-0.59,0.33-0.91c0.08-0.53,0.06-1.08-0.04-1.61
						c-0.09-0.44-0.24-0.88-0.56-1.19C44.87,79.11,43.67,79.27,43.39,80.14z"/>
				</g>
			</g>
		</g>
		<g>
			<g>
				<g>
					<path class="st10" d="M60.42,26.2l14.67,3.98c0,0-4.37,4.09-10.19,1.4c0,0-1.7,4.8-4.21,0.16l-4.75,0.29
						C55.94,32.02,55.94,27.54,60.42,26.2z"/>
				</g>
				<g>
					<path class="st11" d="M62.84,34.21c-0.84,0-1.64-0.66-2.41-2.01l-4.47,0.27c-0.12,0-0.24-0.04-0.33-0.12
						c-0.09-0.08-0.14-0.2-0.14-0.33c0-0.05,0.05-4.83,4.8-6.25c0.08-0.02,0.16-0.02,0.25,0l14.67,3.98
						c0.16,0.04,0.28,0.17,0.32,0.32c0.04,0.16-0.01,0.32-0.13,0.44c-0.05,0.04-4.44,4.06-10.26,1.66c-0.32,0.7-1.05,1.95-2.16,2.03
						C62.93,34.2,62.88,34.21,62.84,34.21z M60.68,31.29c0.16,0,0.32,0.09,0.39,0.23c0.64,1.19,1.29,1.83,1.82,1.78
						c0.76-0.06,1.41-1.41,1.57-1.88c0.04-0.12,0.13-0.21,0.25-0.26c0.12-0.05,0.25-0.05,0.36,0.01c4.19,1.94,7.62,0.17,9.02-0.79
						l-13.68-3.71c-3.17,1.01-3.85,3.77-4,4.88l4.23-0.26C60.67,31.29,60.68,31.29,60.68,31.29z"/>
				</g>
			</g>
			<g>
				<path class="st11" d="M76.64,49.8c0.01,0.21-0.16,0.43-0.37,0.48c-4.8,1.06-9.83,0.88-14.58-0.27
					c-0.12-0.03-0.17-0.15-0.15-0.26c-0.01-0.02-0.03-0.04-0.04-0.06c-0.41-0.96-1.6-0.83-1.85,0.22c-0.04,0.19-0.23,0.33-0.43,0.33
					c-1.32,0.01-2.62,0.04-3.92,0.26c-0.36,0.06-0.63-0.21-0.57-0.57c1.04-6.18,2.64-12.01,0.95-18.24
					c-0.07-0.26,0.29-0.45,0.45-0.26c0.08-0.06,0.18-0.1,0.31-0.09c1.51,0.2,3.02,0.18,4.54,0.29c0.18,0.02,0.26,0.17,0.21,0.3
					c0.02,0.03,0.04,0.06,0.06,0.11c0.63,2.29,3.15,2.06,3.11-0.43c0-0.26,0.26-0.47,0.52-0.39c3.2,0.95,7.02,0.81,9.8-1.18
					c0.29-0.21,0.58,0.13,0.53,0.41c-0.46,2.92,0.73,5.97-0.07,8.82c-0.07,0.24-0.37,0.26-0.5,0.1c-0.3,0.28-0.68,0.52-0.77,0.93
					c-0.13,0.58,0.87,0.68,1.25,0.73c0.24,0.03,0.44,0.18,0.44,0.44c0,0.37,0.03,0.73,0.07,1.1c0.01,0.04,0.02,0.08,0.01,0.13
					c0,0,0,0,0,0c-0.03,0.22-0.31,0.45-0.53,0.26c-0.05,0.06-0.13,0.11-0.24,0.12c-2.65,0.29-1.6,3.41,0.63,2.74
					c0.24-0.07,0.51,0.08,0.57,0.32C76.38,47.35,76.59,48.56,76.64,49.8z M74.73,49.57c1.38-0.26,0.86-1.62,0.55-2.77
					c-3.05,0.31-4.09-4.31-0.46-4.41c-0.05-0.18-0.09-0.36-0.11-0.54c-0.73-0.15-1.67-0.5-1.67-1.35c0.01-0.76,0.75-1.68,1.49-1.85
					c0.01,0,0.02,0,0.03,0c-0.1-2.45-0.64-5.06-0.24-7.49c-2.71,1.64-6.17,1.81-9.19,0.99c-0.47,2.85-4.72,3.24-4.43,0.07
					c-1.34,0.45-2.77,0.43-4.16,0.2c1.98,5.43,0.22,11.63-0.8,17.14c1.28-0.04,2.96,0.11,3.4-0.97c0.21-0.51,0.56-0.79,1.06-0.98
					c1.1-0.42,1.81,1.15,1.83,1.95c0,0.02,0,0.04-0.01,0.06c2.64,0.25,5.34,0.42,7.99,0.36C71.59,49.92,73.18,49.85,74.73,49.57z"/>
				<path class="st12" d="M75.28,46.8c0.31,1.16,0.84,2.52-0.55,2.77c-1.55,0.28-3.14,0.35-4.71,0.39
					c-2.65,0.06-5.35-0.11-7.99-0.36c0-0.02,0.01-0.04,0.01-0.06c-0.02-0.8-0.73-2.37-1.83-1.95c-0.49,0.19-0.85,0.47-1.06,0.98
					c-0.45,1.08-2.12,0.93-3.4,0.97c1.03-5.51,2.78-11.71,0.8-17.14c1.39,0.22,2.82,0.25,4.16-0.2c-0.3,3.18,3.95,2.78,4.43-0.07
					c3.02,0.81,6.49,0.64,9.19-0.99c-0.4,2.42,0.14,5.04,0.24,7.49c-0.01,0-0.02,0-0.03,0c-0.74,0.16-1.48,1.09-1.49,1.85
					c-0.01,0.86,0.94,1.21,1.67,1.35c0.02,0.18,0.06,0.36,0.11,0.54C71.19,42.49,72.23,47.11,75.28,46.8z M71.18,45.47
					c0.14-1.11-1.05-1.53-1.96-1.41c-0.16,0.02-0.32,0.07-0.47,0.13c0.13-0.11,0.27-0.21,0.42-0.29c0.18-0.11,0.06-0.41-0.15-0.35
					c-0.85,0.26-1.53,0.84-1.67,1.76c-0.12,0.72,0.15,1.47,0.69,1.96C69.32,48.41,71.01,46.84,71.18,45.47z M70.73,38.24
					c0.24-1.07-0.32-2.44-1.33-2.79c0.03-0.05,0.02-0.12-0.05-0.13c-2.87-0.44-5.37,4.83-1.98,5.5
					C69.04,41.15,70.38,39.76,70.73,38.24z M61.79,44.33c0.56-0.46,0.9-1.28,0.83-2c-0.09-0.95-0.92-1.43-1.76-1.63
					c-0.01-0.08-0.13-0.14-0.2-0.08c-0.01,0.01-0.02,0.02-0.03,0.03c-0.02,0-0.04,0-0.05-0.01c-0.16-0.03-0.38,0.04-0.41,0.23
					c-0.01,0.1-0.01,0.19-0.02,0.28c-0.71,0.91-0.65,1.91-0.04,3.05C60.49,44.92,61.24,44.78,61.79,44.33z"/>
				<path class="st11" d="M69.22,44.06c0.9-0.12,2.1,0.3,1.96,1.41c-0.17,1.37-1.85,2.94-3.14,1.8c-0.55-0.48-0.81-1.24-0.69-1.96
					c0.14-0.91,0.82-1.5,1.67-1.76c0.21-0.06,0.33,0.24,0.15,0.35c-0.14,0.09-0.28,0.18-0.42,0.29
					C68.9,44.13,69.06,44.09,69.22,44.06z M70.16,46.18c0.21-0.3,0.47-0.72,0.32-1.1c-0.2-0.5-1.1-0.56-1.51-0.35
					c-0.78,0.4,0.71,1.22,1.16,1.49C70.14,46.21,70.15,46.19,70.16,46.18z M68.72,46.9c0.39,0.19,0.74,0.03,1.03-0.23
					c-0.39-0.19-0.78-0.45-1.08-0.75c-0.29-0.27-0.56-0.65-0.5-1.05c-0.11,0.22-0.18,0.45-0.17,0.71
					C68.01,46.09,68.24,46.67,68.72,46.9z"/>
				<path class="st11" d="M69.4,35.45c1.01,0.35,1.57,1.72,1.33,2.79c-0.34,1.52-1.69,2.91-3.36,2.58c-3.39-0.67-0.88-5.94,1.98-5.5
					C69.41,35.33,69.42,35.4,69.4,35.45z M69.94,38.02c0.09-0.52,0.05-1.17-0.36-1.55c-0.18-0.17-0.39-0.27-0.6-0.36
					c-0.01,0.01-0.02,0.03-0.04,0.04c-0.65,0.43-1.38,1.18-1.37,2.03c0,0.92,0.77,1.03,1.33,1.51
					C69.45,39.32,69.83,38.71,69.94,38.02z M68.34,35.88c-0.04-0.02-0.09-0.04-0.13-0.05c0,0,0,0-0.01-0.01
					c-0.76,0.39-1.32,1.1-1.58,1.96c-0.27,0.91-0.25,2.27,1.03,2.29c0.11,0,0.21-0.01,0.32-0.03c-0.68-0.35-1.21-1.16-1.16-1.87
					C66.88,37.18,67.53,36.4,68.34,35.88z"/>
				<path class="st13" d="M69.75,46.67c-0.29,0.26-0.64,0.42-1.03,0.23c-0.48-0.23-0.71-0.82-0.73-1.32
					c-0.01-0.26,0.06-0.49,0.17-0.71c-0.06,0.39,0.21,0.78,0.5,1.05C68.97,46.22,69.35,46.48,69.75,46.67z"/>
				<path class="st13" d="M68.21,35.82c0.04,0.02,0.09,0.04,0.13,0.05c-0.81,0.52-1.46,1.3-1.53,2.3c-0.05,0.71,0.48,1.51,1.16,1.87
					c-0.1,0.01-0.21,0.03-0.32,0.03c-1.28-0.02-1.3-1.38-1.03-2.29C66.88,36.91,67.45,36.2,68.21,35.82
					C68.21,35.82,68.21,35.82,68.21,35.82z"/>
				<path class="st11" d="M62.62,42.33c0.07,0.72-0.27,1.54-0.83,2c-0.55,0.45-1.3,0.59-1.68-0.13c-0.61-1.14-0.67-2.15,0.04-3.05
					c0-0.09,0-0.18,0.02-0.28c0.03-0.19,0.25-0.26,0.41-0.23c0.02,0,0.04,0.01,0.05,0.01c0.01-0.01,0.02-0.02,0.03-0.03
					c0.07-0.06,0.19,0,0.2,0.08C61.7,40.9,62.53,41.38,62.62,42.33z M61.93,42.89c0.06-0.22,0.07-0.45,0-0.67
					c-0.17-0.52-0.65-0.74-1.15-0.86c-0.02,0.42,0.06,0.83,0.46,1.09C61.46,42.6,61.71,42.73,61.93,42.89z M61.6,43.59
					c0.04-0.06,0.08-0.13,0.12-0.19c-0.79-0.23-1.29-0.72-1.48-1.38c-0.12,0.6,0,1.21,0.4,1.88C60.9,44.35,61.4,43.9,61.6,43.59z"/>
				<path class="st13" d="M61.72,43.4c-0.04,0.07-0.08,0.13-0.12,0.19c-0.21,0.31-0.7,0.76-0.97,0.3c-0.4-0.66-0.52-1.27-0.4-1.88
					C60.43,42.68,60.93,43.17,61.72,43.4z"/>
			</g>
		</g>
	</g>
	<g>
		<path class="st14" d="M50,9.15c-22.38,0-40.59,18.22-40.59,40.61S27.62,90.37,50,90.37s40.59-18.22,40.59-40.61
			S72.38,9.15,50,9.15z M13.8,49.76c0-8.24,2.77-15.84,7.42-21.93l50.71,50.73c-6.09,4.65-13.69,7.42-21.92,7.42
			C30.04,85.98,13.8,69.73,13.8,49.76z M75.25,75.68L24.09,24.49C30.67,17.74,39.85,13.54,50,13.54c19.96,0,36.2,16.25,36.2,36.22
			C86.2,59.91,82,69.1,75.25,75.68z"/>
	</g>
</g>
</svg>
