<?xml version="1.0" encoding="utf-8"?>
<!-- Generator: Adobe Illustrator 23.1.0, SVG Export Plug-In . SVG Version: 6.00 Build 0)  -->
<svg version="1.1" id="Capa_1" xmlns="http://www.w3.org/2000/svg" xmlns:xlink="http://www.w3.org/1999/xlink" x="0px" y="0px"
	 viewBox="0 0 100 100" style="enable-background:new 0 0 100 100;" xml:space="preserve">
<style type="text/css">
	.st0{fill:#F9F9F9;}
	.st1{fill:#DCDCDC;}
	.st2{fill:#E3827E;}
	.st3{fill:#F5F5F5;}
	.st4{fill:#5D5F67;}
	.st5{fill:#F1CE73;}
	.st6{fill:#EAAD3E;}
	.st7{fill:#EABC48;}
</style>
<g>
	<g>
		<g>
			<path class="st0" d="M47.61,99c-0.01,0-0.03,0-0.04,0c-1.5-0.07-3.01-0.22-4.49-0.43c-0.48-0.07-0.82-0.52-0.75-1
				s0.52-0.82,1-0.75c1.43,0.2,2.88,0.34,4.33,0.41c0.49,0.02,0.86,0.44,0.84,0.93C48.47,98.63,48.08,99,47.61,99z M52.92,98.97
				c-0.46,0-0.85-0.36-0.88-0.83c-0.03-0.49,0.34-0.9,0.83-0.93c1.44-0.09,2.9-0.24,4.32-0.46c0.48-0.07,0.93,0.26,1.01,0.74
				c0.07,0.48-0.26,0.93-0.74,1.01c-1.48,0.23-2.99,0.39-4.48,0.48C52.96,98.97,52.94,98.97,52.92,98.97z M37.99,97.55
				c-0.07,0-0.15-0.01-0.22-0.03c-1.45-0.37-2.9-0.82-4.31-1.33c-0.46-0.16-0.7-0.67-0.53-1.13c0.16-0.46,0.67-0.7,1.13-0.53
				c1.36,0.49,2.76,0.92,4.16,1.28c0.47,0.12,0.76,0.6,0.64,1.08C38.74,97.28,38.38,97.55,37.99,97.55z M62.53,97.41
				c-0.39,0-0.75-0.26-0.85-0.65c-0.13-0.47,0.15-0.96,0.62-1.08c1.4-0.38,2.79-0.82,4.14-1.32c0.46-0.17,0.97,0.06,1.14,0.52
				c0.17,0.46-0.06,0.97-0.52,1.14c-1.4,0.52-2.85,0.98-4.3,1.37C62.68,97.4,62.61,97.41,62.53,97.41z M28.86,94.17
				c-0.13,0-0.26-0.03-0.39-0.09c-1.34-0.66-2.67-1.39-3.96-2.17c-0.42-0.25-0.55-0.8-0.29-1.21c0.25-0.42,0.8-0.55,1.21-0.29
				c1.24,0.75,2.52,1.46,3.81,2.09c0.44,0.21,0.62,0.74,0.4,1.18C29.5,93.99,29.19,94.17,28.86,94.17z M71.62,93.94
				c-0.32,0-0.63-0.18-0.79-0.49c-0.22-0.44-0.04-0.97,0.39-1.19c1.29-0.65,2.57-1.37,3.79-2.13c0.42-0.26,0.96-0.13,1.22,0.28
				c0.26,0.41,0.13,0.96-0.28,1.22c-1.27,0.79-2.59,1.54-3.93,2.21C71.89,93.9,71.75,93.94,71.62,93.94z M20.6,89.03
				c-0.19,0-0.38-0.06-0.54-0.18c-1.18-0.92-2.34-1.9-3.44-2.92c-0.36-0.33-0.38-0.89-0.05-1.25c0.33-0.36,0.89-0.38,1.25-0.05
				c1.06,0.99,2.18,1.93,3.32,2.82c0.39,0.3,0.46,0.85,0.16,1.24C21.12,88.91,20.86,89.03,20.6,89.03z M79.82,88.7
				c-0.26,0-0.52-0.11-0.69-0.34c-0.3-0.38-0.24-0.94,0.14-1.24c1.13-0.9,2.24-1.86,3.28-2.85c0.35-0.33,0.91-0.32,1.25,0.03
				c0.34,0.35,0.32,0.91-0.03,1.25c-1.08,1.03-2.23,2.03-3.41,2.96C80.21,88.64,80.01,88.7,79.82,88.7z M13.54,82.33
				c-0.25,0-0.49-0.1-0.67-0.31c-0.98-1.14-1.92-2.33-2.79-3.55c-0.28-0.4-0.19-0.95,0.21-1.23c0.4-0.28,0.95-0.19,1.23,0.21
				c0.84,1.17,1.74,2.33,2.68,3.42c0.32,0.37,0.28,0.93-0.09,1.25C13.94,82.26,13.74,82.33,13.54,82.33z M86.81,81.92
				c-0.2,0-0.4-0.07-0.57-0.21c-0.37-0.31-0.42-0.87-0.11-1.24c0.93-1.11,1.82-2.27,2.65-3.45c0.28-0.4,0.83-0.5,1.23-0.22
				c0.4,0.28,0.5,0.83,0.22,1.23c-0.86,1.23-1.78,2.43-2.75,3.58C87.31,81.81,87.06,81.92,86.81,81.92z M7.96,74.35
				c-0.31,0-0.61-0.16-0.77-0.45c-0.73-1.31-1.41-2.67-2.01-4.04c-0.2-0.45,0-0.97,0.45-1.17c0.45-0.2,0.97,0,1.16,0.45
				c0.59,1.32,1.24,2.63,1.94,3.89c0.24,0.43,0.09,0.96-0.34,1.2C8.25,74.31,8.1,74.35,7.96,74.35z M92.3,73.88
				c-0.14,0-0.29-0.03-0.42-0.11c-0.43-0.23-0.59-0.77-0.35-1.2c0.69-1.27,1.33-2.59,1.9-3.91c0.19-0.45,0.71-0.66,1.16-0.46
				c0.45,0.19,0.66,0.71,0.46,1.16c-0.59,1.38-1.25,2.74-1.97,4.06C92.92,73.71,92.61,73.88,92.3,73.88z M4.1,65.41
				c-0.38,0-0.72-0.24-0.84-0.62c-0.45-1.43-0.84-2.9-1.16-4.36c-0.1-0.48,0.2-0.95,0.68-1.05c0.48-0.11,0.95,0.2,1.05,0.68
				c0.3,1.41,0.68,2.83,1.11,4.2c0.15,0.46-0.11,0.96-0.58,1.11C4.28,65.4,4.19,65.41,4.1,65.41z M96.06,64.89
				c-0.08,0-0.17-0.01-0.26-0.04c-0.47-0.14-0.73-0.63-0.59-1.1c0.42-1.38,0.78-2.8,1.07-4.22c0.1-0.48,0.57-0.79,1.04-0.69
				c0.48,0.1,0.79,0.56,0.69,1.04c-0.3,1.47-0.67,2.94-1.11,4.38C96.79,64.65,96.44,64.89,96.06,64.89z M2.13,55.88
				c-0.45,0-0.83-0.34-0.88-0.79c-0.15-1.48-0.24-3-0.25-4.5c-0.01-0.49,0.39-0.89,0.87-0.89c0,0,0.01,0,0.01,0
				c0.48,0,0.88,0.39,0.88,0.87c0.02,1.45,0.1,2.91,0.25,4.34c0.05,0.48-0.3,0.92-0.79,0.97C2.19,55.88,2.16,55.88,2.13,55.88z
				 M97.92,55.34c-0.03,0-0.05,0-0.08,0c-0.49-0.04-0.84-0.47-0.8-0.96c0.13-1.44,0.2-2.9,0.2-4.35l0-0.2
				c0-0.49,0.39-0.88,0.88-0.88S99,49.34,99,49.83l0,0.19c0,1.51-0.07,3.03-0.2,4.52C98.75,54.99,98.37,55.34,97.92,55.34z
				 M2.11,46.14c-0.03,0-0.06,0-0.09,0c-0.49-0.05-0.84-0.48-0.79-0.97c0.15-1.5,0.36-3,0.65-4.47c0.09-0.48,0.55-0.79,1.03-0.7
				c0.48,0.09,0.79,0.55,0.7,1.03c-0.27,1.41-0.48,2.86-0.62,4.3C2.95,45.8,2.56,46.14,2.11,46.14z M97.81,45.41
				c-0.44,0-0.83-0.33-0.88-0.78c-0.16-1.44-0.4-2.88-0.69-4.29c-0.1-0.48,0.21-0.95,0.68-1.04c0.47-0.1,0.94,0.21,1.04,0.68
				c0.31,1.46,0.55,2.96,0.72,4.45c0.06,0.48-0.29,0.92-0.78,0.98C97.87,45.4,97.84,45.41,97.81,45.41z M4.04,36.6
				c-0.09,0-0.18-0.01-0.26-0.04c-0.47-0.14-0.73-0.64-0.58-1.11c0.45-1.43,0.96-2.86,1.54-4.24c0.19-0.45,0.7-0.66,1.15-0.48
				c0.45,0.19,0.66,0.7,0.48,1.16c-0.55,1.33-1.05,2.71-1.48,4.09C4.77,36.36,4.42,36.6,4.04,36.6z M95.73,35.9
				c-0.37,0-0.72-0.24-0.84-0.61c-0.45-1.37-0.97-2.74-1.54-4.07c-0.19-0.45,0.01-0.97,0.46-1.16c0.45-0.19,0.97,0.01,1.16,0.46
				c0.6,1.38,1.14,2.8,1.6,4.22c0.15,0.46-0.1,0.96-0.56,1.11C95.91,35.88,95.82,35.9,95.73,35.9z M7.86,27.64
				c-0.14,0-0.29-0.04-0.43-0.11c-0.43-0.24-0.58-0.77-0.35-1.2c0.72-1.31,1.52-2.6,2.36-3.85c0.27-0.4,0.82-0.51,1.23-0.23
				c0.4,0.27,0.51,0.82,0.23,1.23c-0.81,1.2-1.58,2.44-2.28,3.71C8.48,27.48,8.17,27.64,7.86,27.64z M91.77,27
				c-0.31,0-0.6-0.16-0.77-0.44c-0.72-1.25-1.5-2.49-2.33-3.67c-0.28-0.4-0.18-0.95,0.21-1.23c0.4-0.28,0.95-0.18,1.23,0.21
				c0.86,1.23,1.68,2.51,2.42,3.81c0.24,0.42,0.1,0.96-0.33,1.21C92.07,26.97,91.92,27,91.77,27z M13.41,19.64
				c-0.2,0-0.41-0.07-0.57-0.21c-0.37-0.32-0.41-0.87-0.1-1.24c0.98-1.14,2.01-2.25,3.09-3.29c0.35-0.34,0.91-0.33,1.25,0.02
				c0.34,0.35,0.33,0.91-0.02,1.25c-1.03,1-2.03,2.07-2.97,3.17C13.91,19.54,13.66,19.64,13.41,19.64z M86.11,19.09
				c-0.24,0-0.49-0.1-0.66-0.3c-0.96-1.09-1.98-2.14-3.02-3.13c-0.35-0.33-0.37-0.89-0.04-1.25c0.34-0.35,0.89-0.37,1.25-0.04
				c1.08,1.02,2.14,2.12,3.14,3.24c0.32,0.37,0.29,0.92-0.08,1.25C86.52,19.02,86.32,19.09,86.11,19.09z M20.45,12.91
				c-0.26,0-0.52-0.12-0.7-0.34c-0.3-0.38-0.23-0.94,0.15-1.24c1.18-0.92,2.42-1.8,3.68-2.61C24,8.46,24.54,8.58,24.8,8.99
				c0.26,0.41,0.14,0.96-0.27,1.22c-1.22,0.78-2.41,1.63-3.55,2.51C20.83,12.85,20.64,12.91,20.45,12.91z M78.97,12.47
				c-0.19,0-0.37-0.06-0.53-0.18c-1.16-0.87-2.36-1.7-3.59-2.46c-0.41-0.26-0.54-0.8-0.29-1.22c0.26-0.41,0.8-0.55,1.22-0.29
				c1.27,0.79,2.52,1.65,3.72,2.55c0.39,0.29,0.47,0.85,0.17,1.24C79.5,12.35,79.24,12.47,78.97,12.47z M28.69,7.74
				c-0.33,0-0.64-0.18-0.79-0.49c-0.22-0.44-0.04-0.97,0.4-1.18c1.34-0.67,2.73-1.28,4.13-1.81c0.46-0.17,0.97,0.05,1.14,0.51
				c0.17,0.45-0.05,0.97-0.51,1.14C31.71,6.41,30.37,7,29.08,7.64C28.95,7.71,28.82,7.74,28.69,7.74z M70.65,7.41
				c-0.13,0-0.26-0.03-0.38-0.09c-1.3-0.62-2.65-1.19-4.01-1.69c-0.46-0.17-0.69-0.67-0.53-1.13s0.67-0.7,1.13-0.53
				c1.41,0.52,2.81,1.1,4.16,1.75c0.44,0.21,0.63,0.74,0.42,1.18C71.3,7.23,70.98,7.41,70.65,7.41z M37.8,4.33
				c-0.39,0-0.75-0.26-0.85-0.66c-0.12-0.47,0.16-0.96,0.63-1.08c1.45-0.38,2.93-0.69,4.41-0.94C42.47,1.56,42.92,1.9,43,2.38
				c0.08,0.48-0.25,0.94-0.73,1.01c-1.42,0.23-2.86,0.54-4.25,0.9C37.95,4.32,37.87,4.33,37.8,4.33z M61.48,4.15
				c-0.07,0-0.14-0.01-0.21-0.03c-1.4-0.34-2.84-0.63-4.27-0.84c-0.48-0.07-0.81-0.52-0.74-1c0.07-0.48,0.52-0.81,1-0.74
				c1.48,0.22,2.97,0.51,4.43,0.87c0.47,0.12,0.76,0.59,0.65,1.07C62.24,3.88,61.88,4.15,61.48,4.15z M47.41,2.83
				c-0.47,0-0.86-0.36-0.88-0.84c-0.03-0.49,0.35-0.9,0.83-0.93C48.25,1.02,49.13,1.01,50,1c0.63,0,1.25,0.01,1.88,0.04
				c0.49,0.02,0.87,0.43,0.85,0.92c-0.02,0.49-0.41,0.89-0.92,0.85c-0.62-0.02-1.24-0.04-1.86-0.03c-0.82,0-1.66,0.02-2.49,0.07
				C47.45,2.83,47.43,2.83,47.41,2.83z"/>
		</g>
		<ellipse class="st1" cx="50" cy="50.03" rx="35.76" ry="35.78"/>
	</g>
	<g>
		<path class="st2" d="M63.09,52.66c0.11-0.08-0.01-0.34-0.04-0.5c-0.03-0.16,0.89-0.11,0.89-0.27c0.47,0.2,0.59,0.92,1.06,1.12
			c-0.08,0.04-0.14,0.12-0.13,0.25c0.24,8.15-2.02,16.12-8.29,21.68c-5.95,5.29-13.45,7.79-21.28,8.57c-0.61,0.06-0.62,1.01,0,0.96
			c16.69-1.22,32.42-13.04,30.17-31.21c-0.01-0.02-0.02-0.04-0.02-0.06c0.64,0.27,1.26,0.55,1.9,0.81
			c2.52,18.86-15.76,30.98-32.79,31.33c-0.11-1.42-0.2-2.84-0.22-4.26C47.35,80.87,67.54,67.77,63.09,52.66z"/>
		<path class="st3" d="M48.07,89.77c-0.02,0.02-0.02,0.02-0.04,0.04c1.35,0.06,2.69,0.18,4.03,0.21c-0.17-1.03-0.33-1.99-0.75-2.96
			c-0.47-1.08-1.38-1.83-1.88-2.85c-0.51,0.21-1.02,0.41-1.54,0.59C48.82,86.29,48.89,88.2,48.07,89.77z"/>
		<path class="st3" d="M34.61,57.42c0.04,0.02,0.08,0.02,0.12,0.05c4.74,2.74,7.43,8.64,8.41,13.89c0.99-0.47,1.95-0.98,2.88-1.56
			c-1.42-5.95-5.76-9.58-10.09-13.44C35.49,56.72,35.06,57.08,34.61,57.42z"/>
		<path class="st4" d="M37.89,51.49c0.31-0.43,0.82-0.61,1.31-0.34c5.64,3.08,10.36,9.18,10.77,15.73c0.22-0.19,0.44-0.39,0.65-0.59
			c4.58-4.39,6.89-10.51,7.74-16.68c0.06-0.42,0.67-0.76,1.06-0.6c2.93,1.21,5.8,2.66,8.52,4.29c0.15,0.09,0.2,0.24,0.2,0.39
			c2.89,11.22-3.19,21.06-12.25,27.08c0.14,0.2,0.27,0.39,0.4,0.61c0.07,0.11-0.08,0.2-0.17,0.13c-0.05-0.05-0.08-0.08-0.11-0.12
			c0.15,0.39,0.31,0.77,0.45,1.16c0.42,1.19,0.71,2.44,0.86,3.69c0.2,1.57,0.36,3.87-1.07,4.97c-1.23,0.95-3.35,0.73-4.79,0.69
			c-2.27-0.05-4.7-0.53-6.96-0.2c-0.72,0.11-1.23-0.38-1.11-1.11c0.26-1.58-0.33-2.99,0.2-4.48c-3.2,0.74-6.45,1.04-9.58,0.8
			c-0.67-0.05-0.88-0.74-0.64-1.17c-0.26-2.4-0.32-4.79-0.22-7.19c-0.66-0.07-0.67-0.98,0.01-1.04c0.02,0,0.03,0,0.05,0
			c0.05-0.83,0.11-1.64,0.19-2.47c0.03-0.27,0.17-0.52,0.45-0.59c1.7-0.39,3.38-0.84,5-1.37c-1.01-5.64-2.72-10.57-7.21-14.45
			c-0.48-0.42-0.27-1.14,0.19-1.46C34.21,55.53,36.22,53.84,37.89,51.49z M62.71,52.92c-0.09-0.42,0.51-0.58,0.64-0.17
			c5.12,15.35-15.84,28.13-29.01,28.34c0.02,1.42,0.11,2.84,0.22,4.26c17.03-0.35,35.31-12.47,32.79-31.33
			c-0.64-0.27-1.26-0.54-1.9-0.81c0.01,0.02,0.02,0.04,0.02,0.06c2.25,18.17-13.48,29.99-30.17,31.21c-0.62,0.05-0.61-0.9,0-0.96
			c7.83-0.77,15.33-3.27,21.28-8.57c6.27-5.56,8.53-13.53,8.29-21.68c-0.01-0.13,0.05-0.21,0.13-0.25c-0.93-0.4-1.86-0.8-2.81-1.18
			c0.14,6.79-5.53,13.2-10.14,17.5c-4.41,4.11-11.22,9.19-17.69,9.26c-0.02,0.47-0.03,0.95-0.03,1.42
			C47.24,77.72,66.26,69.02,62.71,52.92z M43.14,71.36c0.99-0.47,1.95-0.98,2.88-1.56c-1.42-5.95-5.76-9.58-10.09-13.44
			c-0.43,0.36-0.87,0.73-1.32,1.07c0.04,0.02,0.08,0.02,0.12,0.05C39.47,60.21,42.16,66.11,43.14,71.36z M51.19,68.46
			c4.86-4.39,9.5-10.25,10.11-16.98c-0.47-0.17-0.95-0.35-1.42-0.51c-1.21,7.48-4.56,14.1-10.65,18.84
			c-3.01,2.34-6.53,3.9-10.17,4.95c-2.16,0.61-4.34,0.09-4.62,2.61C40.87,76.52,46.43,72.76,51.19,68.46z M42.53,71.65
			c-1.89-5.16-3.96-9.63-8.31-13.16c3.69,3.81,5.76,8.76,5.97,14.1C40.98,72.31,41.77,71.99,42.53,71.65z M46.64,69.41
			c0.9-0.58,1.78-1.21,2.63-1.92c-0.22-0.02-0.42-0.16-0.46-0.42c-1.04-5.67-4.92-10.88-9.86-13.84c-0.64,0.8-1.32,1.54-2.04,2.23
			C41.64,58.61,45.71,63.78,46.64,69.41z M45.22,89.82c0.68-0.05,1.37-0.05,2.07-0.04c-0.08-0.1-0.11-0.22-0.05-0.36
			c0.64-1.68,0.04-2.79-0.67-4.16c-0.59,0.19-1.18,0.37-1.78,0.53c0.06,0.09,0.11,0.2,0.12,0.33
			C45.02,87.35,45.24,88.58,45.22,89.82z M52.06,90.02c-0.17-1.03-0.33-1.99-0.75-2.96c-0.47-1.08-1.38-1.83-1.88-2.85
			c-0.51,0.21-1.02,0.41-1.54,0.59c0.93,1.48,1,3.4,0.17,4.97c-0.02,0.02-0.02,0.02-0.04,0.04C49.38,89.87,50.72,89.99,52.06,90.02z
			 M53.51,90.02c2.34-0.1,2.14-1.83,1.95-3.79c-0.14-1.52-0.51-3.1-0.94-4.59c-1.35,0.81-2.75,1.53-4.19,2.17
			c1.7,1.22,2.55,4.23,2.34,6.15c-0.01,0.02-0.02,0.05-0.02,0.07C52.94,90.04,53.22,90.03,53.51,90.02z"/>
		<path class="st3" d="M62.85,52.56c-0.11,0.07-0.18,0.19-0.14,0.35c3.55,16.1-15.46,24.8-28.38,27.08c0-0.48,0.02-0.95,0.03-1.42
			c6.47-0.06,13.28-5.14,17.69-9.26c4.6-4.29,10.28-10.7,10.14-17.5c0.22,0.09,0.43,0.18,0.65,0.27
			C62.83,52.25,62.84,52.41,62.85,52.56z"/>
		<path class="st2" d="M39.06,74.76c-2.16,0.61-4.34,0.09-4.62,2.61c6.43-0.85,11.99-4.6,16.75-8.91
			c4.86-4.39,9.5-10.25,10.11-16.98c-0.47-0.17-0.95-0.35-1.42-0.51c-1.21,7.48-4.56,14.1-10.65,18.84
			C46.23,72.15,42.7,73.71,39.06,74.76z"/>
		<path class="st2" d="M34.22,58.49c3.69,3.81,5.76,8.76,5.97,14.1c0.79-0.29,1.57-0.61,2.34-0.95
			C40.64,66.49,38.58,62.02,34.22,58.49z"/>
		<path class="st2" d="M38.95,53.23c-0.64,0.8-1.32,1.54-2.04,2.23c4.72,3.16,8.8,8.32,9.73,13.95c0.9-0.58,1.78-1.21,2.63-1.92
			c-0.22-0.02-0.42-0.16-0.46-0.42C47.76,61.4,43.89,56.2,38.95,53.23z"/>
		<path class="st2" d="M44.78,85.79c0.06,0.09,0.11,0.2,0.12,0.33c0.12,1.22,0.33,2.45,0.32,3.69c0.68-0.05,1.37-0.05,2.07-0.04
			c-0.08-0.1-0.11-0.22-0.05-0.36c0.64-1.68,0.04-2.79-0.67-4.16C45.97,85.45,45.38,85.64,44.78,85.79z"/>
		<path class="st2" d="M52.68,89.97c-0.01,0.02-0.02,0.05-0.02,0.07c0.29,0,0.57-0.01,0.86-0.02c2.34-0.1,2.14-1.83,1.95-3.79
			c-0.14-1.52-0.51-3.1-0.94-4.59c-1.35,0.81-2.75,1.53-4.19,2.17C52.03,85.04,52.89,88.04,52.68,89.97z"/>
	</g>
	<g>
		<path class="st4" d="M42.59,35.37c1.92,3.21,1.55,7.96-1.51,10.47c-3.59,2.94-6.85,0.31-10.84,0.17
			c-4.95-0.19-8.41,3.59-13.11,4.51c-2.82,0.55-6.03,0.01-6.72-3.29c-0.39-1.86-0.26-3.45,0.7-5.12c1.13-1.98,3.46-4.59,2.52-7.04
			c-0.63-1.67-3.66-4.91-1.04-6.4c2.98-1.69,6.05-0.77,8.1,1.72c1.8-4.5,10.25-3.82,12.27,0.22C36.5,30.64,40.69,32.21,42.59,35.37z
			 M36.75,46.01c4.66,0.1,7.24-6.31,4.6-9.91c-1.93-2.64-4.85-3.75-7.97-4.08c0.05,0.49,0.03,1.01-0.1,1.57
			c-0.03,0.13-0.11,0.23-0.2,0.29c-0.01,0.09-0.03,0.18-0.09,0.27c-2.21,3.23-11.36,4.37-12.03-0.63c-0.22,0.07-0.48,0.01-0.52-0.31
			c-0.1-0.66-0.08-1.25,0-1.79c-0.72-0.67-1.46-1.27-2.35-1.69c-0.7-0.33-6.08-1.32-5.17,1.19c0.35,0.95,0.96,1.75,1.39,2.65
			c0.88,1.87,0.84,3.57,0.04,5.48c-0.55,1.32-1.49,2.43-2.11,3.71c-0.85,1.75-1.37,5.12,0.88,6.24c2.61,1.3,6.32-0.38,8.66-1.64
			c2.07-1.13,4.2-2.53,6.64-2.65C31.33,44.54,33.88,45.95,36.75,46.01z M32.05,33.23c0.03-0.03,0.06-0.03,0.1-0.04
			c-0.65-2.64-2.1-4.5-5.15-4.67c-3.06-0.17-5.16,1.3-5.63,4.3c0.05,0.03,0.1,0.06,0.13,0.12C23.99,36.81,28.96,35.56,32.05,33.23z"
			/>
		<path class="st3" d="M41.34,36.1c2.64,3.61,0.06,10.02-4.6,9.91c-2.87-0.06-5.41-1.47-8.35-1.32c-2.44,0.12-4.56,1.53-6.64,2.65
			c-2.33,1.27-6.04,2.95-8.66,1.64c-2.25-1.12-1.73-4.49-0.88-6.24c0.62-1.28,1.56-2.39,2.11-3.71c0.8-1.91,0.83-3.61-0.04-5.48
			c-0.43-0.91-1.04-1.7-1.39-2.65c-0.91-2.51,4.47-1.52,5.17-1.19c0.89,0.43,1.63,1.03,2.35,1.69c-0.08,0.54-0.1,1.13,0,1.79
			c0.04,0.31,0.3,0.38,0.52,0.31c0.67,5,9.83,3.86,12.03,0.63c0.06-0.09,0.08-0.18,0.09-0.27c0.1-0.06,0.17-0.16,0.2-0.29
			c0.13-0.56,0.15-1.07,0.1-1.57C36.49,32.35,39.41,33.47,41.34,36.1z"/>
		<path class="st5" d="M32.15,33.18c-0.03,0.01-0.06,0.02-0.1,0.04c-3.09,2.33-8.07,3.58-10.55-0.3c-0.04-0.06-0.08-0.09-0.13-0.12
			c0.47-3,2.57-4.46,5.63-4.3C30.05,28.68,31.5,30.55,32.15,33.18z"/>
	</g>
	<g>
		<g>
			<g>
				<path class="st6" d="M55.15,11.24l21.65,5.87c0,0-6.45,6.03-15.04,2.06c0,0-2.51,7.09-6.21,0.24l-7.01,0.42
					C48.54,19.84,48.54,13.23,55.15,11.24z"/>
			</g>
			<g>
				<path class="st4" d="M58.73,23.06c-1.25,0-2.41-0.97-3.56-2.96l-6.59,0.4c-0.18,0.01-0.36-0.05-0.49-0.18
					c-0.13-0.13-0.21-0.3-0.21-0.48c0-0.07,0.08-7.13,7.08-9.23c0.12-0.04,0.24-0.04,0.36,0l21.65,5.87
					c0.23,0.06,0.41,0.25,0.47,0.48c0.06,0.23-0.02,0.48-0.19,0.64c-0.07,0.06-6.56,6-15.14,2.46c-0.47,1.03-1.55,2.87-3.19,3
					C58.86,23.06,58.79,23.06,58.73,23.06z M55.55,18.76c0.24,0,0.47,0.13,0.58,0.35c0.95,1.76,1.9,2.7,2.69,2.63
					c1.12-0.09,2.08-2.09,2.32-2.78c0.06-0.18,0.2-0.32,0.37-0.39c0.17-0.07,0.36-0.07,0.53,0.01c6.19,2.86,11.24,0.24,13.31-1.17
					l-20.19-5.47c-4.67,1.5-5.68,5.56-5.9,7.2l6.25-0.38C55.52,18.76,55.54,18.76,55.55,18.76z"/>
			</g>
		</g>
		<g>
			<path class="st4" d="M79.09,46.08c0.01,0.31-0.24,0.64-0.54,0.71c-7.09,1.56-14.5,1.3-21.52-0.4c-0.18-0.05-0.24-0.22-0.22-0.38
				c-0.02-0.03-0.05-0.05-0.06-0.09c-0.61-1.42-2.36-1.22-2.72,0.33c-0.07,0.28-0.34,0.48-0.63,0.48c-1.94,0.01-3.86,0.05-5.78,0.38
				c-0.54,0.09-0.93-0.3-0.84-0.85c1.53-9.13,3.9-17.72,1.4-26.92c-0.11-0.39,0.43-0.66,0.66-0.38c0.12-0.09,0.27-0.15,0.46-0.13
				c2.23,0.3,4.46,0.26,6.7,0.43c0.27,0.03,0.38,0.25,0.31,0.45c0.03,0.04,0.07,0.09,0.09,0.16c0.93,3.38,4.65,3.04,4.59-0.63
				c-0.01-0.38,0.39-0.69,0.76-0.58c4.72,1.4,10.36,1.19,14.47-1.75c0.43-0.3,0.85,0.2,0.79,0.61c-0.68,4.31,1.08,8.82-0.11,13.02
				c-0.11,0.36-0.54,0.38-0.73,0.15c-0.44,0.42-1,0.77-1.14,1.38c-0.2,0.86,1.28,1.01,1.84,1.07c0.35,0.04,0.65,0.26,0.65,0.65
				c0,0.55,0.05,1.08,0.11,1.63c0.02,0.06,0.03,0.12,0.01,0.19c0,0,0,0,0,0.01c-0.05,0.33-0.46,0.66-0.79,0.38
				c-0.08,0.09-0.2,0.16-0.35,0.18c-3.91,0.43-2.37,5.03,0.93,4.04c0.36-0.11,0.75,0.12,0.85,0.48
				C78.72,42.47,79.02,44.25,79.09,46.08z M76.28,45.74c2.04-0.38,1.26-2.39,0.81-4.09c-4.5,0.46-6.03-6.36-0.68-6.51
				c-0.07-0.26-0.13-0.53-0.16-0.8c-1.08-0.22-2.47-0.73-2.46-2c0.01-1.12,1.11-2.49,2.2-2.72c0.01-0.01,0.03-0.01,0.05-0.01
				c-0.15-3.62-0.95-7.47-0.35-11.05c-3.99,2.41-9.11,2.67-13.57,1.47c-0.7,4.21-6.97,4.79-6.54,0.1c-1.98,0.66-4.09,0.63-6.14,0.3
				c2.92,8.01,0.33,17.17-1.18,25.3c1.89-0.06,4.36,0.17,5.02-1.44c0.31-0.75,0.83-1.17,1.56-1.45c1.63-0.62,2.67,1.7,2.7,2.88
				c0,0.03-0.01,0.06-0.01,0.09c3.9,0.36,7.89,0.62,11.8,0.53C71.65,46.26,74,46.16,76.28,45.74z"/>
			<path class="st5" d="M77.09,41.65c0.46,1.71,1.24,3.72-0.81,4.09c-2.29,0.42-4.63,0.52-6.95,0.58c-3.91,0.09-7.9-0.17-11.8-0.53
				c0.01-0.03,0.01-0.05,0.01-0.09c-0.03-1.18-1.08-3.5-2.7-2.88c-0.73,0.28-1.25,0.7-1.56,1.45c-0.66,1.6-3.13,1.38-5.02,1.44
				c1.51-8.13,4.1-17.29,1.18-25.3c2.05,0.33,4.16,0.36,6.14-0.3c-0.44,4.69,5.84,4.11,6.54-0.1c4.46,1.2,9.58,0.95,13.57-1.47
				c-0.59,3.58,0.2,7.43,0.35,11.05c-0.01,0-0.03,0-0.05,0.01c-1.09,0.24-2.19,1.61-2.2,2.72c-0.01,1.26,1.38,1.78,2.46,2
				c0.03,0.27,0.09,0.54,0.16,0.8C71.06,35.29,72.59,42.1,77.09,41.65z M71.04,39.7c0.2-1.64-1.55-2.26-2.89-2.08
				c-0.23,0.03-0.48,0.1-0.7,0.2c0.2-0.16,0.4-0.3,0.61-0.43c0.27-0.17,0.09-0.61-0.22-0.52c-1.26,0.38-2.25,1.24-2.47,2.59
				c-0.17,1.06,0.22,2.18,1.02,2.89C68.3,44.03,70.79,41.71,71.04,39.7z M70.37,29.01c0.35-1.58-0.48-3.6-1.96-4.12
				c0.04-0.07,0.03-0.17-0.07-0.19c-4.23-0.65-7.93,7.13-2.93,8.12C67.88,33.31,69.86,31.26,70.37,29.01z M57.18,38.01
				c0.83-0.68,1.34-1.89,1.23-2.96c-0.13-1.4-1.36-2.11-2.6-2.4c-0.01-0.12-0.19-0.21-0.3-0.11c-0.02,0.01-0.03,0.03-0.05,0.04
				c-0.03,0-0.05-0.01-0.08-0.01c-0.23-0.04-0.56,0.06-0.6,0.34c-0.02,0.15-0.02,0.28-0.03,0.41c-1.05,1.34-0.97,2.82-0.06,4.5
				C55.26,38.88,56.37,38.68,57.18,38.01z"/>
			<path class="st4" d="M68.15,37.61c1.34-0.18,3.09,0.44,2.89,2.08c-0.24,2.02-2.74,4.34-4.63,2.65c-0.81-0.71-1.2-1.83-1.02-2.89
				c0.21-1.35,1.21-2.21,2.47-2.59c0.31-0.09,0.49,0.35,0.22,0.52c-0.21,0.13-0.42,0.27-0.61,0.43
				C67.67,37.71,67.92,37.64,68.15,37.61z M69.54,40.73c0.3-0.45,0.7-1.06,0.48-1.63c-0.29-0.73-1.63-0.82-2.23-0.51
				c-1.16,0.6,1.05,1.81,1.71,2.2C69.5,40.77,69.52,40.75,69.54,40.73z M67.41,41.8c0.58,0.28,1.1,0.04,1.52-0.34
				c-0.58-0.28-1.15-0.67-1.6-1.1c-0.42-0.4-0.82-0.97-0.73-1.55c-0.17,0.32-0.27,0.66-0.26,1.04C66.36,40.6,66.69,41.46,67.41,41.8
				z"/>
			<path class="st4" d="M68.41,24.89c1.49,0.52,2.31,2.54,1.96,4.12c-0.51,2.25-2.49,4.29-4.96,3.8c-5-0.99-1.3-8.77,2.93-8.12
				C68.43,24.72,68.45,24.82,68.41,24.89z M69.21,28.7c0.13-0.76,0.08-1.73-0.53-2.29c-0.27-0.24-0.57-0.4-0.88-0.53
				c-0.01,0.02-0.03,0.04-0.05,0.05c-0.96,0.64-2.04,1.74-2.03,2.99c0.01,1.36,1.14,1.52,1.96,2.23
				C68.48,30.61,69.05,29.71,69.21,28.7z M66.85,25.53c-0.06-0.03-0.13-0.05-0.19-0.08c-0.01,0-0.01-0.01-0.01-0.01
				c-1.12,0.58-1.95,1.62-2.33,2.9c-0.4,1.35-0.37,3.35,1.51,3.39c0.17,0,0.32-0.02,0.47-0.04c-1-0.52-1.78-1.71-1.71-2.76
				C64.7,27.45,65.66,26.3,66.85,25.53z"/>
			<path class="st7" d="M68.93,41.46c-0.42,0.38-0.95,0.62-1.52,0.34c-0.71-0.34-1.04-1.2-1.07-1.95c-0.01-0.38,0.09-0.73,0.26-1.04
				c-0.09,0.58,0.31,1.14,0.73,1.55C67.78,40.79,68.35,41.18,68.93,41.46z"/>
			<path class="st7" d="M66.66,25.45c0.06,0.03,0.13,0.05,0.19,0.08c-1.19,0.77-2.15,1.92-2.25,3.39c-0.08,1.04,0.71,2.24,1.71,2.76
				c-0.15,0.02-0.3,0.04-0.47,0.04c-1.88-0.03-1.92-2.04-1.51-3.39c0.38-1.28,1.22-2.32,2.33-2.9
				C66.65,25.44,66.65,25.45,66.66,25.45z"/>
			<path class="st4" d="M58.41,35.05c0.11,1.06-0.4,2.28-1.23,2.96c-0.81,0.67-1.92,0.87-2.49-0.19c-0.91-1.69-0.99-3.17,0.06-4.5
				c0.01-0.13,0.01-0.26,0.03-0.41c0.04-0.28,0.37-0.38,0.6-0.34c0.03,0.01,0.05,0.01,0.08,0.01c0.01-0.01,0.03-0.03,0.05-0.04
				c0.11-0.09,0.28-0.01,0.3,0.11C57.05,32.94,58.28,33.65,58.41,35.05z M57.39,35.88c0.09-0.32,0.1-0.66-0.01-0.99
				c-0.25-0.76-0.97-1.09-1.7-1.27c-0.03,0.62,0.09,1.23,0.67,1.61C56.69,35.46,57.06,35.65,57.39,35.88z M56.9,36.92
				c0.06-0.09,0.12-0.19,0.17-0.28c-1.17-0.34-1.9-1.06-2.19-2.04c-0.18,0.89,0,1.79,0.59,2.77C55.87,38.04,56.6,37.37,56.9,36.92z"
				/>
			<path class="st7" d="M57.08,36.63c-0.05,0.1-0.11,0.19-0.17,0.28c-0.3,0.46-1.03,1.12-1.43,0.44c-0.59-0.98-0.77-1.88-0.59-2.77
				C55.17,35.57,55.91,36.3,57.08,36.63z"/>
		</g>
	</g>
</g>
</svg>
