<?xml version="1.0" encoding="utf-8"?>
<!-- Generator: Adobe Illustrator 23.1.0, SVG Export Plug-In . SVG Version: 6.00 Build 0)  -->
<svg version="1.1" id="Capa_1" xmlns="http://www.w3.org/2000/svg" xmlns:xlink="http://www.w3.org/1999/xlink" x="0px" y="0px"
	 viewBox="0 0 100 100" style="enable-background:new 0 0 100 100;" xml:space="preserve">
<style type="text/css">
	.st0{fill:#F7F7F7;}
	.st1{fill:#D8D8D8;}
	.st2{fill:#E8AB3E;}
	.st3{fill:#5C5F68;}
	.st4{fill:#EFCC73;}
	.st5{fill:#E8BA48;}
	.st6{fill:#93ED87;}
	.st7{fill:#F3D991;}
	.st8{fill:#FFFFFF;}
</style>
<g>
	<g>
		<g>
			<g>
				<path class="st0" d="M47.61,99c-0.01,0-0.03,0-0.04,0c-1.5-0.07-3.01-0.22-4.49-0.43c-0.48-0.07-0.82-0.52-0.75-1
					s0.52-0.82,1-0.75c1.43,0.2,2.88,0.34,4.33,0.41c0.49,0.02,0.86,0.44,0.84,0.93C48.47,98.63,48.08,99,47.61,99z M52.92,98.97
					c-0.46,0-0.85-0.36-0.88-0.83c-0.03-0.49,0.34-0.9,0.83-0.93c1.44-0.09,2.9-0.24,4.32-0.46c0.48-0.07,0.93,0.26,1.01,0.74
					c0.07,0.48-0.26,0.93-0.74,1.01c-1.48,0.23-2.99,0.39-4.48,0.48C52.96,98.97,52.94,98.97,52.92,98.97z M37.99,97.55
					c-0.07,0-0.15-0.01-0.22-0.03c-1.45-0.37-2.9-0.82-4.31-1.33c-0.46-0.16-0.7-0.67-0.53-1.13c0.16-0.46,0.67-0.7,1.13-0.53
					c1.36,0.49,2.76,0.92,4.16,1.28c0.47,0.12,0.76,0.6,0.64,1.08C38.74,97.28,38.38,97.55,37.99,97.55z M62.53,97.41
					c-0.39,0-0.75-0.26-0.85-0.65c-0.13-0.47,0.15-0.96,0.62-1.08c1.4-0.38,2.79-0.82,4.14-1.32c0.46-0.17,0.97,0.06,1.14,0.52
					c0.17,0.46-0.06,0.97-0.52,1.14c-1.4,0.52-2.85,0.98-4.3,1.37C62.68,97.4,62.61,97.41,62.53,97.41z M28.86,94.17
					c-0.13,0-0.26-0.03-0.39-0.09c-1.34-0.66-2.67-1.39-3.96-2.17c-0.42-0.25-0.55-0.8-0.29-1.21c0.25-0.42,0.8-0.55,1.21-0.29
					c1.24,0.75,2.52,1.46,3.81,2.09c0.44,0.21,0.62,0.74,0.4,1.18C29.5,93.99,29.19,94.17,28.86,94.17z M71.62,93.94
					c-0.32,0-0.63-0.18-0.79-0.49c-0.22-0.44-0.04-0.97,0.39-1.19c1.29-0.65,2.57-1.37,3.79-2.13c0.42-0.26,0.96-0.13,1.22,0.28
					c0.26,0.41,0.13,0.96-0.28,1.22c-1.27,0.79-2.59,1.54-3.93,2.21C71.89,93.9,71.75,93.94,71.62,93.94z M20.6,89.03
					c-0.19,0-0.38-0.06-0.54-0.18c-1.18-0.92-2.34-1.9-3.44-2.92c-0.36-0.33-0.38-0.89-0.05-1.25c0.33-0.36,0.89-0.38,1.25-0.05
					c1.06,0.99,2.18,1.93,3.32,2.82c0.39,0.3,0.46,0.85,0.16,1.24C21.12,88.91,20.86,89.03,20.6,89.03z M79.82,88.7
					c-0.26,0-0.52-0.11-0.69-0.34c-0.3-0.38-0.24-0.94,0.14-1.24c1.13-0.9,2.24-1.86,3.28-2.85c0.35-0.33,0.91-0.32,1.25,0.03
					c0.34,0.35,0.32,0.91-0.03,1.25c-1.08,1.03-2.23,2.03-3.41,2.96C80.21,88.64,80.01,88.7,79.82,88.7z M13.54,82.33
					c-0.25,0-0.49-0.1-0.67-0.31c-0.98-1.14-1.92-2.33-2.79-3.55c-0.28-0.4-0.19-0.95,0.21-1.23c0.4-0.28,0.95-0.19,1.23,0.21
					c0.84,1.17,1.74,2.33,2.68,3.42c0.32,0.37,0.28,0.93-0.09,1.25C13.94,82.26,13.74,82.33,13.54,82.33z M86.81,81.92
					c-0.2,0-0.4-0.07-0.57-0.21c-0.37-0.31-0.42-0.87-0.11-1.24c0.93-1.11,1.82-2.27,2.65-3.45c0.28-0.4,0.83-0.5,1.23-0.22
					c0.4,0.28,0.5,0.83,0.22,1.23c-0.86,1.23-1.78,2.43-2.75,3.58C87.31,81.81,87.06,81.92,86.81,81.92z M7.96,74.35
					c-0.31,0-0.61-0.16-0.77-0.45c-0.73-1.31-1.41-2.67-2.01-4.04c-0.2-0.45,0-0.97,0.45-1.17c0.45-0.2,0.97,0,1.16,0.45
					c0.59,1.32,1.24,2.63,1.94,3.89c0.24,0.43,0.09,0.96-0.34,1.2C8.25,74.31,8.1,74.35,7.96,74.35z M92.3,73.88
					c-0.14,0-0.29-0.03-0.42-0.11c-0.43-0.23-0.59-0.77-0.35-1.2c0.69-1.27,1.33-2.59,1.9-3.91c0.19-0.45,0.71-0.66,1.16-0.46
					c0.45,0.19,0.66,0.71,0.46,1.16c-0.59,1.38-1.25,2.74-1.97,4.06C92.92,73.71,92.61,73.88,92.3,73.88z M4.1,65.41
					c-0.38,0-0.72-0.24-0.84-0.62c-0.45-1.43-0.84-2.9-1.16-4.36c-0.1-0.48,0.2-0.95,0.68-1.05c0.48-0.11,0.95,0.2,1.05,0.68
					c0.3,1.41,0.68,2.83,1.11,4.2c0.15,0.46-0.11,0.96-0.58,1.11C4.28,65.4,4.19,65.41,4.1,65.41z M96.06,64.89
					c-0.08,0-0.17-0.01-0.26-0.04c-0.47-0.14-0.73-0.63-0.59-1.1c0.42-1.38,0.78-2.8,1.07-4.22c0.1-0.48,0.57-0.79,1.04-0.69
					c0.48,0.1,0.79,0.56,0.69,1.04c-0.3,1.47-0.67,2.94-1.11,4.38C96.79,64.65,96.44,64.89,96.06,64.89z M2.13,55.88
					c-0.45,0-0.83-0.34-0.88-0.79c-0.15-1.48-0.24-3-0.25-4.5c-0.01-0.49,0.39-0.89,0.87-0.89c0,0,0.01,0,0.01,0
					c0.48,0,0.88,0.39,0.88,0.87c0.02,1.45,0.1,2.91,0.25,4.34c0.05,0.48-0.3,0.92-0.79,0.97C2.19,55.88,2.16,55.88,2.13,55.88z
					 M97.92,55.34c-0.03,0-0.05,0-0.08,0c-0.49-0.04-0.84-0.47-0.8-0.96c0.13-1.44,0.2-2.9,0.2-4.35l0-0.2
					c0-0.49,0.39-0.88,0.88-0.88S99,49.34,99,49.83l0,0.19c0,1.51-0.07,3.03-0.2,4.52C98.75,54.99,98.37,55.34,97.92,55.34z
					 M2.11,46.14c-0.03,0-0.06,0-0.09,0c-0.49-0.05-0.84-0.48-0.79-0.97c0.15-1.5,0.36-3,0.65-4.47c0.09-0.48,0.55-0.79,1.03-0.7
					c0.48,0.09,0.79,0.55,0.7,1.03c-0.27,1.41-0.48,2.86-0.62,4.3C2.95,45.8,2.56,46.14,2.11,46.14z M97.81,45.41
					c-0.44,0-0.83-0.33-0.88-0.78c-0.16-1.44-0.4-2.88-0.69-4.29c-0.1-0.48,0.21-0.95,0.68-1.04c0.47-0.1,0.94,0.21,1.04,0.68
					c0.31,1.46,0.55,2.96,0.72,4.45c0.06,0.48-0.29,0.92-0.78,0.98C97.87,45.4,97.84,45.41,97.81,45.41z M4.04,36.6
					c-0.09,0-0.18-0.01-0.26-0.04c-0.47-0.14-0.73-0.64-0.58-1.11c0.45-1.43,0.96-2.86,1.54-4.24c0.19-0.45,0.7-0.66,1.15-0.48
					c0.45,0.19,0.66,0.7,0.48,1.16c-0.55,1.33-1.05,2.71-1.48,4.09C4.77,36.36,4.42,36.6,4.04,36.6z M95.73,35.9
					c-0.37,0-0.72-0.24-0.84-0.61c-0.45-1.37-0.97-2.74-1.54-4.07c-0.19-0.45,0.01-0.97,0.46-1.16c0.45-0.19,0.97,0.01,1.16,0.46
					c0.6,1.38,1.14,2.8,1.6,4.22c0.15,0.46-0.1,0.96-0.56,1.11C95.91,35.88,95.82,35.9,95.73,35.9z M7.86,27.64
					c-0.14,0-0.29-0.04-0.43-0.11c-0.43-0.24-0.58-0.77-0.35-1.2c0.72-1.31,1.52-2.6,2.36-3.85c0.27-0.4,0.82-0.51,1.23-0.23
					c0.4,0.27,0.51,0.82,0.23,1.23c-0.81,1.2-1.58,2.44-2.28,3.71C8.48,27.48,8.17,27.64,7.86,27.64z M91.77,27
					c-0.31,0-0.6-0.16-0.77-0.44c-0.72-1.25-1.5-2.49-2.33-3.67c-0.28-0.4-0.18-0.95,0.21-1.23c0.4-0.28,0.95-0.18,1.23,0.21
					c0.86,1.23,1.68,2.51,2.42,3.81c0.24,0.42,0.1,0.96-0.33,1.21C92.07,26.97,91.92,27,91.77,27z M13.41,19.64
					c-0.2,0-0.41-0.07-0.57-0.21c-0.37-0.32-0.41-0.87-0.1-1.24c0.98-1.14,2.01-2.25,3.09-3.29c0.35-0.34,0.91-0.33,1.25,0.02
					c0.34,0.35,0.33,0.91-0.02,1.25c-1.03,1-2.03,2.07-2.97,3.17C13.91,19.54,13.66,19.64,13.41,19.64z M86.11,19.09
					c-0.24,0-0.49-0.1-0.66-0.3c-0.96-1.09-1.98-2.14-3.02-3.13c-0.35-0.33-0.37-0.89-0.04-1.25c0.34-0.35,0.89-0.37,1.25-0.04
					c1.08,1.02,2.14,2.12,3.14,3.24c0.32,0.37,0.29,0.92-0.08,1.25C86.52,19.02,86.32,19.09,86.11,19.09z M20.45,12.91
					c-0.26,0-0.52-0.12-0.7-0.34c-0.3-0.38-0.23-0.94,0.15-1.24c1.18-0.92,2.42-1.8,3.68-2.61C24,8.46,24.54,8.58,24.8,8.99
					c0.26,0.41,0.14,0.96-0.27,1.22c-1.22,0.78-2.41,1.63-3.55,2.51C20.83,12.85,20.64,12.91,20.45,12.91z M78.97,12.47
					c-0.19,0-0.37-0.06-0.53-0.18c-1.16-0.87-2.36-1.7-3.59-2.46c-0.41-0.26-0.54-0.8-0.29-1.22c0.26-0.41,0.8-0.55,1.22-0.29
					c1.27,0.79,2.52,1.65,3.72,2.55c0.39,0.29,0.47,0.85,0.17,1.24C79.5,12.35,79.24,12.47,78.97,12.47z M28.69,7.74
					c-0.33,0-0.64-0.18-0.79-0.49c-0.22-0.44-0.04-0.97,0.4-1.18c1.34-0.67,2.73-1.28,4.13-1.81c0.46-0.17,0.97,0.05,1.14,0.51
					c0.17,0.45-0.05,0.97-0.51,1.14C31.71,6.41,30.37,7,29.08,7.64C28.95,7.71,28.82,7.74,28.69,7.74z M70.65,7.41
					c-0.13,0-0.26-0.03-0.38-0.09c-1.3-0.62-2.65-1.19-4.01-1.69c-0.46-0.17-0.69-0.67-0.53-1.13s0.67-0.7,1.13-0.53
					c1.41,0.52,2.81,1.1,4.16,1.75c0.44,0.21,0.63,0.74,0.42,1.18C71.3,7.23,70.98,7.41,70.65,7.41z M37.8,4.33
					c-0.39,0-0.75-0.26-0.85-0.66c-0.12-0.47,0.16-0.96,0.63-1.08c1.45-0.38,2.93-0.69,4.41-0.94C42.47,1.56,42.92,1.9,43,2.38
					c0.08,0.48-0.25,0.94-0.73,1.01c-1.42,0.23-2.86,0.54-4.25,0.9C37.95,4.32,37.87,4.33,37.8,4.33z M61.48,4.15
					c-0.07,0-0.14-0.01-0.21-0.03c-1.4-0.34-2.84-0.63-4.27-0.84c-0.48-0.07-0.81-0.52-0.74-1c0.07-0.48,0.52-0.81,1-0.74
					c1.48,0.22,2.97,0.51,4.43,0.87c0.47,0.12,0.76,0.59,0.65,1.07C62.24,3.88,61.88,4.15,61.48,4.15z M47.41,2.83
					c-0.47,0-0.86-0.36-0.88-0.84c-0.03-0.49,0.35-0.9,0.83-0.93C48.25,1.02,49.13,1.01,50,1c0.63,0,1.25,0.01,1.88,0.04
					c0.49,0.02,0.87,0.43,0.85,0.92c-0.02,0.49-0.41,0.89-0.92,0.85c-0.62-0.02-1.24-0.04-1.86-0.03c-0.82,0-1.66,0.02-2.49,0.07
					C47.45,2.83,47.43,2.83,47.41,2.83z"/>
			</g>
			<ellipse class="st1" cx="50" cy="50.03" rx="35.76" ry="35.78"/>
		</g>
		<g>
			<g>
				<g>
					<path class="st2" d="M29.29,44.68l21.29,5.77c0,0-6.34,5.93-14.79,2.03c0,0-2.47,6.97-6.11,0.23l-6.89,0.42
						C22.79,53.14,22.79,46.63,29.29,44.68z"/>
				</g>
				<g>
					<path class="st3" d="M32.81,56.3c-1.23,0-2.37-0.96-3.5-2.91l-6.48,0.39c-0.18,0.01-0.35-0.05-0.48-0.18
						c-0.13-0.12-0.2-0.29-0.2-0.47c0-0.07,0.08-7.01,6.96-9.08c0.12-0.04,0.24-0.04,0.36,0l21.29,5.77
						c0.23,0.06,0.4,0.24,0.46,0.47c0.06,0.23-0.01,0.47-0.19,0.63c-0.07,0.06-6.45,5.89-14.89,2.41c-0.47,1.01-1.52,2.83-3.14,2.95
						C32.93,56.3,32.87,56.3,32.81,56.3z M29.68,52.07c0.24,0,0.46,0.13,0.57,0.34c0.93,1.73,1.87,2.66,2.64,2.59
						c1.1-0.08,2.04-2.05,2.28-2.73c0.06-0.17,0.19-0.31,0.36-0.38c0.17-0.07,0.36-0.07,0.52,0.01c6.08,2.81,11.05,0.24,13.09-1.15
						L29.3,45.36c-4.6,1.47-5.59,5.46-5.8,7.08l6.14-0.37C29.65,52.07,29.66,52.07,29.68,52.07z"/>
				</g>
			</g>
			<g>
				<path class="st3" d="M52.82,78.94c0.01,0.31-0.23,0.63-0.53,0.7c-6.97,1.53-14.26,1.27-21.16-0.4
					c-0.18-0.05-0.24-0.21-0.22-0.37c-0.02-0.03-0.05-0.05-0.06-0.09c-0.6-1.39-2.32-1.2-2.68,0.33c-0.06,0.28-0.34,0.47-0.62,0.47
					c-1.91,0.01-3.8,0.05-5.69,0.37c-0.53,0.09-0.92-0.3-0.83-0.83c1.51-8.97,3.83-17.43,1.38-26.46c-0.1-0.38,0.42-0.65,0.65-0.38
					c0.12-0.09,0.27-0.14,0.45-0.12c2.2,0.29,4.39,0.26,6.59,0.42c0.27,0.03,0.37,0.25,0.31,0.44c0.03,0.04,0.06,0.09,0.08,0.16
					c0.92,3.32,4.57,2.98,4.52-0.62c-0.01-0.38,0.38-0.68,0.75-0.57c4.64,1.38,10.19,1.17,14.23-1.72c0.42-0.3,0.84,0.2,0.77,0.6
					c-0.67,4.24,1.07,8.67-0.1,12.8c-0.1,0.35-0.53,0.37-0.72,0.14c-0.44,0.41-0.99,0.75-1.12,1.35c-0.19,0.85,1.26,0.99,1.81,1.05
					c0.34,0.04,0.64,0.26,0.64,0.64c0,0.54,0.05,1.07,0.1,1.6c0.02,0.06,0.03,0.12,0.01,0.18c0,0,0,0,0,0.01
					c-0.05,0.33-0.45,0.65-0.77,0.38c-0.08,0.09-0.19,0.16-0.34,0.18c-3.85,0.42-2.33,4.94,0.92,3.97c0.35-0.1,0.74,0.12,0.83,0.47
					C52.45,75.38,52.75,77.13,52.82,78.94z M50.06,78.6c2.01-0.37,1.24-2.35,0.79-4.02c-4.43,0.45-5.93-6.25-0.67-6.4
					c-0.07-0.26-0.12-0.52-0.16-0.79c-1.06-0.21-2.43-0.72-2.42-1.96c0.01-1.1,1.09-2.44,2.16-2.68c0.01-0.01,0.03-0.01,0.05-0.01
					c-0.14-3.56-0.93-7.35-0.34-10.87c-3.93,2.37-8.95,2.62-13.34,1.44c-0.69,4.14-6.86,4.71-6.43,0.1
					c-1.94,0.65-4.02,0.62-6.04,0.29c2.87,7.87,0.32,16.88-1.16,24.87c1.86-0.06,4.29,0.16,4.94-1.41c0.31-0.73,0.82-1.15,1.53-1.42
					c1.6-0.61,2.63,1.67,2.66,2.83c0,0.03-0.01,0.06-0.01,0.08c3.83,0.36,7.75,0.61,11.6,0.52C45.51,79.11,47.81,79.01,50.06,78.6z"
					/>
				<path class="st4" d="M50.86,74.57c0.45,1.68,1.22,3.65-0.79,4.02c-2.25,0.41-4.56,0.51-6.84,0.57
					c-3.85,0.09-7.77-0.16-11.6-0.52c0.01-0.03,0.01-0.05,0.01-0.08c-0.03-1.16-1.06-3.44-2.66-2.83c-0.71,0.27-1.23,0.69-1.53,1.42
					c-0.65,1.57-3.08,1.35-4.94,1.41c1.49-7.99,4.03-17,1.16-24.87c2.01,0.33,4.09,0.36,6.04-0.29c-0.43,4.61,5.74,4.04,6.43-0.1
					c4.39,1.18,9.42,0.93,13.34-1.44c-0.58,3.52,0.2,7.31,0.34,10.87c-0.01,0-0.03,0-0.05,0.01c-1.07,0.23-2.15,1.58-2.16,2.68
					c-0.01,1.24,1.36,1.75,2.42,1.96c0.03,0.27,0.08,0.53,0.16,0.79C44.92,68.32,46.43,75.02,50.86,74.57z M44.9,72.65
					c0.2-1.61-1.53-2.22-2.84-2.05c-0.23,0.03-0.47,0.1-0.69,0.2c0.19-0.16,0.4-0.3,0.6-0.42c0.27-0.16,0.09-0.6-0.21-0.51
					c-1.23,0.38-2.22,1.22-2.42,2.55c-0.17,1.05,0.21,2.14,1.01,2.84C42.21,76.92,44.66,74.64,44.9,72.65z M44.25,62.15
					c0.34-1.55-0.47-3.54-1.93-4.05c0.04-0.07,0.03-0.17-0.07-0.19c-4.16-0.64-7.79,7.01-2.88,7.98
					C41.8,66.37,43.75,64.36,44.25,62.15z M31.28,71c0.82-0.67,1.31-1.86,1.21-2.91c-0.13-1.38-1.34-2.07-2.56-2.36
					c-0.01-0.12-0.19-0.2-0.29-0.11c-0.02,0.01-0.03,0.03-0.05,0.04c-0.03,0-0.05-0.01-0.08-0.01c-0.23-0.04-0.55,0.06-0.59,0.33
					c-0.02,0.14-0.02,0.27-0.03,0.4c-1.03,1.31-0.95,2.77-0.06,4.43C29.4,71.86,30.48,71.65,31.28,71z"/>
				<path class="st3" d="M42.06,70.61c1.31-0.18,3.04,0.44,2.84,2.05c-0.24,1.98-2.69,4.27-4.56,2.61c-0.79-0.7-1.18-1.79-1.01-2.84
					c0.21-1.33,1.19-2.17,2.42-2.55c0.31-0.09,0.48,0.34,0.21,0.51c-0.21,0.12-0.41,0.27-0.6,0.42
					C41.59,70.7,41.84,70.64,42.06,70.61z M43.43,73.68c0.3-0.44,0.69-1.05,0.47-1.6c-0.29-0.72-1.6-0.81-2.19-0.5
					c-1.14,0.59,1.03,1.78,1.68,2.17C43.4,73.71,43.41,73.7,43.43,73.68z M41.34,74.73c0.57,0.27,1.08,0.04,1.49-0.34
					c-0.57-0.28-1.13-0.66-1.57-1.09c-0.42-0.4-0.81-0.95-0.72-1.52c-0.16,0.31-0.27,0.65-0.25,1.03
					C40.31,73.55,40.63,74.39,41.34,74.73z"/>
				<path class="st3" d="M42.32,58.1c1.46,0.51,2.27,2.5,1.93,4.05c-0.5,2.21-2.45,4.22-4.88,3.74c-4.91-0.97-1.28-8.62,2.88-7.98
					C42.34,57.93,42.36,58.03,42.32,58.1z M43.11,61.84c0.12-0.75,0.08-1.7-0.52-2.25c-0.27-0.24-0.56-0.4-0.86-0.52
					c-0.01,0.02-0.03,0.04-0.05,0.05c-0.94,0.63-2,1.71-2,2.94c0.01,1.34,1.12,1.5,1.93,2.19C42.39,63.72,42.95,62.84,43.11,61.84z
					 M40.78,58.73c-0.06-0.03-0.12-0.05-0.18-0.08c-0.01,0-0.01-0.01-0.01-0.01c-1.1,0.57-1.92,1.59-2.29,2.85
					c-0.4,1.33-0.36,3.3,1.49,3.33c0.16,0,0.31-0.02,0.46-0.04c-0.98-0.51-1.75-1.68-1.68-2.71C38.67,60.62,39.61,59.49,40.78,58.73
					z"/>
				<path class="st5" d="M42.83,74.39c-0.42,0.38-0.93,0.61-1.49,0.34c-0.7-0.34-1.03-1.18-1.05-1.92
					c-0.01-0.38,0.09-0.72,0.25-1.03c-0.08,0.57,0.31,1.12,0.72,1.52C41.7,73.73,42.26,74.11,42.83,74.39z"/>
				<path class="st5" d="M40.6,58.65c0.06,0.03,0.12,0.05,0.18,0.08c-1.17,0.76-2.11,1.89-2.22,3.34c-0.08,1.03,0.7,2.2,1.68,2.71
					c-0.15,0.02-0.3,0.04-0.46,0.04c-1.85-0.03-1.88-2-1.49-3.33c0.38-1.25,1.2-2.28,2.29-2.85C40.59,58.64,40.59,58.65,40.6,58.65z
					"/>
				<path class="st3" d="M32.49,68.09c0.1,1.05-0.39,2.24-1.21,2.91c-0.8,0.66-1.88,0.86-2.44-0.19c-0.89-1.66-0.97-3.11,0.06-4.43
					c0.01-0.13,0.01-0.26,0.03-0.4c0.04-0.27,0.36-0.37,0.59-0.33c0.03,0.01,0.05,0.01,0.08,0.01c0.01-0.01,0.03-0.03,0.05-0.04
					c0.1-0.09,0.28-0.01,0.29,0.11C31.15,66.02,32.36,66.71,32.49,68.09z M31.48,68.9c0.08-0.32,0.1-0.65-0.01-0.97
					c-0.25-0.75-0.95-1.07-1.67-1.25c-0.03,0.61,0.09,1.21,0.66,1.58C30.8,68.49,31.16,68.68,31.48,68.9z M31.01,69.92
					c0.06-0.09,0.12-0.18,0.17-0.28c-1.15-0.33-1.87-1.04-2.15-2.01c-0.18,0.88,0,1.76,0.58,2.72C30,71.02,30.71,70.37,31.01,69.92z
					"/>
				<path class="st5" d="M31.18,69.64c-0.05,0.1-0.11,0.19-0.17,0.28c-0.3,0.45-1.01,1.1-1.4,0.44c-0.58-0.96-0.75-1.85-0.58-2.72
					C29.31,68.6,30.03,69.31,31.18,69.64z"/>
			</g>
		</g>
		<g>
			<path class="st3" d="M53.48,26.67c5.31,2.54,9.18,8.07,7.63,14.19c-0.04,0.18-0.15,0.27-0.28,0.3c0.03,0.61-0.22,1.21-0.89,1.76
				c-2.76,2.29-8.93,1.39-11.94,0.13c-3.68-1.54-7.66-5.3-9.52-9.48c-5.08-5.09-13.04-11.83-12.62-19.71
				c0.01-0.2,0.13-0.38,0.32-0.43c9.76-2.58,21.39,5.48,27.28,12.66C53.63,26.3,53.6,26.52,53.48,26.67z M60.36,39.85
				c0.64-6.18-3.39-11.17-8.98-13.18c2.94,2.24,4.83,5.58,4.72,9.42c0,0.12-0.05,0.21-0.11,0.27
				C57.37,37.06,59.43,38.39,60.36,39.85z M50.37,42.66c1.89,0.36,12.8,0.89,8.31-3.26c-5.22-4.83-14.92-2.73-19.73-7.83
				C40.85,36.67,45.2,41.67,50.37,42.66z M55.25,36.03c0.07-2.11-0.44-4.06-1.43-5.72c0.02,0.11-0.02,0.24-0.14,0.32
				c-0.6,0.39-1.23,0.71-1.74,1.21c1.02,1.2,1.98,2.45,2.9,3.75c0.08,0.11,0.06,0.22,0,0.3C54.98,35.94,55.11,35.98,55.25,36.03
				L55.25,36.03z M53.44,30.05c0.11-0.03,0.2,0.01,0.27,0.06c-1.07-1.74-2.67-3.15-4.66-4.13c-0.38-0.18-0.1-0.68,0.26-0.63
				c1.02,0.17,2.02,0.44,2.99,0.81c-0.74-0.72-1.52-1.46-2.34-2.2c-0.01,0.11-0.06,0.2-0.19,0.27c-1.21,0.52-2.28,1.23-3.22,2.09
				c0.79,0.71,1.57,1.44,2.33,2.19c0.5-0.49,1.06-0.92,1.63-1.25c0.27-0.17,0.52,0.2,0.32,0.42c-0.44,0.52-0.91,0.98-1.37,1.44
				c0.68,0.71,1.35,1.44,2,2.18C51.99,30.7,52.64,30.24,53.44,30.05z M54.17,35.64c-0.85-1.14-1.74-2.23-2.66-3.29
				c-0.5,0.71-0.79,1.51-0.97,2.37c0,0.01-0.01,0.01-0.01,0.02C51.78,34.99,53,35.26,54.17,35.64z M50.04,34.58
				c0.15-0.91,0.48-1.9,1.01-2.73c-0.68-0.76-1.38-1.49-2.1-2.21c-0.82,0.86-1.53,1.76-1.82,2.98c0.52,0.38,1.04,0.76,1.54,1.15
				c0.22,0.18-0.06,0.46-0.28,0.36c-0.46-0.21-0.93-0.44-1.39-0.67c-0.01,0.04-0.01,0.08-0.01,0.11c-0.02,0.36-0.56,0.36-0.55,0
				c0.01-0.13,0.02-0.27,0.03-0.4c-1.17-0.63-2.32-1.32-3.45-2.07c-0.25,0.5-0.5,1.01-0.71,1.53c2.34,1.09,5.05,1.5,7.73,2.01
				C50.04,34.63,50.04,34.61,50.04,34.58z M49.39,23.57c0.04-0.01,0.07-0.02,0.1-0.03c-0.71-0.62-1.43-1.24-2.19-1.84
				c-0.01,0.01-0.02,0.02-0.04,0.03c-1.3,0.62-2.5,1.35-3.55,2.21c0.78,0.61,1.55,1.24,2.3,1.89
				C46.99,24.91,48.11,24.13,49.39,23.57z M48.36,29.07c-0.78-0.74-1.58-1.46-2.4-2.16c-0.96,0.98-1.77,2.11-2.46,3.32
				c1.06,0.66,2.1,1.34,3.12,2.04C46.92,31.1,47.55,30,48.36,29.07z M45.42,26.44c-0.78-0.65-1.58-1.28-2.39-1.89
				c-1.11,1.05-2,2.29-2.58,3.75c0.83,0.54,1.68,1.07,2.53,1.6C43.66,28.64,44.46,27.46,45.42,26.44z M46.61,21.15
				c-1.18-0.92-2.4-1.8-3.67-2.61c-0.01,0.01-0.03,0.02-0.04,0.03c-1.44,0.57-2.69,1.27-3.78,2.12c1.32,0.84,2.6,1.74,3.85,2.68
				C44.01,22.4,45.25,21.63,46.61,21.15z M41.81,32.38c0.22-0.54,0.46-1.07,0.71-1.6c-0.8-0.53-1.59-1.09-2.37-1.65
				c-0.16,0.52-0.29,1.07-0.37,1.65c-0.01,0.07-0.05,0.12-0.11,0.15C40.33,31.51,41.05,31.98,41.81,32.38z M39.93,27.94
				c0.52-1.45,1.34-2.79,2.38-3.92c-1.28-0.94-2.61-1.83-3.95-2.68c-1.09,1.02-1.97,2.21-2.64,3.62c1.14,0.85,2.3,1.68,3.47,2.49
				C39.43,27.61,39.68,27.78,39.93,27.94z M39.33,30.6c0.06-0.61,0.17-1.22,0.33-1.82c-0.85-0.61-1.68-1.23-2.5-1.84
				c-0.58-0.43-1.16-0.88-1.74-1.33c-0.29,0.71-0.54,1.47-0.74,2.28c-0.04,0.17-0.33,0.14-0.31-0.04c0.1-0.9,0.3-1.77,0.58-2.61
				c-0.79-0.62-1.55-1.27-2.3-1.93c0,0.08-0.01,0.15-0.01,0.23c0.01,0.34-0.49,0.33-0.52,0c-0.02-0.24-0.03-0.47-0.02-0.71
				c-0.78-0.71-1.54-1.43-2.27-2.19c-0.12-0.01-0.24-0.08-0.29-0.23c-0.01-0.03-0.02-0.06-0.03-0.1c-0.52-0.55-1.04-1.11-1.53-1.7
				c-0.1-0.12,0.06-0.29,0.17-0.17c0.39,0.41,0.79,0.8,1.19,1.2c-0.14-0.97,0.04-1.97,0.48-2.84c-1.03-0.46-2.06-0.92-3.1-1.35
				c0.08,0.81,0.24,1.62,0.52,2.38c0.83,2.23,2.07,4.27,3.5,6.16c2.21,2.91,4.76,5.53,7.2,8.24c-0.31-0.96-0.51-1.93-0.55-2.9
				c-0.11-0.22-0.21-0.45-0.31-0.69c-0.09-0.22,0.13-0.39,0.33-0.37c0.01-0.17,0.03-0.34,0.06-0.5c0.04-0.33,0.51-0.2,0.54,0.08
				c0.06,0.52,0.15,1.04,0.27,1.57C38.63,29.85,38.97,30.24,39.33,30.6z M42.01,17.97c-1.3-0.78-2.63-1.49-3.99-2.08
				c0.05,0.11,0.04,0.24-0.05,0.34c-0.82,0.84-1.89,1.39-2.81,2.14c1.05,0.57,2.08,1.17,3.1,1.79
				C39.32,19.21,40.58,18.45,42.01,17.97z M37.54,20.85c-1.02-0.62-2.07-1.22-3.11-1.79c-0.95,1.04-1.56,2.18-1.73,3.53
				c0.82,0.67,1.65,1.34,2.5,1.98C35.75,23.19,36.54,21.92,37.54,20.85z M34.34,17.93c0.95-0.99,2.11-1.77,3.33-2.19
				c-1.31-0.55-2.64-1-3.98-1.32c0.08,0.13,0.06,0.32-0.09,0.41c-0.85,0.51-1.78,0.81-2.5,1.51C32.2,16.85,33.28,17.38,34.34,17.93z
				 M32.17,22.16c0.18-1.24,0.73-2.44,1.53-3.47c-1.06-0.55-2.12-1.09-3.2-1.59c-0.58,0.95-0.66,2-0.29,3.14
				c0.03,0.07,0.02,0.13,0,0.19C30.85,21.01,31.5,21.6,32.17,22.16z M30.35,16.01c0.7-0.9,1.7-1.55,2.92-1.68
				c-1.19-0.25-2.38-0.39-3.57-0.41c-0.55-0.01-2.98-0.22-3.01,0.6c0.03,0.01,0.05,0,0.08,0.01C27.98,14.99,29.17,15.49,30.35,16.01
				z"/>
			<path class="st6" d="M51.38,26.67c5.59,2.02,9.62,7,8.98,13.18c-0.93-1.46-2.99-2.79-4.38-3.48c0.06-0.06,0.11-0.15,0.11-0.27
				C56.21,32.24,54.31,28.9,51.38,26.67z"/>
			<path class="st6" d="M58.69,39.4c4.49,4.15-6.42,3.62-8.31,3.26c-5.17-0.99-9.53-5.98-11.41-11.08
				C43.77,36.67,53.46,34.58,58.69,39.4z"/>
			<path class="st7" d="M53.82,30.31c0.99,1.67,1.5,3.61,1.43,5.72h-0.01c-0.13-0.06-0.27-0.1-0.4-0.15c0.06-0.08,0.08-0.18,0-0.3
				c-0.92-1.3-1.88-2.55-2.9-3.75c0.51-0.5,1.13-0.82,1.74-1.21C53.8,30.54,53.84,30.42,53.82,30.31z"/>
			<path class="st7" d="M53.71,30.12c-0.07-0.06-0.16-0.09-0.27-0.06c-0.8,0.18-1.45,0.64-1.96,1.24c-0.65-0.74-1.32-1.48-2-2.18
				c0.46-0.46,0.93-0.92,1.37-1.44c0.2-0.22-0.05-0.59-0.32-0.42c-0.58,0.34-1.13,0.76-1.63,1.25c-0.76-0.75-1.53-1.48-2.33-2.19
				c0.94-0.85,2-1.56,3.22-2.09c0.13-0.06,0.18-0.16,0.19-0.27c0.82,0.74,1.6,1.48,2.34,2.2c-0.97-0.37-1.97-0.64-2.99-0.81
				c-0.36-0.05-0.64,0.45-0.26,0.63C51.04,26.96,52.64,28.38,53.71,30.12z"/>
			<path class="st7" d="M51.52,32.36c0.92,1.06,1.81,2.15,2.66,3.29c-1.18-0.38-2.4-0.65-3.63-0.9c0-0.01,0.01-0.01,0.01-0.02
				C50.73,33.87,51.02,33.07,51.52,32.36z"/>
			<path class="st7" d="M51.05,31.85c-0.53,0.83-0.86,1.82-1.01,2.73c-0.01,0.03,0,0.04,0,0.06c-2.68-0.51-5.4-0.92-7.73-2.01
				c0.22-0.52,0.46-1.02,0.71-1.53c1.13,0.74,2.28,1.44,3.45,2.07c-0.01,0.13-0.03,0.27-0.03,0.4c-0.01,0.36,0.53,0.36,0.55,0
				c0-0.04,0.01-0.08,0.01-0.11c0.46,0.24,0.92,0.46,1.39,0.67c0.22,0.1,0.5-0.18,0.28-0.36c-0.5-0.39-1.02-0.78-1.54-1.15
				c0.29-1.21,1-2.12,1.82-2.98C49.68,30.36,50.37,31.1,51.05,31.85z"/>
			<path class="st7" d="M49.49,23.55c-0.03,0.01-0.06,0.01-0.1,0.03c-1.28,0.56-2.4,1.34-3.37,2.26c-0.75-0.65-1.52-1.28-2.3-1.89
				c1.05-0.86,2.25-1.59,3.55-2.21c0.02-0.01,0.03-0.02,0.04-0.03C48.06,22.31,48.79,22.93,49.49,23.55z"/>
			<path class="st7" d="M45.96,26.91c0.81,0.7,1.61,1.42,2.4,2.16c-0.81,0.93-1.44,2.03-1.74,3.2c-1.02-0.71-2.07-1.38-3.12-2.04
				C44.2,29.02,45,27.89,45.96,26.91z"/>
			<path class="st7" d="M43.03,24.55c0.81,0.61,1.61,1.23,2.39,1.89c-0.96,1.02-1.76,2.21-2.44,3.46c-0.85-0.53-1.7-1.06-2.53-1.6
				C41.03,26.84,41.91,25.6,43.03,24.55z"/>
			<path class="st7" d="M42.93,18.54c1.27,0.81,2.5,1.69,3.67,2.61c-1.36,0.48-2.59,1.25-3.65,2.22c-1.25-0.94-2.52-1.84-3.85-2.68
				c1.08-0.85,2.33-1.55,3.78-2.12C42.91,18.56,42.92,18.55,42.93,18.54z"/>
			<path class="st7" d="M42.52,30.78c-0.25,0.53-0.5,1.06-0.71,1.6c-0.76-0.4-1.48-0.87-2.14-1.46c0.06-0.03,0.1-0.08,0.11-0.15
				c0.08-0.58,0.21-1.13,0.37-1.65C40.93,29.69,41.72,30.25,42.52,30.78z"/>
			<path class="st7" d="M42.31,24.02c-1.04,1.13-1.86,2.47-2.38,3.92c-0.25-0.17-0.5-0.33-0.74-0.5c-1.17-0.81-2.33-1.63-3.47-2.49
				c0.67-1.41,1.55-2.6,2.64-3.62C39.7,22.19,41.03,23.08,42.31,24.02z"/>
			<path class="st7" d="M39.66,28.78c-0.16,0.6-0.27,1.21-0.33,1.82c-0.36-0.36-0.7-0.74-1.02-1.18c-0.12-0.53-0.22-1.06-0.27-1.57
				c-0.03-0.28-0.5-0.41-0.54-0.08c-0.03,0.17-0.04,0.34-0.06,0.5c-0.2-0.02-0.42,0.15-0.33,0.37c0.1,0.24,0.2,0.47,0.31,0.69
				c0.04,0.97,0.24,1.94,0.55,2.9c-2.44-2.72-4.99-5.33-7.2-8.24c-1.44-1.9-2.67-3.93-3.5-6.16c-0.29-0.77-0.44-1.57-0.52-2.38
				c1.04,0.43,2.07,0.88,3.1,1.35c-0.44,0.87-0.62,1.87-0.48,2.84c-0.4-0.39-0.8-0.79-1.19-1.2c-0.11-0.11-0.27,0.05-0.17,0.17
				c0.49,0.59,1,1.14,1.53,1.7c0.01,0.03,0.01,0.06,0.03,0.1c0.05,0.15,0.17,0.22,0.29,0.23c0.73,0.76,1.49,1.49,2.27,2.19
				c-0.01,0.24,0,0.48,0.02,0.71c0.03,0.33,0.53,0.34,0.52,0c0-0.08,0.01-0.15,0.01-0.23c0.75,0.66,1.51,1.3,2.3,1.93
				c-0.28,0.83-0.48,1.7-0.58,2.61c-0.02,0.18,0.27,0.21,0.31,0.04c0.2-0.81,0.44-1.56,0.74-2.28c0.58,0.45,1.15,0.9,1.74,1.33
				C37.98,27.54,38.81,28.17,39.66,28.78z"/>
			<path class="st7" d="M38.02,15.89c1.36,0.59,2.69,1.3,3.99,2.08c-1.43,0.48-2.69,1.23-3.76,2.19c-1.02-0.62-2.05-1.22-3.1-1.79
				c0.92-0.74,1.99-1.3,2.81-2.14C38.06,16.13,38.07,16,38.02,15.89z"/>
			<path class="st7" d="M34.43,19.07c1.05,0.57,2.09,1.16,3.11,1.79c-1,1.07-1.79,2.33-2.35,3.72c-0.85-0.64-1.68-1.3-2.5-1.98
				C32.86,21.25,33.47,20.1,34.43,19.07z"/>
			<path class="st7" d="M37.67,15.74c-1.22,0.42-2.38,1.2-3.33,2.19c-1.06-0.55-2.14-1.09-3.24-1.59c0.72-0.71,1.65-1,2.5-1.51
				c0.15-0.09,0.17-0.28,0.09-0.41C35.03,14.74,36.36,15.19,37.67,15.74z"/>
			<path class="st7" d="M33.7,18.68c-0.79,1.04-1.35,2.23-1.53,3.47c-0.67-0.56-1.32-1.14-1.96-1.74c0.02-0.06,0.03-0.12,0-0.19
				c-0.37-1.13-0.29-2.19,0.29-3.14C31.58,17.6,32.64,18.13,33.7,18.68z"/>
			<path class="st7" d="M33.26,14.33c-1.21,0.13-2.22,0.78-2.92,1.68c-1.18-0.52-2.36-1.02-3.58-1.48
				c-0.03-0.01-0.04-0.01-0.08-0.01c0.03-0.81,2.45-0.6,3.01-0.6C30.89,13.93,32.08,14.08,33.26,14.33z"/>
		</g>
	</g>
	<g>
		<g>
			<g>
				<ellipse class="st8" cx="74.91" cy="56.88" rx="14.08" ry="18.55"/>
			</g>
			<g>
				<path class="st3" d="M74.91,76.28c-8.23,0-14.93-8.7-14.93-19.4c0-10.7,6.7-19.4,14.93-19.4s14.93,8.7,14.93,19.4
					C89.84,67.57,83.14,76.28,74.91,76.28z M74.91,39.18c-7.29,0-13.23,7.94-13.23,17.69s5.93,17.69,13.23,17.69
					c7.29,0,13.23-7.94,13.23-17.69S82.2,39.18,74.91,39.18z"/>
			</g>
		</g>
		<g>
			<g>
				<ellipse class="st4" cx="74.91" cy="61.34" rx="7.81" ry="7.81"/>
			</g>
			<g>
				<path class="st3" d="M74.91,70.01c-4.77,0-8.66-3.89-8.66-8.66s3.88-8.66,8.66-8.66c4.77,0,8.66,3.89,8.66,8.66
					S79.68,70.01,74.91,70.01z M74.91,54.39c-3.83,0-6.95,3.12-6.95,6.96s3.12,6.96,6.95,6.96s6.95-3.12,6.95-6.96
					S78.75,54.39,74.91,54.39z"/>
			</g>
		</g>
	</g>
</g>
</svg>
