<?xml version="1.0" encoding="utf-8"?>
<!-- Generator: Adobe Illustrator 23.1.0, SVG Export Plug-In . SVG Version: 6.00 Build 0)  -->
<svg version="1.1" id="Capa_1" xmlns="http://www.w3.org/2000/svg" xmlns:xlink="http://www.w3.org/1999/xlink" x="0px" y="0px"
	 viewBox="0 0 100 100" style="enable-background:new 0 0 100 100;" xml:space="preserve">
<style type="text/css">
	.st0{fill:#F9F9F9;}
	.st1{fill:#DADADA;}
	.st2{fill:#DB8E5B;}
	.st3{fill:#5D5F67;}
	.st4{fill:#E8A272;}
	.st5{fill:#CA8050;}
	.st6{fill:#95F089;}
	.st7{fill:#6CBAA0;}
	.st8{fill:#F5F5F5;}
	.st9{fill:#EABC48;}
	.st10{fill:#E3827E;}
</style>
<g>
	<g>
		<g>
			<path class="st0" d="M47.61,99c-0.01,0-0.03,0-0.04,0c-1.5-0.07-3.01-0.22-4.49-0.43c-0.48-0.07-0.82-0.52-0.75-1
				s0.52-0.82,1-0.75c1.43,0.2,2.88,0.34,4.33,0.41c0.49,0.02,0.86,0.44,0.84,0.93C48.47,98.63,48.08,99,47.61,99z M52.92,98.97
				c-0.46,0-0.85-0.36-0.88-0.83c-0.03-0.49,0.34-0.9,0.83-0.93c1.44-0.09,2.9-0.24,4.32-0.46c0.48-0.07,0.93,0.26,1.01,0.74
				c0.07,0.48-0.26,0.93-0.74,1.01c-1.48,0.23-2.99,0.39-4.48,0.48C52.96,98.97,52.94,98.97,52.92,98.97z M37.99,97.55
				c-0.07,0-0.15-0.01-0.22-0.03c-1.45-0.37-2.9-0.82-4.31-1.33c-0.46-0.16-0.7-0.67-0.53-1.13c0.16-0.46,0.67-0.7,1.13-0.53
				c1.36,0.49,2.76,0.92,4.16,1.28c0.47,0.12,0.76,0.6,0.64,1.08C38.74,97.28,38.38,97.55,37.99,97.55z M62.53,97.41
				c-0.39,0-0.75-0.26-0.85-0.65c-0.13-0.47,0.15-0.96,0.62-1.08c1.4-0.38,2.79-0.82,4.14-1.32c0.46-0.17,0.97,0.06,1.14,0.52
				c0.17,0.46-0.06,0.97-0.52,1.14c-1.4,0.52-2.85,0.98-4.3,1.37C62.68,97.4,62.61,97.41,62.53,97.41z M28.86,94.17
				c-0.13,0-0.26-0.03-0.39-0.09c-1.34-0.66-2.67-1.39-3.96-2.17c-0.42-0.25-0.55-0.8-0.29-1.21c0.25-0.42,0.8-0.55,1.21-0.29
				c1.24,0.75,2.52,1.46,3.81,2.09c0.44,0.21,0.62,0.74,0.4,1.18C29.5,93.99,29.19,94.17,28.86,94.17z M71.62,93.94
				c-0.32,0-0.63-0.18-0.79-0.49c-0.22-0.44-0.04-0.97,0.39-1.19c1.29-0.65,2.57-1.37,3.79-2.13c0.42-0.26,0.96-0.13,1.22,0.28
				c0.26,0.41,0.13,0.96-0.28,1.22c-1.27,0.79-2.59,1.54-3.93,2.21C71.89,93.9,71.75,93.94,71.62,93.94z M20.6,89.03
				c-0.19,0-0.38-0.06-0.54-0.18c-1.18-0.92-2.34-1.9-3.44-2.92c-0.36-0.33-0.38-0.89-0.05-1.25c0.33-0.36,0.89-0.38,1.25-0.05
				c1.06,0.99,2.18,1.93,3.32,2.82c0.39,0.3,0.46,0.85,0.16,1.24C21.12,88.91,20.86,89.03,20.6,89.03z M79.82,88.7
				c-0.26,0-0.52-0.11-0.69-0.34c-0.3-0.38-0.24-0.94,0.14-1.24c1.13-0.9,2.24-1.86,3.28-2.85c0.35-0.33,0.91-0.32,1.25,0.03
				c0.34,0.35,0.32,0.91-0.03,1.25c-1.08,1.03-2.23,2.03-3.41,2.96C80.21,88.64,80.01,88.7,79.82,88.7z M13.54,82.33
				c-0.25,0-0.49-0.1-0.67-0.31c-0.98-1.14-1.92-2.33-2.79-3.55c-0.28-0.4-0.19-0.95,0.21-1.23c0.4-0.28,0.95-0.19,1.23,0.21
				c0.84,1.17,1.74,2.33,2.68,3.42c0.32,0.37,0.28,0.93-0.09,1.25C13.94,82.26,13.74,82.33,13.54,82.33z M86.81,81.92
				c-0.2,0-0.4-0.07-0.57-0.21c-0.37-0.31-0.42-0.87-0.11-1.24c0.93-1.11,1.82-2.27,2.65-3.45c0.28-0.4,0.83-0.5,1.23-0.22
				c0.4,0.28,0.5,0.83,0.22,1.23c-0.86,1.23-1.78,2.43-2.75,3.58C87.31,81.81,87.06,81.92,86.81,81.92z M7.96,74.35
				c-0.31,0-0.61-0.16-0.77-0.45c-0.73-1.31-1.41-2.67-2.01-4.04c-0.2-0.45,0-0.97,0.45-1.17c0.45-0.2,0.97,0,1.16,0.45
				c0.59,1.32,1.24,2.63,1.94,3.89c0.24,0.43,0.09,0.96-0.34,1.2C8.25,74.31,8.1,74.35,7.96,74.35z M92.3,73.88
				c-0.14,0-0.29-0.03-0.42-0.11c-0.43-0.23-0.59-0.77-0.35-1.2c0.69-1.27,1.33-2.59,1.9-3.91c0.19-0.45,0.71-0.66,1.16-0.46
				c0.45,0.19,0.66,0.71,0.46,1.16c-0.59,1.38-1.25,2.74-1.97,4.06C92.92,73.71,92.61,73.88,92.3,73.88z M4.1,65.41
				c-0.38,0-0.72-0.24-0.84-0.62c-0.45-1.43-0.84-2.9-1.16-4.36c-0.1-0.48,0.2-0.95,0.68-1.05c0.48-0.11,0.95,0.2,1.05,0.68
				c0.3,1.41,0.68,2.83,1.11,4.2c0.15,0.46-0.11,0.96-0.58,1.11C4.28,65.4,4.19,65.41,4.1,65.41z M96.06,64.89
				c-0.08,0-0.17-0.01-0.26-0.04c-0.47-0.14-0.73-0.63-0.59-1.1c0.42-1.38,0.78-2.8,1.07-4.22c0.1-0.48,0.57-0.79,1.04-0.69
				c0.48,0.1,0.79,0.56,0.69,1.04c-0.3,1.47-0.67,2.94-1.11,4.38C96.79,64.65,96.44,64.89,96.06,64.89z M2.13,55.88
				c-0.45,0-0.83-0.34-0.88-0.79c-0.15-1.48-0.24-3-0.25-4.5c-0.01-0.49,0.39-0.89,0.87-0.89c0,0,0.01,0,0.01,0
				c0.48,0,0.88,0.39,0.88,0.87c0.02,1.45,0.1,2.91,0.25,4.34c0.05,0.48-0.3,0.92-0.79,0.97C2.19,55.88,2.16,55.88,2.13,55.88z
				 M97.92,55.34c-0.03,0-0.05,0-0.08,0c-0.49-0.04-0.84-0.47-0.8-0.96c0.13-1.44,0.2-2.9,0.2-4.35l0-0.2
				c0-0.49,0.39-0.88,0.88-0.88S99,49.34,99,49.83l0,0.19c0,1.51-0.07,3.03-0.2,4.52C98.75,54.99,98.37,55.34,97.92,55.34z
				 M2.11,46.14c-0.03,0-0.06,0-0.09,0c-0.49-0.05-0.84-0.48-0.79-0.97c0.15-1.5,0.36-3,0.65-4.47c0.09-0.48,0.55-0.79,1.03-0.7
				c0.48,0.09,0.79,0.55,0.7,1.03c-0.27,1.41-0.48,2.86-0.62,4.3C2.95,45.8,2.56,46.14,2.11,46.14z M97.81,45.41
				c-0.44,0-0.83-0.33-0.88-0.78c-0.16-1.44-0.4-2.88-0.69-4.29c-0.1-0.48,0.21-0.95,0.68-1.04c0.47-0.1,0.94,0.21,1.04,0.68
				c0.31,1.46,0.55,2.96,0.72,4.45c0.06,0.48-0.29,0.92-0.78,0.98C97.87,45.4,97.84,45.41,97.81,45.41z M4.04,36.6
				c-0.09,0-0.18-0.01-0.26-0.04c-0.47-0.14-0.73-0.64-0.58-1.11c0.45-1.43,0.96-2.86,1.54-4.24c0.19-0.45,0.7-0.66,1.15-0.48
				c0.45,0.19,0.66,0.7,0.48,1.16c-0.55,1.33-1.05,2.71-1.48,4.09C4.77,36.36,4.42,36.6,4.04,36.6z M95.73,35.9
				c-0.37,0-0.72-0.24-0.84-0.61c-0.45-1.37-0.97-2.74-1.54-4.07c-0.19-0.45,0.01-0.97,0.46-1.16c0.45-0.19,0.97,0.01,1.16,0.46
				c0.6,1.38,1.14,2.8,1.6,4.22c0.15,0.46-0.1,0.96-0.56,1.11C95.91,35.88,95.82,35.9,95.73,35.9z M7.86,27.64
				c-0.14,0-0.29-0.04-0.43-0.11c-0.43-0.24-0.58-0.77-0.35-1.2c0.72-1.31,1.52-2.6,2.36-3.85c0.27-0.4,0.82-0.51,1.23-0.23
				c0.4,0.27,0.51,0.82,0.23,1.23c-0.81,1.2-1.58,2.44-2.28,3.71C8.48,27.48,8.17,27.64,7.86,27.64z M91.77,27
				c-0.31,0-0.6-0.16-0.77-0.44c-0.72-1.25-1.5-2.49-2.33-3.67c-0.28-0.4-0.18-0.95,0.21-1.23c0.4-0.28,0.95-0.18,1.23,0.21
				c0.86,1.23,1.68,2.51,2.42,3.81c0.24,0.42,0.1,0.96-0.33,1.21C92.07,26.97,91.92,27,91.77,27z M13.41,19.64
				c-0.2,0-0.41-0.07-0.57-0.21c-0.37-0.32-0.41-0.87-0.1-1.24c0.98-1.14,2.01-2.25,3.09-3.29c0.35-0.34,0.91-0.33,1.25,0.02
				c0.34,0.35,0.33,0.91-0.02,1.25c-1.03,1-2.03,2.07-2.97,3.17C13.91,19.54,13.66,19.64,13.41,19.64z M86.11,19.09
				c-0.24,0-0.49-0.1-0.66-0.3c-0.96-1.09-1.98-2.14-3.02-3.13c-0.35-0.33-0.37-0.89-0.04-1.25c0.34-0.35,0.89-0.37,1.25-0.04
				c1.08,1.02,2.14,2.12,3.14,3.24c0.32,0.37,0.29,0.92-0.08,1.25C86.52,19.02,86.32,19.09,86.11,19.09z M20.45,12.91
				c-0.26,0-0.52-0.12-0.7-0.34c-0.3-0.38-0.23-0.94,0.15-1.24c1.18-0.92,2.42-1.8,3.68-2.61C24,8.46,24.54,8.58,24.8,8.99
				c0.26,0.41,0.14,0.96-0.27,1.22c-1.22,0.78-2.41,1.63-3.55,2.51C20.83,12.85,20.64,12.91,20.45,12.91z M78.97,12.47
				c-0.19,0-0.37-0.06-0.53-0.18c-1.16-0.87-2.36-1.7-3.59-2.46c-0.41-0.26-0.54-0.8-0.29-1.22c0.26-0.41,0.8-0.55,1.22-0.29
				c1.27,0.79,2.52,1.65,3.72,2.55c0.39,0.29,0.47,0.85,0.17,1.24C79.5,12.35,79.24,12.47,78.97,12.47z M28.69,7.74
				c-0.33,0-0.64-0.18-0.79-0.49c-0.22-0.44-0.04-0.97,0.4-1.18c1.34-0.67,2.73-1.28,4.13-1.81c0.46-0.17,0.97,0.05,1.14,0.51
				c0.17,0.45-0.05,0.97-0.51,1.14C31.71,6.41,30.37,7,29.08,7.64C28.95,7.71,28.82,7.74,28.69,7.74z M70.65,7.41
				c-0.13,0-0.26-0.03-0.38-0.09c-1.3-0.62-2.65-1.19-4.01-1.69c-0.46-0.17-0.69-0.67-0.53-1.13s0.67-0.7,1.13-0.53
				c1.41,0.52,2.81,1.1,4.16,1.75c0.44,0.21,0.63,0.74,0.42,1.18C71.3,7.23,70.98,7.41,70.65,7.41z M37.8,4.33
				c-0.39,0-0.75-0.26-0.85-0.66c-0.12-0.47,0.16-0.96,0.63-1.08c1.45-0.38,2.93-0.69,4.41-0.94C42.47,1.56,42.92,1.9,43,2.38
				c0.08,0.48-0.25,0.94-0.73,1.01c-1.42,0.23-2.86,0.54-4.25,0.9C37.95,4.32,37.87,4.33,37.8,4.33z M61.48,4.15
				c-0.07,0-0.14-0.01-0.21-0.03c-1.4-0.34-2.84-0.63-4.27-0.84c-0.48-0.07-0.81-0.52-0.74-1c0.07-0.48,0.52-0.81,1-0.74
				c1.48,0.22,2.97,0.51,4.43,0.87c0.47,0.12,0.76,0.59,0.65,1.07C62.24,3.88,61.88,4.15,61.48,4.15z M47.41,2.83
				c-0.47,0-0.86-0.36-0.88-0.84c-0.03-0.49,0.35-0.9,0.83-0.93C48.25,1.02,49.13,1.01,50,1c0.63,0,1.25,0.01,1.88,0.04
				c0.49,0.02,0.87,0.43,0.85,0.92c-0.02,0.49-0.41,0.89-0.92,0.85c-0.62-0.02-1.24-0.04-1.86-0.03c-0.82,0-1.66,0.02-2.49,0.07
				C47.45,2.83,47.43,2.83,47.41,2.83z"/>
		</g>
		<ellipse class="st1" cx="50" cy="50.03" rx="35.76" ry="35.78"/>
	</g>
	<g>
		<g>
			<path class="st2" d="M51.28,30.52c-4.61-3.17-5.38-9.83-1.37-13.72c0.42-0.41,0.9-0.8,1.44-1.18c6.51-4.48,26.64,7.3,24.47,14.83
				s-10.05,12.16-14.84,6.38C57.07,32.14,55.84,33.66,51.28,30.52z"/>
			<path class="st3" d="M76.15,32.4c-1.68,4.04-4.93,7.1-8.46,7.83c-2.83,0.59-5.47-0.4-7.44-2.78c-2.22-2.68-3.44-3.17-5.13-3.85
				c-1.17-0.47-2.5-1.01-4.38-2.3c-2.51-1.72-4.09-4.45-4.35-7.49c-0.24-2.9,0.8-5.71,2.85-7.71c0.47-0.46,1-0.89,1.57-1.28
				c4.24-2.92,12.95,0.14,18.99,4.49c5.31,3.82,7.9,8.09,6.94,11.4C76.57,31.3,76.37,31.86,76.15,32.4z M51.28,30.52l0.54-0.79
				c1.7,1.17,2.93,1.66,4.01,2.1c1.8,0.73,3.36,1.35,5.89,4.4c1.52,1.83,3.45,2.57,5.58,2.12c3.28-0.68,6.41-4.04,7.6-8.16
				c0.71-2.46-1.67-6.03-6.22-9.31c-6.27-4.52-13.79-6.52-16.78-4.47c-0.48,0.33-0.92,0.69-1.32,1.07
				c-1.64,1.59-2.47,3.84-2.28,6.17c0.21,2.46,1.49,4.67,3.52,6.07L51.28,30.52z"/>
		</g>
		<g>
			
				<ellipse transform="matrix(0.3841 -0.9233 0.9233 0.3841 15.2571 60.6769)" class="st4" cx="53.11" cy="18.9" rx="1.18" ry="1.18"/>
			<path class="st3" d="M54.64,19.54c-0.35,0.84-1.32,1.24-2.17,0.89c-0.84-0.35-1.24-1.32-0.89-2.17c0.35-0.84,1.32-1.24,2.17-0.89
				C54.59,17.72,54.99,18.7,54.64,19.54z M52.46,18.63c-0.15,0.36,0.02,0.76,0.38,0.91c0.36,0.15,0.77-0.02,0.91-0.38
				c0.15-0.36-0.02-0.77-0.38-0.91C53.02,18.11,52.61,18.28,52.46,18.63z"/>
		</g>
		<g>
			
				<ellipse transform="matrix(0.3841 -0.9233 0.9233 0.3841 8.9961 67.9105)" class="st5" cx="55.4" cy="27.21" rx="0.75" ry="0.75"/>
			<path class="st3" d="M56.53,27.68c-0.26,0.62-0.98,0.92-1.6,0.66c-0.62-0.26-0.92-0.98-0.66-1.6c0.26-0.62,0.98-0.92,1.6-0.66
				C56.49,26.34,56.79,27.06,56.53,27.68z M55.15,27.11c-0.06,0.14,0.01,0.29,0.14,0.35c0.27,0.11,0.48-0.38,0.2-0.49
				C55.37,26.91,55.21,26.97,55.15,27.11z"/>
		</g>
		<g>
			
				<ellipse transform="matrix(0.3841 -0.9233 0.9233 0.3841 18.4596 83.7488)" class="st5" cx="72" cy="28.04" rx="0.75" ry="0.75"/>
			<path class="st3" d="M73.13,28.51c-0.26,0.62-0.98,0.92-1.6,0.66c-0.62-0.26-0.92-0.98-0.66-1.6c0.26-0.62,0.98-0.92,1.6-0.66
				C73.1,27.17,73.39,27.89,73.13,28.51z M71.76,27.94c-0.06,0.14,0.01,0.29,0.14,0.35c0.27,0.11,0.48-0.38,0.2-0.49
				C71.97,27.74,71.81,27.8,71.76,27.94z"/>
		</g>
		<g>
			
				<ellipse transform="matrix(0.3841 -0.9233 0.9233 0.3841 20.105 64.883)" class="st4" cx="58.68" cy="17.37" rx="1.18" ry="1.18"/>
			<path class="st3" d="M60.22,18.01c-0.35,0.84-1.32,1.24-2.17,0.89c-0.84-0.35-1.24-1.32-0.89-2.17c0.35-0.84,1.32-1.24,2.17-0.89
				C60.17,16.19,60.57,17.17,60.22,18.01z M58.04,17.1c-0.15,0.36,0.02,0.76,0.38,0.91s0.77-0.02,0.91-0.38
				c0.15-0.36-0.02-0.77-0.38-0.91S58.19,16.75,58.04,17.1z"/>
		</g>
		<g>
			
				<ellipse transform="matrix(0.3841 -0.9233 0.9233 0.3841 14.1931 72.8988)" class="st4" cx="61.74" cy="25.81" rx="1.18" ry="1.18"/>
			<path class="st3" d="M63.27,26.45c-0.35,0.84-1.32,1.24-2.17,0.89c-0.84-0.35-1.24-1.32-0.89-2.17c0.35-0.84,1.32-1.24,2.17-0.89
				C63.22,24.63,63.62,25.6,63.27,26.45z M61.09,25.54c-0.15,0.36,0.02,0.76,0.38,0.91s0.77-0.02,0.91-0.38
				c0.15-0.36-0.02-0.77-0.38-0.91C61.65,25.02,61.24,25.19,61.09,25.54z"/>
		</g>
		<g>
			
				<ellipse transform="matrix(0.3841 -0.9233 0.9233 0.3841 8.3804 83.5528)" class="st4" cx="66.82" cy="35.49" rx="1.18" ry="1.18"/>
			<path class="st3" d="M68.35,36.13c-0.35,0.84-1.32,1.24-2.17,0.89c-0.84-0.35-1.24-1.32-0.89-2.17c0.35-0.84,1.32-1.24,2.17-0.89
				C68.3,34.32,68.7,35.29,68.35,36.13z M66.17,35.23c-0.15,0.36,0.02,0.77,0.38,0.91c0.36,0.15,0.77-0.02,0.91-0.38
				c0.15-0.36-0.02-0.77-0.38-0.91C66.73,34.7,66.32,34.87,66.17,35.23z"/>
		</g>
	</g>
	<g>
		<g>
			<g>
				<path class="st6" d="M37.12,45.53c0,0-2.73,1.79-2.59,5.22c0.15,3.43,0.72,4.15-1.65,5.2s-2.83-0.9-3.9-2.78
					c-1.08-1.87-6.31-3.23-6.96-3.6s0.86-3.04,2.44-2.73c1.58,0.31,4.34,3.63,4.54,2.25c0.2-1.38-2.72-4.28-2.33-5.59
					c0.38-1.31,2.46-2.98,3.57-0.79c1.12,2.19,0.67,5.22,1.27,5.26c1.47,0.09,1.22-4.25,1.66-5.5
					C33.62,41.21,37.2,43.83,37.12,45.53z"/>
			</g>
			<g>
				<path class="st3" d="M31.69,56.92c-1.52,0-2.24-1.38-2.84-2.54c-0.15-0.28-0.3-0.58-0.47-0.87c-0.69-1.2-3.91-2.33-5.45-2.87
					c-0.7-0.25-1.05-0.37-1.26-0.49c-0.19-0.11-0.77-0.55-0.34-1.68c0.42-1.11,1.75-2.61,3.26-2.31c0.85,0.17,1.8,0.9,2.72,1.61
					c0.26,0.2,0.6,0.47,0.89,0.67c-0.21-0.51-0.62-1.18-0.95-1.72c-0.78-1.26-1.52-2.45-1.23-3.42c0.3-1.03,1.39-2.22,2.62-2.33
					c0.53-0.05,1.53,0.07,2.22,1.43c0.67,1.32,0.82,2.87,0.93,3.99c0.01,0.13,0.02,0.26,0.04,0.39c0.2-0.69,0.33-1.9,0.39-2.52
					c0.08-0.83,0.15-1.55,0.32-2.03c0.16-0.47,0.64-0.92,1.51-0.76c1.47,0.28,3.84,2.36,3.76,4.07l-0.02,0.35L37.5,46.1
					c-0.11,0.08-2.41,1.65-2.28,4.61c0.03,0.59,0.06,1.1,0.1,1.55c0.16,2.17,0.24,3.25-2.16,4.31
					C32.6,56.82,32.11,56.92,31.69,56.92z M22.58,49.06c0.21,0.08,0.52,0.19,0.81,0.29c2.54,0.89,5.31,1.96,6.19,3.48
					c0.18,0.31,0.34,0.62,0.5,0.93c0.86,1.66,1.19,2.16,2.54,1.56c1.52-0.67,1.5-0.89,1.35-2.96c-0.03-0.46-0.07-0.98-0.1-1.59
					c-0.13-3.03,1.74-4.9,2.54-5.55c-0.11-0.37-0.46-0.91-1.08-1.47c-0.67-0.6-1.26-0.87-1.53-0.92c-0.09,0.36-0.15,0.98-0.21,1.57
					c-0.2,2.04-0.43,4.34-2.1,4.25c-0.85-0.05-0.94-0.97-1.05-2.13c-0.1-1.02-0.23-2.41-0.79-3.5c-0.37-0.73-0.75-0.69-0.87-0.68
					c-0.59,0.06-1.27,0.79-1.44,1.35c-0.11,0.38,0.64,1.59,1.08,2.32c0.72,1.17,1.4,2.27,1.27,3.18c-0.08,0.56-0.42,0.77-0.61,0.85
					c-0.71,0.29-1.46-0.3-2.6-1.18c-0.72-0.56-1.61-1.25-2.15-1.35c-0.37-0.07-0.76,0.2-0.95,0.38
					C22.93,48.28,22.66,48.78,22.58,49.06z"/>
			</g>
		</g>
		<g>
			<g>
				<path class="st7" d="M25.13,38.07c-0.02-2.2,1.43-4.06,3.42-4.69c0.34-2.34,2.33-4.15,4.77-4.17c1.12-0.01,2.15,0.37,2.98,1
					c0.58-0.26,1.23-0.4,1.91-0.41c2.2-0.02,4.06,1.43,4.69,3.43c1.67,0.76,2.84,2.43,2.86,4.38c0.02,2.13-1.33,3.94-3.22,4.62
					c-0.64,1.93-2.43,3.34-4.57,3.36c-0.81,0.01-1.57-0.2-2.25-0.55c-0.67,0.36-1.42,0.58-2.23,0.59c-1.99,0.02-3.7-1.16-4.48-2.85
					C26.81,42.33,25.16,40.4,25.13,38.07z"/>
			</g>
			<g>
				<path class="st3" d="M33.43,46.33c-2.05,0-3.94-1.14-4.9-2.95c-2.36-0.66-4.06-2.84-4.08-5.31l0,0
					c-0.02-2.31,1.37-4.36,3.5-5.21c0.56-2.52,2.75-4.32,5.36-4.34c1.1,0.01,2.15,0.3,3.08,0.92c0.58-0.21,1.19-0.31,1.81-0.32
					c0.02,0,0.04,0,0.06,0c2.33,0,4.38,1.44,5.19,3.62c1.8,0.95,2.97,2.83,2.99,4.87c0.02,2.24-1.32,4.27-3.37,5.15
					c-0.83,2.1-2.84,3.5-5.1,3.52c-0.74,0.01-1.52-0.15-2.25-0.47c-0.72,0.33-1.47,0.51-2.24,0.51
					C33.47,46.33,33.45,46.33,33.43,46.33z M25.82,38.06c0.02,1.95,1.42,3.66,3.33,4.06l0.34,0.07l0.14,0.31
					c0.69,1.51,2.19,2.47,3.85,2.45c0.65-0.01,1.3-0.18,1.92-0.51l0.31-0.17l0.32,0.16c0.63,0.32,1.27,0.45,1.93,0.47
					c1.78-0.02,3.36-1.18,3.93-2.89l0.1-0.31l0.31-0.11c1.68-0.61,2.79-2.21,2.77-3.97c-0.02-1.61-0.98-3.09-2.46-3.77l-0.28-0.13
					l-0.09-0.29c-0.56-1.77-2.15-2.95-3.99-2.95c-0.01,0-0.03,0-0.04,0c-0.57,0.01-1.12,0.12-1.64,0.35L36.21,31l-0.32-0.24
					c-0.76-0.57-1.65-0.85-2.56-0.87c-2.07,0.02-3.79,1.53-4.1,3.59l-0.06,0.42l-0.41,0.13C26.98,34.6,25.8,36.22,25.82,38.06
					L25.82,38.06z"/>
			</g>
		</g>
		<g>
			<g>
				<path class="st7" d="M11.55,50.46c-1.52-1.59-1.74-3.93-0.72-5.76c-1.35-1.94-1.14-4.62,0.61-6.31c0.81-0.78,1.82-1.2,2.86-1.31
					c0.25-0.59,0.62-1.14,1.11-1.61c1.59-1.53,3.93-1.74,5.76-0.72c1.74-0.59,3.73-0.18,5.09,1.23c1.47,1.54,1.73,3.78,0.82,5.58
					c0.86,1.84,0.52,4.09-1.03,5.58c-0.59,0.56-1.28,0.93-2.01,1.14c-0.24,0.72-0.64,1.4-1.22,1.96c-1.43,1.38-3.49,1.7-5.22,1
					C15.69,52.41,13.16,52.14,11.55,50.46z"/>
			</g>
			<g>
				<path class="st3" d="M15.08,52.63c-1.48,0-2.95-0.58-4.02-1.7l0,0c-1.6-1.67-1.99-4.11-1.01-6.19
					c-1.31-2.22-0.95-5.03,0.93-6.84c0.79-0.76,1.78-1.25,2.87-1.45c0.28-0.55,0.65-1.04,1.1-1.47c1.7-1.63,4.2-2,6.3-0.96
					c1.97-0.55,4.1,0.02,5.51,1.5c1.55,1.61,1.96,4.01,1.08,6.06c0.83,2.1,0.33,4.5-1.3,6.06c-0.55,0.53-1.21,0.93-1.96,1.2
					c-0.3,0.74-0.73,1.38-1.28,1.91c-1.5,1.44-3.67,1.91-5.63,1.25C16.85,52.42,15.96,52.63,15.08,52.63z M12.04,49.98
					c1.35,1.41,3.54,1.69,5.2,0.68l0.29-0.18l0.32,0.13c1.54,0.62,3.3,0.29,4.49-0.85c0.47-0.45,0.82-1.02,1.05-1.69l0.11-0.34
					l0.34-0.1c0.68-0.2,1.26-0.53,1.73-0.98c1.29-1.24,1.64-3.16,0.88-4.8l-0.14-0.3l0.15-0.3c0.8-1.59,0.52-3.52-0.7-4.79
					c-1.12-1.16-2.83-1.58-4.37-1.06l-0.29,0.1l-0.27-0.15c-1.63-0.91-3.62-0.67-4.95,0.61c-0.41,0.39-0.73,0.86-0.95,1.38
					l-0.16,0.37l-0.4,0.04c-0.95,0.1-1.8,0.49-2.46,1.13c-1.49,1.43-1.71,3.71-0.53,5.42l0.24,0.35l-0.21,0.37
					C10.52,46.66,10.76,48.65,12.04,49.98L12.04,49.98z"/>
			</g>
		</g>
		<g>
			<g>
				<path class="st6" d="M17.15,41.19c-0.69-2.09,0.13-4.3,1.83-5.51c-0.38-2.33,0.96-4.66,3.27-5.42c1.07-0.35,2.16-0.3,3.15,0.05
					c0.48-0.42,1.05-0.76,1.69-0.97c2.09-0.69,4.3,0.13,5.51,1.84c1.82,0.22,3.44,1.45,4.06,3.31c0.67,2.02-0.07,4.15-1.67,5.39
					c-0.02,2.03-1.3,3.92-3.33,4.59c-0.77,0.25-1.56,0.28-2.31,0.16c-0.53,0.54-1.18,0.99-1.95,1.24c-1.89,0.62-3.88,0.03-5.13-1.35
					C20.05,44.73,17.89,43.4,17.15,41.19z"/>
			</g>
			<g>
				<path class="st3" d="M25.89,46.79c-1.43,0-2.83-0.55-3.89-1.58c-2.45,0.08-4.73-1.47-5.5-3.81l0,0
					c-0.72-2.2-0.02-4.57,1.76-6.03c-0.23-2.57,1.31-4.95,3.79-5.77c1.04-0.34,2.14-0.36,3.21-0.06c0.49-0.37,1.03-0.66,1.63-0.86
					c2.24-0.74,4.65,0.01,6.1,1.86c2.01,0.35,3.69,1.79,4.33,3.73c0.7,2.13,0.04,4.47-1.64,5.93c-0.15,2.25-1.64,4.2-3.79,4.91
					c-0.72,0.24-1.49,0.32-2.28,0.24c-0.59,0.54-1.25,0.93-1.97,1.17C27.06,46.7,26.47,46.79,25.89,46.79z M22.55,43.79l0.23,0.25
					c1.12,1.22,2.85,1.68,4.41,1.16c0.62-0.2,1.18-0.56,1.67-1.07l0.25-0.26l0.35,0.06c0.7,0.12,1.36,0.07,1.98-0.14
					c1.69-0.56,2.84-2.15,2.86-3.95l0-0.33l0.26-0.2c1.41-1.09,1.99-2.95,1.43-4.63c-0.5-1.53-1.87-2.65-3.49-2.84l-0.3-0.04
					l-0.18-0.25c-1.07-1.53-2.98-2.16-4.73-1.58c-0.54,0.18-1.03,0.46-1.46,0.83l-0.3,0.27l-0.38-0.13c-0.9-0.32-1.83-0.33-2.7-0.05
					c-1.97,0.65-3.15,2.61-2.81,4.66l0.07,0.42l-0.35,0.25c-1.52,1.08-2.16,2.98-1.58,4.73c0.61,1.85,2.46,3.06,4.4,2.86
					L22.55,43.79z"/>
			</g>
		</g>
	</g>
	<path class="st7" d="M45.01,47.11"/>
	<g>
		<path class="st8" d="M65.97,48.26c9.17,2.82,10.98,11.35,8.39,18.76c0.08-3.51-1.13-6.9-3.63-8.52c0.5-0.05,1-0.11,1.5-0.13
			c0.26-0.02,0.49-0.21,0.49-0.49c-0.01-0.93,0.43-2.1-0.21-2.91c-0.24-0.3-1.02-0.37-1.36-0.41c-0.81-0.09-1.61-0.08-2.42-0.06
			c-0.41,0.01-0.41,0.63,0,0.64c1,0.02,2.03,0.02,3,0.33c0.51,0.16,0.25,1.23,0.1,1.94c-1.15,0.05-2.27,0.3-3.4-0.04
			c-0.23-0.07-0.42,0.02-0.54,0.18c-0.16-0.02-0.32-0.04-0.48-0.05c0.38-1.03,0.61-2.06,0.75-3.16c0.09-0.75,0.5-2.61,0.11-3.27
			c-0.58-0.99-3.02-0.7-3.93-0.7c-0.27,0-0.51,0.23-0.51,0.51c0.01,0.49,0.02,0.98,0.02,1.47c-0.12-0.1-0.24-0.21-0.36-0.3
			c-0.27-0.22-0.56-0.46-0.86-0.68c0.39-0.35,0.77-0.69,1.17-1.03c0.24-0.2,0.16-0.62-0.1-0.76c-3.23-1.82-5.51,0.73-6.65,3.56
			c-0.05-1.05-0.19-2.11-0.2-3.14c-0.01-0.26-0.26-0.47-0.51-0.4c-1.31,0.41-2.43,1.07-2.95,2.38c-0.09,0.22-0.13,0.45-0.16,0.68
			c-1.01-0.08-2.11,0.23-2.64,1.16c-0.36,0.64-0.42,1.81-0.04,2.57c-3.24,2.18-5.08,7.43-4.32,10.96c0.46,2.15,1.45,4.03,2.8,5.58
			c0.01,0.03,0.01,0.07,0.02,0.1c0.94,2.2,2.36,3.89,4.04,5.09c-15.48-6.75-4.11-35.22,12.58-30.49
			C65.56,47.85,65.63,48.16,65.97,48.26z"/>
		<path class="st9" d="M72.28,55.34c0.08,1.93,0.39,0.56-0.16,2.41c-0.79,0.05-6.96-0.05-7.88,0.24c-0.16,0.05-0.23,0.18-0.23,0.31
			c-0.56,0.2-1.11,0.47-1.64,0.8c-0.22-0.64-0.62-1.22-1.13-1.73c0.07-0.02,0.13-0.05,0.19-0.09c0.23-0.1,0.2-0.33,0.08-0.48
			c0.06-0.07,0.13-0.14,0.2-0.21c0.23-0.26,0.54-0.55,0.71-0.89c0.7,0.51,1.4,1.02,2.05,1.59c0.2,0.18,0.52,0.16,0.66-0.09
			c0.43-0.74,0.93-1.43,1.37-2.16c0.16-0.25,0.04-0.51-0.17-0.66c-0.53-0.4-1.04-0.84-1.55-1.27c0.02-0.59,0.04-1.17,0.05-1.77
			c0.48-0.01,3.33-1.52,3.13,3.07C69.59,55.03,72.28,55.11,72.28,55.34z"/>
		<path class="st10" d="M69.06,62.08c1.39,3.43,0.41,7.79-1.85,10.61c-4.08,5.06-12.16,4.06-16.5,0.04
			c-4.3-3.97-3.82-9.77-0.41-14.04c3.61-4.53,6.35,0.83,8.96,3.44c-0.17,0.59,0.7,1.08,1.2,0.64
			C63.07,60.41,67.09,57.25,69.06,62.08z M54.14,70.27c2.24-0.44,2.91-2.44,2.55-4.5c-0.3-1.77-2.06-4.83-4.17-4.71
			c-0.13,0.01-0.25,0.09-0.3,0.2C48.21,63.25,48.69,71.33,54.14,70.27z"/>
		<path class="st8" d="M55.26,64.94c0.55,1.32,0.75,3.41-0.88,4.04c-4.46,1.73-4.35-5.16-1.94-7.23
			C53.54,62.8,54.62,63.41,55.26,64.94z M53.74,68.31c0.52-0.54,1.48-1.47,0.94-2.29c-0.17-0.26-0.45-0.4-0.72-0.52
			c-0.3-0.13-0.53-0.34-0.82-0.49c-0.06-0.03-0.12-0.05-0.19-0.05c0.09-0.12,0.16-0.25,0.22-0.37c0.13-0.26-0.19-0.54-0.4-0.32
			c-0.49,0.54-1.2,0.98-1.37,1.74c-0.23,1.08,1,1.87,1.74,2.37C53.32,68.51,53.59,68.46,53.74,68.31z"/>
		<path class="st8" d="M68.8,58.83c4.52,1.61,5.21,7.89,3.28,12.78c-2.66,4.02-6.71,7.08-11.5,7.64c-3.73,0.28-6.84-1.41-9.04-4.1
			c4.25,2.93,10.14,3.47,14.79,0.41c4.44-2.92,6.16-9.44,4.2-14.28C70.07,60.17,69.48,59.38,68.8,58.83z"/>
		<path class="st8" d="M80.17,56.05c2.64,5.16,2.06,11.2-0.42,16.27c-5.4,11.07-19.29,14.93-30.05,9.66
			c-9.57-4.68-10.88-16.33-7.1-25.28c3.83-9.06,11.66-13.42,20.99-13.09c0.06,0.1,0.16,0.18,0.32,0.19
			C70.72,44.28,77.15,50.18,80.17,56.05z M73.39,71.91c5.66-9.05,5.21-22.12-6.94-24.54c0.02-0.13-0.03-0.26-0.17-0.33
			c-18-7.9-31.22,25.69-12.46,32.69c3.65,1.36,7.1,1.27,10.15,0.18c3.26-0.83,6.3-2.82,8.33-5.87
			C72.73,73.38,73.09,72.67,73.39,71.91z"/>
		<path class="st3" d="M65.1,43.05c12.92,1.5,22.03,16.79,16.67,28.7c-5.29,11.78-19.47,17.47-31.39,12.2
			c-10.63-4.71-13.74-16.85-9.5-27.21C44.68,47.51,54.59,38.75,65.1,43.05z M79.75,72.33c2.48-5.07,3.06-11.11,0.42-16.27
			c-3.02-5.87-9.45-11.78-16.26-12.25c-0.16-0.01-0.26-0.09-0.32-0.19c-9.33-0.33-17.16,4.03-20.99,13.09
			c-3.78,8.95-2.47,20.6,7.1,25.28C60.46,87.26,74.35,83.39,79.75,72.33z"/>
		<path class="st3" d="M66.45,47.37c12.15,2.42,12.6,15.49,6.94,24.54c-0.3,0.75-0.66,1.47-1.1,2.13c-2.02,3.06-5.07,5.04-8.33,5.87
			c-3.06,1.09-6.5,1.18-10.15-0.18c-18.76-7-5.54-40.59,12.46-32.69C66.42,47.11,66.47,47.24,66.45,47.37z M74.36,67.02
			c2.6-7.41,0.78-15.94-8.39-18.76c-0.34-0.1-0.4-0.41-0.3-0.65C48.98,42.88,37.61,71.35,53.09,78.1c-1.68-1.2-3.1-2.89-4.04-5.09
			c-0.02-0.03-0.02-0.07-0.02-0.1c-1.34-1.55-2.34-3.43-2.8-5.58c-0.75-3.53,1.08-8.78,4.32-10.96c-0.38-0.75-0.32-1.93,0.04-2.57
			c0.53-0.93,1.63-1.24,2.64-1.16c0.03-0.23,0.08-0.46,0.16-0.68c0.52-1.31,1.65-1.97,2.95-2.38c0.26-0.08,0.51,0.14,0.51,0.4
			c0.02,1.03,0.16,2.09,0.2,3.14c1.13-2.83,3.42-5.38,6.65-3.56c0.26,0.14,0.34,0.56,0.1,0.76c-0.4,0.33-0.79,0.68-1.17,1.03
			c0.3,0.22,0.59,0.46,0.86,0.68c0.12,0.09,0.24,0.2,0.36,0.3c-0.01-0.49-0.02-0.98-0.02-1.47c-0.01-0.28,0.23-0.51,0.51-0.51
			c0.91,0,3.34-0.29,3.93,0.7c0.39,0.66-0.02,2.53-0.11,3.27c-0.14,1.1-0.37,2.13-0.75,3.16c0.16,0.01,0.33,0.03,0.48,0.05
			c0.12-0.16,0.3-0.25,0.54-0.18c1.13,0.34,2.25,0.09,3.4,0.04c0.15-0.72,0.4-1.79-0.1-1.94c-0.97-0.3-2-0.31-3-0.33
			c-0.41-0.01-0.41-0.63,0-0.64c0.81-0.02,1.61-0.03,2.42,0.06c0.34,0.05,1.12,0.11,1.36,0.41c0.64,0.81,0.2,1.98,0.21,2.91
			c0,0.28-0.23,0.47-0.49,0.49c-0.51,0.02-1,0.09-1.5,0.13C73.23,60.12,74.43,63.51,74.36,67.02z M72.08,71.61
			c1.93-4.88,1.24-11.17-3.28-12.78c0.68,0.54,1.27,1.34,1.73,2.45c1.96,4.84,0.24,11.36-4.2,14.28
			c-4.65,3.06-10.53,2.52-14.79-0.41c2.2,2.69,5.31,4.38,9.04,4.1C65.37,78.69,69.42,75.63,72.08,71.61z M67.21,72.68
			c2.26-2.82,3.24-7.18,1.85-10.61c-1.97-4.82-5.99-1.66-8.61,0.68c-0.5,0.44-1.37-0.05-1.2-0.64c-2.61-2.61-5.36-7.96-8.96-3.44
			c-3.4,4.27-3.89,10.06,0.41,14.04C55.05,76.74,63.13,77.75,67.21,72.68z M66.8,57.5c0.54-1.85,0.66-3.76,0.58-5.69
			c-0.02-0.48-1.63-0.47-2.54-0.45c-0.01,0.59-0.02,1.17-0.05,1.77c0.51,0.43,1.02,0.86,1.55,1.27c0.21,0.16,0.33,0.41,0.17,0.66
			c-0.44,0.73-0.94,1.42-1.37,2.16c-0.14,0.25-0.46,0.26-0.66,0.09c-0.65-0.58-1.35-1.09-2.05-1.59c-0.17,0.33-0.48,0.63-0.71,0.89
			c-0.07,0.07-0.14,0.14-0.2,0.21c0.12,0.15,0.15,0.38-0.08,0.48c-0.06,0.03-0.12,0.06-0.19,0.09c0.51,0.51,0.91,1.1,1.13,1.73
			c0.53-0.33,1.08-0.6,1.64-0.8c0-0.13,0.07-0.26,0.23-0.31C65.17,57.7,66.01,57.55,66.8,57.5z M64.62,56.41
			c0.27-0.49,0.58-0.96,0.84-1.45c-0.75-0.52-1.45-1.12-2.17-1.69c-0.5-0.39-1.05-0.71-1.58-1.06c-0.44,0.41-0.87,0.83-1.29,1.25
			c0.59,0.49,1.22,0.96,1.86,1.41c0.06,0.02,0.12,0.06,0.16,0.12C63.16,55.49,63.9,55.96,64.62,56.41z M61.64,50.87
			c0.31-0.26,0.61-0.52,0.93-0.77c-2.87-1.1-4.49,2.42-5.32,4.81c-0.02,0.04-0.03,0.06-0.05,0.09c0.68-0.71,1.38-1.39,2.11-2.07
			c0.03-0.04,0.07-0.09,0.12-0.11c0.47-0.43,0.95-0.86,1.43-1.28c-0.18-0.3,0.06-0.75,0.43-0.73C61.4,50.81,61.52,50.84,61.64,50.87
			z M61.21,55.73c0.16-0.19,0.3-0.39,0.47-0.58c-0.57-0.41-1.13-0.82-1.66-1.28c-0.56,0.55-1.12,1.1-1.68,1.65
			c0.11,0.05,0.23,0.07,0.34,0.12c0.58,0.26,1.2,0.61,1.78,1.04c0.02-0.02,0.02-0.05,0.04-0.08C60.7,56.28,60.96,56.01,61.21,55.73z
			 M61.64,59.62c-0.99-1.07-1.61-2.3-3.05-2.93c-1.07-0.47-2.15-0.61-3.23-0.52c1.8,1.17,3.22,3.53,4.42,5.21
			C60.32,60.72,60.95,60.12,61.64,59.62z M56.13,55.15c0.18-1.54,0-3.06-0.06-4.6c-0.88,0.33-1.76,0.88-2.03,1.83
			c-0.28,1.03-0.02,2.03,0.37,2.99C54.98,55.23,55.55,55.16,56.13,55.15z M53.83,55.53c0.02-0.01,0.05-0.01,0.07-0.02
			c-0.3-0.62-0.57-1.33-0.65-2.03c-0.65,0.1-1.36,0.28-1.67,0.9c-0.25,0.49-0.1,0.96-0.01,1.43c0.06-0.02,0.12-0.05,0.18-0.08
			C52.48,55.44,53.17,55.4,53.83,55.53z"/>
		<path class="st9" d="M65.46,54.97c-0.26,0.49-0.57,0.96-0.84,1.45c-0.72-0.45-1.46-0.92-2.18-1.42c-0.05-0.05-0.1-0.09-0.16-0.12
			c-0.64-0.45-1.27-0.92-1.86-1.41c0.42-0.42,0.86-0.84,1.29-1.25c0.53,0.35,1.08,0.67,1.58,1.06
			C64.02,53.85,64.71,54.44,65.46,54.97z"/>
		<path class="st9" d="M62.56,50.1c-0.31,0.25-0.61,0.51-0.93,0.77c-0.12-0.03-0.24-0.05-0.37-0.05c-0.37-0.02-0.61,0.44-0.43,0.73
			c-0.48,0.42-0.96,0.85-1.43,1.28c-0.05,0.02-0.09,0.07-0.12,0.11c-0.72,0.68-1.42,1.36-2.11,2.07c0.02-0.03,0.04-0.05,0.05-0.09
			C58.07,52.52,59.69,49,62.56,50.1z"/>
		<path class="st9" d="M61.68,55.15c-0.16,0.19-0.3,0.39-0.47,0.58c-0.25,0.28-0.51,0.55-0.71,0.87c-0.02,0.02-0.02,0.05-0.04,0.08
			c-0.58-0.44-1.2-0.79-1.78-1.04c-0.12-0.05-0.23-0.07-0.34-0.12c0.56-0.54,1.12-1.1,1.68-1.65
			C60.55,54.33,61.11,54.74,61.68,55.15z"/>
		<path class="st3" d="M56.69,65.77c0.36,2.06-0.31,4.07-2.55,4.5c-5.45,1.06-5.92-7.02-1.92-9.01c0.05-0.11,0.16-0.19,0.3-0.2
			C54.63,60.94,56.38,64,56.69,65.77z M54.38,68.98c1.62-0.63,1.43-2.72,0.88-4.04c-0.64-1.53-1.72-2.14-2.82-3.18
			C50.03,63.82,49.92,70.72,54.38,68.98z"/>
		<path class="st9" d="M56.06,50.56c0.06,1.54,0.24,3.06,0.06,4.6c-0.58,0.01-1.15,0.08-1.72,0.22c-0.4-0.96-0.65-1.96-0.37-2.99
			C54.3,51.43,55.19,50.89,56.06,50.56z"/>
		<path class="st3" d="M54.68,66.01c0.54,0.82-0.42,1.76-0.94,2.29c-0.15,0.16-0.42,0.2-0.6,0.08c-0.75-0.51-1.97-1.29-1.74-2.37
			c0.17-0.76,0.88-1.21,1.37-1.74c0.21-0.23,0.54,0.06,0.4,0.32c-0.05,0.12-0.13,0.24-0.22,0.37c0.06,0,0.12,0.02,0.19,0.05
			c0.29,0.15,0.51,0.36,0.82,0.49C54.23,65.61,54.51,65.75,54.68,66.01z M53.34,67.33c0.26-0.25,0.54-0.56,0.53-0.81
			c-0.03,0-0.29-0.16-0.38-0.21c-0.36-0.18-0.81-0.4-0.89-0.82c-0.1,0.16-0.19,0.33-0.25,0.49C52.17,66.51,52.85,67.01,53.34,67.33z
			"/>
		<path class="st9" d="M53.9,55.51c-0.02,0.01-0.05,0.01-0.07,0.02c-0.65-0.12-1.34-0.09-2.08,0.21c-0.06,0.02-0.12,0.05-0.18,0.08
			c-0.09-0.47-0.24-0.94,0.01-1.43c0.31-0.62,1.03-0.8,1.67-0.9C53.33,54.18,53.59,54.89,53.9,55.51z"/>
	</g>
</g>
</svg>
