<?xml version="1.0" encoding="utf-8"?>
<!-- Generator: Adobe Illustrator 23.1.0, SVG Export Plug-In . SVG Version: 6.00 Build 0)  -->
<svg version="1.1" id="Capa_1" xmlns="http://www.w3.org/2000/svg" xmlns:xlink="http://www.w3.org/1999/xlink" x="0px" y="0px"
	 viewBox="0 0 100 100" style="enable-background:new 0 0 100 100;" xml:space="preserve">
<style type="text/css">
	.st0{fill:#3B65F5;}
	.st1{fill:#DADADA;}
	.st2{fill:#5C5F68;}
	.st3{fill:#E3827E;}
	.st4{fill:#95F089;}
	.st5{fill:#D6E850;}
	.st6{fill:#FFFFFF;}
	.st7{fill:#F1CE73;}
</style>
<g>
	<g>
		<g>
			<path class="st0" d="M47.61,99c-0.01,0-0.03,0-0.04,0c-1.5-0.07-3.01-0.22-4.49-0.43c-0.48-0.07-0.82-0.52-0.75-1
				s0.52-0.82,1-0.75c1.43,0.2,2.88,0.34,4.33,0.41c0.49,0.02,0.86,0.44,0.84,0.93C48.47,98.63,48.08,99,47.61,99z M52.92,98.97
				c-0.46,0-0.85-0.36-0.88-0.83c-0.03-0.49,0.34-0.9,0.83-0.93c1.44-0.09,2.9-0.24,4.32-0.46c0.48-0.07,0.93,0.26,1.01,0.74
				c0.07,0.48-0.26,0.93-0.74,1.01c-1.48,0.23-2.99,0.39-4.48,0.48C52.96,98.97,52.94,98.97,52.92,98.97z M37.99,97.55
				c-0.07,0-0.15-0.01-0.22-0.03c-1.45-0.37-2.9-0.82-4.31-1.33c-0.46-0.16-0.7-0.67-0.53-1.13c0.16-0.46,0.67-0.7,1.13-0.53
				c1.36,0.49,2.76,0.92,4.16,1.28c0.47,0.12,0.76,0.6,0.64,1.08C38.74,97.28,38.38,97.55,37.99,97.55z M62.53,97.41
				c-0.39,0-0.75-0.26-0.85-0.65c-0.13-0.47,0.15-0.96,0.62-1.08c1.4-0.38,2.79-0.82,4.14-1.32c0.46-0.17,0.97,0.06,1.14,0.52
				c0.17,0.46-0.06,0.97-0.52,1.14c-1.4,0.52-2.85,0.98-4.3,1.37C62.68,97.4,62.61,97.41,62.53,97.41z M28.86,94.17
				c-0.13,0-0.26-0.03-0.39-0.09c-1.34-0.66-2.67-1.39-3.96-2.17c-0.42-0.25-0.55-0.8-0.29-1.21c0.25-0.42,0.8-0.55,1.21-0.29
				c1.24,0.75,2.52,1.46,3.81,2.09c0.44,0.21,0.62,0.74,0.4,1.18C29.5,93.99,29.19,94.17,28.86,94.17z M71.62,93.94
				c-0.32,0-0.63-0.18-0.79-0.49c-0.22-0.44-0.04-0.97,0.39-1.19c1.29-0.65,2.57-1.37,3.79-2.13c0.42-0.26,0.96-0.13,1.22,0.28
				c0.26,0.41,0.13,0.96-0.28,1.22c-1.27,0.79-2.59,1.54-3.93,2.21C71.89,93.9,71.75,93.94,71.62,93.94z M20.6,89.03
				c-0.19,0-0.38-0.06-0.54-0.18c-1.18-0.92-2.34-1.9-3.44-2.92c-0.36-0.33-0.38-0.89-0.05-1.25c0.33-0.36,0.89-0.38,1.25-0.05
				c1.06,0.99,2.18,1.93,3.32,2.82c0.39,0.3,0.46,0.85,0.16,1.24C21.12,88.91,20.86,89.03,20.6,89.03z M79.82,88.7
				c-0.26,0-0.52-0.11-0.69-0.34c-0.3-0.38-0.24-0.94,0.14-1.24c1.13-0.9,2.24-1.86,3.28-2.85c0.35-0.33,0.91-0.32,1.25,0.03
				c0.34,0.35,0.32,0.91-0.03,1.25c-1.08,1.03-2.23,2.03-3.41,2.96C80.21,88.64,80.01,88.7,79.82,88.7z M13.54,82.33
				c-0.25,0-0.49-0.1-0.67-0.31c-0.98-1.14-1.92-2.33-2.79-3.55c-0.28-0.4-0.19-0.95,0.21-1.23c0.4-0.28,0.95-0.19,1.23,0.21
				c0.84,1.17,1.74,2.33,2.68,3.42c0.32,0.37,0.28,0.93-0.09,1.25C13.94,82.26,13.74,82.33,13.54,82.33z M86.81,81.92
				c-0.2,0-0.4-0.07-0.57-0.21c-0.37-0.31-0.42-0.87-0.11-1.24c0.93-1.11,1.82-2.27,2.65-3.45c0.28-0.4,0.83-0.5,1.23-0.22
				c0.4,0.28,0.5,0.83,0.22,1.23c-0.86,1.23-1.78,2.43-2.75,3.58C87.31,81.81,87.06,81.92,86.81,81.92z M7.96,74.35
				c-0.31,0-0.61-0.16-0.77-0.45c-0.73-1.31-1.41-2.67-2.01-4.04c-0.2-0.45,0-0.97,0.45-1.17c0.45-0.2,0.97,0,1.16,0.45
				c0.59,1.32,1.24,2.63,1.94,3.89c0.24,0.43,0.09,0.96-0.34,1.2C8.25,74.31,8.1,74.35,7.96,74.35z M92.3,73.88
				c-0.14,0-0.29-0.03-0.42-0.11c-0.43-0.23-0.59-0.77-0.35-1.2c0.69-1.27,1.33-2.59,1.9-3.91c0.19-0.45,0.71-0.66,1.16-0.46
				c0.45,0.19,0.66,0.71,0.46,1.16c-0.59,1.38-1.25,2.74-1.97,4.06C92.92,73.71,92.61,73.88,92.3,73.88z M4.1,65.41
				c-0.38,0-0.72-0.24-0.84-0.62c-0.45-1.43-0.84-2.9-1.16-4.36c-0.1-0.48,0.2-0.95,0.68-1.05c0.48-0.11,0.95,0.2,1.05,0.68
				c0.3,1.41,0.68,2.83,1.11,4.2c0.15,0.46-0.11,0.96-0.58,1.11C4.28,65.4,4.19,65.41,4.1,65.41z M96.06,64.89
				c-0.08,0-0.17-0.01-0.26-0.04c-0.47-0.14-0.73-0.63-0.59-1.1c0.42-1.38,0.78-2.8,1.07-4.22c0.1-0.48,0.57-0.79,1.04-0.69
				c0.48,0.1,0.79,0.56,0.69,1.04c-0.3,1.47-0.67,2.94-1.11,4.38C96.79,64.65,96.44,64.89,96.06,64.89z M2.13,55.88
				c-0.45,0-0.83-0.34-0.88-0.79c-0.15-1.48-0.24-3-0.25-4.5c-0.01-0.49,0.39-0.89,0.87-0.89c0,0,0.01,0,0.01,0
				c0.48,0,0.88,0.39,0.88,0.87c0.02,1.45,0.1,2.91,0.25,4.34c0.05,0.48-0.3,0.92-0.79,0.97C2.19,55.88,2.16,55.88,2.13,55.88z
				 M97.92,55.34c-0.03,0-0.05,0-0.08,0c-0.49-0.04-0.84-0.47-0.8-0.96c0.13-1.44,0.2-2.9,0.2-4.35l0-0.2
				c0-0.49,0.39-0.88,0.88-0.88S99,49.34,99,49.83l0,0.19c0,1.51-0.07,3.03-0.2,4.52C98.75,54.99,98.37,55.34,97.92,55.34z
				 M2.11,46.14c-0.03,0-0.06,0-0.09,0c-0.49-0.05-0.84-0.48-0.79-0.97c0.15-1.5,0.36-3,0.65-4.47c0.09-0.48,0.55-0.79,1.03-0.7
				c0.48,0.09,0.79,0.55,0.7,1.03c-0.27,1.41-0.48,2.86-0.62,4.3C2.95,45.8,2.56,46.14,2.11,46.14z M97.81,45.41
				c-0.44,0-0.83-0.33-0.88-0.78c-0.16-1.44-0.4-2.88-0.69-4.29c-0.1-0.48,0.21-0.95,0.68-1.04c0.47-0.1,0.94,0.21,1.04,0.68
				c0.31,1.46,0.55,2.96,0.72,4.45c0.06,0.48-0.29,0.92-0.78,0.98C97.87,45.4,97.84,45.41,97.81,45.41z M4.04,36.6
				c-0.09,0-0.18-0.01-0.26-0.04c-0.47-0.14-0.73-0.64-0.58-1.11c0.45-1.43,0.96-2.86,1.54-4.24c0.19-0.45,0.7-0.66,1.15-0.48
				c0.45,0.19,0.66,0.7,0.48,1.16c-0.55,1.33-1.05,2.71-1.48,4.09C4.77,36.36,4.42,36.6,4.04,36.6z M95.73,35.9
				c-0.37,0-0.72-0.24-0.84-0.61c-0.45-1.37-0.97-2.74-1.54-4.07c-0.19-0.45,0.01-0.97,0.46-1.16c0.45-0.19,0.97,0.01,1.16,0.46
				c0.6,1.38,1.14,2.8,1.6,4.22c0.15,0.46-0.1,0.96-0.56,1.11C95.91,35.88,95.82,35.9,95.73,35.9z M7.86,27.64
				c-0.14,0-0.29-0.04-0.43-0.11c-0.43-0.24-0.58-0.77-0.35-1.2c0.72-1.31,1.52-2.6,2.36-3.85c0.27-0.4,0.82-0.51,1.23-0.23
				c0.4,0.27,0.51,0.82,0.23,1.23c-0.81,1.2-1.58,2.44-2.28,3.71C8.48,27.48,8.17,27.64,7.86,27.64z M91.77,27
				c-0.31,0-0.6-0.16-0.77-0.44c-0.72-1.25-1.5-2.49-2.33-3.67c-0.28-0.4-0.18-0.95,0.21-1.23c0.4-0.28,0.95-0.18,1.23,0.21
				c0.86,1.23,1.68,2.51,2.42,3.81c0.24,0.42,0.1,0.96-0.33,1.21C92.07,26.97,91.92,27,91.77,27z M13.41,19.64
				c-0.2,0-0.41-0.07-0.57-0.21c-0.37-0.32-0.41-0.87-0.1-1.24c0.98-1.14,2.01-2.25,3.09-3.29c0.35-0.34,0.91-0.33,1.25,0.02
				c0.34,0.35,0.33,0.91-0.02,1.25c-1.03,1-2.03,2.07-2.97,3.17C13.91,19.54,13.66,19.64,13.41,19.64z M86.11,19.09
				c-0.24,0-0.49-0.1-0.66-0.3c-0.96-1.09-1.98-2.14-3.02-3.13c-0.35-0.33-0.37-0.89-0.04-1.25c0.34-0.35,0.89-0.37,1.25-0.04
				c1.08,1.02,2.14,2.12,3.14,3.24c0.32,0.37,0.29,0.92-0.08,1.25C86.52,19.02,86.32,19.09,86.11,19.09z M20.45,12.91
				c-0.26,0-0.52-0.12-0.7-0.34c-0.3-0.38-0.23-0.94,0.15-1.24c1.18-0.92,2.42-1.8,3.68-2.61C24,8.46,24.54,8.58,24.8,8.99
				c0.26,0.41,0.14,0.96-0.27,1.22c-1.22,0.78-2.41,1.63-3.55,2.51C20.83,12.85,20.64,12.91,20.45,12.91z M78.97,12.47
				c-0.19,0-0.37-0.06-0.53-0.18c-1.16-0.87-2.36-1.7-3.59-2.46c-0.41-0.26-0.54-0.8-0.29-1.22c0.26-0.41,0.8-0.55,1.22-0.29
				c1.27,0.79,2.52,1.65,3.72,2.55c0.39,0.29,0.47,0.85,0.17,1.24C79.5,12.35,79.24,12.47,78.97,12.47z M28.69,7.74
				c-0.33,0-0.64-0.18-0.79-0.49c-0.22-0.44-0.04-0.97,0.4-1.18c1.34-0.67,2.73-1.28,4.13-1.81c0.46-0.17,0.97,0.05,1.14,0.51
				c0.17,0.45-0.05,0.97-0.51,1.14C31.71,6.41,30.37,7,29.08,7.64C28.95,7.71,28.82,7.74,28.69,7.74z M70.65,7.41
				c-0.13,0-0.26-0.03-0.38-0.09c-1.3-0.62-2.65-1.19-4.01-1.69c-0.46-0.17-0.69-0.67-0.53-1.13s0.67-0.7,1.13-0.53
				c1.41,0.52,2.81,1.1,4.16,1.75c0.44,0.21,0.63,0.74,0.42,1.18C71.3,7.23,70.98,7.41,70.65,7.41z M37.8,4.33
				c-0.39,0-0.75-0.26-0.85-0.66c-0.12-0.47,0.16-0.96,0.63-1.08c1.45-0.38,2.93-0.69,4.41-0.94C42.47,1.56,42.92,1.9,43,2.38
				c0.08,0.48-0.25,0.94-0.73,1.01c-1.42,0.23-2.86,0.54-4.25,0.9C37.95,4.32,37.87,4.33,37.8,4.33z M61.48,4.15
				c-0.07,0-0.14-0.01-0.21-0.03c-1.4-0.34-2.84-0.63-4.27-0.84c-0.48-0.07-0.81-0.52-0.74-1c0.07-0.48,0.52-0.81,1-0.74
				c1.48,0.22,2.97,0.51,4.43,0.87c0.47,0.12,0.76,0.59,0.65,1.07C62.24,3.88,61.88,4.15,61.48,4.15z M47.41,2.83
				c-0.47,0-0.86-0.36-0.88-0.84c-0.03-0.49,0.35-0.9,0.83-0.93C48.25,1.02,49.13,1.01,50,1c0.63,0,1.25,0.01,1.88,0.04
				c0.49,0.02,0.87,0.43,0.85,0.92c-0.02,0.49-0.41,0.89-0.92,0.85c-0.62-0.02-1.24-0.04-1.86-0.03c-0.82,0-1.66,0.02-2.49,0.07
				C47.45,2.83,47.43,2.83,47.41,2.83z"/>
		</g>
		<ellipse class="st1" cx="50" cy="50.03" rx="35.76" ry="35.78"/>
	</g>
	<g>
		<path class="st2" d="M54.62,35.91c0.24,4.11,0.91,11.14-4.25,12.7c-2.78,0.84-6.17,0.6-8.43-1.39c-1.43-1.27-2.45-2.82-3.69-4.27
			c-1.53-1.81-3.19-2.68-5.37-3.57c-3.42-1.41-5.72-3.02-6.55-6.8c-0.69-3.18,0.83-6.56,2.77-9.04c-0.66-0.57-1.26-1.26-1.83-2
			c-0.46-0.61,0.42-1.41,1.02-1.02c3.02,1.96,6.22-1.89,9.61-2.36c-1.57-1.64-1.83-4.18-1.48-6.45c0.04-0.26,0.31-0.48,0.54-0.54
			c1.52-0.41,3.31-0.44,4.79,0.16c0.36,0.14,0.56,0.51,0.36,0.88c-0.65,1.16-1.08,2.52-1.04,3.86c0.02,0.8,0.34,1.47,0.49,2.2
			c2.98,0.06,6.15,1.34,8.45-1.16c0.39-0.43,0.99-0.06,1.04,0.44c0.14,1.35-0.13,2.86-0.85,4.07c0.12-0.04,0.27-0.04,0.44,0.02
			C57,23.8,54.33,30.7,54.62,35.91z M50.22,46.7c3.57-2.05,2.7-7.33,2.54-10.79c-0.18-4.07,2.17-10.92-2.53-12.81
			c-0.38-0.15-0.54-0.5-0.51-0.83c-0.4,0.48-0.89,0.88-1.49,1.15c-1.66,0.76-3.32,0.4-4.44-0.82c0.04,0.14,0.09,0.29,0.14,0.41
			c0.47,1.41,1.04,2.68,2.19,3.68c0.51,0.45,0.05,1.16-0.5,1.21c-3.2,0.31-6.39-1.14-7.27-4.38c-1.45,1.35-3.85,1.73-5.71,1.56
			c-0.91-0.09-1.68-0.34-2.38-0.74c-1.89,3.41-4.07,9.22,0.19,11.83c2.29,1.4,4.92,2.06,7.18,3.51c1.88,1.21,2.94,3.6,4.47,5.17
			C44.05,46.86,47.51,48.27,50.22,46.7z M48.22,21.9c0.9-0.67,1.45-1.65,1.62-2.72c-2.28,1.75-5.97,0.24-8.65,0.04
			c-0.18-0.01-0.3-0.1-0.37-0.21c-0.93-0.65-1.03-2.33-0.95-3.34c0.09-1.18,0.37-2.31,0.86-3.37c-0.89-0.15-1.95-0.02-2.82,0.19
			c-0.1,2.14,0.36,4.44,2.04,5.88c0.31,0.27,0.14,0.66-0.16,0.8c-0.01,0.01-0.03,0.01-0.04,0.02c-0.05,0.02-0.11,0.03-0.16,0.04
			c-0.01,0-0.01,0-0.01,0c-0.01,0-0.03,0.01-0.04,0.01c-0.01,0-0.02,0-0.03,0c-3.19,0.17-6.43,3.51-9.61,3.39
			c1.06,0.86,2.53,1.31,3.81,1.24c1.98-0.1,3.17-1.06,4.87-1.85c0.34-0.16,0.74,0.17,0.54,0.54c-0.04,0.06-0.07,0.11-0.11,0.18
			c0.11,0.05,0.21,0.15,0.27,0.29c0.86,2.08,2.68,3.19,4.74,3.43c-0.51-0.71-0.92-1.49-1.23-2.33c-0.36-0.98-1.04-2.43-0.76-3.48
			c0.06-0.23,0.35-0.36,0.55-0.23c0.18,0.11,0.33,0.27,0.46,0.44c0.21-0.38,0.78-0.51,1.13-0.04C45.19,22.2,46.64,23.07,48.22,21.9z
			"/>
		<path class="st3" d="M52.76,35.91c0.16,3.46,1.03,8.74-2.54,10.79c-2.71,1.56-6.18,0.16-8.13-1.86c-1.53-1.57-2.59-3.95-4.47-5.17
			c-2.27-1.45-4.89-2.11-7.18-3.51c-4.26-2.61-2.08-8.42-0.19-11.83c0.69,0.39,1.47,0.65,2.38,0.74c1.86,0.17,4.27-0.21,5.71-1.56
			c0.88,3.24,4.07,4.7,7.27,4.38c0.55-0.06,1.01-0.76,0.5-1.21c-1.15-0.99-1.72-2.26-2.19-3.68c-0.04-0.13-0.09-0.27-0.14-0.41
			c1.12,1.22,2.78,1.58,4.44,0.82c0.6-0.27,1.09-0.67,1.49-1.15c-0.02,0.33,0.14,0.68,0.51,0.83
			C54.93,24.99,52.59,31.84,52.76,35.91z M50.02,41.96c1.31-0.36,0.91-2.24,0.73-3.2c-0.06-0.31-0.59-0.31-0.64,0
			c-0.08,0.44-0.14,0.87-0.24,1.3c-0.03,0.14-0.12,0.27-0.2,0.39c0,0,0,0-0.01,0.01c-0.02,0-0.16,0.11-0.22,0.14
			C48.69,40.99,49.23,42.18,50.02,41.96z M48.6,44.02c0.13-0.2,0.11-0.46,0-0.67c-0.23-0.4-0.59-0.51-1.01-0.61
			c-0.14-0.04-0.32-0.08-0.37-0.21c-0.2-0.57,0.19-1.43,0.39-1.95c0.16-0.41-0.4-0.62-0.68-0.39c-0.88,0.74-1.58,1.8-1.25,3
			C45.99,44.29,47.85,45.19,48.6,44.02z M35.75,32.76c0.31-0.46,0.13-0.94,0.04-1.44c-0.07-0.48-0.13-0.96-0.19-1.43
			c-0.06-0.44-0.82-0.44-0.88,0c-0.06,0.48-0.13,0.96-0.19,1.43c-0.07,0.51-0.26,0.97,0.04,1.44C34.86,33.2,35.46,33.2,35.75,32.76z
			 M35.05,35.73c0.38-0.21,0.36-0.77,0-0.99c-0.39-0.24-0.86-0.2-1.23-0.5c-0.41-0.34-0.56-0.91-0.61-1.43
			c-0.06-0.59-0.89-0.61-0.94,0c-0.06,0.86,0.1,1.66,0.63,2.34C33.37,35.75,34.38,36.1,35.05,35.73z M33.33,27.94
			c0.48-0.64-0.52-1.33-1.06-0.82c-0.63,0.59-0.65,1.46-0.76,2.26c-0.08,0.55,0.22,1.11,0.84,1.11s0.92-0.56,0.84-1.11
			C33.12,28.94,33.06,28.31,33.33,27.94z"/>
		<path class="st2" d="M50.76,38.76c0.17,0.96,0.57,2.84-0.73,3.2c-0.8,0.21-1.33-0.97-0.57-1.36c0.06-0.03,0.2-0.14,0.22-0.14
			c0.01-0.01,0.01-0.01,0.01-0.01c0.08-0.12,0.17-0.26,0.2-0.39c0.09-0.43,0.16-0.86,0.24-1.3C50.17,38.45,50.7,38.45,50.76,38.76z"
			/>
		<path class="st2" d="M48.6,43.35c0.11,0.21,0.13,0.47,0,0.67c-0.75,1.17-2.6,0.27-2.91-0.84c-0.34-1.2,0.36-2.26,1.25-3
			c0.28-0.23,0.84-0.02,0.68,0.39c-0.21,0.51-0.59,1.38-0.39,1.95c0.05,0.14,0.24,0.18,0.37,0.21
			C48.01,42.83,48.37,42.95,48.6,43.35z"/>
		<path class="st4" d="M49.84,19.18c-0.17,1.07-0.72,2.05-1.62,2.72c-1.58,1.17-3.03,0.29-4.05-1.08c-0.34-0.46-0.92-0.34-1.13,0.04
			c-0.13-0.17-0.28-0.33-0.46-0.44c-0.2-0.13-0.49,0-0.55,0.23c-0.29,1.05,0.39,2.5,0.76,3.48c0.31,0.84,0.71,1.62,1.23,2.33
			c-2.07-0.24-3.89-1.35-4.74-3.43c-0.06-0.14-0.16-0.24-0.27-0.29c0.04-0.06,0.08-0.11,0.11-0.18c0.21-0.36-0.19-0.7-0.54-0.54
			c-1.7,0.79-2.9,1.75-4.87,1.85c-1.28,0.06-2.75-0.39-3.81-1.24c3.18,0.12,6.42-3.22,9.61-3.39c0.01,0,0.01,0,0.03,0
			c0.01,0,0.03-0.01,0.04-0.01c0.01,0,0.01,0,0.01,0c0.05-0.01,0.11-0.01,0.16-0.04c0.01-0.01,0.03-0.01,0.04-0.02
			c0.3-0.14,0.47-0.53,0.16-0.8c-1.68-1.44-2.14-3.74-2.04-5.88c0.86-0.21,1.93-0.34,2.82-0.19c-0.49,1.06-0.76,2.18-0.86,3.37
			c-0.09,1.01,0.02,2.69,0.95,3.34c0.07,0.11,0.19,0.2,0.37,0.21C43.87,19.42,47.56,20.93,49.84,19.18z"/>
		<path class="st2" d="M35.79,31.32c0.09,0.51,0.26,0.98-0.04,1.44c-0.29,0.44-0.89,0.44-1.18,0c-0.31-0.47-0.11-0.93-0.04-1.44
			c0.06-0.48,0.13-0.96,0.19-1.43c0.06-0.44,0.82-0.44,0.88,0C35.66,30.36,35.72,30.84,35.79,31.32z"/>
		<path class="st2" d="M35.05,34.75c0.36,0.21,0.38,0.77,0,0.99c-0.67,0.36-1.68,0.01-2.14-0.57c-0.54-0.69-0.69-1.48-0.63-2.34
			c0.05-0.61,0.88-0.59,0.94,0c0.05,0.51,0.19,1.09,0.61,1.43C34.19,34.55,34.66,34.5,35.05,34.75z"/>
		<path class="st2" d="M32.27,27.11c0.54-0.51,1.54,0.18,1.06,0.82c-0.27,0.37-0.21,1-0.14,1.43c0.08,0.55-0.22,1.11-0.84,1.11
			s-0.92-0.56-0.84-1.11C31.62,28.57,31.63,27.71,32.27,27.11z"/>
	</g>
	<g>
		<path class="st5" d="M23,56.2c0.75,0.39,1.47,0.65,2.05,0.7c0.59,0.05,0.61,0.93,0,0.93c-0.75,0.01-1.57-0.2-2.4-0.55
			c-0.39,0.58-0.83,1.11-1.19,1.7c-0.21,0.35-0.37,0.7-0.52,1.06c0.54-0.43,1.14-0.71,1.82-0.63c0.94,0.12,1.67,2.31,1.99,3.25
			c0.11-0.09,0.12-0.5,0.21-0.39c0.47,0.58,0.41-0.55,0.43-0.55c0.22-2.1,2.25-3.84,4.3-3.61c-1.1-0.7-1.91-1.67-2.17-3.03
			c-0.13-0.68-0.04-1.42,0.19-2.11c-0.64,0.88-1.47,1.63-2.45,1.99c0.03,0.02,0.04,0.03,0.06,0.05c0.57,0.39,0.02,1.33-0.54,0.92
			c-0.32-0.23-0.63-0.48-0.92-0.74c-0.13-0.01-0.26-0.02-0.39-0.03c-0.38-0.06-0.52-0.44-0.45-0.77c-1.83-1.89-3.09-4.24-3.93-6.79
			c-4.29,1.69,0.03,6.46,3.61,8.43C22.81,56.04,22.92,56.11,23,56.2z"/>
		<path class="st2" d="M51.56,64.52c1.34,1.99,4.72,6.55,3.49,9.28c-1.13,2.51-5.24,3.42-7.5,4.43c-0.11,0.05-0.22,0.06-0.33,0.05
			c-0.08,1.48-0.18,2.95,0.08,4.44c0.05,0.29-0.08,0.62-0.4,0.7c-10.07,2.41-33.45-8.25-27.48-20.97c-0.08-0.09-0.13-0.22-0.14-0.36
			c-0.13-2.19,0.94-3.84,2.4-5.28c-4.39-2.43-8.5-8.5-2.44-10.31c0.26-0.08,0.53,0.09,0.6,0.34c0.8,2.65,2.07,5.1,4.05,6.98
			c0.79-0.11,1.58-0.14,2.27-0.6c0.82-0.55,1.41-1.32,1.9-2.16c0.22-0.36,0.7-0.05,0.56,0.32c0.15-0.17,0.31-0.33,0.48-0.46
			c0.33-0.24,0.61,0.21,0.49,0.49c-0.02,0.03-0.03,0.05-0.03,0.07C38.27,49.79,47.08,57.87,51.56,64.52z M54.14,73.41
			c0.55-3.38-3.47-8.01-5.49-10.38c-4.76-5.56-11.68-11.88-19.55-10.6c-0.45,0.85-0.86,1.72-0.57,2.74c0.38,1.3,1.22,2.16,2.35,2.87
			c0.19,0.12,0.19,0.31,0.1,0.44c0.31,0.21,0.06,0.66-0.26,0.7c-1.11,0.14-2.22-0.18-3.28,0.37c-0.85,0.43-1.35,1.11-1.47,2.07
			c-0.07,0.55-0.86,0.59-0.89,0c-0.12-2.41,2.41-3.75,4.62-3.5c-1.1-0.7-1.91-1.67-2.17-3.03c-0.13-0.68-0.04-1.42,0.19-2.11
			c-0.64,0.88-1.47,1.63-2.45,1.99c0.03,0.02,0.04,0.03,0.06,0.05c0.57,0.39,0.02,1.33-0.54,0.92c-0.32-0.23-0.63-0.48-0.92-0.74
			c-0.13-0.01-0.26-0.02-0.39-0.03c-0.38-0.06-0.52-0.44-0.45-0.77c-1.83-1.89-3.09-4.24-3.93-6.79c-4.29,1.69,0.03,6.46,3.61,8.43
			c0.13,0,0.23,0.07,0.31,0.16c0.75,0.39,1.47,0.65,2.05,0.7c0.59,0.05,0.61,0.93,0,0.93c-0.75,0.01-1.57-0.2-2.4-0.55
			c-0.39,0.58-0.83,1.11-1.19,1.7c-0.21,0.35-0.37,0.7-0.52,1.06c0.54-0.43,1.14-0.71,1.82-0.63c1.34,0.17,2.15,1.99,2.16,3.15
			c0.01,0.34-0.47,0.47-0.64,0.18c-0.36-0.64-0.67-2.56-1.71-2.43c-0.8,0.1-1.42,0.85-1.88,1.55c-2.39,7.52,2.97,13.64,9.58,17.13
			c3.48,1.84,7.38,3.34,11.36,3.62c0.71,0.05,4.59,0.44,4.44-0.6c-0.28-1.87,0.03-3.87,0.17-5.74c0.05-0.68,1.06-0.7,1.06,0
			c0,0.23-0.01,0.46-0.01,0.7C49.16,76.2,53.85,75.21,54.14,73.41z"/>
		<path class="st4" d="M48.65,63.03c-4.76-5.56-11.68-11.88-19.55-10.6c-0.45,0.85-0.86,1.72-0.57,2.74
			c0.38,1.3,1.22,2.16,2.35,2.87c0.19,0.12,0.19,0.31,0.1,0.44c0.31,0.21,0.06,0.66-0.26,0.7c-1.11,0.14-2.22-0.18-3.28,0.37
			c-0.85,0.43-1.35,1.11-1.47,2.07c-0.05,0.37-0.42,0.5-0.67,0.37c-0.12,0.08-0.23,0.17-0.33,0.28c-0.02,0.02-0.04,0.03-0.06,0.05
			c0.01,0.08,0.02,0.16,0.02,0.24c0.01,0.34-0.47,0.47-0.64,0.18c-0.36-0.64-0.67-2.56-1.71-2.43c-0.8,0.1-1.42,0.85-1.88,1.55
			c-2.39,7.52,2.97,13.64,9.58,17.13c3.48,1.84,7.38,3.34,11.36,3.62c0.71,0.05,4.59,0.44,4.44-0.6c-0.28-1.87,0.03-3.87,0.17-5.74
			c0.05-0.68,1.06-0.7,1.06,0c0,0.23-0.01,0.46-0.01,0.7c1.87-0.75,6.56-1.75,6.85-3.55C54.69,70.04,50.67,65.4,48.65,63.03z"/>
	</g>
	<g>
		<g>
			<g>
				<ellipse class="st6" cx="72.26" cy="56.96" rx="14.08" ry="18.55"/>
			</g>
			<g>
				<path class="st2" d="M72.26,76.36c-8.23,0-14.93-8.7-14.93-19.4c0-10.7,6.7-19.4,14.93-19.4s14.93,8.7,14.93,19.4
					C87.19,67.65,80.5,76.36,72.26,76.36z M72.26,39.26c-7.29,0-13.23,7.94-13.23,17.69s5.93,17.69,13.23,17.69
					c7.29,0,13.23-7.94,13.23-17.69S79.56,39.26,72.26,39.26z"/>
			</g>
		</g>
		<g>
			<g>
				<ellipse class="st7" cx="72.26" cy="61.42" rx="7.81" ry="7.81"/>
			</g>
			<g>
				<path class="st2" d="M72.26,70.08c-4.77,0-8.66-3.89-8.66-8.66s3.88-8.66,8.66-8.66c4.77,0,8.66,3.89,8.66,8.66
					S77.04,70.08,72.26,70.08z M72.26,54.46c-3.83,0-6.95,3.12-6.95,6.96s3.12,6.96,6.95,6.96c3.83,0,6.95-3.12,6.95-6.96
					S76.1,54.46,72.26,54.46z"/>
			</g>
		</g>
	</g>
</g>
</svg>
