<?xml version="1.0" encoding="utf-8"?>
<!-- Generator: Adobe Illustrator 23.1.0, SVG Export Plug-In . SVG Version: 6.00 Build 0)  -->
<svg version="1.1" id="Capa_1" xmlns="http://www.w3.org/2000/svg" xmlns:xlink="http://www.w3.org/1999/xlink" x="0px" y="0px"
	 viewBox="0 0 100 100" style="enable-background:new 0 0 100 100;" xml:space="preserve">
<style type="text/css">
	.st0{fill:#F9F9F9;}
	.st1{fill:#DADADA;}
	.st2{fill:#89B9EF;}
	.st3{fill:#7196A5;}
	.st4{fill:#FFFFFF;}
	.st5{fill:#5C5F68;}
	.st6{fill:#335939;}
	.st7{fill:#CBDDE3;}
	.st8{fill:#DAEDF2;}
	.st9{fill:#FBF4D6;}
	.st10{opacity:0.83;}
	.st11{fill:#956B41;}
	.st12{fill:#F5F5F5;}
	.st13{fill:#F3D991;}
	.st14{fill:#D1A237;}
	.st15{fill:#F1CE73;}
	.st16{fill:#EC2F76;}
</style>
<g>
	<g>
		<g>
			<path class="st0" d="M47.61,99c-0.01,0-0.03,0-0.04,0c-1.5-0.07-3.01-0.22-4.49-0.43c-0.48-0.07-0.82-0.52-0.75-1
				s0.52-0.82,1-0.75c1.43,0.2,2.88,0.34,4.33,0.41c0.49,0.02,0.86,0.44,0.84,0.93C48.47,98.63,48.08,99,47.61,99z M52.92,98.97
				c-0.46,0-0.85-0.36-0.88-0.83c-0.03-0.49,0.34-0.9,0.83-0.93c1.44-0.09,2.9-0.24,4.32-0.46c0.48-0.07,0.93,0.26,1.01,0.74
				c0.07,0.48-0.26,0.93-0.74,1.01c-1.48,0.23-2.99,0.39-4.48,0.48C52.96,98.97,52.94,98.97,52.92,98.97z M37.99,97.55
				c-0.07,0-0.15-0.01-0.22-0.03c-1.45-0.37-2.9-0.82-4.31-1.33c-0.46-0.16-0.7-0.67-0.53-1.13c0.16-0.46,0.67-0.7,1.13-0.53
				c1.36,0.49,2.76,0.92,4.16,1.28c0.47,0.12,0.76,0.6,0.64,1.08C38.74,97.28,38.38,97.55,37.99,97.55z M62.53,97.41
				c-0.39,0-0.75-0.26-0.85-0.65c-0.13-0.47,0.15-0.96,0.62-1.08c1.4-0.38,2.79-0.82,4.14-1.32c0.46-0.17,0.97,0.06,1.14,0.52
				c0.17,0.46-0.06,0.97-0.52,1.14c-1.4,0.52-2.85,0.98-4.3,1.37C62.68,97.4,62.61,97.41,62.53,97.41z M28.86,94.17
				c-0.13,0-0.26-0.03-0.39-0.09c-1.34-0.66-2.67-1.39-3.96-2.17c-0.42-0.25-0.55-0.8-0.29-1.21c0.25-0.42,0.8-0.55,1.21-0.29
				c1.24,0.75,2.52,1.46,3.81,2.09c0.44,0.21,0.62,0.74,0.4,1.18C29.5,93.99,29.19,94.17,28.86,94.17z M71.62,93.94
				c-0.32,0-0.63-0.18-0.79-0.49c-0.22-0.44-0.04-0.97,0.39-1.19c1.29-0.65,2.57-1.37,3.79-2.13c0.42-0.26,0.96-0.13,1.22,0.28
				c0.26,0.41,0.13,0.96-0.28,1.22c-1.27,0.79-2.59,1.54-3.93,2.21C71.89,93.9,71.75,93.94,71.62,93.94z M20.6,89.03
				c-0.19,0-0.38-0.06-0.54-0.18c-1.18-0.92-2.34-1.9-3.44-2.92c-0.36-0.33-0.38-0.89-0.05-1.25c0.33-0.36,0.89-0.38,1.25-0.05
				c1.06,0.99,2.18,1.93,3.32,2.82c0.39,0.3,0.46,0.85,0.16,1.24C21.12,88.91,20.86,89.03,20.6,89.03z M79.82,88.7
				c-0.26,0-0.52-0.11-0.69-0.34c-0.3-0.38-0.24-0.94,0.14-1.24c1.13-0.9,2.24-1.86,3.28-2.85c0.35-0.33,0.91-0.32,1.25,0.03
				c0.34,0.35,0.32,0.91-0.03,1.25c-1.08,1.03-2.23,2.03-3.41,2.96C80.21,88.64,80.01,88.7,79.82,88.7z M13.54,82.33
				c-0.25,0-0.49-0.1-0.67-0.31c-0.98-1.14-1.92-2.33-2.79-3.55c-0.28-0.4-0.19-0.95,0.21-1.23c0.4-0.28,0.95-0.19,1.23,0.21
				c0.84,1.17,1.74,2.33,2.68,3.42c0.32,0.37,0.28,0.93-0.09,1.25C13.94,82.26,13.74,82.33,13.54,82.33z M86.81,81.92
				c-0.2,0-0.4-0.07-0.57-0.21c-0.37-0.31-0.42-0.87-0.11-1.24c0.93-1.11,1.82-2.27,2.65-3.45c0.28-0.4,0.83-0.5,1.23-0.22
				c0.4,0.28,0.5,0.83,0.22,1.23c-0.86,1.23-1.78,2.43-2.75,3.58C87.31,81.81,87.06,81.92,86.81,81.92z M7.96,74.35
				c-0.31,0-0.61-0.16-0.77-0.45c-0.73-1.31-1.41-2.67-2.01-4.04c-0.2-0.45,0-0.97,0.45-1.17c0.45-0.2,0.97,0,1.16,0.45
				c0.59,1.32,1.24,2.63,1.94,3.89c0.24,0.43,0.09,0.96-0.34,1.2C8.25,74.31,8.1,74.35,7.96,74.35z M92.3,73.88
				c-0.14,0-0.29-0.03-0.42-0.11c-0.43-0.23-0.59-0.77-0.35-1.2c0.69-1.27,1.33-2.59,1.9-3.91c0.19-0.45,0.71-0.66,1.16-0.46
				c0.45,0.19,0.66,0.71,0.46,1.16c-0.59,1.38-1.25,2.74-1.97,4.06C92.92,73.71,92.61,73.88,92.3,73.88z M4.1,65.41
				c-0.38,0-0.72-0.24-0.84-0.62c-0.45-1.43-0.84-2.9-1.16-4.36c-0.1-0.48,0.2-0.95,0.68-1.05c0.48-0.11,0.95,0.2,1.05,0.68
				c0.3,1.41,0.68,2.83,1.11,4.2c0.15,0.46-0.11,0.96-0.58,1.11C4.28,65.4,4.19,65.41,4.1,65.41z M96.06,64.89
				c-0.08,0-0.17-0.01-0.26-0.04c-0.47-0.14-0.73-0.63-0.59-1.1c0.42-1.38,0.78-2.8,1.07-4.22c0.1-0.48,0.57-0.79,1.04-0.69
				c0.48,0.1,0.79,0.56,0.69,1.04c-0.3,1.47-0.67,2.94-1.11,4.38C96.79,64.65,96.44,64.89,96.06,64.89z M2.13,55.88
				c-0.45,0-0.83-0.34-0.88-0.79c-0.15-1.48-0.24-3-0.25-4.5c-0.01-0.49,0.39-0.89,0.87-0.89c0,0,0.01,0,0.01,0
				c0.48,0,0.88,0.39,0.88,0.87c0.02,1.45,0.1,2.91,0.25,4.34c0.05,0.48-0.3,0.92-0.79,0.97C2.19,55.88,2.16,55.88,2.13,55.88z
				 M97.92,55.34c-0.03,0-0.05,0-0.08,0c-0.49-0.04-0.84-0.47-0.8-0.96c0.13-1.44,0.2-2.9,0.2-4.35l0-0.2
				c0-0.49,0.39-0.88,0.88-0.88S99,49.34,99,49.83l0,0.19c0,1.51-0.07,3.03-0.2,4.52C98.75,54.99,98.37,55.34,97.92,55.34z
				 M2.11,46.14c-0.03,0-0.06,0-0.09,0c-0.49-0.05-0.84-0.48-0.79-0.97c0.15-1.5,0.36-3,0.65-4.47c0.09-0.48,0.55-0.79,1.03-0.7
				c0.48,0.09,0.79,0.55,0.7,1.03c-0.27,1.41-0.48,2.86-0.62,4.3C2.95,45.8,2.56,46.14,2.11,46.14z M97.81,45.41
				c-0.44,0-0.83-0.33-0.88-0.78c-0.16-1.44-0.4-2.88-0.69-4.29c-0.1-0.48,0.21-0.95,0.68-1.04c0.47-0.1,0.94,0.21,1.04,0.68
				c0.31,1.46,0.55,2.96,0.72,4.45c0.06,0.48-0.29,0.92-0.78,0.98C97.87,45.4,97.84,45.41,97.81,45.41z M4.04,36.6
				c-0.09,0-0.18-0.01-0.26-0.04c-0.47-0.14-0.73-0.64-0.58-1.11c0.45-1.43,0.96-2.86,1.54-4.24c0.19-0.45,0.7-0.66,1.15-0.48
				c0.45,0.19,0.66,0.7,0.48,1.16c-0.55,1.33-1.05,2.71-1.48,4.09C4.77,36.36,4.42,36.6,4.04,36.6z M95.73,35.9
				c-0.37,0-0.72-0.24-0.84-0.61c-0.45-1.37-0.97-2.74-1.54-4.07c-0.19-0.45,0.01-0.97,0.46-1.16c0.45-0.19,0.97,0.01,1.16,0.46
				c0.6,1.38,1.14,2.8,1.6,4.22c0.15,0.46-0.1,0.96-0.56,1.11C95.91,35.88,95.82,35.9,95.73,35.9z M7.86,27.64
				c-0.14,0-0.29-0.04-0.43-0.11c-0.43-0.24-0.58-0.77-0.35-1.2c0.72-1.31,1.52-2.6,2.36-3.85c0.27-0.4,0.82-0.51,1.23-0.23
				c0.4,0.27,0.51,0.82,0.23,1.23c-0.81,1.2-1.58,2.44-2.28,3.71C8.48,27.48,8.17,27.64,7.86,27.64z M91.77,27
				c-0.31,0-0.6-0.16-0.77-0.44c-0.72-1.25-1.5-2.49-2.33-3.67c-0.28-0.4-0.18-0.95,0.21-1.23c0.4-0.28,0.95-0.18,1.23,0.21
				c0.86,1.23,1.68,2.51,2.42,3.81c0.24,0.42,0.1,0.96-0.33,1.21C92.07,26.97,91.92,27,91.77,27z M13.41,19.64
				c-0.2,0-0.41-0.07-0.57-0.21c-0.37-0.32-0.41-0.87-0.1-1.24c0.98-1.14,2.01-2.25,3.09-3.29c0.35-0.34,0.91-0.33,1.25,0.02
				c0.34,0.35,0.33,0.91-0.02,1.25c-1.03,1-2.03,2.07-2.97,3.17C13.91,19.54,13.66,19.64,13.41,19.64z M86.11,19.09
				c-0.24,0-0.49-0.1-0.66-0.3c-0.96-1.09-1.98-2.14-3.02-3.13c-0.35-0.33-0.37-0.89-0.04-1.25c0.34-0.35,0.89-0.37,1.25-0.04
				c1.08,1.02,2.14,2.12,3.14,3.24c0.32,0.37,0.29,0.92-0.08,1.25C86.52,19.02,86.32,19.09,86.11,19.09z M20.45,12.91
				c-0.26,0-0.52-0.12-0.7-0.34c-0.3-0.38-0.23-0.94,0.15-1.24c1.18-0.92,2.42-1.8,3.68-2.61C24,8.46,24.54,8.58,24.8,8.99
				c0.26,0.41,0.14,0.96-0.27,1.22c-1.22,0.78-2.41,1.63-3.55,2.51C20.83,12.85,20.64,12.91,20.45,12.91z M78.97,12.47
				c-0.19,0-0.37-0.06-0.53-0.18c-1.16-0.87-2.36-1.7-3.59-2.46c-0.41-0.26-0.54-0.8-0.29-1.22c0.26-0.41,0.8-0.55,1.22-0.29
				c1.27,0.79,2.52,1.65,3.72,2.55c0.39,0.29,0.47,0.85,0.17,1.24C79.5,12.35,79.24,12.47,78.97,12.47z M28.69,7.74
				c-0.33,0-0.64-0.18-0.79-0.49c-0.22-0.44-0.04-0.97,0.4-1.18c1.34-0.67,2.73-1.28,4.13-1.81c0.46-0.17,0.97,0.05,1.14,0.51
				c0.17,0.45-0.05,0.97-0.51,1.14C31.71,6.41,30.37,7,29.08,7.64C28.95,7.71,28.82,7.74,28.69,7.74z M70.65,7.41
				c-0.13,0-0.26-0.03-0.38-0.09c-1.3-0.62-2.65-1.19-4.01-1.69c-0.46-0.17-0.69-0.67-0.53-1.13s0.67-0.7,1.13-0.53
				c1.41,0.52,2.81,1.1,4.16,1.75c0.44,0.21,0.63,0.74,0.42,1.18C71.3,7.23,70.98,7.41,70.65,7.41z M37.8,4.33
				c-0.39,0-0.75-0.26-0.85-0.66c-0.12-0.47,0.16-0.96,0.63-1.08c1.45-0.38,2.93-0.69,4.41-0.94C42.47,1.56,42.92,1.9,43,2.38
				c0.08,0.48-0.25,0.94-0.73,1.01c-1.42,0.23-2.86,0.54-4.25,0.9C37.95,4.32,37.87,4.33,37.8,4.33z M61.48,4.15
				c-0.07,0-0.14-0.01-0.21-0.03c-1.4-0.34-2.84-0.63-4.27-0.84c-0.48-0.07-0.81-0.52-0.74-1c0.07-0.48,0.52-0.81,1-0.74
				c1.48,0.22,2.97,0.51,4.43,0.87c0.47,0.12,0.76,0.59,0.65,1.07C62.24,3.88,61.88,4.15,61.48,4.15z M47.41,2.83
				c-0.47,0-0.86-0.36-0.88-0.84c-0.03-0.49,0.35-0.9,0.83-0.93C48.25,1.02,49.13,1.01,50,1c0.63,0,1.25,0.01,1.88,0.04
				c0.49,0.02,0.87,0.43,0.85,0.92c-0.02,0.49-0.41,0.89-0.92,0.85c-0.62-0.02-1.24-0.04-1.86-0.03c-0.82,0-1.66,0.02-2.49,0.07
				C47.45,2.83,47.43,2.83,47.41,2.83z"/>
		</g>
		<ellipse class="st1" cx="50" cy="50.03" rx="35.76" ry="35.78"/>
	</g>
	<g>
		<g>
			<polygon class="st2" points="29.32,43.95 32.53,47.69 32.41,24.6 29.21,22.07 			"/>
			<polygon class="st3" points="41.81,24.14 32.41,24.6 32.53,47.69 41.93,46.89 			"/>
			<polygon class="st3" points="29.21,22.07 32.41,24.6 31.73,20.94 			"/>
			<polygon class="st3" points="39.46,18.24 31.72,18.45 31.73,20.94 39.62,20.9 			"/>
			<g>
				<g>
					<path class="st4" d="M34.91,28.89c0.05-0.21,0.14-0.28,0.35-0.29l0.19,0c0.23,0,0.35,0.15,0.36,0.36l0.02,1.52
						c0,0.2-0.12,0.3-0.3,0.31c-0.18,0-0.3-0.1-0.31-0.3l-0.01-1.03l-0.01,0l-0.29,1.14c-0.04,0.14-0.1,0.19-0.26,0.19
						c-0.16,0-0.23-0.04-0.27-0.18l-0.32-1.14l-0.01,0l0.01,1.03c0,0.2-0.12,0.3-0.3,0.31s-0.3-0.1-0.31-0.3l-0.02-1.52
						c0-0.22,0.12-0.37,0.35-0.37l0.19,0c0.21,0,0.3,0.07,0.36,0.28l0.29,1.04l0.01,0L34.91,28.89z"/>
				</g>
				<g>
					<path class="st4" d="M36.25,28.96c0-0.23,0.12-0.36,0.33-0.37c0.21,0,0.34,0.13,0.34,0.36l0.02,1.46
						c0,0.23-0.12,0.36-0.33,0.37c-0.21,0-0.34-0.13-0.34-0.36L36.25,28.96z"/>
				</g>
				<g>
					<path class="st4" d="M38.78,30.17c0.17,0,0.29,0.1,0.29,0.27c0,0.17-0.11,0.27-0.29,0.28l-1,0.01c-0.26,0-0.39-0.12-0.39-0.4
						l-0.02-1.38c0-0.23,0.12-0.36,0.33-0.37c0.21,0,0.34,0.13,0.34,0.36l0.01,1.24L38.78,30.17z"/>
				</g>
				<g>
					<path class="st4" d="M40.55,28.74c0.13-0.15,0.19-0.2,0.31-0.2c0.18,0,0.3,0.15,0.3,0.28c0,0.1-0.04,0.15-0.13,0.24l-0.31,0.35
						l0.52,0.79c0.04,0.06,0.07,0.13,0.07,0.2c0,0.18-0.16,0.31-0.34,0.31c-0.11,0-0.2-0.03-0.28-0.15l-0.47-0.71l-0.19,0.21l0,0.29
						c0,0.23-0.12,0.36-0.33,0.37c-0.21,0-0.34-0.13-0.34-0.36l-0.02-1.46c0-0.23,0.12-0.36,0.33-0.37c0.21,0,0.34,0.13,0.34,0.36
						l0,0.42L40.55,28.74z"/>
				</g>
			</g>
			<g>
				<polygon class="st2" points="39.6,20.61 31.73,20.94 32.41,24.6 41.81,24.14 				"/>
				<path class="st5" d="M42.05,24.14C42.05,24.13,42.05,24.13,42.05,24.14c0-0.01,0-0.02-0.01-0.02c0-0.03-0.01-0.06-0.03-0.09
					c0,0,0-0.01,0-0.01l-2.18-3.47l-0.14-2.31c-0.01-0.13-0.12-0.23-0.25-0.23l-7.74,0.2c-0.13,0-0.24,0.11-0.24,0.24l0.01,2.34
					l-2.38,1.06c0,0,0,0,0,0c0,0,0,0,0,0c-0.01,0.01-0.02,0.02-0.03,0.02c-0.03,0.02-0.05,0.04-0.07,0.06
					C29,21.95,29,21.97,28.99,21.98c-0.01,0.02-0.02,0.04-0.02,0.06c0,0.01,0,0.01,0,0.02c0,0.01,0,0.01,0,0.01l0.11,21.88
					c0,0.06,0.02,0.11,0.06,0.16l3.21,3.74c0,0,0.01,0,0.01,0.01c0,0,0.01,0.01,0.01,0.01c0.01,0.01,0.03,0.02,0.04,0.03
					c0.01,0.01,0.02,0.01,0.03,0.02c0.03,0.01,0.06,0.02,0.09,0.02c0.01,0,0.01,0,0.02,0l9.4-0.8c0.13-0.01,0.22-0.12,0.22-0.24
					L42.05,24.14z M29.67,22.13l1.88-0.84l0.51,2.72l-0.88-0.7L29.67,22.13z M41.39,23.92l-8.78,0.44l-0.59-3.17l7.6-0.04
					c0.01,0,0.02,0,0.03-0.01L41.39,23.92z M39.23,18.49l0.11,1.89l-7.37,0.32l-0.01-2.01L39.23,18.49z M29.45,22.57l0.65,0.51
					l2.07,1.64l0.12,22.32l-2.73-3.17L29.45,22.57z M32.77,47.43l-0.12-22.6l8.46-0.42l0.46-0.02l0.11,22.28L32.77,47.43z"/>
			</g>
			<g>
				<path class="st4" d="M41.3,32.13c0.01,0.19-0.14,0.34-0.33,0.35l-7.16,0.21c-0.19,0.01-0.34-0.14-0.35-0.33l0,0
					c-0.01-0.19,0.14-0.34,0.33-0.35l7.16-0.21C41.14,31.79,41.29,31.94,41.3,32.13L41.3,32.13z"/>
				<path class="st5" d="M33.8,32.93c-0.15,0-0.29-0.06-0.4-0.16c-0.11-0.11-0.18-0.25-0.18-0.41c-0.01-0.32,0.24-0.59,0.56-0.6
					l7.16-0.21c0.15,0,0.3,0.05,0.42,0.16c0.11,0.11,0.18,0.25,0.18,0.41c0.01,0.32-0.24,0.59-0.56,0.6l-7.16,0.21
					C33.82,32.93,33.81,32.93,33.8,32.93z M40.96,32.04C40.96,32.04,40.96,32.04,40.96,32.04l-7.16,0.21c-0.05,0-0.1,0.05-0.09,0.1
					c0,0.05,0.06,0.12,0.1,0.09l7.16-0.21c0.05,0,0.1-0.05,0.09-0.1v0c0-0.03-0.02-0.06-0.03-0.07C41.02,32.06,41,32.04,40.96,32.04
					z"/>
			</g>
			<g>
				<path class="st4" d="M36.44,27.08c-0.15,0.4-0.86,1.38,0.17,1.29c0.71-0.06,0.12-1-0.14-1.23L36.44,27.08z"/>
			</g>
			<g>
				<path class="st4" d="M40.89,40.34L40.89,40.34c-0.16-0.1-0.24-0.69-0.54-0.49c-0.06-0.05-0.11-0.09-0.13-0.1
					c-0.11-0.09-0.23-0.17-0.36-0.25c-0.09-0.06-0.18-0.14-0.27-0.21c-0.01-0.06-0.03-0.1-0.04-0.13c-0.23-0.44-0.77-0.48-1.22-0.44
					c-0.43,0.04-1.79,0.05-1.79-0.07c0-0.18-0.02-0.37-0.07-0.57c0.11-0.07,0.21-0.16,0.3-0.3c0.15-0.24,0.28-0.76,0.01-0.97
					c-0.06,0.31-0.29,0.52-0.58,0.63c-0.14-0.19-0.42-0.28-0.69-0.26c-0.23,0.02-0.47,0.04-0.63,0.19
					c-0.33-0.12-0.47-0.26-0.56-0.56c-0.19,0.35-0.1,1.04,0.28,1.16c-0.05,0.7-0.19,1.44,0.35,1.55c0.39,0.08,0.58,0.05,0.58,0.05
					c0.05,0.2,0.14,2.06,0.22,2.22c0.07,0.15,0.58,0.16,0.77,0.03c0.16-0.11-0.05-1.22,0.11-1.19c0.43,0.07,1.92-0.05,2.17,0.07
					c0.07,0.04,0.04,0.95,0.08,1.07c0.19,0.06,0.61,0.06,0.8-0.02c0.01-0.35,0.04-1.47-0.03-2.14c0.18,0.15,0.42,0.28,0.59,0.36
					c-0.02,0.09,0.02,0.19,0.1,0.24c0.13,0.08,0.28,0.05,0.42,0.08c0.05,0.01,0.1,0.03,0.15,0.05
					C40.9,40.35,40.89,40.35,40.89,40.34z"/>
				<path class="st6" d="M36.13,42.17c-0.1,0-0.2-0.01-0.28-0.03c-0.15-0.04-0.25-0.12-0.31-0.22c-0.05-0.11-0.08-0.38-0.16-1.42
					c-0.02-0.22-0.04-0.48-0.05-0.66c-0.11-0.01-0.25-0.02-0.42-0.06c-0.68-0.15-0.62-0.93-0.56-1.56l0.01-0.09
					c-0.12-0.09-0.21-0.21-0.28-0.37c-0.13-0.33-0.12-0.76,0.04-1.04c0.05-0.08,0.14-0.13,0.23-0.12c0.1,0.01,0.18,0.07,0.21,0.17
					c0.06,0.19,0.14,0.28,0.3,0.36c0.19-0.11,0.41-0.13,0.61-0.15c0.31-0.03,0.59,0.05,0.79,0.21c0.13-0.08,0.26-0.2,0.3-0.39
					c0.02-0.08,0.07-0.15,0.15-0.18c0.08-0.03,0.17-0.02,0.23,0.03c0.41,0.31,0.23,0.99,0.05,1.29c-0.07,0.11-0.15,0.2-0.24,0.27
					c0.02,0.09,0.03,0.19,0.03,0.28c0.33,0.04,1.18,0.04,1.53,0c0.73-0.08,1.22,0.11,1.46,0.57c0.02,0.03,0.03,0.06,0.04,0.1
					c0.02,0.02,0.04,0.03,0.06,0.05c0.04,0.04,0.09,0.07,0.13,0.1c0.13,0.08,0.26,0.17,0.38,0.27c0,0,0.01,0.01,0.01,0.01
					c0.07-0.01,0.13-0.01,0.18,0.01c0.21,0.06,0.31,0.27,0.39,0.44c0.02,0.04,0.04,0.09,0.06,0.12c0.02,0.01,0.03,0.02,0.05,0.04
					c0.02,0.02,0.04,0.05,0.05,0.07c0.05,0.09,0.04,0.2-0.03,0.28c-0.07,0.08-0.17,0.1-0.27,0.07c-0.05-0.02-0.09-0.03-0.12-0.04
					c-0.03-0.01-0.07-0.01-0.11-0.01c-0.11-0.01-0.25-0.02-0.38-0.1c-0.11-0.07-0.18-0.18-0.21-0.3c-0.02-0.01-0.05-0.03-0.08-0.04
					c0.03,0.64,0.01,1.39,0,1.68c0,0.09-0.06,0.18-0.15,0.21c-0.25,0.1-0.73,0.1-0.96,0.03c-0.07-0.02-0.13-0.08-0.16-0.15
					c-0.03-0.08-0.03-0.2-0.04-0.53c0-0.12-0.01-0.31-0.01-0.42c-0.21-0.02-0.67-0.02-0.99-0.01c-0.3,0-0.58,0.01-0.8,0
					c0,0.09,0,0.19,0.01,0.27c0.02,0.48,0.02,0.74-0.16,0.86C36.53,42.13,36.32,42.17,36.13,42.17z M35.97,41.67
					c0.09,0.03,0.27,0.02,0.37-0.01c0.01-0.11,0-0.33,0-0.46c-0.02-0.42-0.02-0.61,0.11-0.72c0.05-0.05,0.15-0.08,0.22-0.07
					c0.17,0.03,0.56,0.02,0.93,0.01c0.77-0.01,1.13-0.01,1.3,0.07c0.18,0.08,0.18,0.26,0.19,0.83c0,0.08,0,0.17,0.01,0.25
					c0.11,0.01,0.24,0.01,0.34-0.01c0.01-0.47,0.02-1.36-0.03-1.93c-0.01-0.06,0.01-0.12,0.04-0.16c-0.04-0.03-0.08-0.08-0.09-0.14
					c-0.01-0.06-0.02-0.08-0.02-0.08c-0.13-0.26-0.46-0.36-0.98-0.31c-0.02,0-1.71,0.12-1.97-0.11c-0.05-0.04-0.09-0.12-0.09-0.19
					c0-0.17-0.02-0.35-0.06-0.52c-0.02-0.1,0.02-0.21,0.11-0.26c0.09-0.05,0.16-0.12,0.22-0.22c0.03-0.05,0.06-0.11,0.08-0.18
					c-0.1,0.08-0.22,0.15-0.36,0.2c-0.1,0.04-0.21,0-0.28-0.08c-0.09-0.12-0.28-0.18-0.47-0.16c-0.22,0.02-0.4,0.04-0.49,0.12
					c-0.07,0.06-0.16,0.08-0.25,0.05c-0.12-0.04-0.23-0.09-0.32-0.15c0.01,0.04,0.02,0.07,0.03,0.11c0.02,0.06,0.07,0.16,0.15,0.18
					c0.11,0.03,0.18,0.14,0.17,0.25l-0.02,0.25c-0.06,0.7-0.05,1,0.18,1.05c0.33,0.07,0.49,0.05,0.49,0.05
					c0.12-0.02,0.24,0.06,0.27,0.18c0.02,0.1,0.04,0.34,0.09,0.93C35.89,40.84,35.94,41.47,35.97,41.67z"/>
			</g>
		</g>
		<g>
			<g>
				<path class="st7" d="M47.61,47.59c-0.01-0.21-0.02-0.43-0.02-0.64c0-0.91,0-1.82,0-2.74c0-2.91,0-5.82,0-8.73h-5.66h-5.66
					c0,2.91,0,5.82,0,8.73c0,0.91,0,1.82,0,2.74c0,0.21-0.01,0.42-0.02,0.64c-0.05,0.23-0.06,0.46-0.01,0.69
					c0.02,0.58,0.14,1.12,0.62,1.53c0.49,0.42,1.13,0.62,1.76,0.76c1.09,0.25,5.55,0.25,6.64,0c0.63-0.15,1.27-0.34,1.76-0.76
					c0.47-0.41,0.6-0.96,0.62-1.53C47.67,48.05,47.66,47.82,47.61,47.59z"/>
				<path class="st5" d="M41.93,51c-1.4,0-2.81-0.07-3.37-0.2c-0.65-0.15-1.33-0.35-1.86-0.81c-0.59-0.51-0.68-1.18-0.7-1.71
					c-0.04-0.22-0.04-0.48,0.02-0.75l0-0.03c0.01-0.19,0.02-0.38,0.02-0.56V35.49c0-0.13,0.11-0.24,0.24-0.24h11.32
					c0.13,0,0.24,0.11,0.24,0.24v11.47c0,0.18,0.01,0.36,0.02,0.55l0,0.06c0.05,0.26,0.06,0.51,0.01,0.76
					c-0.01,0.49-0.11,1.16-0.69,1.67c-0.53,0.46-1.21,0.66-1.86,0.81C44.74,50.94,43.33,51,41.93,51z M36.51,35.73v11.23
					c0,0.19-0.01,0.38-0.02,0.58l0,0.07c-0.05,0.24-0.05,0.44-0.02,0.63c0.02,0.68,0.18,1.09,0.54,1.39
					c0.45,0.39,1.06,0.57,1.65,0.71c1.07,0.25,5.46,0.25,6.53,0c0.59-0.14,1.2-0.32,1.66-0.71c0.35-0.31,0.51-0.71,0.53-1.36
					c0.04-0.23,0.04-0.43-0.01-0.63c0-0.01,0-0.03-0.01-0.04l0-0.08c-0.01-0.19-0.02-0.38-0.02-0.57V35.73H36.51z"/>
			</g>
			<g>
				<path class="st8" d="M46.94,47.11c-0.01-0.21-0.02-0.41-0.02-0.61c0-0.88,0-1.75,0-2.63c0-2.8,0-5.59,0-8.39h-4.99h-4.99
					c0,2.8,0,5.59,0,8.39c0,0.88,0,1.75,0,2.63c0,0.2-0.01,0.4-0.02,0.61c-0.04,0.22-0.05,0.44-0.01,0.66
					c0.02,0.55,0.12,1.08,0.54,1.47c0.43,0.41,1,0.59,1.55,0.73c0.96,0.24,4.89,0.24,5.85,0c0.55-0.14,1.12-0.32,1.55-0.73
					c0.42-0.39,0.53-0.92,0.54-1.47C46.99,47.55,46.98,47.33,46.94,47.11z"/>
			</g>
			<g>
				<path class="st9" d="M46.92,40.36h-9.98c0,1.17,0,2.34,0,3.51c0,0.88,0,1.75,0,2.63c0,0.2-0.01,0.4-0.02,0.61
					c-0.04,0.22-0.05,0.44-0.01,0.66c0.02,0.55,0.12,1.08,0.54,1.47c0.43,0.41,1,0.59,1.55,0.73c0.96,0.24,4.89,0.24,5.85,0
					c0.55-0.14,1.12-0.32,1.55-0.73c0.42-0.39,0.53-0.92,0.54-1.47c0.04-0.22,0.03-0.44-0.01-0.66c-0.01-0.21-0.02-0.41-0.02-0.61
					c0-0.88,0-1.75,0-2.63C46.92,42.7,46.92,41.53,46.92,40.36z"/>
				<path class="st5" d="M41.93,50.4c-1.24,0-2.48-0.06-2.98-0.19c-0.58-0.15-1.19-0.34-1.66-0.79c-0.52-0.49-0.6-1.13-0.62-1.64
					c-0.04-0.21-0.03-0.46,0.02-0.71l0-0.02c0.01-0.18,0.02-0.36,0.02-0.54v-6.14c0-0.13,0.11-0.24,0.24-0.24h9.98
					c0.13,0,0.24,0.11,0.24,0.24v6.14c0,0.17,0.01,0.35,0.02,0.53l0,0.07c0.05,0.22,0.05,0.47,0.01,0.71
					c-0.01,0.47-0.09,1.11-0.62,1.6c-0.47,0.45-1.08,0.64-1.66,0.79C44.41,50.33,43.17,50.4,41.93,50.4z M37.18,40.6v5.9
					c0,0.18-0.01,0.37-0.02,0.56l0,0.06c-0.04,0.23-0.05,0.42-0.01,0.61c0.02,0.65,0.16,1.04,0.47,1.34
					c0.39,0.37,0.93,0.54,1.44,0.67c0.91,0.23,4.82,0.23,5.73,0c0.52-0.13,1.05-0.3,1.44-0.67c0.31-0.29,0.45-0.68,0.47-1.3
					c0.04-0.22,0.03-0.41-0.01-0.61l-0.01-0.11c-0.01-0.19-0.02-0.37-0.02-0.55v-5.9H37.18z"/>
			</g>
			<g>
				<ellipse class="st4" cx="41.93" cy="40.68" rx="4.99" ry="0.86"/>
				<path class="st5" d="M41.93,41.78c-0.54,0-5.23-0.03-5.23-1.1c0-1.07,4.7-1.1,5.23-1.1s5.23,0.03,5.23,1.1
					C47.16,41.75,42.47,41.78,41.93,41.78z M37.21,40.68c0.27,0.23,1.85,0.62,4.73,0.62c2.88,0,4.45-0.39,4.73-0.62
					c-0.27-0.23-1.85-0.62-4.73-0.62C39.05,40.06,37.48,40.45,37.21,40.68z M46.69,40.71L46.69,40.71L46.69,40.71z"/>
			</g>
			<g>
				<ellipse class="st7" cx="41.93" cy="35.49" rx="5.66" ry="0.86"/>
				<path class="st5" d="M41.93,36.59c-0.99,0-5.9-0.05-5.9-1.1c0-1.05,4.92-1.1,5.9-1.1s5.9,0.05,5.9,1.1
					C47.83,36.54,42.92,36.59,41.93,36.59z M36.55,35.49c0.38,0.27,2.37,0.62,5.38,0.62c3.01,0,5-0.35,5.38-0.62
					c-0.38-0.27-2.37-0.62-5.38-0.62C38.92,34.87,36.93,35.22,36.55,35.49z M47.36,35.53L47.36,35.53L47.36,35.53z"/>
			</g>
			<g class="st10">
				<path class="st4" d="M38.16,38.19c0.01,1.92,0.02,3.85,0.03,5.77c0,0.58,0.01,1.17,0.11,1.75c0.03,0.19,0.08,0.38,0.21,0.52
					c0.12,0.14,0.35,0.22,0.51,0.12c0.1-0.06,0.16-0.17,0.2-0.29c0.13-0.39,0.03-0.81-0.05-1.22c-0.38-1.89-0.39-3.86-0.04-5.76
					c0.09-0.47,0.4-1.39-0.09-1.73C38.45,36.96,38.16,37.75,38.16,38.19z"/>
			</g>
			<g class="st10">
				<path class="st4" d="M38.46,47.33c-0.06,0.2-0.04,0.41-0.01,0.61c0.07,0.44,0.19,0.91,0.56,1.16c0.07,0.05,0.14,0.08,0.22,0.09
					c0.16,0.02,0.33-0.07,0.42-0.2s0.14-0.3,0.16-0.46c0.04-0.27,0.03-0.54-0.02-0.81c-0.04-0.22-0.12-0.44-0.28-0.6
					C39.2,46.82,38.6,46.9,38.46,47.33z"/>
			</g>
		</g>
	</g>
	<g>
		<path class="st11" d="M54.73,49.49c0,0,7.07,2.61,9.87,2.36c2.8-0.25,13.21-1.47,15.09-2.42c1.88-0.96,4.2-1.98,4.2-1.98
			s-0.1,6.69-3.12,10.39c-3.03,3.7-10.06,7.1-17.99,3.06s-7.51-7.14-7.77-8C54.76,52.03,54.73,49.49,54.73,49.49z"/>
		<path class="st12" d="M83.1,47.13c0,0-7.2,4.3-14.49,4.33C61.32,51.49,56.58,50,56.58,50s-1.34-1.69-0.83-2.52
			c0.51-0.83,1.43-1.08,1.43-1.08s-0.67-0.99-0.22-1.4c0.45-0.41,1.78-0.48,1.78-0.48l0.19-2.33l3.09-3.35c0,0,0.54-2.29,1.24-2.33
			c0.7-0.03,2.04,0.73,2.04,0.73s0.89-0.38,1.91-0.32c1.02,0.06,1.85,0.16,1.85,0.16s1.59-1.27,2.13-1.27c0.54,0,0.92,0,0.92,0.41
			c0,0.41,0.19,0.7,0.19,0.7s1.72-0.25,2.71,0.16c0.99,0.41,2.29,1.18,3.09,2.07c0.8,0.89,1.97,2.1,1.97,2.1s1.08-0.22,1.31,0.51
			c0.22,0.73,0.48,1.08,0.48,1.08s1.08,0.54,1.15,1.34C83.07,44.99,83.1,47.13,83.1,47.13z"/>
		<path class="st5" d="M85.03,36.93c0.13,0.18,0.03,0.44-0.14,0.55c-1.53,0.97-2.73,2.26-3.83,3.66c0.26,0.05,0.5,0.13,0.71,0.29
			c0.43,0.35,0.53,0.89,0.57,1.41c1.28,0.84,1.37,2.13,1.1,3.56c0.3-0.06,0.6,0.08,0.76,0.3c0.42-0.11,0.89,0.1,0.86,0.66
			c-0.5,8.08-4.8,15.99-13.85,15.92c-6.99-0.06-18.26-5.3-16.78-13.88c0-0.01,0-0.01,0-0.01c-0.29-0.29,0.06-0.79,0.48-0.6
			c0.21,0.09,0.43,0.19,0.64,0.28c-0.29-0.37-0.51-0.78-0.46-1.21c0.09-0.96,0.8-1.32,1.51-1.77c-0.18-0.69-0.26-1.62,0.51-1.9
			c0.53-0.19,1.38-0.08,1.93,0.03c0.24,0.04,0.33,0.41,0.14,0.56c-0.34,0.3-0.74,0.31-1.17,0.31c-0.13,0-0.39-0.04-0.51,0.04
			c-0.11,0.08,0.14,0.93,0.16,1.05c0.06,0.26-0.08,0.55-0.35,0.62c-0.64,0.15-1.62,0.73-1.19,1.51c0.26,0.46,0.6,0.89,0.93,1.31
			c0.01,0.01,0.01,0.03,0.02,0.04c4.08,1.4,8.51,1.7,12.79,1.18c4.68-0.57,8.45-2.25,12.64-4.06c-0.03-0.07-0.04-0.14-0.02-0.23
			c0.19-1.23,0.38-2.31-0.87-2.99c-0.15-0.08-0.24-0.25-0.24-0.42c-0.01-0.91-0.32-1.05-0.9-1.23c-0.47,0.62-0.93,1.25-1.39,1.88
			c0.13,0.02,0.26,0.07,0.34,0.19c0.34,0.46,0.89,0.76,1.05,1.34c0.08,0.29,0.19,0.74-0.05,0.98c-0.24,0.24-0.61,0.49-0.93,0.63
			c-0.43,0.19-0.93,0.27-1.28-0.14c-0.27-0.31-0.44-0.69-0.67-1.05c-0.85,1.01-1.78,1.94-2.88,2.7c-0.13,0.08-0.3,0.07-0.43,0
			c-0.51-0.29-0.76-0.68-1.13-1.15c-0.18-0.23-0.07-0.52,0.13-0.63c1.82-2.99,3.3-6.31,5.4-9.12
			C80.53,35.03,82.97,34.11,85.03,36.93z M83.96,37.12c0.4-0.25-1.24-1.2-1.52-1.19c-1.04,0.03-1.89,0.91-2.5,1.68
			c-1.63,2.07-2.76,4.52-4.02,6.82c-0.34,0.63-0.89,2-1.67,2.6c1.37,0.08,3.73-2.97,5.55-5.43c-0.19-0.26-0.01-0.69,0.39-0.6
			c0.01,0.01,0.03,0.01,0.04,0.01c0.77-1.04,1.4-1.9,1.77-2.27C82.62,38.16,83.25,37.56,83.96,37.12z M72.01,61.85
			c7.78-0.7,10.58-7,11.52-13.88c-3.6,2.87-9.3,4.03-13.67,4.4c-5.06,0.44-10.35-0.03-14.83-2.6
			C55.76,57.44,64.73,62.51,72.01,61.85z M78.81,46.11c0.18,0.19,0.55-0.11,0.79-0.33c-0.13-0.56-0.71-0.85-0.96-1.4
			c-0.19,0.26-0.4,0.52-0.61,0.78C78.31,45.45,78.53,45.8,78.81,46.11z"/>
		<path class="st13" d="M82.44,35.93c0.28-0.01,1.92,0.94,1.52,1.19c-0.71,0.44-1.35,1.05-1.95,1.63c-0.37,0.36-1,1.23-1.77,2.27
			C80.23,41,80.21,41,80.2,41c-0.4-0.09-0.58,0.34-0.39,0.6c-1.82,2.46-4.18,5.51-5.55,5.43c0.78-0.61,1.33-1.97,1.67-2.6
			c1.26-2.3,2.38-4.75,4.02-6.82C80.55,36.83,81.4,35.96,82.44,35.93z"/>
		<path class="st5" d="M77.6,38.36c0.11,0.26-0.08,0.68-0.42,0.54c-0.81-0.31-1.37-1.01-2.24-1.23c-0.86-0.23-1.71-0.22-2.6-0.17
			c-0.13,0.01-0.21-0.05-0.28-0.13c-0.38-0.32-0.37-0.59-0.43-1.02c-0.79,0.25-1.53,0.41-2.13,1.12c-0.11,0.14-0.31,0.16-0.47,0.13
			c-1.39-0.26-1.78-0.29-3.15,0.31c-0.21,0.09-0.41,0.08-0.59-0.08c-1.42-1.28-2.44-0.33-2.9,1.15c-0.04,0.1-0.12,0.16-0.21,0.19
			c0.99,1.79,1.85,3.65,2.51,5.6c0.19,0.55-0.59,0.79-0.86,0.35c-0.03-0.01-0.04-0.01-0.07-0.02c-1.44-0.73-2.72-1.78-3.88-3
			c0.08,0.19,0.12,0.39,0.16,0.58c0.07,0.39-0.31,0.59-0.58,0.46c-0.07,0.27-0.13,0.53-0.18,0.81c-0.06,0.34-0.63,0.34-0.69,0
			c-0.06-0.43-0.13-0.86-0.08-1.29c0.03-0.27,0.12-0.64,0.35-0.83c0.18-0.14,0.41-0.21,0.61-0.15c-2.5-2.78-4.44-6.34-6.24-9.23
			c-0.11-0.18-0.08-0.43,0.08-0.58c0.72-0.69,1.4-1.28,2.23-1.8c0.22-0.14,0.45-0.03,0.59,0.16c2.05,2.68,4.04,5.43,5.71,8.36
			c0.09-0.92,0.39-2.15,1.36-2.44c0.48-0.14,0.83-0.12,1.31,0.01c0.44,0.11,1,0.86,1.51,0.64c1.13-0.48,1.56-0.45,2.72-0.23
			c0.36,0.07,0.89-0.66,1.27-0.78c0.63-0.19,1.23-0.26,1.84-0.52c0.23-0.09,0.53,0.1,0.58,0.33c0.02,0.1,0.13,0.74,0.19,1.11
			C74.33,36.38,76.85,36.59,77.6,38.36z M63.43,44.15c-1.09-2.78-2.48-5.41-4.12-7.91c-0.91-1.37-1.84-2.72-2.8-4.05
			c-0.99-1.36-2.57-0.41-1.65,1C57.4,37.13,60.02,40.93,63.43,44.15z"/>
		<path class="st13" d="M59.31,36.24c1.65,2.5,3.03,5.13,4.12,7.91c-3.41-3.22-6.03-7.02-8.58-10.97c-0.91-1.4,0.66-2.36,1.65-1
			C57.47,33.52,58.4,34.87,59.31,36.24z"/>
		<g>
			<g>
				<polygon class="st4" points="65.82,35.98 65.82,36.66 66.28,37.96 66.73,38.22 66.73,37.69 66.28,36.39 				"/>
				<path class="st6" d="M66.73,38.3c-0.01,0-0.03,0-0.04-0.01l-0.45-0.26c-0.02-0.01-0.03-0.03-0.04-0.04l-0.46-1.3
					c0-0.01,0-0.02,0-0.03v-0.68c0-0.03,0.02-0.06,0.05-0.08c0.03-0.01,0.07-0.01,0.09,0.01l0.46,0.41
					c0.01,0.01,0.02,0.02,0.02,0.04l0.45,1.3c0,0.01,0,0.02,0,0.03v0.53c0,0.03-0.02,0.06-0.04,0.07
					C66.76,38.3,66.74,38.3,66.73,38.3z M66.35,37.9l0.29,0.17V37.7l-0.43-1.26l-0.31-0.27v0.48L66.35,37.9z"/>
			</g>
			<g>
				<polygon class="st4" points="67.92,35.65 67.38,36.92 67.53,37.41 67.89,37.03 68.45,35.77 68.39,35.16 				"/>
				<path class="st6" d="M67.53,37.5c-0.01,0-0.01,0-0.02,0c-0.03-0.01-0.05-0.03-0.06-0.06l-0.15-0.49c-0.01-0.02-0.01-0.04,0-0.06
					l0.54-1.27c0-0.01,0.01-0.02,0.02-0.02l0.46-0.5c0.02-0.02,0.06-0.03,0.09-0.02c0.03,0.01,0.05,0.04,0.06,0.07l0.06,0.62
					c0,0.01,0,0.03-0.01,0.04l-0.56,1.25c0,0.01-0.01,0.02-0.01,0.02l-0.36,0.39C67.57,37.49,67.55,37.5,67.53,37.5z M67.47,36.93
					l0.1,0.33l0.25-0.27l0.54-1.22l-0.04-0.41L68,35.7L67.47,36.93z"/>
			</g>
			<g>
				<polygon class="st4" points="69.2,33.7 68.66,33.39 68.79,34.06 69.5,35.24 69.99,35.4 69.89,34.88 				"/>
				<path class="st6" d="M69.99,35.49c-0.01,0-0.02,0-0.03,0l-0.49-0.17c-0.02-0.01-0.03-0.02-0.04-0.04l-0.71-1.18
					c0-0.01-0.01-0.02-0.01-0.03l-0.13-0.67c-0.01-0.03,0.01-0.07,0.03-0.08c0.03-0.02,0.06-0.02,0.09,0l0.54,0.31
					c0.01,0.01,0.02,0.02,0.03,0.03l0.69,1.19c0,0.01,0.01,0.02,0.01,0.03l0.1,0.52c0.01,0.03,0,0.06-0.03,0.08
					C70.03,35.48,70.01,35.49,69.99,35.49z M69.56,35.17l0.32,0.11l-0.07-0.36l-0.67-1.15l-0.36-0.21l0.09,0.47L69.56,35.17z"/>
			</g>
			<g>
				<polygon class="st4" points="71.23,32.09 71.05,31.49 70.69,32.07 70.38,33.41 70.62,33.87 70.9,33.42 				"/>
				<path class="st6" d="M70.62,33.95C70.62,33.95,70.61,33.95,70.62,33.95c-0.03,0-0.06-0.02-0.07-0.04l-0.24-0.46
					c-0.01-0.02-0.01-0.04-0.01-0.06l0.31-1.34c0-0.01,0.01-0.02,0.01-0.03l0.37-0.57c0.02-0.03,0.05-0.04,0.08-0.04
					c0.03,0,0.06,0.03,0.07,0.06l0.17,0.59c0,0.01,0,0.03,0,0.04l-0.32,1.33c0,0.01-0.01,0.02-0.01,0.03l-0.29,0.45
					C70.67,33.94,70.65,33.95,70.62,33.95z M70.47,33.4l0.16,0.3l0.2-0.31l0.32-1.3l-0.12-0.4l-0.26,0.4L70.47,33.4z"/>
			</g>
			<g>
				<polygon class="st4" points="63.57,34.33 62.94,35.56 63.06,36.06 63.44,35.7 64.08,34.49 64.06,33.87 				"/>
				<path class="st6" d="M63.06,36.14c-0.01,0-0.02,0-0.02,0c-0.03-0.01-0.05-0.03-0.06-0.06l-0.12-0.5c0-0.02,0-0.04,0.01-0.06
					l0.63-1.23c0-0.01,0.01-0.02,0.02-0.02l0.49-0.46c0.02-0.02,0.06-0.03,0.09-0.02c0.03,0.01,0.05,0.04,0.05,0.07l0.02,0.62
					c0,0.01,0,0.03-0.01,0.04l-0.64,1.21c0,0.01-0.01,0.02-0.02,0.02l-0.39,0.36C63.1,36.14,63.08,36.14,63.06,36.14z M63.03,35.57
					l0.08,0.33l0.27-0.25L64,34.47l-0.01-0.41l-0.35,0.33L63.03,35.57z"/>
			</g>
			<g>
				<polygon class="st4" points="62.53,36.36 62.52,37.04 62.96,38.35 63.4,38.62 63.41,38.09 62.99,36.78 				"/>
				<path class="st6" d="M63.4,38.7c-0.01,0-0.03,0-0.04-0.01l-0.44-0.27c-0.02-0.01-0.03-0.03-0.04-0.04l-0.44-1.31
					c0-0.01,0-0.02,0-0.03l0.01-0.68c0-0.03,0.02-0.06,0.05-0.08c0.03-0.01,0.07-0.01,0.09,0.01l0.46,0.42
					c0.01,0.01,0.02,0.02,0.02,0.04l0.42,1.31c0,0.01,0,0.02,0,0.03l-0.01,0.53c0,0.03-0.02,0.06-0.04,0.07
					C63.43,38.7,63.41,38.7,63.4,38.7z M63.03,38.3l0.29,0.18l0.01-0.37l-0.41-1.27l-0.3-0.28l-0.01,0.48L63.03,38.3z"/>
			</g>
			<g>
				<polygon class="st4" points="66.38,33.54 65.87,33.19 65.96,33.87 66.58,35.1 67.05,35.3 66.99,34.77 				"/>
				<path class="st6" d="M67.05,35.38c-0.01,0-0.02,0-0.03-0.01l-0.47-0.2c-0.02-0.01-0.03-0.02-0.04-0.04l-0.62-1.23
					c0-0.01-0.01-0.02-0.01-0.03l-0.08-0.67c0-0.03,0.01-0.06,0.04-0.08c0.03-0.02,0.06-0.02,0.09,0l0.51,0.35
					c0.01,0.01,0.02,0.02,0.03,0.03l0.6,1.23c0,0.01,0.01,0.02,0.01,0.03l0.07,0.53c0,0.03-0.01,0.06-0.03,0.08
					C67.09,35.38,67.07,35.38,67.05,35.38z M66.64,35.03l0.31,0.13l-0.05-0.37l-0.59-1.2l-0.34-0.23l0.06,0.48L66.64,35.03z"/>
			</g>
			<g>
				<polygon class="st4" points="64.5,35.69 64.29,37.05 64.56,37.49 64.81,37.03 65.04,35.67 64.83,35.09 				"/>
				<path class="st6" d="M64.56,37.57c-0.03,0-0.06-0.01-0.07-0.04l-0.27-0.44c-0.01-0.02-0.01-0.04-0.01-0.06l0.21-1.36
					c0-0.01,0-0.02,0.01-0.03l0.32-0.6c0.02-0.03,0.05-0.04,0.08-0.04c0.03,0,0.06,0.02,0.07,0.05l0.21,0.58
					c0.01,0.01,0.01,0.03,0,0.04l-0.23,1.35c0,0.01,0,0.02-0.01,0.03l-0.25,0.47C64.62,37.56,64.6,37.58,64.56,37.57z M64.38,37.03
					l0.18,0.29L64.73,37l0.22-1.32l-0.14-0.39l-0.23,0.42L64.38,37.03z"/>
			</g>
			<g>
				<polygon class="st4" points="74.26,37.12 73.8,38.42 73.98,38.9 74.32,38.49 74.79,37.2 74.69,36.59 				"/>
				<path class="st6" d="M73.98,38.98c0,0-0.01,0-0.01,0c-0.03,0-0.05-0.02-0.06-0.05l-0.18-0.48c-0.01-0.02-0.01-0.04,0-0.06
					l0.46-1.3c0-0.01,0.01-0.02,0.01-0.02l0.43-0.52c0.02-0.03,0.05-0.04,0.09-0.03c0.03,0.01,0.06,0.03,0.06,0.07l0.1,0.61
					c0,0.01,0,0.03,0,0.04l-0.48,1.29c0,0.01-0.01,0.02-0.01,0.02l-0.34,0.41C74.03,38.97,74,38.98,73.98,38.98z M73.89,38.42
					l0.12,0.32l0.23-0.29l0.47-1.25l-0.07-0.41l-0.3,0.37L73.89,38.42z"/>
			</g>
			<g>
				<polygon class="st4" points="75.31,38.31 75.11,38.79 75.63,38.72 76.86,38.1 77.2,37.58 76.53,37.67 				"/>
				<path class="st6" d="M75.11,38.87c-0.03,0-0.05-0.01-0.07-0.03c-0.02-0.02-0.02-0.05-0.01-0.08l0.2-0.48
					c0.01-0.02,0.02-0.03,0.04-0.04l1.22-0.63c0.01,0,0.02-0.01,0.03-0.01l0.67-0.09c0.03-0.01,0.06,0.01,0.08,0.04
					c0.02,0.03,0.02,0.06,0,0.09l-0.34,0.52c-0.01,0.01-0.02,0.02-0.03,0.03l-1.23,0.62c-0.01,0-0.02,0.01-0.03,0.01l-0.52,0.07
					C75.12,38.87,75.11,38.87,75.11,38.87z M75.37,38.37l-0.13,0.31l0.37-0.05l1.19-0.6l0.23-0.34l-0.48,0.06L75.37,38.37z"/>
			</g>
			<g>
				<polygon class="st4" points="78.53,36.39 78.21,36.99 78.01,38.36 78.29,38.79 78.54,38.33 78.75,36.97 				"/>
				<path class="st6" d="M78.29,38.88c-0.03,0-0.06-0.01-0.07-0.04l-0.27-0.44c-0.01-0.02-0.01-0.04-0.01-0.06l0.2-1.37
					c0-0.01,0-0.02,0.01-0.03l0.32-0.6c0.01-0.03,0.05-0.04,0.08-0.04c0.03,0,0.06,0.02,0.07,0.05l0.22,0.58
					c0.01,0.01,0.01,0.03,0,0.04l-0.22,1.36c0,0.01,0,0.02-0.01,0.03l-0.25,0.47C78.35,38.86,78.32,38.88,78.29,38.88
					C78.29,38.88,78.29,38.88,78.29,38.88z M78.1,38.34l0.18,0.29l0.17-0.33l0.21-1.32l-0.15-0.39l-0.23,0.42L78.1,38.34z"/>
			</g>
			<g>
				<polygon class="st4" points="74.3,34.34 74.67,33.85 74,33.89 72.73,34.44 72.5,34.9 73.03,34.87 				"/>
				<path class="st6" d="M72.5,34.99c-0.03,0-0.05-0.01-0.07-0.04c-0.02-0.02-0.02-0.06-0.01-0.08l0.23-0.46
					c0.01-0.02,0.02-0.03,0.04-0.04l1.26-0.55c0.01,0,0.02-0.01,0.03-0.01l0.68-0.04c0.02,0,0.06,0.01,0.08,0.04
					c0.02,0.03,0.01,0.06-0.01,0.09l-0.37,0.49c-0.01,0.01-0.02,0.02-0.03,0.03l-1.27,0.53c-0.01,0-0.02,0.01-0.03,0.01L72.5,34.99
					C72.51,34.99,72.51,34.99,72.5,34.99z M72.79,34.51l-0.15,0.31l0.37-0.02l1.23-0.52l0.25-0.33l-0.48,0.03L72.79,34.51z
					 M74.3,34.34L74.3,34.34L74.3,34.34z"/>
			</g>
			<g>
				<polygon class="st4" points="70.8,36.41 70.82,36.93 71.27,36.65 72.14,35.58 72.24,34.97 71.66,35.33 				"/>
				<path class="st6" d="M70.82,37.01c-0.01,0-0.03,0-0.04-0.01c-0.03-0.01-0.04-0.04-0.04-0.07l-0.01-0.52
					c0-0.02,0.01-0.04,0.02-0.05l0.86-1.08c0.01-0.01,0.01-0.01,0.02-0.02l0.58-0.36c0.03-0.02,0.06-0.02,0.09,0
					c0.03,0.02,0.04,0.05,0.04,0.08l-0.1,0.61c0,0.01-0.01,0.03-0.02,0.04l-0.87,1.06c-0.01,0.01-0.01,0.01-0.02,0.02L70.86,37
					C70.85,37.01,70.83,37.01,70.82,37.01z M70.89,36.44l0.01,0.34l0.32-0.2l0.85-1.03l0.07-0.41l-0.41,0.25L70.89,36.44z"/>
			</g>
			<g>
				<polygon class="st4" points="76.36,36.4 76.68,35.06 76.5,34.47 76.14,35.04 75.84,36.39 76.08,36.85 				"/>
				<path class="st6" d="M76.08,36.93C76.08,36.93,76.08,36.93,76.08,36.93c-0.03,0-0.06-0.02-0.07-0.04l-0.24-0.46
					c-0.01-0.02-0.01-0.04-0.01-0.06l0.3-1.35c0-0.01,0.01-0.02,0.01-0.03l0.36-0.57c0.02-0.03,0.06-0.04,0.08-0.04
					c0.03,0,0.06,0.03,0.07,0.06l0.18,0.59c0,0.01,0,0.03,0,0.04l-0.32,1.34c0,0.01-0.01,0.02-0.01,0.03l-0.28,0.45
					C76.13,36.92,76.11,36.93,76.08,36.93z M75.93,36.38l0.16,0.3l0.2-0.31l0.31-1.3l-0.12-0.4l-0.26,0.41L75.93,36.38z M76.36,36.4
					L76.36,36.4L76.36,36.4z"/>
			</g>
			<g>
				<polygon class="st4" points="74.49,35.28 73.86,35.53 72.84,36.45 72.76,36.96 73.25,36.76 74.29,35.86 				"/>
				<path class="st6" d="M72.76,37.05c-0.02,0-0.04-0.01-0.05-0.02c-0.02-0.02-0.04-0.05-0.03-0.08l0.07-0.51
					c0-0.02,0.01-0.04,0.03-0.05l1.03-0.92c0.01-0.01,0.01-0.01,0.02-0.01l0.63-0.26c0.03-0.01,0.07-0.01,0.09,0.02
					c0.02,0.02,0.03,0.06,0.02,0.09l-0.2,0.58c0,0.01-0.01,0.03-0.02,0.04l-1.03,0.9c-0.01,0.01-0.01,0.01-0.02,0.01l-0.49,0.2
					C72.79,37.04,72.77,37.05,72.76,37.05z M72.91,36.49l-0.05,0.34l0.34-0.14l1.01-0.88l0.13-0.39l-0.44,0.18L72.91,36.49z"/>
			</g>
		</g>
	</g>
	<g>
		<path class="st5" d="M50.25,58.62c0.41,1.83-0.09,3.43-1.15,4.7c0.01,0.04,0.03,0.08,0.04,0.14c0.54,5.62,3.7,15.31-4.19,17.17
			c-0.03,0.01-0.06,0-0.09,0c-1.13,0.44-2.52,0.26-4.04,0.12c-0.98-0.1-2.25-0.31-3.2-0.02c-0.99,0.3-1.86,0.97-2.85,1.23
			c-1.5,0.39-2.91-0.3-3.68-1.66c-0.9-1.58-0.18-3.98-0.21-5.68c-0.06-3.31-0.49-6.58-0.83-9.86c-1.99,2.91-6.83-1.08-6.9-4.01
			c-0.05-2.11,1.36-3.41,3.15-4.05c2.23-1.32,4.64-1.54,7.4-1.24c2,0.22,4.14,0.56,6.13,0.16c1.34-0.27,2.69-0.62,4.05-0.72
			C46.56,54.68,49.58,55.62,50.25,58.62z M47.98,63.19c0.93-0.84,1.64-1.92,1.56-3.19c-0.13-2.19-1.68-4.18-3.98-4.3
			c-2.13-0.11-4.05,0.66-6.14,0.81c-2.32,0.17-4.55-0.2-6.86-0.34c-0.77-0.04-1.5-0.01-2.2,0.07c0.06,0,0.13,0.01,0.19,0.02
			c3.2,0.44,6.14,3.6,9.37,1.94c2.11-1.08,4.12-2.15,6.52-1.3C49.22,57.9,49.13,60.9,47.98,63.19z M46.55,79.07
			c4.4-3.28,2.07-9.85,1.71-14.89c-0.43,0.37-0.91,0.7-1.43,0.99c1.1,4.2,1.71,9.31-0.04,13.41C46.72,78.76,46.64,78.92,46.55,79.07
			z M45.52,64.38c1.16-0.96,2.16-2.39,2.02-3.98c-0.2-2.17-2.32-3.15-4.33-2.45c-2.64,0.92-4.78,2.87-7.69,1.47
			c-2.87-1.38-5.75-2.92-8.97-1.57c-4.82,2.02-0.01,8.76,3.42,5.96c0.17-0.14,0.55-0.01,0.43,0.26c-0.01,0.03-0.02,0.05-0.04,0.08
			c0.19-0.02,0.4,0.06,0.45,0.29c1.02,4.37,1.34,8.48,1.16,12.95c-0.05,1.34,0.25,4.37,2.47,3.46c0.61-0.25,1.17-0.6,1.78-0.86
			c1.36-0.57,2.7-0.59,4.16-0.45c2.6,0.25,4.82,0.85,5.6-2.33c0.97-3.99,0.55-7.91-0.29-11.87C45.35,65.18,45.12,64.7,45.52,64.38z"
			/>
		<path class="st14" d="M49.54,59.99c0.08,1.28-0.63,2.35-1.56,3.19c1.15-2.28,1.24-5.28-1.54-6.27c-2.4-0.86-4.41,0.21-6.52,1.3
			c-3.22,1.65-6.16-1.5-9.37-1.94c-0.06-0.01-0.13-0.02-0.19-0.02c0.7-0.09,1.43-0.12,2.2-0.07c2.31,0.14,4.53,0.51,6.86,0.34
			c2.09-0.15,4.01-0.92,6.14-0.81C47.86,55.82,49.41,57.8,49.54,59.99z"/>
		<path class="st14" d="M48.26,64.18c0.37,5.04,2.69,11.61-1.71,14.89c0.08-0.15,0.16-0.31,0.24-0.49
			c1.74-4.09,1.14-9.21,0.04-13.41C47.35,64.88,47.83,64.55,48.26,64.18z"/>
		<path class="st14" d="M47.54,60.4c0.14,1.59-0.86,3.03-2.02,3.98c-0.4,0.32-0.17,0.8,0.19,0.97c0.84,3.96,1.26,7.88,0.29,11.87
			c-0.78,3.18-3,2.58-5.6,2.33c-1.46-0.14-2.79-0.12-4.16,0.45c-0.61,0.26-1.17,0.61-1.78,0.86c-2.23,0.91-2.53-2.13-2.47-3.46
			c0.17-4.47-0.14-8.58-1.16-12.95c-0.05-0.22-0.26-0.31-0.45-0.29c0.01-0.03,0.03-0.05,0.04-0.08c0.11-0.27-0.26-0.4-0.43-0.26
			c-3.44,2.8-8.24-3.94-3.42-5.96c3.22-1.35,6.1,0.19,8.97,1.57c2.91,1.39,5.05-0.55,7.69-1.47C45.22,57.25,47.34,58.22,47.54,60.4z
			 M45.29,74.08c0.36-3.12-0.29-6.32-0.87-9.37c0-0.03-0.02-0.04-0.03-0.07c2.12-1.03,3.23-3.61,0.42-4.86
			c-1.78-0.79-3.39,0.28-5.03,0.89c-2.48,0.94-5.46-0.35-7.75-1.31c-1.91-0.81-5.86-2.18-6.26,1.1c-0.41,3.32,2.42,3.74,4.51,2.08
			c3.24,3.37,1.87,9.6,2.61,13.84c0.13,0.69,0.49,2.67,1.23,3.11c0.48,0.28,1.36-0.47,1.79-0.59c2.58-0.69,6.06,1.22,8.19-1.02
			C45.01,76.91,45.14,75.33,45.29,74.08z"/>
		<path class="st15" d="M43.99,60.38c1.06,0.14,1.94,0.92,1.71,2.08c-0.2,1.01-1.46,1.43-2.3,1.69c-0.5,0.15-0.29,0.93,0.22,0.79
			c0.02,0,0.04-0.01,0.07-0.02c0.48,2.75,0.87,5.48,0.82,8.27c-0.03,1.68-0.21,4.18-2.09,4.81c-2.34,0.79-5.19-0.78-7.44,0.38
			c-0.24,0.13-0.47,0.35-0.52,0.23c-0.32-0.78-0.56-1.62-0.77-2.44c-0.51-1.94-0.24-4.2-0.43-6.2c-0.27-2.71-0.27-5.94-2.61-7.74
			c0.17-0.23-0.15-0.52-0.39-0.32c-1.41,1.21-3.62,1.64-3.8-0.91c-0.15-2.11,1.9-2.06,3.27-1.73c1.62,0.4,3.08,1.29,4.67,1.77
			c2.07,0.62,4.08,0.99,6.16,0.2C41.77,60.78,42.62,60.19,43.99,60.38z"/>
		<path class="st5" d="M44.42,64.71c0.57,3.05,1.22,6.25,0.87,9.37c-0.14,1.25-0.28,2.83-1.19,3.8c-2.13,2.25-5.61,0.33-8.19,1.02
			c-0.43,0.12-1.31,0.87-1.79,0.59c-0.74-0.43-1.1-2.42-1.23-3.11c-0.74-4.23,0.63-10.47-2.61-13.84c-2.09,1.66-4.92,1.24-4.51-2.08
			c0.41-3.29,4.35-1.91,6.26-1.1c2.29,0.96,5.26,2.25,7.75,1.31c1.64-0.62,3.25-1.68,5.03-0.89c2.81,1.24,1.7,3.82-0.42,4.86
			C44.4,64.67,44.42,64.68,44.42,64.71z M45.69,62.46c0.24-1.16-0.65-1.94-1.71-2.08c-1.37-0.18-2.21,0.41-3.44,0.87
			c-2.08,0.79-4.08,0.42-6.16-0.2c-1.59-0.48-3.05-1.37-4.67-1.77c-1.37-0.33-3.42-0.38-3.27,1.73c0.18,2.55,2.39,2.13,3.8,0.91
			c0.23-0.2,0.56,0.09,0.39,0.32c2.35,1.8,2.35,5.04,2.61,7.74c0.19,2-0.08,4.26,0.43,6.2c0.22,0.81,0.45,1.66,0.77,2.44
			c0.05,0.12,0.28-0.1,0.52-0.23c2.25-1.16,5.1,0.42,7.44-0.38c1.88-0.63,2.06-3.13,2.09-4.81c0.05-2.79-0.34-5.52-0.82-8.27
			c-0.02,0-0.04,0.01-0.07,0.02c-0.51,0.14-0.72-0.64-0.22-0.79C44.23,63.89,45.49,63.48,45.69,62.46z"/>
	</g>
	<g>
		<path class="st16" d="M49.78,12.44c-20.92,0-37.93,17.03-37.93,37.95s17.02,37.95,37.93,37.95S87.71,71.32,87.71,50.4
			S70.69,12.44,49.78,12.44z M15.95,50.4c0-7.7,2.59-14.8,6.93-20.5l47.39,47.41c-5.69,4.35-12.79,6.94-20.49,6.94
			C31.12,84.25,15.95,69.06,15.95,50.4z M73.38,74.62L25.57,26.78c6.15-6.31,14.73-10.24,24.21-10.24
			c18.66,0,33.83,15.19,33.83,33.85C83.61,59.89,79.68,68.47,73.38,74.62z"/>
	</g>
</g>
</svg>
