<?xml version="1.0" encoding="utf-8"?>
<!-- Generator: Adobe Illustrator 23.1.0, SVG Export Plug-In . SVG Version: 6.00 Build 0)  -->
<svg version="1.1" id="Capa_1" xmlns="http://www.w3.org/2000/svg" xmlns:xlink="http://www.w3.org/1999/xlink" x="0px" y="0px"
	 viewBox="0 0 100 100" style="enable-background:new 0 0 100 100;" xml:space="preserve">
<style type="text/css">
	.st0{fill:#3B65F5;}
	.st1{fill:#DADADA;}
	.st2{fill:#E8B62B;}
	.st3{fill:#5C5F68;}
	.st4{fill:#F3D991;}
	.st5{fill:#C4C4C4;}
	.st6{fill:#EBEBEB;}
	.st7{fill:#DE9052;}
	.st8{fill:#95F089;}
</style>
<g>
	<g>
		<g>
			<path class="st0" d="M47.61,99c-0.01,0-0.03,0-0.04,0c-1.5-0.07-3.01-0.22-4.49-0.43c-0.48-0.07-0.82-0.52-0.75-1
				s0.52-0.82,1-0.75c1.43,0.2,2.88,0.34,4.33,0.41c0.49,0.02,0.86,0.44,0.84,0.93C48.47,98.63,48.08,99,47.61,99z M52.92,98.97
				c-0.46,0-0.85-0.36-0.88-0.83c-0.03-0.49,0.34-0.9,0.83-0.93c1.44-0.09,2.9-0.24,4.32-0.46c0.48-0.07,0.93,0.26,1.01,0.74
				c0.07,0.48-0.26,0.93-0.74,1.01c-1.48,0.23-2.99,0.39-4.48,0.48C52.96,98.97,52.94,98.97,52.92,98.97z M37.99,97.55
				c-0.07,0-0.15-0.01-0.22-0.03c-1.45-0.37-2.9-0.82-4.31-1.33c-0.46-0.16-0.7-0.67-0.53-1.13c0.16-0.46,0.67-0.7,1.13-0.53
				c1.36,0.49,2.76,0.92,4.16,1.28c0.47,0.12,0.76,0.6,0.64,1.08C38.74,97.28,38.38,97.55,37.99,97.55z M62.53,97.41
				c-0.39,0-0.75-0.26-0.85-0.65c-0.13-0.47,0.15-0.96,0.62-1.08c1.4-0.38,2.79-0.82,4.14-1.32c0.46-0.17,0.97,0.06,1.14,0.52
				c0.17,0.46-0.06,0.97-0.52,1.14c-1.4,0.52-2.85,0.98-4.3,1.37C62.68,97.4,62.61,97.41,62.53,97.41z M28.86,94.17
				c-0.13,0-0.26-0.03-0.39-0.09c-1.34-0.66-2.67-1.39-3.96-2.17c-0.42-0.25-0.55-0.8-0.29-1.21c0.25-0.42,0.8-0.55,1.21-0.29
				c1.24,0.75,2.52,1.46,3.81,2.09c0.44,0.21,0.62,0.74,0.4,1.18C29.5,93.99,29.19,94.17,28.86,94.17z M71.62,93.94
				c-0.32,0-0.63-0.18-0.79-0.49c-0.22-0.44-0.04-0.97,0.39-1.19c1.29-0.65,2.57-1.37,3.79-2.13c0.42-0.26,0.96-0.13,1.22,0.28
				c0.26,0.41,0.13,0.96-0.28,1.22c-1.27,0.79-2.59,1.54-3.93,2.21C71.89,93.9,71.75,93.94,71.62,93.94z M20.6,89.03
				c-0.19,0-0.38-0.06-0.54-0.18c-1.18-0.92-2.34-1.9-3.44-2.92c-0.36-0.33-0.38-0.89-0.05-1.25c0.33-0.36,0.89-0.38,1.25-0.05
				c1.06,0.99,2.18,1.93,3.32,2.82c0.39,0.3,0.46,0.85,0.16,1.24C21.12,88.91,20.86,89.03,20.6,89.03z M79.82,88.7
				c-0.26,0-0.52-0.11-0.69-0.34c-0.3-0.38-0.24-0.94,0.14-1.24c1.13-0.9,2.24-1.86,3.28-2.85c0.35-0.33,0.91-0.32,1.25,0.03
				c0.34,0.35,0.32,0.91-0.03,1.25c-1.08,1.03-2.23,2.03-3.41,2.96C80.21,88.64,80.01,88.7,79.82,88.7z M13.54,82.33
				c-0.25,0-0.49-0.1-0.67-0.31c-0.98-1.14-1.92-2.33-2.79-3.55c-0.28-0.4-0.19-0.95,0.21-1.23c0.4-0.28,0.95-0.19,1.23,0.21
				c0.84,1.17,1.74,2.33,2.68,3.42c0.32,0.37,0.28,0.93-0.09,1.25C13.94,82.26,13.74,82.33,13.54,82.33z M86.81,81.92
				c-0.2,0-0.4-0.07-0.57-0.21c-0.37-0.31-0.42-0.87-0.11-1.24c0.93-1.11,1.82-2.27,2.65-3.45c0.28-0.4,0.83-0.5,1.23-0.22
				c0.4,0.28,0.5,0.83,0.22,1.23c-0.86,1.23-1.78,2.43-2.75,3.58C87.31,81.81,87.06,81.92,86.81,81.92z M7.96,74.35
				c-0.31,0-0.61-0.16-0.77-0.45c-0.73-1.31-1.41-2.67-2.01-4.04c-0.2-0.45,0-0.97,0.45-1.17c0.45-0.2,0.97,0,1.16,0.45
				c0.59,1.32,1.24,2.63,1.94,3.89c0.24,0.43,0.09,0.96-0.34,1.2C8.25,74.31,8.1,74.35,7.96,74.35z M92.3,73.88
				c-0.14,0-0.29-0.03-0.42-0.11c-0.43-0.23-0.59-0.77-0.35-1.2c0.69-1.27,1.33-2.59,1.9-3.91c0.19-0.45,0.71-0.66,1.16-0.46
				c0.45,0.19,0.66,0.71,0.46,1.16c-0.59,1.38-1.25,2.74-1.97,4.06C92.92,73.71,92.61,73.88,92.3,73.88z M4.1,65.41
				c-0.38,0-0.72-0.24-0.84-0.62c-0.45-1.43-0.84-2.9-1.16-4.36c-0.1-0.48,0.2-0.95,0.68-1.05c0.48-0.11,0.95,0.2,1.05,0.68
				c0.3,1.41,0.68,2.83,1.11,4.2c0.15,0.46-0.11,0.96-0.58,1.11C4.28,65.4,4.19,65.41,4.1,65.41z M96.06,64.89
				c-0.08,0-0.17-0.01-0.26-0.04c-0.47-0.14-0.73-0.63-0.59-1.1c0.42-1.38,0.78-2.8,1.07-4.22c0.1-0.48,0.57-0.79,1.04-0.69
				c0.48,0.1,0.79,0.56,0.69,1.04c-0.3,1.47-0.67,2.94-1.11,4.38C96.79,64.65,96.44,64.89,96.06,64.89z M2.13,55.88
				c-0.45,0-0.83-0.34-0.88-0.79c-0.15-1.48-0.24-3-0.25-4.5c-0.01-0.49,0.39-0.89,0.87-0.89c0,0,0.01,0,0.01,0
				c0.48,0,0.88,0.39,0.88,0.87c0.02,1.45,0.1,2.91,0.25,4.34c0.05,0.48-0.3,0.92-0.79,0.97C2.19,55.88,2.16,55.88,2.13,55.88z
				 M97.92,55.34c-0.03,0-0.05,0-0.08,0c-0.49-0.04-0.84-0.47-0.8-0.96c0.13-1.44,0.2-2.9,0.2-4.35l0-0.2
				c0-0.49,0.39-0.88,0.88-0.88S99,49.34,99,49.83l0,0.19c0,1.51-0.07,3.03-0.2,4.52C98.75,54.99,98.37,55.34,97.92,55.34z
				 M2.11,46.14c-0.03,0-0.06,0-0.09,0c-0.49-0.05-0.84-0.48-0.79-0.97c0.15-1.5,0.36-3,0.65-4.47c0.09-0.48,0.55-0.79,1.03-0.7
				c0.48,0.09,0.79,0.55,0.7,1.03c-0.27,1.41-0.48,2.86-0.62,4.3C2.95,45.8,2.56,46.14,2.11,46.14z M97.81,45.41
				c-0.44,0-0.83-0.33-0.88-0.78c-0.16-1.44-0.4-2.88-0.69-4.29c-0.1-0.48,0.21-0.95,0.68-1.04c0.47-0.1,0.94,0.21,1.04,0.68
				c0.31,1.46,0.55,2.96,0.72,4.45c0.06,0.48-0.29,0.92-0.78,0.98C97.87,45.4,97.84,45.41,97.81,45.41z M4.04,36.6
				c-0.09,0-0.18-0.01-0.26-0.04c-0.47-0.14-0.73-0.64-0.58-1.11c0.45-1.43,0.96-2.86,1.54-4.24c0.19-0.45,0.7-0.66,1.15-0.48
				c0.45,0.19,0.66,0.7,0.48,1.16c-0.55,1.33-1.05,2.71-1.48,4.09C4.77,36.36,4.42,36.6,4.04,36.6z M95.73,35.9
				c-0.37,0-0.72-0.24-0.84-0.61c-0.45-1.37-0.97-2.74-1.54-4.07c-0.19-0.45,0.01-0.97,0.46-1.16c0.45-0.19,0.97,0.01,1.16,0.46
				c0.6,1.38,1.14,2.8,1.6,4.22c0.15,0.46-0.1,0.96-0.56,1.11C95.91,35.88,95.82,35.9,95.73,35.9z M7.86,27.64
				c-0.14,0-0.29-0.04-0.43-0.11c-0.43-0.24-0.58-0.77-0.35-1.2c0.72-1.31,1.52-2.6,2.36-3.85c0.27-0.4,0.82-0.51,1.23-0.23
				c0.4,0.27,0.51,0.82,0.23,1.23c-0.81,1.2-1.58,2.44-2.28,3.71C8.48,27.48,8.17,27.64,7.86,27.64z M91.77,27
				c-0.31,0-0.6-0.16-0.77-0.44c-0.72-1.25-1.5-2.49-2.33-3.67c-0.28-0.4-0.18-0.95,0.21-1.23c0.4-0.28,0.95-0.18,1.23,0.21
				c0.86,1.23,1.68,2.51,2.42,3.81c0.24,0.42,0.1,0.96-0.33,1.21C92.07,26.97,91.92,27,91.77,27z M13.41,19.64
				c-0.2,0-0.41-0.07-0.57-0.21c-0.37-0.32-0.41-0.87-0.1-1.24c0.98-1.14,2.01-2.25,3.09-3.29c0.35-0.34,0.91-0.33,1.25,0.02
				c0.34,0.35,0.33,0.91-0.02,1.25c-1.03,1-2.03,2.07-2.97,3.17C13.91,19.54,13.66,19.64,13.41,19.64z M86.11,19.09
				c-0.24,0-0.49-0.1-0.66-0.3c-0.96-1.09-1.98-2.14-3.02-3.13c-0.35-0.33-0.37-0.89-0.04-1.25c0.34-0.35,0.89-0.37,1.25-0.04
				c1.08,1.02,2.14,2.12,3.14,3.24c0.32,0.37,0.29,0.92-0.08,1.25C86.52,19.02,86.32,19.09,86.11,19.09z M20.45,12.91
				c-0.26,0-0.52-0.12-0.7-0.34c-0.3-0.38-0.23-0.94,0.15-1.24c1.18-0.92,2.42-1.8,3.68-2.61C24,8.46,24.54,8.58,24.8,8.99
				c0.26,0.41,0.14,0.96-0.27,1.22c-1.22,0.78-2.41,1.63-3.55,2.51C20.83,12.85,20.64,12.91,20.45,12.91z M78.97,12.47
				c-0.19,0-0.37-0.06-0.53-0.18c-1.16-0.87-2.36-1.7-3.59-2.46c-0.41-0.26-0.54-0.8-0.29-1.22c0.26-0.41,0.8-0.55,1.22-0.29
				c1.27,0.79,2.52,1.65,3.72,2.55c0.39,0.29,0.47,0.85,0.17,1.24C79.5,12.35,79.24,12.47,78.97,12.47z M28.69,7.74
				c-0.33,0-0.64-0.18-0.79-0.49c-0.22-0.44-0.04-0.97,0.4-1.18c1.34-0.67,2.73-1.28,4.13-1.81c0.46-0.17,0.97,0.05,1.14,0.51
				c0.17,0.45-0.05,0.97-0.51,1.14C31.71,6.41,30.37,7,29.08,7.64C28.95,7.71,28.82,7.74,28.69,7.74z M70.65,7.41
				c-0.13,0-0.26-0.03-0.38-0.09c-1.3-0.62-2.65-1.19-4.01-1.69c-0.46-0.17-0.69-0.67-0.53-1.13s0.67-0.7,1.13-0.53
				c1.41,0.52,2.81,1.1,4.16,1.75c0.44,0.21,0.63,0.74,0.42,1.18C71.3,7.23,70.98,7.41,70.65,7.41z M37.8,4.33
				c-0.39,0-0.75-0.26-0.85-0.66c-0.12-0.47,0.16-0.96,0.63-1.08c1.45-0.38,2.93-0.69,4.41-0.94C42.47,1.56,42.92,1.9,43,2.38
				c0.08,0.48-0.25,0.94-0.73,1.01c-1.42,0.23-2.86,0.54-4.25,0.9C37.95,4.32,37.87,4.33,37.8,4.33z M61.48,4.15
				c-0.07,0-0.14-0.01-0.21-0.03c-1.4-0.34-2.84-0.63-4.27-0.84c-0.48-0.07-0.81-0.52-0.74-1c0.07-0.48,0.52-0.81,1-0.74
				c1.48,0.22,2.97,0.51,4.43,0.87c0.47,0.12,0.76,0.59,0.65,1.07C62.24,3.88,61.88,4.15,61.48,4.15z M47.41,2.83
				c-0.47,0-0.86-0.36-0.88-0.84c-0.03-0.49,0.35-0.9,0.83-0.93C48.25,1.02,49.13,1.01,50,1c0.63,0,1.25,0.01,1.88,0.04
				c0.49,0.02,0.87,0.43,0.85,0.92c-0.02,0.49-0.41,0.89-0.92,0.85c-0.62-0.02-1.24-0.04-1.86-0.03c-0.82,0-1.66,0.02-2.49,0.07
				C47.45,2.83,47.43,2.83,47.41,2.83z"/>
		</g>
		<ellipse class="st1" cx="50" cy="50.03" rx="35.76" ry="35.78"/>
	</g>
	<g>
		<path class="st2" d="M65.22,31.62c0.12,0.46,0.31,0.9,0.52,1.23c0,0,0,0,0,0.01c-1.65,0.55-3.42,0.85-5.16,0.91
			c-0.05,0,0.35,2.88-0.88,3.77c-3.71,2.7-11.51-6.41-11.54-6.45c-2.77-3.24-3-3.88-2.33-5.57c0.21-0.1,4.95-0.28,4.96-0.51
			c0-0.02,0-0.03,0-0.06C54.39,28.87,59.85,31.84,65.22,31.62z"/>
		<path class="st3" d="M60.1,18.13c3.9,1.37,6.29,4.5,6.93,8.53c0.21,1.29-0.16,1.96-0.79,2.23c0.08,0.03,0.16,0.04,0.25,0.02
			c0.26-0.04,0.59,0.03,0.71,0.3c0.53,1.1,0.76,2.59,0.57,3.79c-0.03,0.19-0.21,0.33-0.39,0.38c-2.19,0.75-4.29,0.99-6.58,0.95
			c0.76,1.47,0.21,3.15-1.69,3.78c-4.99,1.68-11.88-5.87-13.67-9.88c-0.29-0.64,0.63-1.21,0.96-0.57c1.03,2.03,2.83,3.87,4.48,5.41
			c1.69,1.57,4.95,4.79,7.58,4.02c4.63-1.35-2.71-5.73-4.11-6.76c-1.83-1.34-3.62-2.68-4.61-4.74c-0.92-0.03-1.85-0.03-2.77-0.08
			c-0.33,0.06-0.66,0.13-0.99,0.21c0.28,0.11,0.45,0.48,0.2,0.79c-2.76,3.48-1.33,5.7,0.58,9.05c0.91,1.6,1.8,3.43,1.54,5.33
			c-0.62,4.51-5.5,2.19-7.46-0.05c-4.74-5.44-2.78-13.38,2.92-15.69c-3.21-2.29-6.21-5.2-7.92-8.76c-0.93-1.93-1.25-7.03,2.07-7.17
			c3.35-0.14,5.8,5.57,7.6,7.65c0.25,0.29,0.53,0.61,0.81,0.93c-1.19-5.06,7.23-4.58,8.85-0.71c0.04,0.09,0.03,0.18-0.01,0.25
			C56.81,17.27,58.54,17.58,60.1,18.13z M65.34,27.92c1.49,0.2-0.99-5.31-1.42-5.78c-1.04-1.13-2.27-2.06-3.69-2.67
			c-3.37-1.44-7.43-1.69-10.29,0.9c0.18,0.46,0.34,0.97,0.48,1.49c0.1-0.12,0.25-0.2,0.46-0.2c2.97,0.1,5.31,1.02,7.77,2.62
			C60.45,25.46,63.14,27.62,65.34,27.92z M65.22,29.83c-0.27-0.27-0.54-0.63-0.99-0.97c-0.02-0.01-0.03-0.03-0.04-0.05
			c-0.36-0.12-0.72-0.28-1.06-0.46c-4.02-2.14-7.51-5.3-12.25-5.44c-0.1,0-0.18-0.03-0.25-0.05c0.06,0.36,0.12,0.71,0.14,1.05
			c0.02,0.01,0.05,0.02,0.07,0.03c4.39,3.25,8.68,6.52,14.26,6.84C65.08,30.43,65.12,30.12,65.22,29.83z M65.73,32.85
			c-0.21-0.34-0.4-0.77-0.52-1.23c-5.37,0.22-10.83-2.75-14.43-6.68c0,0.02,0.01,0.04,0,0.06c-0.01,0.23-0.15,0.46-0.36,0.56
			c2.63,3.4,7.16,4.87,9.93,8.1c0.03,0.04,0.07,0.08,0.1,0.13c0.04-0.02,0.07-0.03,0.12-0.03C62.31,33.71,64.09,33.41,65.73,32.85
			C65.73,32.85,65.73,32.85,65.73,32.85z M54.46,17.43c-1.28-1.4-2.68-2.56-4.72-2.57c-2.11-0.01-3.3,1.24-2.83,3.39
			c0.01,0.07,0,0.12-0.03,0.17c0.62,0.61,1.31,1.12,2.09,1.31c0.23,0.06,0.44,0.1,0.61,0.19C50.89,18.42,52.62,17.67,54.46,17.43z
			 M49.36,23.15c-0.38-1.98-0.35-1.85-1.78-2.83c-2.65-1.8-4.3-4.64-6.14-7.2c-0.98-1.35-3.4-4.76-4.85-1.66
			c-0.98,2.1,0.05,4.3,1.29,6.06c1.86,2.65,4.24,5,6.76,7.03c0.09-0.12,0.21-0.21,0.38-0.23c1.16-0.13,2.33-0.05,3.51-0.01
			C49.93,24.36,49.69,24.85,49.36,23.15z M45.42,25.9c-2.59,0.81-4.85,2.58-5.67,5.32c-0.62,2.08-0.64,4.4,0.44,6.35
			c0.98,1.8,2.84,4.31,5.03,4.68c4.84,0.82-0.83-8.07-1.4-9.48C42.74,30.14,43.35,27.81,45.42,25.9z"/>
		<path class="st2" d="M63.92,22.14c0.43,0.47,2.91,5.98,1.42,5.78c-2.2-0.3-4.89-2.46-6.69-3.63c-2.47-1.61-4.8-2.53-7.77-2.62
			c-0.21-0.01-0.36,0.07-0.46,0.2c-0.14-0.52-0.3-1.03-0.48-1.49c2.86-2.59,6.92-2.34,10.29-0.9
			C61.65,20.08,62.87,21.01,63.92,22.14z"/>
		<path class="st2" d="M64.23,28.85c0.46,0.34,0.72,0.7,0.99,0.97c-0.11,0.29-0.15,0.61-0.14,0.95c-5.58-0.32-9.87-3.59-14.26-6.84
			c-0.02-0.01-0.05-0.02-0.07-0.03c-0.02-0.35-0.08-0.7-0.14-1.05c0.07,0.03,0.16,0.06,0.25,0.05c4.74,0.14,8.23,3.3,12.25,5.44
			c0.34,0.18,0.7,0.34,1.06,0.46C64.2,28.82,64.21,28.84,64.23,28.85z"/>
		<path class="st2" d="M49.74,14.86c2.04,0.01,3.43,1.17,4.72,2.57c-1.84,0.24-3.57,0.99-4.88,2.49c-0.17-0.09-0.38-0.13-0.61-0.19
			c-0.77-0.19-1.47-0.7-2.09-1.31c0.03-0.05,0.04-0.1,0.03-0.17C46.44,16.1,47.63,14.85,49.74,14.86z"/>
		<path class="st4" d="M47.57,20.32c1.43,0.98,1.4,0.85,1.78,2.83c0.33,1.7,0.57,1.22-0.84,1.17c-1.17-0.03-2.34-0.12-3.51,0.01
			c-0.17,0.02-0.29,0.11-0.38,0.23c-2.52-2.04-4.9-4.39-6.76-7.03c-1.24-1.76-2.27-3.96-1.29-6.06c1.44-3.09,3.87,0.31,4.85,1.66
			C43.27,15.68,44.93,18.52,47.57,20.32z"/>
		<path class="st2" d="M39.75,31.22c0.82-2.75,3.08-4.51,5.67-5.32c-2.07,1.92-2.68,4.24-1.6,6.87c0.58,1.42,6.24,10.3,1.4,9.48
			c-2.2-0.37-4.05-2.88-5.03-4.68C39.11,35.62,39.13,33.3,39.75,31.22z"/>
	</g>
	<g>
		<path class="st3" d="M88,62.52c0.51,0.13,0.73,0.67,0.62,1.15c-0.79,3.36-3.66,5.3-6.85,6.06c0.8,3.42-0.02,6.82-2.98,9.07
			c-0.45,0.34-0.9,0.33-1.33-0.02c-2.58-2.17-3.48-5.34-2.88-8.55c-8.6,1.06-16.15,2.55-23.61-3.12c-5.7-4.34-9.57-12.13-5.19-18.66
			c3.88-5.79,12.54-4.24,17.93-2.03c7.75,3.17,11.37,9.94,15.04,16.97C81.75,61.88,84.74,61.71,88,62.52z M86.53,64.08
			c-2.48-0.47-4.74-0.24-7.08,0.98c-0.42,0.22-0.82,0.09-1.07-0.18c-0.37,0.14-0.82,0.07-1.06-0.39
			c-3.23-6.18-6.27-12.57-12.85-15.85c-1.32-0.65-2.91-1.32-4.62-1.82c2.18,7.17-3.74,14.35-10.6,15.92
			c-0.07,0.02-0.13,0.01-0.19,0.01c1.69,1.92,3.78,3.53,5.86,4.57c6.61,3.35,12.91,1.13,19.86,1.6c0.13,0.01,0.24,0.07,0.33,0.14
			c0.22-0.01,0.46,0.14,0.46,0.42c0.04,2.76,0.67,5.39,2.58,7.36c2.13-2.04,2.44-4.75,1.51-7.63c-0.15-0.46,0.21-1.07,0.69-1.15
			C82.96,67.67,85.48,66.52,86.53,64.08z M58.13,46.8c-0.03-0.15-0.02-0.29,0.02-0.41c-3.93-0.85-8.11-0.66-10.61,2.38
			c-3.61,4.4-2.14,9.5,1.07,13.45c0.01-0.22,0.12-0.44,0.39-0.53C55.19,59.66,59.38,53.29,58.13,46.8z"/>
		<path class="st5" d="M79.45,65.06c2.34-1.22,4.6-1.45,7.08-0.98c-1.05,2.44-3.56,3.59-6.17,3.98c-0.49,0.08-0.84,0.69-0.69,1.15
			c0.93,2.88,0.62,5.59-1.51,7.63c-1.91-1.97-2.54-4.6-2.58-7.36c-0.01-0.27-0.24-0.42-0.46-0.42c-0.09-0.07-0.2-0.13-0.33-0.14
			c-6.95-0.47-13.25,1.74-19.86-1.6c-2.08-1.05-4.16-2.65-5.86-4.57c0.06,0,0.12,0.01,0.19-0.01c6.86-1.57,12.79-8.75,10.6-15.92
			c1.71,0.5,3.31,1.17,4.62,1.82c6.57,3.27,9.62,9.67,12.85,15.85c0.23,0.46,0.68,0.54,1.06,0.39
			C78.63,65.14,79.02,65.27,79.45,65.06z"/>
		<path class="st6" d="M58.15,46.38c-0.04,0.12-0.05,0.26-0.02,0.41c1.25,6.5-2.94,12.87-9.14,14.89c-0.27,0.09-0.38,0.3-0.39,0.53
			c-3.21-3.95-4.69-9.05-1.07-13.45C50.04,45.72,54.22,45.53,58.15,46.38z M53.54,49.74c-0.03-0.32-0.2-0.63-0.5-0.79
			c-0.28-0.2-0.58-0.36-0.88-0.53c-0.23-0.13-0.5-0.17-0.74-0.13c-0.01-0.01-0.01-0.01-0.02-0.01c-0.92-0.46-1.66,0.76-0.83,1.37
			l0.01,0.01c0.08,0.24,0.24,0.46,0.47,0.6c0.28,0.19,0.57,0.37,0.86,0.53c0.28,0.2,0.64,0.2,0.94,0.08
			c0.22-0.08,0.41-0.22,0.55-0.44C53.53,50.21,53.57,49.98,53.54,49.74z"/>
		<path class="st3" d="M53.04,48.95c0.3,0.16,0.47,0.47,0.5,0.79c0.03,0.23-0.01,0.47-0.14,0.69c-0.13,0.22-0.33,0.37-0.55,0.44
			c-0.3,0.12-0.66,0.12-0.94-0.08c-0.3-0.16-0.58-0.34-0.86-0.53c-0.23-0.15-0.38-0.37-0.47-0.6l-0.01-0.01
			c-0.84-0.61-0.09-1.84,0.83-1.37c0.01,0.01,0.01,0.01,0.02,0.01c0.25-0.05,0.51,0,0.74,0.13C52.46,48.59,52.75,48.76,53.04,48.95z
			"/>
	</g>
</g>
<g>
	<path class="st3" d="M46.08,69.47c1.17,3.18,6.77,18.26,0.2,19.48c-3.6,0.67-7.7-3.87-9.87-6.08c-4.12-4.21-7.93-8.78-11.35-13.58
		c-2.56-3.6-5.11-7.6-4.76-12.23c0.15-2.03,0.81-3.73,1.86-4.99c-2.27,0.27-5.83,0.23-6.36-2.21c-0.39-1.8,1.45-2.38,3.07-2.59
		c-2.4-1.19-5.22-2.56-6.08-5.1c-0.59-1.71-0.31-5.16,1.91-5.75c4.08-1.08,7.29,4.57,9.73,7.48c1.14-2.4,3.41-4.84,5.95-2.49
		c2.31,2.14,1.25,5.53-0.36,7.84C38.4,50.06,43.66,62.89,46.08,69.47z M46.73,86.87c1.59-2.25,0.65-6.26,0.12-8.71
		c-0.87-3.99-2.18-7.9-3.85-11.63c-2.3-5.14-6.73-14.99-13.36-15.79c-0.07,0.09-0.18,0.16-0.34,0.17c-3.25,0.16-6.48,1.28-7.02,4.95
		c-0.37,2.46-0.04,5.03,1.03,7.29c0.39,0.82,0.83,1.61,1.3,2.39c0.26-1.43,0.67-2.77,1.49-4.05c0.33-0.51,1.1,0.11,0.73,0.61
		c-0.94,1.31-1.36,2.78-1.67,4.32c0.59,0.92,1.22,1.82,1.87,2.69c1.1-3.28,3.12-6.1,5.72-8.41c0.38-0.34,0.83,0.31,0.45,0.64
		c-2.54,2.29-4.56,5.06-5.83,8.24c0.58,0.78,1.18,1.56,1.77,2.33c0.01,0.01,0.03,0.04,0.04,0.05c0.67-1.86,1.97-3.37,3.81-4.37
		c0.43-0.24,0.9,0.36,0.46,0.63c-1.73,1.13-3.05,2.55-3.71,4.44c1.13,1.45,3.48,4.36,6.09,7.22c0.44-2.24,1.92-4.31,4.22-4.87
		c0.55-0.13,0.85,0.58,0.32,0.84c-1.81,0.84-3.21,2.54-3.66,4.49c-0.03,0.13-0.11,0.22-0.2,0.29
		C40.65,85.04,45.22,89.01,46.73,86.87z M27.74,49.23c1.47-1.5,3.82-4.52,2.07-6.69c-2.03-2.53-3.98,1.12-4.59,2.81
		c-0.13,0.37-0.72,0.51-1,0.23c-2.13-2.18-3.66-4.9-6.13-6.77c-0.64-0.48-1.99-1.57-2.9-1.1c-1.75,0.9-1.67,3.73-0.56,5.01
		c1.62,1.9,3.93,3.38,6.14,4.47c0.4,0.2,0.33,0.85-0.15,0.9c-0.87,0.02-1.72,0.17-2.55,0.43c-0.57,1.14-0.28,1.74,0.86,1.78
		c1.4,0.36,2.74,0.4,4.17,0.26c0.25-0.02,0.43,0.06,0.56,0.2c1.07-0.68,2.36-1.04,3.83-1.04C27.52,49.55,27.6,49.39,27.74,49.23z"/>
	<path class="st7" d="M46.85,78.16c0.53,2.45,1.48,6.46-0.12,8.71c-1.51,2.14-6.08-1.83-10.2-6.24c0.09-0.07,0.17-0.16,0.2-0.29
		c0.45-1.95,1.85-3.65,3.66-4.49c0.53-0.25,0.23-0.97-0.32-0.84c-2.3,0.57-3.78,2.63-4.22,4.87c-2.62-2.86-4.96-5.77-6.09-7.22
		c0.66-1.88,1.99-3.31,3.71-4.44c0.44-0.28-0.02-0.87-0.46-0.63c-1.84,1-3.13,2.5-3.81,4.37c-0.01-0.01-0.03-0.04-0.04-0.05
		c-0.6-0.77-1.19-1.54-1.77-2.33c1.27-3.18,3.29-5.95,5.83-8.24c0.38-0.34-0.08-0.98-0.45-0.64c-2.6,2.31-4.62,5.12-5.72,8.41
		c-0.65-0.87-1.27-1.77-1.87-2.69c0.32-1.54,0.73-3.01,1.67-4.32c0.37-0.51-0.41-1.13-0.73-0.61c-0.82,1.27-1.23,2.62-1.49,4.05
		c-0.47-0.78-0.91-1.57-1.3-2.39c-1.07-2.26-1.4-4.83-1.03-7.29c0.54-3.67,3.77-4.79,7.02-4.95c0.15-0.01,0.26-0.08,0.34-0.17
		C36.27,51.54,40.7,61.39,43,66.53C44.67,70.26,45.98,74.17,46.85,78.16z M40.06,70.03c0.74-0.34,0.27-1.53-0.46-1.18
		c-3.04,1.5-5.85,3.82-6.78,7.21c-0.14,0.5,0.67,0.72,0.86,0.26C34.91,73.36,37.18,71.35,40.06,70.03z"/>
	<path class="st3" d="M39.61,68.84c0.73-0.35,1.2,0.84,0.46,1.18c-2.88,1.32-5.15,3.33-6.38,6.29c-0.19,0.46-0.99,0.24-0.86-0.26
		C33.76,72.67,36.57,70.34,39.61,68.84z"/>
	<path class="st8" d="M29.82,42.54c1.74,2.18-0.6,5.19-2.07,6.69c-0.15,0.15-0.22,0.32-0.24,0.48c-1.47,0-2.76,0.37-3.83,1.04
		c-0.12-0.14-0.3-0.23-0.56-0.2c-1.44,0.14-2.78,0.1-4.17-0.26c-1.14-0.04-1.43-0.64-0.86-1.78c0.84-0.26,1.68-0.41,2.55-0.43
		c0.48-0.04,0.55-0.7,0.15-0.9c-2.22-1.09-4.53-2.57-6.14-4.47c-1.11-1.29-1.18-4.12,0.56-5.01c0.91-0.47,2.25,0.62,2.9,1.1
		c2.48,1.88,4,4.59,6.13,6.77c0.28,0.29,0.87,0.14,1-0.23C25.84,43.65,27.78,40.01,29.82,42.54z"/>
</g>
</svg>
