<?xml version="1.0" encoding="utf-8"?>
<!-- Generator: Adobe Illustrator 23.1.0, SVG Export Plug-In . SVG Version: 6.00 Build 0)  -->
<svg version="1.1" id="Capa_1" xmlns="http://www.w3.org/2000/svg" xmlns:xlink="http://www.w3.org/1999/xlink" x="0px" y="0px"
	 viewBox="0 0 100 100" style="enable-background:new 0 0 100 100;" xml:space="preserve">
<style type="text/css">
	.st0{fill:#4B65EE;}
	.st1{fill:#DADADA;}
	.st2{fill:#F5F5F5;}
	.st3{fill:#F3D991;}
	.st4{fill:#5D5F67;}
	.st5{fill:#5E3E1B;}
	.st6{fill:#956B41;}
	.st7{fill:#EDCAE2;}
	.st8{fill:#222221;}
	.st9{fill:#C83373;}
</style>
<g>
	<g>
		<g>
			<path class="st0" d="M47.61,99c-0.01,0-0.03,0-0.04,0c-1.5-0.07-3.01-0.22-4.49-0.43c-0.48-0.07-0.82-0.52-0.75-1
				s0.52-0.82,1-0.75c1.43,0.2,2.88,0.34,4.33,0.41c0.49,0.02,0.86,0.44,0.84,0.93C48.47,98.63,48.08,99,47.61,99z M52.92,98.97
				c-0.46,0-0.85-0.36-0.88-0.83c-0.03-0.49,0.34-0.9,0.83-0.93c1.44-0.09,2.9-0.24,4.32-0.46c0.48-0.07,0.93,0.26,1.01,0.74
				c0.07,0.48-0.26,0.93-0.74,1.01c-1.48,0.23-2.99,0.39-4.48,0.48C52.96,98.97,52.94,98.97,52.92,98.97z M37.99,97.55
				c-0.07,0-0.15-0.01-0.22-0.03c-1.45-0.37-2.9-0.82-4.31-1.33c-0.46-0.16-0.7-0.67-0.53-1.13c0.16-0.46,0.67-0.7,1.13-0.53
				c1.36,0.49,2.76,0.92,4.16,1.28c0.47,0.12,0.76,0.6,0.64,1.08C38.74,97.28,38.38,97.55,37.99,97.55z M62.53,97.41
				c-0.39,0-0.75-0.26-0.85-0.65c-0.13-0.47,0.15-0.96,0.62-1.08c1.4-0.38,2.79-0.82,4.14-1.32c0.46-0.17,0.97,0.06,1.14,0.52
				c0.17,0.46-0.06,0.97-0.52,1.14c-1.4,0.52-2.85,0.98-4.3,1.37C62.68,97.4,62.61,97.41,62.53,97.41z M28.86,94.17
				c-0.13,0-0.26-0.03-0.39-0.09c-1.34-0.66-2.67-1.39-3.96-2.17c-0.42-0.25-0.55-0.8-0.29-1.21c0.25-0.42,0.8-0.55,1.21-0.29
				c1.24,0.75,2.52,1.46,3.81,2.09c0.44,0.21,0.62,0.74,0.4,1.18C29.5,93.99,29.19,94.17,28.86,94.17z M71.62,93.94
				c-0.32,0-0.63-0.18-0.79-0.49c-0.22-0.44-0.04-0.97,0.39-1.19c1.29-0.65,2.57-1.37,3.79-2.13c0.42-0.26,0.96-0.13,1.22,0.28
				c0.26,0.41,0.13,0.96-0.28,1.22c-1.27,0.79-2.59,1.54-3.93,2.21C71.89,93.9,71.75,93.94,71.62,93.94z M20.6,89.03
				c-0.19,0-0.38-0.06-0.54-0.18c-1.18-0.92-2.34-1.9-3.44-2.92c-0.36-0.33-0.38-0.89-0.05-1.25c0.33-0.36,0.89-0.38,1.25-0.05
				c1.06,0.99,2.18,1.93,3.32,2.82c0.39,0.3,0.46,0.85,0.16,1.24C21.12,88.91,20.86,89.03,20.6,89.03z M79.82,88.7
				c-0.26,0-0.52-0.11-0.69-0.34c-0.3-0.38-0.24-0.94,0.14-1.24c1.13-0.9,2.24-1.86,3.28-2.85c0.35-0.33,0.91-0.32,1.25,0.03
				c0.34,0.35,0.32,0.91-0.03,1.25c-1.08,1.03-2.23,2.03-3.41,2.96C80.21,88.64,80.01,88.7,79.82,88.7z M13.54,82.33
				c-0.25,0-0.49-0.1-0.67-0.31c-0.98-1.14-1.92-2.33-2.79-3.55c-0.28-0.4-0.19-0.95,0.21-1.23c0.4-0.28,0.95-0.19,1.23,0.21
				c0.84,1.17,1.74,2.33,2.68,3.42c0.32,0.37,0.28,0.93-0.09,1.25C13.94,82.26,13.74,82.33,13.54,82.33z M86.81,81.92
				c-0.2,0-0.4-0.07-0.57-0.21c-0.37-0.31-0.42-0.87-0.11-1.24c0.93-1.11,1.82-2.27,2.65-3.45c0.28-0.4,0.83-0.5,1.23-0.22
				c0.4,0.28,0.5,0.83,0.22,1.23c-0.86,1.23-1.78,2.43-2.75,3.58C87.31,81.81,87.06,81.92,86.81,81.92z M7.96,74.35
				c-0.31,0-0.61-0.16-0.77-0.45c-0.73-1.31-1.41-2.67-2.01-4.04c-0.2-0.45,0-0.97,0.45-1.17c0.45-0.2,0.97,0,1.16,0.45
				c0.59,1.32,1.24,2.63,1.94,3.89c0.24,0.43,0.09,0.96-0.34,1.2C8.25,74.31,8.1,74.35,7.96,74.35z M92.3,73.88
				c-0.14,0-0.29-0.03-0.42-0.11c-0.43-0.23-0.59-0.77-0.35-1.2c0.69-1.27,1.33-2.59,1.9-3.91c0.19-0.45,0.71-0.66,1.16-0.46
				c0.45,0.19,0.66,0.71,0.46,1.16c-0.59,1.38-1.25,2.74-1.97,4.06C92.92,73.71,92.61,73.88,92.3,73.88z M4.1,65.41
				c-0.38,0-0.72-0.24-0.84-0.62c-0.45-1.43-0.84-2.9-1.16-4.36c-0.1-0.48,0.2-0.95,0.68-1.05c0.48-0.11,0.95,0.2,1.05,0.68
				c0.3,1.41,0.68,2.83,1.11,4.2c0.15,0.46-0.11,0.96-0.58,1.11C4.28,65.4,4.19,65.41,4.1,65.41z M96.06,64.89
				c-0.08,0-0.17-0.01-0.26-0.04c-0.47-0.14-0.73-0.63-0.59-1.1c0.42-1.38,0.78-2.8,1.07-4.22c0.1-0.48,0.57-0.79,1.04-0.69
				c0.48,0.1,0.79,0.56,0.69,1.04c-0.3,1.47-0.67,2.94-1.11,4.38C96.79,64.65,96.44,64.89,96.06,64.89z M2.13,55.88
				c-0.45,0-0.83-0.34-0.88-0.79c-0.15-1.48-0.24-3-0.25-4.5c-0.01-0.49,0.39-0.89,0.87-0.89c0,0,0.01,0,0.01,0
				c0.48,0,0.88,0.39,0.88,0.87c0.02,1.45,0.1,2.91,0.25,4.34c0.05,0.48-0.3,0.92-0.79,0.97C2.19,55.88,2.16,55.88,2.13,55.88z
				 M97.92,55.34c-0.03,0-0.05,0-0.08,0c-0.49-0.04-0.84-0.47-0.8-0.96c0.13-1.44,0.2-2.9,0.2-4.35l0-0.2
				c0-0.49,0.39-0.88,0.88-0.88S99,49.34,99,49.83l0,0.19c0,1.51-0.07,3.03-0.2,4.52C98.75,54.99,98.37,55.34,97.92,55.34z
				 M2.11,46.14c-0.03,0-0.06,0-0.09,0c-0.49-0.05-0.84-0.48-0.79-0.97c0.15-1.5,0.36-3,0.65-4.47c0.09-0.48,0.55-0.79,1.03-0.7
				c0.48,0.09,0.79,0.55,0.7,1.03c-0.27,1.41-0.48,2.86-0.62,4.3C2.95,45.8,2.56,46.14,2.11,46.14z M97.81,45.41
				c-0.44,0-0.83-0.33-0.88-0.78c-0.16-1.44-0.4-2.88-0.69-4.29c-0.1-0.48,0.21-0.95,0.68-1.04c0.47-0.1,0.94,0.21,1.04,0.68
				c0.31,1.46,0.55,2.96,0.72,4.45c0.06,0.48-0.29,0.92-0.78,0.98C97.87,45.4,97.84,45.41,97.81,45.41z M4.04,36.6
				c-0.09,0-0.18-0.01-0.26-0.04c-0.47-0.14-0.73-0.64-0.58-1.11c0.45-1.43,0.96-2.86,1.54-4.24c0.19-0.45,0.7-0.66,1.15-0.48
				c0.45,0.19,0.66,0.7,0.48,1.16c-0.55,1.33-1.05,2.71-1.48,4.09C4.77,36.36,4.42,36.6,4.04,36.6z M95.73,35.9
				c-0.37,0-0.72-0.24-0.84-0.61c-0.45-1.37-0.97-2.74-1.54-4.07c-0.19-0.45,0.01-0.97,0.46-1.16c0.45-0.19,0.97,0.01,1.16,0.46
				c0.6,1.38,1.14,2.8,1.6,4.22c0.15,0.46-0.1,0.96-0.56,1.11C95.91,35.88,95.82,35.9,95.73,35.9z M7.86,27.64
				c-0.14,0-0.29-0.04-0.43-0.11c-0.43-0.24-0.58-0.77-0.35-1.2c0.72-1.31,1.52-2.6,2.36-3.85c0.27-0.4,0.82-0.51,1.23-0.23
				c0.4,0.27,0.51,0.82,0.23,1.23c-0.81,1.2-1.58,2.44-2.28,3.71C8.48,27.48,8.17,27.64,7.86,27.64z M91.77,27
				c-0.31,0-0.6-0.16-0.77-0.44c-0.72-1.25-1.5-2.49-2.33-3.67c-0.28-0.4-0.18-0.95,0.21-1.23c0.4-0.28,0.95-0.18,1.23,0.21
				c0.86,1.23,1.68,2.51,2.42,3.81c0.24,0.42,0.1,0.96-0.33,1.21C92.07,26.97,91.92,27,91.77,27z M13.41,19.64
				c-0.2,0-0.41-0.07-0.57-0.21c-0.37-0.32-0.41-0.87-0.1-1.24c0.98-1.14,2.01-2.25,3.09-3.29c0.35-0.34,0.91-0.33,1.25,0.02
				c0.34,0.35,0.33,0.91-0.02,1.25c-1.03,1-2.03,2.07-2.97,3.17C13.91,19.54,13.66,19.64,13.41,19.64z M86.11,19.09
				c-0.24,0-0.49-0.1-0.66-0.3c-0.96-1.09-1.98-2.14-3.02-3.13c-0.35-0.33-0.37-0.89-0.04-1.25c0.34-0.35,0.89-0.37,1.25-0.04
				c1.08,1.02,2.14,2.12,3.14,3.24c0.32,0.37,0.29,0.92-0.08,1.25C86.52,19.02,86.32,19.09,86.11,19.09z M20.45,12.91
				c-0.26,0-0.52-0.12-0.7-0.34c-0.3-0.38-0.23-0.94,0.15-1.24c1.18-0.92,2.42-1.8,3.68-2.61C24,8.46,24.54,8.58,24.8,8.99
				c0.26,0.41,0.14,0.96-0.27,1.22c-1.22,0.78-2.41,1.63-3.55,2.51C20.83,12.85,20.64,12.91,20.45,12.91z M78.97,12.47
				c-0.19,0-0.37-0.06-0.53-0.18c-1.16-0.87-2.36-1.7-3.59-2.46c-0.41-0.26-0.54-0.8-0.29-1.22c0.26-0.41,0.8-0.55,1.22-0.29
				c1.27,0.79,2.52,1.65,3.72,2.55c0.39,0.29,0.47,0.85,0.17,1.24C79.5,12.35,79.24,12.47,78.97,12.47z M28.69,7.74
				c-0.33,0-0.64-0.18-0.79-0.49c-0.22-0.44-0.04-0.97,0.4-1.18c1.34-0.67,2.73-1.28,4.13-1.81c0.46-0.17,0.97,0.05,1.14,0.51
				c0.17,0.45-0.05,0.97-0.51,1.14C31.71,6.41,30.37,7,29.08,7.64C28.95,7.71,28.82,7.74,28.69,7.74z M70.65,7.41
				c-0.13,0-0.26-0.03-0.38-0.09c-1.3-0.62-2.65-1.19-4.01-1.69c-0.46-0.17-0.69-0.67-0.53-1.13s0.67-0.7,1.13-0.53
				c1.41,0.52,2.81,1.1,4.16,1.75c0.44,0.21,0.63,0.74,0.42,1.18C71.3,7.23,70.98,7.41,70.65,7.41z M37.8,4.33
				c-0.39,0-0.75-0.26-0.85-0.66c-0.12-0.47,0.16-0.96,0.63-1.08c1.45-0.38,2.93-0.69,4.41-0.94C42.47,1.56,42.92,1.9,43,2.38
				c0.08,0.48-0.25,0.94-0.73,1.01c-1.42,0.23-2.86,0.54-4.25,0.9C37.95,4.32,37.87,4.33,37.8,4.33z M61.48,4.15
				c-0.07,0-0.14-0.01-0.21-0.03c-1.4-0.34-2.84-0.63-4.27-0.84c-0.48-0.07-0.81-0.52-0.74-1c0.07-0.48,0.52-0.81,1-0.74
				c1.48,0.22,2.97,0.51,4.43,0.87c0.47,0.12,0.76,0.59,0.65,1.07C62.24,3.88,61.88,4.15,61.48,4.15z M47.41,2.83
				c-0.47,0-0.86-0.36-0.88-0.84c-0.03-0.49,0.35-0.9,0.83-0.93C48.25,1.02,49.13,1.01,50,1c0.63,0,1.25,0.01,1.88,0.04
				c0.49,0.02,0.87,0.43,0.85,0.92c-0.02,0.49-0.41,0.89-0.92,0.85c-0.62-0.02-1.24-0.04-1.86-0.03c-0.82,0-1.66,0.02-2.49,0.07
				C47.45,2.83,47.43,2.83,47.41,2.83z"/>
		</g>
		<ellipse class="st1" cx="50" cy="50.03" rx="35.76" ry="35.78"/>
	</g>
	<g>
		<g>
			<path class="st2" d="M49.64,57.42c0,0,0.34-1.63-0.49-2.58c-0.83-0.95-2.77-1.02-3.37-0.57c-0.61,0.45-0.57,1.1-0.57,1.1
				s-1.02,1.67-0.72,2.27c0.3,0.61,2.16,1.59,2.16,1.59s-0.15,3.03,0.99,3.64c1.14,0.61,3.64,1.02,3.64,1.02s1.02,1.97,2.39,2.46
				c1.36,0.49,4.13,0.49,4.13,0.49s1.17,2.01,1.97,1.86c0.8-0.15,2.05-1.71,2.31-2.5c0.27-0.8,0.23-2.43-0.34-2.77
				c-0.57-0.34-2.5-0.34-2.5-0.34s-1.55-2.24-2.39-2.2c-0.83,0.04-2.27,0.83-2.27,0.83s-1.44-1.33-2.24-1.33
				c-0.8,0-0.8-1.1-1.1-1.55C50.93,58.41,49.64,57.42,49.64,57.42z"/>
			<path class="st3" d="M62.41,62.88c0,0,8.37-10.77,9.32-15.35c0.95-4.59-1.1-3.98-3.18-2.92c-2.08,1.06-12.24,7.24-14.59,7.96
				c-2.35,0.72-5.38,1.59-5.38,1.59s0.76,0.57,0.87,1.48c0.11,0.91,0.19,1.78,0.19,1.78s1.78,1.25,1.89,1.86
				c0.11,0.61,0.19,1.14,0.19,1.14s1.93,1.52,2.8,1.14c0.87-0.38,1.21-1.02,1.7-0.91c0.49,0.11,2.46,1.9,2.46,1.9l0.87,0.64
				c0,0,1.4-0.27,1.82,0C61.8,63.45,62.22,63.71,62.41,62.88z"/>
			<path class="st4" d="M73.32,44.69c1.31,5.91,4.35,11.25,1.48,17.21c-2.95,6.12-7.63,11.03-11.63,16.45
				c-0.14,0.19-0.33,0.27-0.52,0.27c-4.05,2.77-12.77,1.19-14.96-3.42c-0.31,0.14-0.69,0.06-0.76-0.37
				c-0.88-5.35-1.52-10.71-2.69-16.01c-0.04-0.2,0.05-0.34,0.18-0.39c-0.04-0.07-0.08-0.13-0.12-0.21c-0.42-0.9,0.21-1.97,0.71-2.76
				c-0.09,0.06-0.18,0.12-0.27,0.17c-0.27,0.16-0.62-0.16-0.44-0.43c0.84-1.24,2.83-1.97,4.24-1.31c1.34,0.63,1.56,1.97,1.27,3.28
				c0.01,0.01,0.04,0.02,0.05,0.04c0.6,0.77,1.53,1.15,1.95,2.06c0.14,0.31,0.07,0.8,0.45,0.97c0.65,0.31,1.3,0.66,1.99,0.89
				c0.69,0.22,1.62-0.77,2.59-0.54c0.83,0.19,1.59,1.21,2.2,1.71c0.23,0.19-0.08,0.6-0.33,0.42c-0.54-0.42-1.4-1.4-2.05-1.5
				c-1.08-0.15-1.31,0.94-2.11,0.81c-1.03-0.16-2.12-0.82-3.01-1.34c-0.1-0.06-0.18-0.19-0.17-0.31c0.14-1.63-1.2-1.71-1.99-2.7
				c-0.18-0.22-0.04-0.5,0.16-0.58c0.07-1.14-0.34-2.45-1.64-2.67c-0.94-0.16-1.64,0.22-2.34,0.67c0.13,0.07,0.2,0.22,0.12,0.39
				c-0.29,0.57-0.71,1.3-0.66,1.97c0.07,0.95,1.06,1.09,1.79,1.24c0.18,0.04,0.34,0.25,0.32,0.42c-0.13,1.1-0.19,2.54,0.77,3.33
				c0.93,0.76,1.99,0.67,3.07,0.99c0.06,0.02,0.1,0.06,0.13,0.1c0-0.07-0.01-0.14-0.01-0.22c-0.01-0.25,0.36-0.29,0.42-0.05
				c0.7,2.56,3.57,3.34,5.98,3.02c0.18-0.02,0.36,0.01,0.46,0.19c0.39,0.75,1.18,2.17,2.26,1.72c0.22-0.09,0.42-0.25,0.59-0.42
				c0.01-0.36,0.02-0.72,0.04-1.09c0.03-0.45,0.47-0.6,0.77-0.43c0.2-0.69,0.35-1.62-0.06-2.24c-0.57-0.87-1.76-0.47-2.61-0.33
				c-0.39,0.07-0.66-0.45-0.28-0.67c0.95-0.53,2.34-0.74,3.25-0.04c1.54-3.09,4.26-5.72,6.1-8.65c0.92-1.47,6.08-10.85,1.66-9.49
				c-7.09,2.17-12.43,8.18-19.94,9.2c-0.46,0.07-0.68-0.6-0.2-0.72c8.23-2.09,14.07-9.76,22.76-10.49c0.46-0.04,0.73,0.39,0.78,0.77
				c0.03,0.25,0.05,0.51,0.07,0.76C73.21,44.44,73.29,44.54,73.32,44.69z M74.32,54.67c0.01-0.01,0.01-0.01,0.01-0.02
				c-0.05-0.54-0.15-1.09-0.29-1.67c-0.06-0.24-0.13-0.47-0.19-0.71c-4.15,5.48-7.6,11.47-11.77,16.92c0.05,0.71,0.1,1.42,0.16,2.12
				C67.09,66.34,71.14,60.93,74.32,54.67z M71.78,63.89c1.3-2.31,2.32-4.57,2.56-7.01c-1.8,3.28-3.86,6.41-6.11,9.38
				c-1.54,2.04-3.51,4.77-5.93,5.93c0.11,1.59,0.22,3.17,0.29,4.75C65.63,72.59,69.18,68.52,71.78,63.89z M73.23,51.71
				c0.13-0.11,0.31-0.12,0.45-0.07c-0.32-1.18-0.65-2.35-0.95-3.54c-0.54,2.19-1.59,4.28-2.81,6.19c-2.13,3.34-4.49,7.05-7.27,9.88
				c0.23,0.85,0.06,1.8-0.27,2.62c-0.11,0.29-0.26,0.58-0.44,0.86c0.01,0.16,0.02,0.32,0.04,0.48
				C65.56,62.66,68.22,55.89,73.23,51.71z M61.69,77.7c-0.51-2.9-0.89-5.91-0.9-8.89c-0.2,0.11-0.41,0.2-0.64,0.25
				c-1.29,0.28-2.23-0.92-2.79-1.94c-1.53,0.16-3.02-0.01-4.39-0.8c-1.29-0.74-1.73-1.15-1.85-2.38c-0.04,0.04-0.09,0.09-0.16,0.1
				c-2.39,0.57-4.78-1.2-4.78-3.67c-0.01-1.08-0.08-0.72-0.93-1.21c-0.06-0.04-0.11-0.07-0.17-0.11C47,63.98,47.4,69.32,48.1,74.52
				c0.01,0.1-0.01,0.2-0.04,0.29C51.04,79.19,57.1,78.59,61.69,77.7z"/>
			<path class="st3" d="M74.34,54.65c0,0.01-0.01,0.01-0.01,0.02c-3.18,6.26-7.23,11.66-12.08,16.64c-0.05-0.7-0.1-1.41-0.16-2.12
				c4.17-5.45,7.62-11.44,11.77-16.92c0.07,0.24,0.13,0.47,0.19,0.71C74.19,53.56,74.28,54.11,74.34,54.65z"/>
			<path class="st5" d="M74.34,56.89c-0.24,2.44-1.26,4.7-2.56,7.01c-2.61,4.63-6.16,8.7-9.19,13.06c-0.07-1.58-0.18-3.17-0.29-4.75
				c2.41-1.15,4.38-3.89,5.93-5.93C70.48,63.29,72.54,60.16,74.34,56.89z"/>
			<path class="st5" d="M73.69,51.64c-0.15-0.05-0.32-0.04-0.45,0.07C68.22,55.89,65.56,62.66,62,68.14
				c-0.01-0.16-0.02-0.32-0.04-0.48c0.18-0.28,0.33-0.57,0.44-0.86c0.33-0.82,0.5-1.77,0.27-2.62c2.78-2.84,5.14-6.54,7.27-9.88
				c1.21-1.91,2.26-4,2.81-6.19C73.04,49.29,73.37,50.46,73.69,51.64z"/>
			<path class="st6" d="M60.79,68.81c0.01,2.97,0.39,5.98,0.9,8.89c-4.59,0.89-10.65,1.49-13.62-2.89c0.03-0.09,0.05-0.19,0.04-0.29
				c-0.7-5.2-1.1-10.54-3.03-15.46c0.06,0.04,0.11,0.07,0.17,0.11c0.85,0.49,0.92,0.13,0.93,1.21c0,2.47,2.39,4.25,4.78,3.67
				c0.07-0.01,0.13-0.06,0.16-0.1c0.12,1.24,0.56,1.64,1.85,2.38c1.37,0.78,2.87,0.95,4.39,0.8c0.57,1.01,1.5,2.22,2.79,1.94
				C60.38,69.01,60.59,68.92,60.79,68.81z"/>
		</g>
		<g>
			<path class="st4" d="M75.67,29.05c0.53,3.05-1,6.26-3.35,8.2c-5.55,4.59-14.21,4.35-20.54,1.6c-5.15-2.23-9.67-7.56-6.25-12.73
				c-0.08-0.13-0.1-0.29-0.04-0.48c0.5-1.66,1.81-2.82,3.33-3.57c6.11-3.02,15.02-2.02,21,0.87C72.29,24.13,75.16,26.11,75.67,29.05
				z M74.03,30.85c0.38-4.96-6.48-7.52-11.04-8.32c-3.35-0.58-6.93-0.78-10.28-0.11c-1.95,0.39-4.47,0.97-5.57,2.77
				c0,0.06-0.01,0.12-0.04,0.19c-0.53,1.07-0.95,2.19-1.16,3.3c-0.11,1.47,0.15,2.88,1.48,3.11c0.68,0.12,1.35,0.04,2.04,0.08
				c1.18,0.07,2.28,0.36,3.3,1.01c1.41,0.91,2.66,2.07,4.1,2.92c2.82,1.67,4.47,0.62,6.41-1.7c0.01-0.02,0.02-0.02,0.03-0.03
				c1.07-1.15,2.36-1.52,4.03-1.39c1.06,0.08,2.11,0.43,3.18,0.39C72.22,32.99,73.02,32.02,74.03,30.85z M73.13,33.64
				c0.05-0.09,0.08-0.17,0.13-0.26c-0.79,0.56-1.74,0.88-2.77,0.84c-2.3-0.08-4.71-1.19-6.65,0.34c-1,1.86-2.94,3.74-5.25,3.06
				c-2.66-0.79-4.38-3.04-6.84-4.18c-1.7-0.79-3.9-0.06-5.42-1.1c0.21,0.45,0.48,0.89,0.84,1.32c1.98,2.35,4.88,3.79,7.82,4.57
				C60.79,39.77,69.8,39.74,73.13,33.64z"/>
			<path class="st7" d="M62.99,22.53c4.56,0.8,11.41,3.36,11.04,8.32c-1,1.17-1.8,2.14-3.54,2.21c-1.07,0.04-2.12-0.3-3.18-0.39
				c-1.66-0.13-2.95,0.25-4.03,1.39c-0.01,0.01-0.02,0.01-0.03,0.03c-1.94,2.32-3.59,3.37-6.41,1.7c-1.44-0.85-2.69-2.01-4.1-2.92
				c-1.01-0.65-2.11-0.94-3.3-1.01c-0.68-0.04-1.35,0.04-2.04-0.08c-1.32-0.23-1.59-1.64-1.48-3.11c0.2-1.11,0.63-2.23,1.16-3.3
				c0.03-0.06,0.04-0.12,0.04-0.19c1.11-1.8,3.63-2.39,5.57-2.77C56.06,21.75,59.64,21.94,62.99,22.53z M71.5,29.3
				c0.01-0.48-0.07-0.91-0.4-1.26c-0.13-0.13-0.3-0.25-0.46-0.35c-0.22-0.15-0.36-0.34-0.56-0.51c-0.22-0.2-0.67-0.01-0.54,0.31
				c0.1,0.25,0.26,0.46,0.45,0.65c-0.25,0.58,0.53,1.22,0.93,1.5C71.17,29.8,71.49,29.57,71.5,29.3z M69.75,30.93
				c0.25-0.15,0.3-0.6,0-0.73c-0.34-0.16-0.68-0.27-1.05-0.36c-0.35-0.09-0.7-0.26-1.06-0.25c-0.07,0-0.12,0.02-0.17,0.04
				c-0.02-0.01-0.04-0.02-0.06-0.03c-0.43-0.15-0.57,0.49-0.18,0.66c0.45,0.19,0.77,0.58,1.21,0.8
				C68.87,31.28,69.34,31.18,69.75,30.93z M61.87,30.12c1-0.43,2.45-1.36,2.43-2.6c-0.01-1.08-1.32-1.61-2.17-1.87
				c-0.19-0.06-0.38-0.11-0.58-0.15c-0.04-0.03-0.08-0.05-0.13-0.06c-1.66-0.38-4.69-0.78-5.17,1.51c-0.35,1.68,1.22,3.11,2.71,3.5
				C59.94,30.71,60.95,30.51,61.87,30.12z M52.6,30.21c0.21,0.11,0.5-0.03,0.49-0.29c-0.02-0.49-0.2-0.92-0.49-1.32
				c-0.12-0.17-0.26-0.32-0.38-0.49c-0.08-0.11-0.14-0.26-0.27-0.33c-0.12-0.06-0.24-0.04-0.34,0.04c-0.21,0.17-0.11,0.42,0.03,0.62
				c0.01,0.22-0.02,0.45,0.01,0.67C51.74,29.66,52.15,29.97,52.6,30.21z M52.29,26.4c0.17-0.1,0.21-0.36,0.07-0.5
				c-0.33-0.3-0.71-0.49-1.13-0.64c-0.41-0.14-0.89-0.32-1.31-0.38c-0.25-0.03-0.38,0.34-0.2,0.49c0.01,0.01,0.02,0.01,0.02,0.02
				c-0.06,0.1-0.05,0.23,0.07,0.28c0.43,0.2,0.54,0.63,0.88,0.9C51.18,26.98,51.82,26.67,52.29,26.4z M49.2,29.29
				c0.2,0.04,0.42-0.1,0.41-0.31c-0.01-0.43-0.12-0.8-0.31-1.18c-0.08-0.17-0.16-0.33-0.22-0.51c-0.08-0.22-0.06-0.45-0.19-0.66
				c-0.1-0.16-0.36-0.19-0.46,0c-0.12,0.22-0.11,0.47-0.04,0.72c-0.1,0.34-0.28,0.67-0.3,1.03C48.05,28.97,48.75,29.19,49.2,29.29z"
				/>
			<path class="st6" d="M73.26,33.37c-0.04,0.09-0.08,0.17-0.13,0.26c-3.33,6.11-12.35,6.13-18.14,4.59
				c-2.94-0.78-5.84-2.22-7.82-4.57c-0.36-0.43-0.63-0.87-0.84-1.32c1.53,1.03,3.72,0.31,5.42,1.1c2.45,1.14,4.18,3.4,6.84,4.18
				c2.32,0.69,4.26-1.2,5.25-3.06c1.94-1.53,4.35-0.43,6.65-0.34C71.52,34.26,72.48,33.94,73.26,33.37z"/>
			<path class="st5" d="M71.1,28.03c0.34,0.35,0.42,0.79,0.4,1.26c-0.01,0.27-0.33,0.5-0.58,0.33c-0.4-0.28-1.18-0.92-0.93-1.5
				c-0.19-0.19-0.36-0.4-0.45-0.65c-0.13-0.33,0.32-0.51,0.54-0.31c0.19,0.17,0.34,0.37,0.56,0.51
				C70.79,27.79,70.96,27.9,71.1,28.03z"/>
			<path class="st5" d="M69.75,30.2c0.3,0.13,0.25,0.58,0,0.73c-0.4,0.25-0.88,0.35-1.31,0.13c-0.44-0.22-0.75-0.61-1.21-0.8
				c-0.39-0.16-0.25-0.8,0.18-0.66c0.02,0.01,0.04,0.02,0.06,0.03c0.05-0.03,0.1-0.04,0.17-0.04c0.36-0.01,0.71,0.16,1.06,0.25
				C69.06,29.93,69.41,30.04,69.75,30.2z"/>
			<path class="st4" d="M64.3,27.52c0.02,1.24-1.43,2.17-2.43,2.6c-0.92,0.39-1.93,0.59-2.92,0.33c-1.48-0.39-3.05-1.82-2.71-3.5
				c0.48-2.29,3.51-1.89,5.17-1.51c0.06,0.01,0.1,0.03,0.13,0.06c0.2,0.04,0.39,0.1,0.58,0.15C62.97,25.91,64.29,26.44,64.3,27.52z
				 M61.32,29.18c0.46-0.22,2.12-1.01,1.88-1.7c-0.22-0.64-1.39-0.89-1.95-1.01c-0.93-0.2-1.84-0.2-2.78-0.26
				c-0.01,0-0.02-0.01-0.03-0.01c-0.57,0.16-1,0.47-1.09,1.04c-0.16,1.01,0.93,1.9,1.8,2.13C59.85,29.57,60.64,29.5,61.32,29.18z"/>
			<path class="st5" d="M53.09,29.93c0.01,0.26-0.28,0.4-0.49,0.29c-0.45-0.24-0.85-0.56-0.94-1.09c-0.03-0.22-0.01-0.44-0.01-0.67
				c-0.14-0.2-0.25-0.45-0.03-0.62c0.11-0.08,0.22-0.11,0.34-0.04c0.13,0.07,0.19,0.22,0.27,0.33c0.12,0.17,0.26,0.32,0.38,0.49
				C52.89,29,53.07,29.43,53.09,29.93z"/>
			<path class="st5" d="M52.36,25.9c0.15,0.14,0.11,0.4-0.07,0.5c-0.47,0.27-1.11,0.57-1.6,0.18c-0.34-0.28-0.45-0.71-0.88-0.9
				c-0.12-0.05-0.13-0.18-0.07-0.28c-0.01-0.01-0.02-0.01-0.02-0.02c-0.17-0.16-0.05-0.53,0.2-0.49c0.43,0.06,0.9,0.24,1.31,0.38
				C51.65,25.41,52.02,25.6,52.36,25.9z"/>
			<path class="st5" d="M49.61,28.98c0.01,0.22-0.21,0.36-0.41,0.31c-0.45-0.1-1.15-0.32-1.12-0.91c0.02-0.37,0.2-0.69,0.3-1.03
				c-0.06-0.25-0.08-0.49,0.04-0.72c0.1-0.19,0.36-0.16,0.46,0c0.13,0.21,0.11,0.43,0.19,0.66c0.06,0.18,0.15,0.34,0.22,0.51
				C49.48,28.18,49.59,28.55,49.61,28.98z"/>
		</g>
		<g>
			<path class="st4" d="M42.45,45.78c0.88,1.1,1.57,2.47,1.23,3.89c-0.29,1.16-1.2,2.06-2.33,2.42c-0.46,0.15-0.97,0.2-1.45,0.16
				c-0.24,1.4-0.58,2.74-1.06,4.13c-0.33,0.94-0.57,2.68-1.5,3.2c-0.1,0.06-0.21,0.07-0.32,0.04c-0.02,0.12-0.07,0.23-0.17,0.31
				c-2.63,2.08-7.08,1.26-9.65-0.48c-0.05-0.04-0.08-0.08-0.11-0.13c-0.08-0.04-0.15-0.1-0.21-0.2c-1.31-2.21-2.27-5.14-2.6-7.76
				c-0.19,0.08-0.39,0.14-0.6,0.17c-1.24,0.18-2.39-0.52-2.99-1.6c-0.61-1.11-0.74-2.56-0.05-3.67c0.76-1.21,2.12-1.68,3.49-1.73
				c-3.24-6.61,2.5-15.14,10.22-13.5C40.62,32.36,47.45,39.67,42.45,45.78z M42.14,41.13c0.13-0.09,0.25-0.12,0.38-0.11
				c-0.1-4.11-4.31-7.95-8.56-8.57c-4.66-0.68-7.79,2.12-8.83,5.79c0.1,0.32,0.32,0.57,0.74,0.67c0.62,0.15,1.25,0.18,1.89,0.14
				c1.21-0.08,2.4-0.31,3.61-0.41c1.54-0.12,3.08,0.17,4.43,0.96C37.59,40.66,40.02,42.65,42.14,41.13z M41.15,45.02
				c0.59-0.77,0.97-1.57,1.18-2.38c-1.72,1.03-4.06,0.25-5.7-0.77c-2.62-1.62-4.52-1.78-7.45-1.5c-1.39,0.13-3.14,0.33-4.36-0.5
				c-0.18,1.66,0.04,3.42,0.7,5.06c0.14,0.34-0.14,0.59-0.43,0.63c-0.02,0-0.04,0.01-0.07,0.02c-1.18,0.13-2.57,0.49-3.11,1.51
				c-0.33,0.62-0.3,1.47,0.05,2.12c0.2,0.36,0.43,0.64,0.73,0.81c0.26,0.14,0.58,0.23,0.85,0.17c0.45-0.1,0.83-0.36,1.19-0.74
				c0.26-0.28,0.48-0.58,0.67-0.91c0.23-0.37,0.39-0.79,0.84-0.91c0.15-0.04,0.28-0.01,0.39,0.07c0.23-0.03,0.5,0.13,0.5,0.41
				c0.02,3.05,3.5,4.26,3.94,0.67c0.11-0.87,1.25-0.88,1.35,0c0.16,1.39,1.22,3.05,2.87,2.46c1.41-0.51,1.53-1.82,1.58-3.13
				c0.01-0.15,0.07-0.27,0.15-0.36c0.01-0.03,0.01-0.06,0.01-0.09c0.08-0.48,0.78-0.38,0.85,0.04c0.07,0.07,0.11,0.15,0.14,0.26
				c0.11,0.46,0.13,0.95,0.08,1.42c0.15,0.49,0.42,0.93,0.85,1.2c0.26,0.15,0.53,0.24,0.8,0.29c0.1-0.02,0.18-0.01,0.26,0.04
				c0.33,0.02,0.66-0.02,0.99-0.14c2.26-0.82,1.12-3.23-0.03-4.5c-0.33-0.38-0.19-0.85,0.11-1.08
				C41.08,45.11,41.11,45.06,41.15,45.02z M39.09,52.09c-0.38-0.12-0.73-0.3-1.03-0.57c-0.2-0.17-0.36-0.36-0.5-0.57
				c-0.16,0.28-0.36,0.54-0.6,0.76c-0.11,0.79-0.32,1.57-0.54,2.33c-0.14,0.49-0.26,1.55-0.79,1.79c-0.24,0.1-0.53,0.03-0.6-0.25
				c-0.15-0.54,0.41-1.27,0.6-1.76c0.21-0.52,0.39-1.04,0.58-1.57c-0.32,0.16-0.69,0.28-1.08,0.33c-1.16,0.14-2.08-0.24-2.75-0.9
				c0.14,0.69,0.33,1.38,0.46,2.07c0.09,0.45,0.18,0.91,0.28,1.36c0.04,0.19,0.1,0.4,0.05,0.59c-0.01,0.05-0.02,0.09-0.03,0.11
				c-0.01-0.03-0.01-0.07-0.02-0.1c0.02,0.05,0.02,0.1,0.02,0.12c0,0.01,0,0.01,0,0.01c-0.01,0.2-0.21,0.36-0.41,0.37
				c-0.75,0.04-0.7-1.57-0.75-2.01c-0.1-0.9-0.26-1.87-0.17-2.78c0.01-0.1,0.08-0.17,0.16-0.21c-0.08-0.11-0.16-0.23-0.24-0.36
				c-0.58,1.03-1.54,1.76-2.92,1.48c-0.05-0.01-0.08-0.03-0.13-0.04c0.01,0.01,0.02,0.02,0.03,0.04c0.22,0.56,0.37,1.14,0.53,1.72
				c0.17,0.66,0.6,1.48,0.48,2.17c-0.04,0.24-0.35,0.33-0.55,0.22c-0.62-0.36-0.71-1.5-0.86-2.13c-0.14-0.62-0.28-1.25-0.32-1.88
				c-0.01-0.16,0.07-0.26,0.17-0.31c-1.1-0.45-1.77-1.4-1.95-2.52c-0.23,0.34-0.48,0.68-0.78,0.96c-0.08,0.07-0.17,0.14-0.25,0.21
				c1.07,2.49,2.01,5.28,2.71,7.89c0.03,0.12,0.02,0.23-0.02,0.32c2.59,0.89,5.9,0.97,8.39-0.08c0.11-0.05,0.21-0.04,0.32-0.01
				c-0.04-1.04,0.84-2.46,1.15-3.34C38.15,54.39,38.62,53.24,39.09,52.09z"/>
			<path class="st7" d="M42.51,41.02c-0.13-0.01-0.25,0.02-0.38,0.11c-2.12,1.53-4.55-0.46-6.35-1.51
				c-1.35-0.79-2.88-1.08-4.43-0.96c-1.21,0.1-2.4,0.32-3.61,0.41c-0.64,0.04-1.27,0.01-1.89-0.14c-0.42-0.11-0.64-0.36-0.74-0.67
				c1.04-3.68,4.17-6.47,8.83-5.79C38.21,33.07,42.42,36.91,42.51,41.02z"/>
			<path class="st6" d="M42.33,42.64c-0.21,0.8-0.59,1.6-1.18,2.38c-0.04,0.05-0.07,0.1-0.08,0.14c-0.3,0.24-0.45,0.71-0.11,1.08
				c1.15,1.27,2.29,3.68,0.03,4.5c-0.33,0.12-0.67,0.17-0.99,0.14c-0.07-0.05-0.16-0.06-0.26-0.04c-0.27-0.05-0.55-0.14-0.8-0.29
				c-0.43-0.27-0.7-0.72-0.85-1.2c0.05-0.47,0.03-0.95-0.08-1.42c-0.02-0.11-0.07-0.19-0.14-0.26c-0.07-0.42-0.77-0.52-0.85-0.04
				C37,47.66,37,47.69,37,47.72c-0.08,0.1-0.14,0.21-0.15,0.36c-0.05,1.31-0.17,2.62-1.58,3.13c-1.64,0.6-2.7-1.07-2.87-2.46
				c-0.1-0.88-1.25-0.87-1.35,0c-0.44,3.58-3.91,2.37-3.94-0.67c0-0.29-0.27-0.44-0.5-0.41c-0.11-0.07-0.24-0.11-0.39-0.07
				c-0.45,0.13-0.61,0.54-0.84,0.91c-0.19,0.33-0.42,0.63-0.67,0.91c-0.35,0.38-0.73,0.64-1.19,0.74c-0.26,0.06-0.59-0.02-0.85-0.17
				c-0.3-0.17-0.53-0.45-0.73-0.81c-0.36-0.64-0.39-1.5-0.05-2.12c0.54-1.01,1.93-1.38,3.11-1.51c0.02-0.01,0.04-0.02,0.07-0.02
				c0.3-0.04,0.57-0.29,0.43-0.63c-0.66-1.65-0.88-3.4-0.7-5.06c1.22,0.83,2.97,0.63,4.36,0.5c2.93-0.28,4.84-0.12,7.45,1.5
				C38.26,42.89,40.61,43.67,42.33,42.64z"/>
			<path class="st2" d="M38.06,51.52c0.3,0.26,0.66,0.45,1.03,0.57c-0.46,1.16-0.94,2.31-1.35,3.49c-0.31,0.88-1.19,2.3-1.15,3.34
				c-0.1-0.03-0.2-0.04-0.32,0.01c-2.48,1.04-5.8,0.97-8.39,0.08c0.04-0.1,0.05-0.2,0.02-0.32c-0.7-2.61-1.64-5.39-2.71-7.89
				c0.08-0.07,0.17-0.14,0.25-0.21c0.3-0.28,0.55-0.62,0.78-0.96c0.18,1.11,0.85,2.06,1.95,2.52c-0.1,0.05-0.17,0.15-0.17,0.31
				c0.04,0.63,0.17,1.26,0.32,1.88c0.15,0.64,0.24,1.78,0.86,2.13c0.2,0.11,0.51,0.02,0.55-0.22c0.12-0.69-0.31-1.51-0.48-2.17
				c-0.16-0.58-0.31-1.16-0.53-1.72c-0.01-0.02-0.02-0.03-0.03-0.04c0.04,0.01,0.08,0.02,0.13,0.04c1.38,0.28,2.34-0.45,2.92-1.48
				c0.08,0.13,0.15,0.24,0.24,0.36c-0.08,0.04-0.15,0.12-0.16,0.21c-0.1,0.91,0.07,1.88,0.17,2.78c0.05,0.44,0,2.04,0.75,2.01
				c0.2-0.01,0.4-0.17,0.41-0.37c0.01-0.01,0.01-0.01,0.01-0.02c0,0,0-0.01,0-0.02c0.01-0.02,0.02-0.06,0.03-0.11
				c0.05-0.19-0.02-0.4-0.05-0.59c-0.1-0.45-0.19-0.91-0.28-1.36c-0.14-0.7-0.32-1.38-0.46-2.07c0.67,0.66,1.58,1.04,2.75,0.9
				c0.4-0.05,0.76-0.17,1.08-0.33c-0.19,0.52-0.38,1.05-0.58,1.57c-0.19,0.49-0.74,1.22-0.6,1.76c0.07,0.28,0.36,0.35,0.6,0.25
				c0.53-0.24,0.64-1.3,0.79-1.79c0.22-0.76,0.43-1.54,0.54-2.33c0.24-0.23,0.44-0.48,0.6-0.76C37.7,51.16,37.86,51.35,38.06,51.52z
				"/>
			<path class="st8" d="M33.14,55.84c0,0.01,0,0.01-0.01,0.02C33.13,55.86,33.13,55.85,33.14,55.84
				C33.13,55.85,33.13,55.84,33.14,55.84z"/>
			<path class="st8" d="M33.14,55.82c0,0.01,0,0.02,0,0.02c-0.01,0-0.01,0.01-0.01,0.01c0-0.02,0-0.07-0.02-0.12
				C33.13,55.76,33.13,55.79,33.14,55.82z"/>
		</g>
	</g>
	<g>
		<path class="st9" d="M50.12,11.52c-20.92,0-37.93,17.03-37.93,37.95S29.2,87.43,50.12,87.43S88.05,70.4,88.05,49.47
			S71.03,11.52,50.12,11.52z M16.28,49.47c0-7.7,2.59-14.8,6.93-20.5L70.6,76.39c-5.69,4.35-12.79,6.94-20.49,6.94
			C31.46,83.33,16.28,68.14,16.28,49.47z M73.71,73.7L25.9,25.86c6.15-6.31,14.73-10.24,24.21-10.24
			c18.66,0,33.83,15.19,33.83,33.85C83.95,58.96,80.02,67.55,73.71,73.7z"/>
	</g>
</g>
</svg>
