<?xml version="1.0" encoding="utf-8"?>
<!-- Generator: Adobe Illustrator 23.1.0, SVG Export Plug-In . SVG Version: 6.00 Build 0)  -->
<svg version="1.1" id="Capa_1" xmlns="http://www.w3.org/2000/svg" xmlns:xlink="http://www.w3.org/1999/xlink" x="0px" y="0px"
	 viewBox="0 0 100 100" style="enable-background:new 0 0 100 100;" xml:space="preserve">
<style type="text/css">
	.st0{fill:#4B65F0;}
	.st1{fill:#DCDCDC;}
	.st2{fill:#723987;}
	.st3{fill:#5C5F68;}
	.st4{fill:#5D9E67;}
	.st5{fill:#F9EC93;}
	.st6{fill:#95F089;}
	.st7{fill:#E3827E;}
	.st8{fill:#335939;}
</style>
<g>
	<g>
		<g>
			<path class="st0" d="M47.61,99c-0.01,0-0.03,0-0.04,0c-1.5-0.07-3.01-0.22-4.49-0.43c-0.48-0.07-0.82-0.52-0.75-1
				s0.52-0.82,1-0.75c1.43,0.2,2.88,0.34,4.33,0.41c0.49,0.02,0.86,0.44,0.84,0.93C48.47,98.63,48.08,99,47.61,99z M52.92,98.97
				c-0.46,0-0.85-0.36-0.88-0.83c-0.03-0.49,0.34-0.9,0.83-0.93c1.44-0.09,2.9-0.24,4.32-0.46c0.48-0.07,0.93,0.26,1.01,0.74
				c0.07,0.48-0.26,0.93-0.74,1.01c-1.48,0.23-2.99,0.39-4.48,0.48C52.96,98.97,52.94,98.97,52.92,98.97z M37.99,97.55
				c-0.07,0-0.15-0.01-0.22-0.03c-1.45-0.37-2.9-0.82-4.31-1.33c-0.46-0.16-0.7-0.67-0.53-1.13c0.16-0.46,0.67-0.7,1.13-0.53
				c1.36,0.49,2.76,0.92,4.16,1.28c0.47,0.12,0.76,0.6,0.64,1.08C38.74,97.28,38.38,97.55,37.99,97.55z M62.53,97.41
				c-0.39,0-0.75-0.26-0.85-0.65c-0.13-0.47,0.15-0.96,0.62-1.08c1.4-0.38,2.79-0.82,4.14-1.32c0.46-0.17,0.97,0.06,1.14,0.52
				c0.17,0.46-0.06,0.97-0.52,1.14c-1.4,0.52-2.85,0.98-4.3,1.37C62.68,97.4,62.61,97.41,62.53,97.41z M28.86,94.17
				c-0.13,0-0.26-0.03-0.39-0.09c-1.34-0.66-2.67-1.39-3.96-2.17c-0.42-0.25-0.55-0.8-0.29-1.21c0.25-0.42,0.8-0.55,1.21-0.29
				c1.24,0.75,2.52,1.46,3.81,2.09c0.44,0.21,0.62,0.74,0.4,1.18C29.5,93.99,29.19,94.17,28.86,94.17z M71.62,93.94
				c-0.32,0-0.63-0.18-0.79-0.49c-0.22-0.44-0.04-0.97,0.39-1.19c1.29-0.65,2.57-1.37,3.79-2.13c0.42-0.26,0.96-0.13,1.22,0.28
				c0.26,0.41,0.13,0.96-0.28,1.22c-1.27,0.79-2.59,1.54-3.93,2.21C71.89,93.9,71.75,93.94,71.62,93.94z M20.6,89.03
				c-0.19,0-0.38-0.06-0.54-0.18c-1.18-0.92-2.34-1.9-3.44-2.92c-0.36-0.33-0.38-0.89-0.05-1.25c0.33-0.36,0.89-0.38,1.25-0.05
				c1.06,0.99,2.18,1.93,3.32,2.82c0.39,0.3,0.46,0.85,0.16,1.24C21.12,88.91,20.86,89.03,20.6,89.03z M79.82,88.7
				c-0.26,0-0.52-0.11-0.69-0.34c-0.3-0.38-0.24-0.94,0.14-1.24c1.13-0.9,2.24-1.86,3.28-2.85c0.35-0.33,0.91-0.32,1.25,0.03
				c0.34,0.35,0.32,0.91-0.03,1.25c-1.08,1.03-2.23,2.03-3.41,2.96C80.21,88.64,80.01,88.7,79.82,88.7z M13.54,82.33
				c-0.25,0-0.49-0.1-0.67-0.31c-0.98-1.14-1.92-2.33-2.79-3.55c-0.28-0.4-0.19-0.95,0.21-1.23c0.4-0.28,0.95-0.19,1.23,0.21
				c0.84,1.17,1.74,2.33,2.68,3.42c0.32,0.37,0.28,0.93-0.09,1.25C13.94,82.26,13.74,82.33,13.54,82.33z M86.81,81.92
				c-0.2,0-0.4-0.07-0.57-0.21c-0.37-0.31-0.42-0.87-0.11-1.24c0.93-1.11,1.82-2.27,2.65-3.45c0.28-0.4,0.83-0.5,1.23-0.22
				c0.4,0.28,0.5,0.83,0.22,1.23c-0.86,1.23-1.78,2.43-2.75,3.58C87.31,81.81,87.06,81.92,86.81,81.92z M7.96,74.35
				c-0.31,0-0.61-0.16-0.77-0.45c-0.73-1.31-1.41-2.67-2.01-4.04c-0.2-0.45,0-0.97,0.45-1.17c0.45-0.2,0.97,0,1.16,0.45
				c0.59,1.32,1.24,2.63,1.94,3.89c0.24,0.43,0.09,0.96-0.34,1.2C8.25,74.31,8.1,74.35,7.96,74.35z M92.3,73.88
				c-0.14,0-0.29-0.03-0.42-0.11c-0.43-0.23-0.59-0.77-0.35-1.2c0.69-1.27,1.33-2.59,1.9-3.91c0.19-0.45,0.71-0.66,1.16-0.46
				c0.45,0.19,0.66,0.71,0.46,1.16c-0.59,1.38-1.25,2.74-1.97,4.06C92.92,73.71,92.61,73.88,92.3,73.88z M4.1,65.41
				c-0.38,0-0.72-0.24-0.84-0.62c-0.45-1.43-0.84-2.9-1.16-4.36c-0.1-0.48,0.2-0.95,0.68-1.05c0.48-0.11,0.95,0.2,1.05,0.68
				c0.3,1.41,0.68,2.83,1.11,4.2c0.15,0.46-0.11,0.96-0.58,1.11C4.28,65.4,4.19,65.41,4.1,65.41z M96.06,64.89
				c-0.08,0-0.17-0.01-0.26-0.04c-0.47-0.14-0.73-0.63-0.59-1.1c0.42-1.38,0.78-2.8,1.07-4.22c0.1-0.48,0.57-0.79,1.04-0.69
				c0.48,0.1,0.79,0.56,0.69,1.04c-0.3,1.47-0.67,2.94-1.11,4.38C96.79,64.65,96.44,64.89,96.06,64.89z M2.13,55.88
				c-0.45,0-0.83-0.34-0.88-0.79c-0.15-1.48-0.24-3-0.25-4.5c-0.01-0.49,0.39-0.89,0.87-0.89c0,0,0.01,0,0.01,0
				c0.48,0,0.88,0.39,0.88,0.87c0.02,1.45,0.1,2.91,0.25,4.34c0.05,0.48-0.3,0.92-0.79,0.97C2.19,55.88,2.16,55.88,2.13,55.88z
				 M97.92,55.34c-0.03,0-0.05,0-0.08,0c-0.49-0.04-0.84-0.47-0.8-0.96c0.13-1.44,0.2-2.9,0.2-4.35l0-0.2
				c0-0.49,0.39-0.88,0.88-0.88S99,49.34,99,49.83l0,0.19c0,1.51-0.07,3.03-0.2,4.52C98.75,54.99,98.37,55.34,97.92,55.34z
				 M2.11,46.14c-0.03,0-0.06,0-0.09,0c-0.49-0.05-0.84-0.48-0.79-0.97c0.15-1.5,0.36-3,0.65-4.47c0.09-0.48,0.55-0.79,1.03-0.7
				c0.48,0.09,0.79,0.55,0.7,1.03c-0.27,1.41-0.48,2.86-0.62,4.3C2.95,45.8,2.56,46.14,2.11,46.14z M97.81,45.41
				c-0.44,0-0.83-0.33-0.88-0.78c-0.16-1.44-0.4-2.88-0.69-4.29c-0.1-0.48,0.21-0.95,0.68-1.04c0.47-0.1,0.94,0.21,1.04,0.68
				c0.31,1.46,0.55,2.96,0.72,4.45c0.06,0.48-0.29,0.92-0.78,0.98C97.87,45.4,97.84,45.41,97.81,45.41z M4.04,36.6
				c-0.09,0-0.18-0.01-0.26-0.04c-0.47-0.14-0.73-0.64-0.58-1.11c0.45-1.43,0.96-2.86,1.54-4.24c0.19-0.45,0.7-0.66,1.15-0.48
				c0.45,0.19,0.66,0.7,0.48,1.16c-0.55,1.33-1.05,2.71-1.48,4.09C4.77,36.36,4.42,36.6,4.04,36.6z M95.73,35.9
				c-0.37,0-0.72-0.24-0.84-0.61c-0.45-1.37-0.97-2.74-1.54-4.07c-0.19-0.45,0.01-0.97,0.46-1.16c0.45-0.19,0.97,0.01,1.16,0.46
				c0.6,1.38,1.14,2.8,1.6,4.22c0.15,0.46-0.1,0.96-0.56,1.11C95.91,35.88,95.82,35.9,95.73,35.9z M7.86,27.64
				c-0.14,0-0.29-0.04-0.43-0.11c-0.43-0.24-0.58-0.77-0.35-1.2c0.72-1.31,1.52-2.6,2.36-3.85c0.27-0.4,0.82-0.51,1.23-0.23
				c0.4,0.27,0.51,0.82,0.23,1.23c-0.81,1.2-1.58,2.44-2.28,3.71C8.48,27.48,8.17,27.64,7.86,27.64z M91.77,27
				c-0.31,0-0.6-0.16-0.77-0.44c-0.72-1.25-1.5-2.49-2.33-3.67c-0.28-0.4-0.18-0.95,0.21-1.23c0.4-0.28,0.95-0.18,1.23,0.21
				c0.86,1.23,1.68,2.51,2.42,3.81c0.24,0.42,0.1,0.96-0.33,1.21C92.07,26.97,91.92,27,91.77,27z M13.41,19.64
				c-0.2,0-0.41-0.07-0.57-0.21c-0.37-0.32-0.41-0.87-0.1-1.24c0.98-1.14,2.01-2.25,3.09-3.29c0.35-0.34,0.91-0.33,1.25,0.02
				c0.34,0.35,0.33,0.91-0.02,1.25c-1.03,1-2.03,2.07-2.97,3.17C13.91,19.54,13.66,19.64,13.41,19.64z M86.11,19.09
				c-0.24,0-0.49-0.1-0.66-0.3c-0.96-1.09-1.98-2.14-3.02-3.13c-0.35-0.33-0.37-0.89-0.04-1.25c0.34-0.35,0.89-0.37,1.25-0.04
				c1.08,1.02,2.14,2.12,3.14,3.24c0.32,0.37,0.29,0.92-0.08,1.25C86.52,19.02,86.32,19.09,86.11,19.09z M20.45,12.91
				c-0.26,0-0.52-0.12-0.7-0.34c-0.3-0.38-0.23-0.94,0.15-1.24c1.18-0.92,2.42-1.8,3.68-2.61C24,8.46,24.54,8.58,24.8,8.99
				c0.26,0.41,0.14,0.96-0.27,1.22c-1.22,0.78-2.41,1.63-3.55,2.51C20.83,12.85,20.64,12.91,20.45,12.91z M78.97,12.47
				c-0.19,0-0.37-0.06-0.53-0.18c-1.16-0.87-2.36-1.7-3.59-2.46c-0.41-0.26-0.54-0.8-0.29-1.22c0.26-0.41,0.8-0.55,1.22-0.29
				c1.27,0.79,2.52,1.65,3.72,2.55c0.39,0.29,0.47,0.85,0.17,1.24C79.5,12.35,79.24,12.47,78.97,12.47z M28.69,7.74
				c-0.33,0-0.64-0.18-0.79-0.49c-0.22-0.44-0.04-0.97,0.4-1.18c1.34-0.67,2.73-1.28,4.13-1.81c0.46-0.17,0.97,0.05,1.14,0.51
				c0.17,0.45-0.05,0.97-0.51,1.14C31.71,6.41,30.37,7,29.08,7.64C28.95,7.71,28.82,7.74,28.69,7.74z M70.65,7.41
				c-0.13,0-0.26-0.03-0.38-0.09c-1.3-0.62-2.65-1.19-4.01-1.69c-0.46-0.17-0.69-0.67-0.53-1.13s0.67-0.7,1.13-0.53
				c1.41,0.52,2.81,1.1,4.16,1.75c0.44,0.21,0.63,0.74,0.42,1.18C71.3,7.23,70.98,7.41,70.65,7.41z M37.8,4.33
				c-0.39,0-0.75-0.26-0.85-0.66c-0.12-0.47,0.16-0.96,0.63-1.08c1.45-0.38,2.93-0.69,4.41-0.94C42.47,1.56,42.92,1.9,43,2.38
				c0.08,0.48-0.25,0.94-0.73,1.01c-1.42,0.23-2.86,0.54-4.25,0.9C37.95,4.32,37.87,4.33,37.8,4.33z M61.48,4.15
				c-0.07,0-0.14-0.01-0.21-0.03c-1.4-0.34-2.84-0.63-4.27-0.84c-0.48-0.07-0.81-0.52-0.74-1c0.07-0.48,0.52-0.81,1-0.74
				c1.48,0.22,2.97,0.51,4.43,0.87c0.47,0.12,0.76,0.59,0.65,1.07C62.24,3.88,61.88,4.15,61.48,4.15z M47.41,2.83
				c-0.47,0-0.86-0.36-0.88-0.84c-0.03-0.49,0.35-0.9,0.83-0.93C48.25,1.02,49.13,1.01,50,1c0.63,0,1.25,0.01,1.88,0.04
				c0.49,0.02,0.87,0.43,0.85,0.92c-0.02,0.49-0.41,0.89-0.92,0.85c-0.62-0.02-1.24-0.04-1.86-0.03c-0.82,0-1.66,0.02-2.49,0.07
				C47.45,2.83,47.43,2.83,47.41,2.83z"/>
		</g>
		<ellipse class="st1" cx="50" cy="50.03" rx="35.76" ry="35.78"/>
	</g>
	<g>
		<g>
			<path class="st2" d="M76.84,39.91c-0.57,0.99-0.76,2.12-0.48,3.2c-0.81,0.6-1.89,1.12-2.72,0.72c-0.79-0.38-1.2-1.3-1.34-2.19
				c-0.12-0.79,0.09-1.77,0.82-2.23c0.45-0.28,1.04-0.3,1.55-0.23c0.41,0.05,0.82,0.17,1.2,0.31C76.18,39.6,76.51,39.8,76.84,39.91z
				"/>
			<path class="st2" d="M75.73,38.45c-0.29-0.1-0.59-0.18-0.9-0.24c-0.72-0.12-1.44-0.08-2.12,0.23c-0.12,0.06-0.23,0.12-0.34,0.19
				c0.05-0.08,0.05-0.17-0.03-0.25c-1.05-0.95-5.08-4.1-2.25-8.54c0.34-0.54,7.33-0.48,7.94-0.63c0.74-0.17,2.9,1.71,3.13,3.06
				C80.38,33.49,74.91,37.34,75.73,38.45z"/>
			<path class="st2" d="M71.05,34.38c-0.01,0.02-0.03,0.04-0.05,0.06c-0.44,0.61-0.68,1.46-0.63,2.23c-1.13-0.3-2.52,0.09-3.4,0.87
				c-1.58-0.24-2.29-1.49-1.65-2.99c0.27-0.63,0.75-1.15,1.31-1.53c0.67-0.45,1.38-0.46,2.1-0.65c0.03,0.22,0.08,0.45,0.17,0.65
				C69.32,33.94,70.14,34.27,71.05,34.38z"/>
			<path class="st2" d="M72.1,38.75c0.05,0.01,0.08,0,0.12-0.01c-0.78,0.63-1.11,1.72-1.08,2.7c0.01,0.29,0.05,0.59,0.12,0.88
				c-1.66,1.22-3.45,0.62-4.08-1.37c-0.24-0.77-0.17-1.61,0.25-2.3c0.65-1.07,1.95-0.96,3.01-1.19c0.03-0.01,0.05-0.02,0.06-0.03
				C70.74,38.09,71.25,38.61,72.1,38.75z"/>
			<path class="st2" d="M66.19,41.63c-0.02,0.02-0.05,0.04-0.06,0.07c-0.6,1.02-1.59,2.27-2.93,1.97c-0.94-0.21-1.66-1.3-2-2.12
				c-0.39-0.92-0.5-2.03-0.05-2.94c0.25-0.49,0.66-0.81,1.14-1.05c0.73-0.37,1.57-0.19,2.29-0.47c0.45,0.52,1.15,0.87,1.95,0.94
				c-0.67,0.93-0.74,2.14-0.45,3.23C66.11,41.39,66.15,41.51,66.19,41.63z"/>
			<path class="st2" d="M61.49,30.83c-0.1,1.94,1.31,3.18,3.02,3.06c-0.12,0.21-0.21,0.43-0.29,0.63c-0.22,0.61-0.25,1.18-0.11,1.67
				c-1.13-0.18-2.43,0.38-3.27,1.18c-1.23-0.7-2.1-1.53-2.24-3.12c-0.17-2.06,1.19-2.98,2.81-3.79c0.07-0.03,0.12-0.08,0.14-0.14
				C61.52,30.49,61.49,30.66,61.49,30.83z"/>
			<path class="st2" d="M62.78,27c0.25,0.23,0.48,0.49,0.72,0.75c-0.94,0.43-1.66,1.33-1.91,2.4c-0.02-0.18-0.16-0.36-0.36-0.37
				c-0.78-0.05-1.43,0.16-1.95,0.52c-0.63-1.14-0.78-2.34,0.33-3.37c0.54-0.49,1.3-0.67,2-0.54c0.29,0.05,0.54,0.16,0.76,0.29
				c0.05,0.09,0.11,0.17,0.17,0.26C62.59,27.02,62.7,27.04,62.78,27z"/>
			<path class="st2" d="M68.42,31.48c-1.26-0.21-2.54,0.6-3.39,1.64c-1.45,0.1-2.52-0.76-2.51-2.29c0.01-1.85,1.51-2.45,3.08-2.56
				c0.36-0.03,0.43-0.5,0.08-0.61c-0.48-0.16-0.94-0.2-1.38-0.14c-0.36-0.74-0.98-1.29-1.71-1.61c-0.12-0.96,0.31-1.75,1.55-1.87
				c0.67-0.06,1.35,0.12,1.95,0.41c0.51,0.25,0.86,0.84,1.32,1.12c-0.37,0.29-0.69,0.64-0.93,1.03
				C65.27,28.56,65.99,31.12,68.42,31.48z"/>
			<path class="st2" d="M72.02,24.78c-0.16,0.21-0.27,0.43-0.32,0.65c-1-0.96-2.46-0.91-3.64-0.28c-0.12-0.5-0.63-0.91-1.12-1.22
				c-0.32-1.69,0.5-2.87,2.38-2.38C71.02,21.98,71.8,23.24,72.02,24.78z"/>
			<path class="st2" d="M78.16,25.74c0.67,1.06-0.16,2.16-0.71,3.09c-0.45,0.02-0.89,0.11-1.31,0.27c-0.38,0.14-0.74,0.33-1.08,0.57
				c-0.02-0.06-0.04-0.12-0.07-0.16c-0.71-0.88-2.3-0.93-3.31-0.72c-1.03,0.21-1.91,0.9-2.48,1.77c-0.19,0.3-0.34,0.65-0.41,1.02
				c-0.1-0.03-0.19-0.06-0.28-0.08c0.29,0,0.39-0.39,0.09-0.5c-1.74-0.67-2.14-2.35-1.24-3.9c0.37-0.63,0.97-1.15,1.67-1.37
				c1.04-0.33,1.72,0.34,2.59,0.74c0.03,0.02,0.07,0.03,0.1,0.03c0.17,0.61,0.56,1.2,1,1.64c0.2,0.2,0.54-0.06,0.39-0.3
				c-0.38-0.63-0.72-1.35-0.54-2c0.17-0.01,0.33-0.1,0.39-0.31c0.04-0.14,0.07-0.27,0.09-0.41c0.69-0.58,1.78-0.65,2.62-0.59
				C76.59,24.58,77.65,24.93,78.16,25.74z"/>
			<path class="st2" d="M82.52,34.33c1.1,1.29-0.54,3.34-1.29,4.33c0,0.01,0,0.01-0.01,0.02c-1.29-0.59-2.9-0.52-3.93,0.47
				c-0.08-0.06-0.16-0.11-0.25-0.16c-0.82-1.09-1.72-2.49-1.01-3.78c0.62-1.11,2.01-1.58,3.19-1.75
				C80.32,33.28,81.74,33.42,82.52,34.33z"/>
			<path class="st2" d="M81.66,40.13c1.36,1.31,0.6,3.33-0.61,4.45c-1.03,0.96-2.5,0.19-3.22-0.75c-0.93-1.24-0.87-2.78-0.16-4.08
				C79.01,38.95,80.47,38.97,81.66,40.13z"/>
			<path class="st3" d="M68.5,31.5c0.1,0.02,0.19,0.05,0.28,0.08c0.07-0.37,0.22-0.72,0.41-1.02c0.57-0.87,1.46-1.56,2.48-1.77
				c1.01-0.21,2.6-0.16,3.31,0.72c0.03,0.05,0.05,0.1,0.07,0.16c0.34-0.24,0.71-0.43,1.08-0.57c0.42-0.16,0.86-0.25,1.31-0.27
				c0.56-0.93,1.38-2.04,0.71-3.09c-0.5-0.82-1.57-1.16-2.48-1.22c-0.84-0.06-1.93,0.01-2.62,0.59c-0.02,0.14-0.05,0.27-0.09,0.41
				c-0.06,0.21-0.23,0.3-0.39,0.31c-0.18,0.65,0.17,1.37,0.54,2c0.14,0.24-0.19,0.5-0.39,0.3c-0.44-0.44-0.83-1.03-1-1.64
				c-0.03-0.01-0.07-0.01-0.1-0.03c-0.87-0.4-1.55-1.07-2.59-0.74c-0.7,0.23-1.3,0.74-1.67,1.37c-0.91,1.55-0.5,3.23,1.24,3.9
				C68.89,31.1,68.79,31.5,68.5,31.5z M68.42,31.48c-2.43-0.36-3.15-2.93-1.93-4.9c0.24-0.39,0.56-0.74,0.93-1.03
				c-0.46-0.28-0.81-0.87-1.32-1.12c-0.6-0.29-1.27-0.47-1.95-0.41c-1.24,0.12-1.67,0.91-1.55,1.87c0.72,0.32,1.35,0.87,1.71,1.61
				c0.44-0.06,0.9-0.02,1.38,0.14c0.34,0.12,0.27,0.59-0.08,0.61c-1.57,0.12-3.07,0.71-3.08,2.56c-0.01,1.53,1.06,2.39,2.51,2.29
				C65.88,32.08,67.16,31.27,68.42,31.48z M83.37,33.95c1.04,1.72-0.23,3.87-1.33,5.23c0.16,0.13,0.32,0.27,0.45,0.43
				c0.67,0.78,1.09,1.77,0.92,2.82c-0.17,1.01-0.79,2.27-1.6,2.92c-1.55,1.23-3.47,0.74-4.68-0.72c-0.24-0.3-0.42-0.61-0.56-0.93
				c-0.08,0.1-0.15,0.2-0.24,0.29c-0.95,0.93-2.39,1.48-3.58,0.64c-0.6-0.41-1.03-1.02-1.29-1.7c-1.72,1.58-4.02,1.16-5.04-0.77
				c-0.7,1.22-1.78,2.46-3.32,2.25c-1.37-0.17-2.34-1.25-2.85-2.46c-0.49-1.2-0.64-2.74,0.05-3.9c-2.9-0.35-3.5-5.31-1.47-7.38
				c-1.31-1.21-1.05-3.39,0.42-4.47c0.81-0.6,1.8-0.74,2.71-0.52c-0.08-0.39-0.06-0.76,0.05-1.11c-0.08,0.01-0.17,0-0.25-0.06
				c-3.36-2.74-12.29-2.88-9.39-9.24c0.1-0.22,0.4-0.31,0.63-0.25c4.12,1.15,8.91,4.29,10.86,8.22c0.78-0.1,1.57-0.01,2.29,0.29
				c-0.17-0.82-0.16-1.72,0.45-2.32c0.7-0.69,1.72-0.84,2.66-0.66c1.66,0.33,3.42,1.73,3.78,3.45c0.81-0.4,1.79-0.52,2.65-0.45
				c1.26,0.11,2.77,0.57,3.38,1.79c0.57,1.13,0.26,2.55-0.44,3.61c1.42,0.32,2.61,1.35,2.68,3.03c0.02,0.37-0.56,0.55-0.72,0.19
				c-0.42-0.9-0.69-1.95-1.77-2.28c-0.3-0.09-0.61-0.12-0.93-0.11c-0.15,0.1-0.3,0.1-0.43,0.04c-0.29,0.05-0.58,0.11-0.85,0.21
				c-0.69,0.25-1.46,0.7-1.8,1.38c-0.24,0.46-0.05,0.95-0.3,1.38c-0.03,0.05-0.09,0.09-0.15,0.08c-0.86-0.09-0.75-1.24-0.49-1.82
				c0.16-0.35,0.38-0.66,0.65-0.93c-0.82-0.16-1.51-0.61-2.41-0.43c-0.74,0.15-1.41,0.5-1.88,1.1c-1.08,1.37-0.24,2.65,1.26,3.11
				c1.22-1.07,3.12-1.11,4.32,0.05c0.93-0.92,2.29-1.39,3.58-1.49C80.77,32.36,82.58,32.64,83.37,33.95z M81.22,38.66
				c0.75-0.99,2.39-3.04,1.29-4.33c-0.78-0.91-2.2-1.04-3.3-0.87c-1.18,0.17-2.57,0.64-3.19,1.75c-0.71,1.29,0.19,2.69,1.01,3.78
				c0.09,0.05,0.17,0.1,0.25,0.16c1.02-1,2.64-1.06,3.93-0.47C81.22,38.67,81.22,38.66,81.22,38.66z M81.05,44.59
				c1.21-1.13,1.97-3.14,0.61-4.45c-1.2-1.16-2.65-1.18-3.99-0.38c-0.72,1.3-0.78,2.84,0.16,4.08
				C78.55,44.77,80.02,45.54,81.05,44.59z M76.36,43.11c-0.28-1.07-0.09-2.21,0.48-3.2c-0.33-0.12-0.65-0.32-0.97-0.43
				c-0.39-0.14-0.79-0.26-1.2-0.31c-0.51-0.07-1.1-0.05-1.55,0.23c-0.72,0.45-0.93,1.44-0.82,2.23c0.14,0.89,0.55,1.81,1.34,2.19
				C74.47,44.23,75.55,43.71,76.36,43.11z M74.83,38.21c0.31,0.06,0.61,0.14,0.9,0.24c-0.82-1.11-1.24-2.61-0.47-3.83
				c-0.61-0.37-1.25-0.76-1.99-0.59c-0.6,0.14-1.14,0.49-1.48,1.03c-0.76,1.22-0.5,2.37,0.54,3.31c0.08,0.08,0.08,0.17,0.03,0.25
				c0.11-0.07,0.22-0.14,0.34-0.19C73.38,38.13,74.1,38.09,74.83,38.21z M72.23,38.74c-0.04,0.01-0.08,0.02-0.12,0.01
				c-0.85-0.14-1.36-0.66-1.59-1.33c-0.02,0.01-0.04,0.03-0.06,0.03c-1.05,0.23-2.36,0.12-3.01,1.19c-0.42,0.69-0.49,1.53-0.25,2.3
				c0.62,1.99,2.42,2.59,4.08,1.37c-0.06-0.29-0.1-0.59-0.12-0.88C71.11,40.46,71.44,39.37,72.23,38.74z M71.7,25.43
				c0.06-0.22,0.17-0.44,0.32-0.65c-0.22-1.54-1-2.8-2.7-3.23c-1.88-0.49-2.7,0.69-2.38,2.38c0.49,0.3,1,0.72,1.12,1.22
				C69.24,24.52,70.69,24.46,71.7,25.43z M71,34.44c0.02-0.03,0.04-0.05,0.05-0.06c-0.91-0.11-1.73-0.44-2.14-1.35
				c-0.1-0.21-0.15-0.43-0.17-0.65c-0.72,0.19-1.44,0.2-2.1,0.65c-0.56,0.38-1.04,0.9-1.31,1.53c-0.64,1.5,0.07,2.75,1.65,2.99
				c0.88-0.78,2.27-1.17,3.4-0.87C70.32,35.9,70.56,35.06,71,34.44z M66.12,41.7c0.02-0.03,0.05-0.05,0.06-0.07
				c-0.04-0.12-0.08-0.24-0.12-0.36c-0.29-1.09-0.22-2.3,0.45-3.23c-0.8-0.07-1.49-0.41-1.95-0.94c-0.72,0.27-1.56,0.1-2.29,0.47
				c-0.48,0.24-0.89,0.56-1.14,1.05c-0.46,0.91-0.34,2.02,0.05,2.94c0.34,0.82,1.06,1.92,2,2.12C64.53,43.97,65.53,42.72,66.12,41.7
				z M64.51,33.89c-1.71,0.13-3.12-1.12-3.02-3.06c0.01-0.17,0.03-0.34,0.06-0.51c-0.03,0.05-0.07,0.1-0.14,0.14
				c-1.62,0.81-2.98,1.73-2.81,3.79c0.14,1.59,1.01,2.42,2.24,3.12c0.83-0.8,2.14-1.36,3.27-1.18c-0.14-0.49-0.11-1.06,0.11-1.67
				C64.29,34.31,64.39,34.1,64.51,33.89z M63.5,27.75c-0.24-0.26-0.47-0.52-0.72-0.75c-0.08,0.04-0.19,0.03-0.25-0.05
				c-0.06-0.08-0.12-0.17-0.17-0.26c-0.23-0.14-0.47-0.24-0.76-0.29c-0.7-0.13-1.46,0.05-2,0.54c-1.11,1.02-0.96,2.23-0.33,3.37
				c0.52-0.36,1.17-0.56,1.95-0.52c0.2,0.01,0.34,0.19,0.36,0.37C61.84,29.08,62.55,28.18,63.5,27.75z M62.19,24.15
				c0.14-0.23,0.34-0.43,0.6-0.58c-1.78-3.32-5.91-6.32-9.56-7.34c-1.06,4.65,6.4,5.18,8.93,7.88
				C62.17,24.12,62.17,24.14,62.19,24.15z"/>
			<path class="st4" d="M62.79,23.57c-0.26,0.16-0.46,0.36-0.6,0.58c-0.01-0.01-0.02-0.03-0.03-0.04c-2.52-2.7-9.99-3.23-8.93-7.88
				C56.88,17.25,61.01,20.25,62.79,23.57z"/>
		</g>
		<g>
			<path class="st5" d="M24.46,69.97c0,0,1.16-0.64,3.72-0.47c2.56,0.17,19.71,3.49,25.23,2.68c5.52-0.81,25.58-3.84,25.58-3.84
				s-5.12,11.28-10.75,13.14c-5.64,1.86-20.11,6.63-29.01,1.98C30.33,78.81,24.99,73.98,24.46,69.97z"/>
			<path class="st6" d="M71.43,67.23c0-0.19-0.78-0.68-0.67-0.77c-0.52-2.79,0.62-5.56,2.84-7.36c0.54-0.42,1.11-0.73,1.69-0.96
				c0.22-0.94,0.59-2,0.3-2.78c-0.58-1.57-3.14-0.03-3.88,0.37c-0.4,0.21-0.96,0.13-1.18-0.31c-0.5-1.02-1.13-2.09-1.56-3.19
				c-0.71,0.71-1.5,1.34-2.28,2.02c-0.41,0.34-0.95,0.29-1.24-0.16c-0.21-0.31-2.2-3.34-3.32-2.31c0.05,0.09,0.09,0.16,0.14,0.25
				c0.29,0.62-0.26,1.15-0.77,1.1c-0.22,0.97-0.1,1.98,0.05,2.98v0.11c3.37-2.06,7.42,0.65,6.01,6.06
				c-0.01,0.03-0.03,0.06-0.05,0.08c1.46,1.03,2.47,2.62,2.54,4.86c0.01,0.17-2.6-0.33-1.45,0.53c-0.41,0.17,0.06,0.47,1.38,0.15
				c0.22-0.04,1.57-0.26,1.78-0.3C71.72,67.3,71.43,67.54,71.43,67.23z"/>
			<path class="st7" d="M39.83,65.91c-1.05,0.64-1.85,1.66-2.12,3.04c-0.03,0.16-0.01,0.29,0.03,0.41
				c-2.28-0.42-11.08,0.44-13.34,0.37c0.18-1.23,0.51-2.18,0-3.26c0-0.01,0.12-2.49,0.12-2.5c2.04-0.97,9.96-0.65,12.21-0.1
				C38.05,64.21,39,64.98,39.83,65.91z"/>
			<path class="st3" d="M82.02,58.72c0.63,0.32,0.53,1.21,0,1.54c-2.67,1.69-4.33,3.89-5.71,6.58c0.56-0.08,1.12-0.17,1.69-0.25
				c0.46-0.06,0.81,0.05,1.07,0.24c0.89-0.43,2.18,0.18,1.77,1.36c-4.27,12.18-17.43,18.54-29.76,18.51
				c-10.91-0.01-25.87-4.96-28.02-17.39c-0.1-0.64,0.72-1.06,1.08-0.46c0.15,0.26,0.32,0.5,0.48,0.77c0.03-0.05,0.06-0.1,0.11-0.13
				c1.39-0.65,2.94-0.95,4.57-1.02c0.14-1.12,0.31-2.55-0.53-3.46c-0.55-0.62-1.3-0.91-2.12-0.81c-2.22,0.25-1.99,2.47-1.06,3.91
				c0.55,0.86-0.8,1.63-1.35,0.79c-0.83-1.28-1.38-2.94-0.63-4.39c0.15-0.29,0.34-0.55,0.57-0.78c-0.85-0.09-1.72-0.27-2.22-0.88
				c-0.91-1.13-0.96-2.61-0.94-4.01c0-0.39,0.43-0.81,0.85-0.64c1.11,0.47,2.44,0.47,3.7,0.59c0.02-1.68,0.51-3.41,2.27-3.99
				c1.61-0.54,3.38,0.85,4.55,2.1c1.03-1.7,2.73-3.78,4.84-3.87c-0.81-5.01,3.18-5.62,6.78-3.06c2.99-4.39,7.13-3.67,9.96,0.46
				c2.54-2.66,5.35-2.8,7.41,0.14c0.15-0.1,0.31-0.19,0.49-0.27c1.72-0.77,3.3,0.87,4.35,2.23c0.86-0.75,1.72-1.49,2.36-2.48
				c0.35-0.56,1.4-0.56,1.54,0.21c0.23,1.23,0.88,2.43,1.48,3.58c1.63-0.8,3.55-1.39,5.05-0.06c1.04,0.94,0.88,2.59,0.35,3.95
				C78.72,57.56,80.47,57.94,82.02,58.72z M79.69,59.7c-4.61-1.34-8.37,2.64-8.09,7.52c0.02,0.39-0.55,0.43-0.65,0.09
				c-0.96-3.06,0.19-6.23,2.65-8.22c0.54-0.42,1.11-0.73,1.69-0.96c0.22-0.94,0.59-2,0.3-2.78c-0.58-1.57-3.14-0.03-3.88,0.37
				c-0.4,0.21-0.96,0.13-1.18-0.31c-0.5-1.02-1.13-2.09-1.56-3.19c-0.71,0.71-1.5,1.34-2.28,2.02c-0.41,0.34-0.95,0.29-1.24-0.16
				c-0.21-0.31-2.2-3.34-3.32-2.31c0.05,0.09,0.09,0.16,0.14,0.25c0.29,0.62-0.26,1.15-0.77,1.1c-0.22,0.97-0.1,1.98,0.05,2.98
				c0,0.05,0,0.08,0,0.11c3.37-2.06,7.42,0.65,6.01,6.06c-0.01,0.03-0.03,0.06-0.05,0.08c1.46,1.03,2.47,2.62,2.54,4.86
				c0.03,0.81-1.12,0.9-1.36,0.18c-1.18-3.53-4.01-5.67-7.9-4.85c-3.81,0.82-6.06,3.66-5.15,7.55c0.59-0.07,1.2-0.14,1.79-0.22
				c-1.01-2.69-0.18-5.62,2.9-6.23c3.13-0.61,5.57,1.92,6.45,4.66c0.01,0.05,0.01,0.09,0.01,0.14c2.49-0.45,4.98-0.89,7.48-1.29
				c0-0.07,0-0.13,0.02-0.19C75.34,64.01,77.24,61.58,79.69,59.7z M51.08,84.15c10.84-0.29,21.72-4.87,26.58-14.87
				c-11.02,1.55-21.91,4.78-33.14,3.46c-3.51-0.41-6.98-0.98-10.46-1.53c-2.52-0.39-6.45-1.67-9.03-1.07
				c-0.02,0.01-0.05-0.01-0.06-0.01C30.95,79.32,39.64,84.44,51.08,84.15z M66.05,61.6c0.31-1.59,0.55-4.88-1.96-4.75
				c-1.9,0.1-2.91,1.51-3.7,3.05c-0.27,0.53-1.11,0.51-1.38,0c-0.5-0.91-1.08-1.81-1.54-2.75c-1.07,1.05-2.3,1.99-2.96,3.35
				c-0.21,0.41-0.79,0.42-1.1,0.14c-0.67-0.71-1.44-1.3-2.28-1.78c-2.06,0.38-2.72,1.42-2.01,3.12c0.08,0.48-0.58,0.69-0.73,0.21
				c-0.51-1.67-1.05-3.95,0.93-4.83c1.5-0.67,3.2,0.62,4.41,1.69c0.96-1.51,2.34-2.51,3.47-3.98c0.39-0.49,1.21-0.17,1.36,0.37
				c0.24,0.88,0.71,1.7,1.18,2.5c0.32-0.43,0.67-0.8,1.03-1.11c-0.15-0.06-0.27-0.17-0.33-0.39c-0.37-1.41-0.64-3.31,0.01-4.7
				c-1.1-1.53-3.04-1.39-5.85,0.45c-0.34,0.46-1.05,0.56-1.38,0c-2.02-3.5-6.01-4.4-8.28-0.65c-0.27,0.45-0.86,0.5-1.23,0.15
				c-2.1-1.92-5.44-1.65-5.49,1.43c1.77,0.35,2.67,1.78,3.29,3.43c1.84-0.69,4.11-0.88,5.31,0.98c0.91,1.42,1.16,3.38,0.7,5.06
				c2.81,0.65,4.87,4.65,6.41,7.69c0.24-0.02,0.47-0.03,0.71-0.06C52.44,62.86,60.79,59.52,66.05,61.6z M65.48,68.69
				c-0.66-2-2.4-3.98-4.72-3.71c-2.42,0.26-3.02,2.66-2.65,4.73c0,0.05,0,0.08,0,0.11C60.56,69.51,63.02,69.11,65.48,68.69z
				 M47.69,70.47c1.58,0.02,3.13-0.01,4.68-0.1c-0.75-1.49-1.45-3.02-2.4-4.39c-0.93-1.35-1.91-2.11-2.98-2.22
				c-0.1,0.18-0.21,0.37-0.32,0.54c-0.31,0.4-1.12,0.34-1.08-0.27c-0.37,0.16-0.74,0.38-1.13,0.69c0.15,0.18,0.26,0.38,0.4,0.56
				c0.58,0.16,1.15,0.39,1.67,0.7c0.57,0.35,0.37,1.36-0.35,1.31c-0.02,0-0.03,0-0.06,0C46.68,68.32,47.17,69.41,47.69,70.47z
				 M45.84,62.6c0.22-1.01,0.46-2.01,0.15-3.01c-0.74-2.49-2.84-2.06-4.76-1.28c-0.38,0.16-0.88-0.16-0.96-0.54
				c-1.06-5.18-5-3.18-7.13,0.01c0.43,0.65-0.35,1.5-0.96,0.89c-0.88-0.9-1.91-2.19-3.22-2.45c-1.85-0.35-1.99,1.99-2.14,3.27
				c-0.05,0.37-0.37,0.72-0.78,0.58c-1.22-0.42-2.44-0.24-3.65-0.4c0.03,1.04,0.15,2.24,1.21,2.57c0.7,0.23,1.42,0.37,2.11,0.57
				c0,0,0.01,0,0.01,0.01c0.26-0.09,0.54-0.15,0.81-0.17c1.4-0.14,2.47,0.39,3.19,1.25c0.48-6.27,10.03-3.79,13.53,0.19
				C44.17,63.27,45.03,62.79,45.84,62.6z M46.96,70.46c-0.74-1.13-1.45-2.3-2.24-3.39c-0.87-0.18-1.74-0.35-2.63-0.22
				c0.02,0.03,0.03,0.06,0.06,0.09c0.23,0.54-0.45,1.21-0.89,0.69c-0.11-0.15-0.23-0.29-0.34-0.43c-0.87,0.42-1.44,1.12-1.74,2.17
				c-0.03,0.09-0.08,0.17-0.13,0.24c1.52,0.27,2.98,0.53,4.32,0.65C44.57,70.37,45.77,70.42,46.96,70.46z M41.18,65.31
				c0.26-0.08,0.53-0.14,0.81-0.18c-1.43-1.57-3.12-2.73-5.3-3.25c-2.38-0.57-5.44-0.5-6.14,2.22
				C34.11,62.24,38.66,62.12,41.18,65.31z M37.71,68.95c0.27-1.38,1.07-2.4,2.12-3.04c-0.83-0.93-1.78-1.7-3.11-2.03
				c-2.25-0.55-4.33-0.05-6.37,0.93c0,0.01-0.01,0.02-0.01,0.03c0.51,1.07,0.69,2.4,0.5,3.63c2.26,0.07,4.61,0.47,6.9,0.89
				C37.7,69.23,37.68,69.11,37.71,68.95z"/>
			<path class="st7" d="M68.75,67.54c-0.03-0.04-0.06-0.08-0.07-0.13c-1.18-3.53-4.01-5.67-7.9-4.85c-3.81,0.82-6.06,3.66-5.15,7.55
				c0.59-0.07,1.2-0.14,1.79-0.22c-1.01-2.69-0.18-5.62,2.9-6.23c3.13-0.61,5.57,1.92,6.45,4.66c0.01,0.05,0.01,0.09,0.01,0.14
				c0.69-0.12,1.37-0.24,2.06-0.37C68.8,67.92,68.77,67.73,68.75,67.54z"/>
			<path class="st7" d="M71.6,66.56c0.06,0.09-0.17,0.54-0.17,0.67c0,0.24,0.3,0.13,0.31,0.37c0.84-0.14,1.68-0.29,2.52-0.43
				c0-0.07,0-0.13,0.02-0.19c1.06-2.97,2.96-5.41,5.41-7.28C75.29,58.43,71.68,61.99,71.6,66.56z"/>
			<path class="st6" d="M64.08,56.85c2.51-0.13,2.27,3.17,1.96,4.75c-5.25-2.08-13.6,1.26-11.44,8.6c-0.24,0.02-0.47,0.03-0.71,0.06
				c-1.54-3.04-3.6-7.04-6.41-7.69c0.47-1.68,0.22-3.65-0.7-5.06c-1.2-1.86-3.47-1.67-5.31-0.98c-0.62-1.65-1.52-3.07-3.29-3.43
				c0.06-3.07,3.39-3.35,5.49-1.43c0.38,0.35,0.96,0.3,1.23-0.15c2.27-3.75,6.26-2.85,8.28,0.65c0.33,0.56,1.04,0.46,1.38,0
				c2.81-1.84,4.75-1.98,5.85-0.45c-0.65,1.38-0.38,3.29-0.01,4.7c0.06,0.22,0.18,0.33,0.33,0.39c-0.35,0.31-0.71,0.67-1.03,1.11
				c-0.47-0.8-0.94-1.62-1.18-2.5c-0.15-0.54-0.97-0.86-1.36-0.37c-1.13,1.46-2.51,2.47-3.47,3.98c-1.21-1.07-2.91-2.37-4.41-1.69
				c-1.98,0.88-1.44,3.17-0.93,4.83c0.15,0.48,0.81,0.27,0.73-0.21c-0.71-1.7-0.05-2.74,2.01-3.12c0.85,0.48,1.61,1.07,2.28,1.78
				c0.31,0.29,0.89,0.27,1.1-0.14c0.66-1.36,1.88-2.3,2.96-3.35c0.46,0.95,1.04,1.84,1.54,2.75c0.27,0.51,1.11,0.53,1.38,0
				C61.17,58.36,62.19,56.95,64.08,56.85z"/>
			<path class="st7" d="M60.76,64.97c2.32-0.26,4.05,1.71,4.72,3.71c-2.46,0.42-4.91,0.82-7.37,1.13c0-0.03,0-0.07,0-0.11
				C57.74,67.63,58.34,65.23,60.76,64.97z"/>
			<path class="st7" d="M52.38,70.37c-1.55,0.09-3.11,0.13-4.68,0.1c-0.53-1.06-1.02-2.15-1.58-3.19c0.02,0,0.03,0,0.06,0
				c0.72,0.05,0.93-0.96,0.35-1.31c-0.51-0.31-1.08-0.54-1.67-0.7c-0.14-0.18-0.25-0.38-0.4-0.56c0.39-0.31,0.77-0.53,1.13-0.69
				c-0.03,0.62,0.78,0.67,1.08,0.27c0.11-0.17,0.22-0.35,0.32-0.54c1.07,0.1,2.06,0.87,2.98,2.22
				C50.92,67.35,51.62,68.88,52.38,70.37z"/>
			<path class="st6" d="M45.99,59.59c0.31,0.99,0.07,2-0.15,3.01c-0.81,0.19-1.67,0.67-2.58,1.51c-3.51-3.99-13.05-6.47-13.53-0.19
				c-0.72-0.86-1.78-1.38-3.19-1.25c-0.27,0.02-0.55,0.08-0.81,0.17c0-0.01-0.01-0.01-0.01-0.01c-0.7-0.21-1.42-0.34-2.11-0.57
				c-1.06-0.33-1.18-1.53-1.21-2.57c1.21,0.16,2.43-0.02,3.65,0.4c0.41,0.14,0.73-0.22,0.78-0.58c0.15-1.28,0.29-3.62,2.14-3.27
				c1.31,0.25,2.34,1.54,3.22,2.45c0.61,0.61,1.39-0.24,0.96-0.89c2.12-3.19,6.06-5.19,7.13-0.01c0.08,0.38,0.58,0.7,0.96,0.54
				C43.15,57.53,45.25,57.1,45.99,59.59z"/>
			<path class="st4" d="M44.72,67.06c0.79,1.1,1.5,2.26,2.24,3.39c-1.19-0.03-2.39-0.09-3.59-0.21c-1.34-0.13-2.8-0.38-4.32-0.65
				c0.05-0.07,0.09-0.15,0.13-0.24c0.3-1.05,0.87-1.75,1.74-2.17c0.11,0.15,0.23,0.29,0.34,0.43c0.45,0.53,1.12-0.15,0.89-0.69
				c-0.02-0.03-0.03-0.06-0.06-0.09C42.99,66.71,43.86,66.88,44.72,67.06z"/>
			<path class="st7" d="M41.99,65.13c-0.29,0.05-0.55,0.1-0.81,0.18c-2.52-3.2-7.07-3.07-10.63-1.21c0.71-2.72,3.77-2.79,6.14-2.22
				C38.88,62.4,40.57,63.57,41.99,65.13z"/>
		</g>
		<g>
			<path class="st3" d="M45.2,22.41c2.27,3.93,1.67,8.3,0.48,12.48c-1.01,3.53-2.34,8.21-5.41,10.54c-2.86,2.17-5.35,0.27-6.81-2.35
				c-0.98,2.66-4.02,4.87-6.61,2.83c-3.29-2.59-4.75-7.67-5.71-11.54c-1.03-4.19-1.94-8.85,0.51-12.77
				c2.05-3.26,7.25-1.99,10.66-2.07c-0.64-0.72-1.17-1.55-1.6-2.37c-0.18-0.34-0.03-0.74,0.34-0.86c1.14-0.34,2.34-0.32,3.52-0.27
				c0.19,0.01,0.4,0.13,0.44,0.33c0.18,0.95,0.28,1.9,0.29,2.84C38.85,17.96,43.22,18.99,45.2,22.41z M44.22,33.81
				c0.82-3.18,1.63-6.95-0.08-10.01c-2.03-3.64-5.17-3.77-8.87-3.51c-0.02,0.26-0.03,0.51-0.07,0.77c0.94,0.23,1.93,0.73,2.07,1.64
				c0.05,0.34-0.2,0.7-0.58,0.58c-0.56-0.16-0.95-0.62-1.52-0.78c-0.48-0.13-0.98-0.21-1.48-0.2c-0.7,0.02-1.61,0.38-2.23-0.01
				c-0.1-0.06-0.15-0.17-0.12-0.29c0.24-0.95,1.74-1.11,2.64-1.1c-0.33-0.19-0.64-0.42-0.94-0.68c-1.62,0.5-3.27,0.72-4.98,0.68
				c-1.6-0.03-3.84-0.28-4.98,1.13c-2.36,2.96-1.7,7.38-0.87,10.77c0.81,3.35,1.86,6.9,3.78,9.79c0.64,0.96,2,2.98,3.46,2.51
				c1.56-0.51,2.15-2.17,3.21-3.27c0.27-0.29,0.65-0.2,0.85,0.05c0.07,0.01,0.14,0.04,0.2,0.11c2.45,2.73,4.95,3.84,7.14,0.22
				C42.42,39.63,43.46,36.74,44.22,33.81z M34.31,20.39c0.15-1.14,0.14-2.33-0.09-3.43c-0.72,0.05-1.42,0.13-2.12,0.28
				c0.38,0.64,0.82,1.25,1.27,1.83C33.63,19.42,33.96,19.97,34.31,20.39z"/>
			<path class="st6" d="M44.14,23.81c1.71,3.06,0.9,6.82,0.08,10.01c-0.76,2.92-1.8,5.82-3.36,8.41c-2.19,3.62-4.69,2.51-7.14-0.22
				c-0.06-0.07-0.13-0.09-0.2-0.11c-0.21-0.25-0.58-0.33-0.85-0.05c-1.06,1.1-1.65,2.76-3.21,3.27c-1.46,0.48-2.82-1.54-3.46-2.51
				c-1.93-2.89-2.98-6.45-3.78-9.79c-0.82-3.39-1.48-7.81,0.87-10.77c1.14-1.41,3.38-1.17,4.98-1.13c1.7,0.04,3.35-0.18,4.98-0.68
				c0.3,0.26,0.61,0.48,0.94,0.68c-0.9-0.01-2.4,0.15-2.64,1.1c-0.03,0.12,0.02,0.23,0.12,0.29c0.62,0.38,1.53,0.03,2.23,0.01
				c0.5-0.01,1,0.07,1.48,0.2c0.57,0.16,0.96,0.62,1.52,0.78c0.38,0.11,0.64-0.24,0.58-0.58c-0.14-0.92-1.13-1.42-2.07-1.64
				c0.03-0.26,0.05-0.51,0.07-0.77C38.97,20.03,42.11,20.17,44.14,23.81z M28.46,40.56c0.56,0.14,0.85-0.5,0.52-0.91
				c-0.58-0.72-1.31-1.23-1.82-2.04c-0.6-0.95-0.9-2.06-0.84-3.18c0.01-0.38-0.58-0.46-0.66-0.09
				C25.17,36.54,25.89,39.91,28.46,40.56z"/>
			<path class="st4" d="M34.22,16.96c0.23,1.09,0.25,2.29,0.09,3.43c-0.35-0.42-0.68-0.97-0.95-1.32c-0.45-0.58-0.89-1.19-1.27-1.83
				C32.79,17.09,33.5,17.01,34.22,16.96z"/>
			<path class="st8" d="M28.98,39.65c0.32,0.41,0.03,1.05-0.52,0.91c-2.56-0.64-3.29-4.02-2.8-6.22c0.08-0.37,0.68-0.29,0.66,0.09
				c-0.06,1.13,0.24,2.23,0.84,3.18C27.67,38.41,28.4,38.92,28.98,39.65z"/>
		</g>
	</g>
</g>
</svg>
