<?xml version="1.0" encoding="utf-8"?>
<!-- Generator: Adobe Illustrator 23.1.0, SVG Export Plug-In . SVG Version: 6.00 Build 0)  -->
<svg version="1.1" id="Capa_1" xmlns="http://www.w3.org/2000/svg" xmlns:xlink="http://www.w3.org/1999/xlink" x="0px" y="0px"
	 viewBox="0 0 100 100" style="enable-background:new 0 0 100 100;" xml:space="preserve">
<style type="text/css">
	.st0{fill:#4B65F0;}
	.st1{fill:#DCDCDC;}
	.st2{fill:#5D5F67;}
	.st3{fill:#95F089;}
	.st4{fill:#BD33C2;}
	.st5{fill:#E3827E;}
	.st6{fill:#555551;}
	.st7{fill:#222221;}
	.st8{fill:#956B41;}
	.st9{fill:#FFFFFF;}
</style>
<g>
	<g>
		<g>
			<path class="st0" d="M47.61,99c-0.01,0-0.03,0-0.04,0c-1.5-0.07-3.01-0.22-4.49-0.43c-0.48-0.07-0.82-0.52-0.75-1
				s0.52-0.82,1-0.75c1.43,0.2,2.88,0.34,4.33,0.41c0.49,0.02,0.86,0.44,0.84,0.93C48.47,98.63,48.08,99,47.61,99z M52.92,98.97
				c-0.46,0-0.85-0.36-0.88-0.83c-0.03-0.49,0.34-0.9,0.83-0.93c1.44-0.09,2.9-0.24,4.32-0.46c0.48-0.07,0.93,0.26,1.01,0.74
				c0.07,0.48-0.26,0.93-0.74,1.01c-1.48,0.23-2.99,0.39-4.48,0.48C52.96,98.97,52.94,98.97,52.92,98.97z M37.99,97.55
				c-0.07,0-0.15-0.01-0.22-0.03c-1.45-0.37-2.9-0.82-4.31-1.33c-0.46-0.16-0.7-0.67-0.53-1.13c0.16-0.46,0.67-0.7,1.13-0.53
				c1.36,0.49,2.76,0.92,4.16,1.28c0.47,0.12,0.76,0.6,0.64,1.08C38.74,97.28,38.38,97.55,37.99,97.55z M62.53,97.41
				c-0.39,0-0.75-0.26-0.85-0.65c-0.13-0.47,0.15-0.96,0.62-1.08c1.4-0.38,2.79-0.82,4.14-1.32c0.46-0.17,0.97,0.06,1.14,0.52
				c0.17,0.46-0.06,0.97-0.52,1.14c-1.4,0.52-2.85,0.98-4.3,1.37C62.68,97.4,62.61,97.41,62.53,97.41z M28.86,94.17
				c-0.13,0-0.26-0.03-0.39-0.09c-1.34-0.66-2.67-1.39-3.96-2.17c-0.42-0.25-0.55-0.8-0.29-1.21c0.25-0.42,0.8-0.55,1.21-0.29
				c1.24,0.75,2.52,1.46,3.81,2.09c0.44,0.21,0.62,0.74,0.4,1.18C29.5,93.99,29.19,94.17,28.86,94.17z M71.62,93.94
				c-0.32,0-0.63-0.18-0.79-0.49c-0.22-0.44-0.04-0.97,0.39-1.19c1.29-0.65,2.57-1.37,3.79-2.13c0.42-0.26,0.96-0.13,1.22,0.28
				c0.26,0.41,0.13,0.96-0.28,1.22c-1.27,0.79-2.59,1.54-3.93,2.21C71.89,93.9,71.75,93.94,71.62,93.94z M20.6,89.03
				c-0.19,0-0.38-0.06-0.54-0.18c-1.18-0.92-2.34-1.9-3.44-2.92c-0.36-0.33-0.38-0.89-0.05-1.25c0.33-0.36,0.89-0.38,1.25-0.05
				c1.06,0.99,2.18,1.93,3.32,2.82c0.39,0.3,0.46,0.85,0.16,1.24C21.12,88.91,20.86,89.03,20.6,89.03z M79.82,88.7
				c-0.26,0-0.52-0.11-0.69-0.34c-0.3-0.38-0.24-0.94,0.14-1.24c1.13-0.9,2.24-1.86,3.28-2.85c0.35-0.33,0.91-0.32,1.25,0.03
				c0.34,0.35,0.32,0.91-0.03,1.25c-1.08,1.03-2.23,2.03-3.41,2.96C80.21,88.64,80.01,88.7,79.82,88.7z M13.54,82.33
				c-0.25,0-0.49-0.1-0.67-0.31c-0.98-1.14-1.92-2.33-2.79-3.55c-0.28-0.4-0.19-0.95,0.21-1.23c0.4-0.28,0.95-0.19,1.23,0.21
				c0.84,1.17,1.74,2.33,2.68,3.42c0.32,0.37,0.28,0.93-0.09,1.25C13.94,82.26,13.74,82.33,13.54,82.33z M86.81,81.92
				c-0.2,0-0.4-0.07-0.57-0.21c-0.37-0.31-0.42-0.87-0.11-1.24c0.93-1.11,1.82-2.27,2.65-3.45c0.28-0.4,0.83-0.5,1.23-0.22
				c0.4,0.28,0.5,0.83,0.22,1.23c-0.86,1.23-1.78,2.43-2.75,3.58C87.31,81.81,87.06,81.92,86.81,81.92z M7.96,74.35
				c-0.31,0-0.61-0.16-0.77-0.45c-0.73-1.31-1.41-2.67-2.01-4.04c-0.2-0.45,0-0.97,0.45-1.17c0.45-0.2,0.97,0,1.16,0.45
				c0.59,1.32,1.24,2.63,1.94,3.89c0.24,0.43,0.09,0.96-0.34,1.2C8.25,74.31,8.1,74.35,7.96,74.35z M92.3,73.88
				c-0.14,0-0.29-0.03-0.42-0.11c-0.43-0.23-0.59-0.77-0.35-1.2c0.69-1.27,1.33-2.59,1.9-3.91c0.19-0.45,0.71-0.66,1.16-0.46
				c0.45,0.19,0.66,0.71,0.46,1.16c-0.59,1.38-1.25,2.74-1.97,4.06C92.92,73.71,92.61,73.88,92.3,73.88z M4.1,65.41
				c-0.38,0-0.72-0.24-0.84-0.62c-0.45-1.43-0.84-2.9-1.16-4.36c-0.1-0.48,0.2-0.95,0.68-1.05c0.48-0.11,0.95,0.2,1.05,0.68
				c0.3,1.41,0.68,2.83,1.11,4.2c0.15,0.46-0.11,0.96-0.58,1.11C4.28,65.4,4.19,65.41,4.1,65.41z M96.06,64.89
				c-0.08,0-0.17-0.01-0.26-0.04c-0.47-0.14-0.73-0.63-0.59-1.1c0.42-1.38,0.78-2.8,1.07-4.22c0.1-0.48,0.57-0.79,1.04-0.69
				c0.48,0.1,0.79,0.56,0.69,1.04c-0.3,1.47-0.67,2.94-1.11,4.38C96.79,64.65,96.44,64.89,96.06,64.89z M2.13,55.88
				c-0.45,0-0.83-0.34-0.88-0.79c-0.15-1.48-0.24-3-0.25-4.5c-0.01-0.49,0.39-0.89,0.87-0.89c0,0,0.01,0,0.01,0
				c0.48,0,0.88,0.39,0.88,0.87c0.02,1.45,0.1,2.91,0.25,4.34c0.05,0.48-0.3,0.92-0.79,0.97C2.19,55.88,2.16,55.88,2.13,55.88z
				 M97.92,55.34c-0.03,0-0.05,0-0.08,0c-0.49-0.04-0.84-0.47-0.8-0.96c0.13-1.44,0.2-2.9,0.2-4.35l0-0.2
				c0-0.49,0.39-0.88,0.88-0.88S99,49.34,99,49.83l0,0.19c0,1.51-0.07,3.03-0.2,4.52C98.75,54.99,98.37,55.34,97.92,55.34z
				 M2.11,46.14c-0.03,0-0.06,0-0.09,0c-0.49-0.05-0.84-0.48-0.79-0.97c0.15-1.5,0.36-3,0.65-4.47c0.09-0.48,0.55-0.79,1.03-0.7
				c0.48,0.09,0.79,0.55,0.7,1.03c-0.27,1.41-0.48,2.86-0.62,4.3C2.95,45.8,2.56,46.14,2.11,46.14z M97.81,45.41
				c-0.44,0-0.83-0.33-0.88-0.78c-0.16-1.44-0.4-2.88-0.69-4.29c-0.1-0.48,0.21-0.95,0.68-1.04c0.47-0.1,0.94,0.21,1.04,0.68
				c0.31,1.46,0.55,2.96,0.72,4.45c0.06,0.48-0.29,0.92-0.78,0.98C97.87,45.4,97.84,45.41,97.81,45.41z M4.04,36.6
				c-0.09,0-0.18-0.01-0.26-0.04c-0.47-0.14-0.73-0.64-0.58-1.11c0.45-1.43,0.96-2.86,1.54-4.24c0.19-0.45,0.7-0.66,1.15-0.48
				c0.45,0.19,0.66,0.7,0.48,1.16c-0.55,1.33-1.05,2.71-1.48,4.09C4.77,36.36,4.42,36.6,4.04,36.6z M95.73,35.9
				c-0.37,0-0.72-0.24-0.84-0.61c-0.45-1.37-0.97-2.74-1.54-4.07c-0.19-0.45,0.01-0.97,0.46-1.16c0.45-0.19,0.97,0.01,1.16,0.46
				c0.6,1.38,1.14,2.8,1.6,4.22c0.15,0.46-0.1,0.96-0.56,1.11C95.91,35.88,95.82,35.9,95.73,35.9z M7.86,27.64
				c-0.14,0-0.29-0.04-0.43-0.11c-0.43-0.24-0.58-0.77-0.35-1.2c0.72-1.31,1.52-2.6,2.36-3.85c0.27-0.4,0.82-0.51,1.23-0.23
				c0.4,0.27,0.51,0.82,0.23,1.23c-0.81,1.2-1.58,2.44-2.28,3.71C8.48,27.48,8.17,27.64,7.86,27.64z M91.77,27
				c-0.31,0-0.6-0.16-0.77-0.44c-0.72-1.25-1.5-2.49-2.33-3.67c-0.28-0.4-0.18-0.95,0.21-1.23c0.4-0.28,0.95-0.18,1.23,0.21
				c0.86,1.23,1.68,2.51,2.42,3.81c0.24,0.42,0.1,0.96-0.33,1.21C92.07,26.97,91.92,27,91.77,27z M13.41,19.64
				c-0.2,0-0.41-0.07-0.57-0.21c-0.37-0.32-0.41-0.87-0.1-1.24c0.98-1.14,2.01-2.25,3.09-3.29c0.35-0.34,0.91-0.33,1.25,0.02
				c0.34,0.35,0.33,0.91-0.02,1.25c-1.03,1-2.03,2.07-2.97,3.17C13.91,19.54,13.66,19.64,13.41,19.64z M86.11,19.09
				c-0.24,0-0.49-0.1-0.66-0.3c-0.96-1.09-1.98-2.14-3.02-3.13c-0.35-0.33-0.37-0.89-0.04-1.25c0.34-0.35,0.89-0.37,1.25-0.04
				c1.08,1.02,2.14,2.12,3.14,3.24c0.32,0.37,0.29,0.92-0.08,1.25C86.52,19.02,86.32,19.09,86.11,19.09z M20.45,12.91
				c-0.26,0-0.52-0.12-0.7-0.34c-0.3-0.38-0.23-0.94,0.15-1.24c1.18-0.92,2.42-1.8,3.68-2.61C24,8.46,24.54,8.58,24.8,8.99
				c0.26,0.41,0.14,0.96-0.27,1.22c-1.22,0.78-2.41,1.63-3.55,2.51C20.83,12.85,20.64,12.91,20.45,12.91z M78.97,12.47
				c-0.19,0-0.37-0.06-0.53-0.18c-1.16-0.87-2.36-1.7-3.59-2.46c-0.41-0.26-0.54-0.8-0.29-1.22c0.26-0.41,0.8-0.55,1.22-0.29
				c1.27,0.79,2.52,1.65,3.72,2.55c0.39,0.29,0.47,0.85,0.17,1.24C79.5,12.35,79.24,12.47,78.97,12.47z M28.69,7.74
				c-0.33,0-0.64-0.18-0.79-0.49c-0.22-0.44-0.04-0.97,0.4-1.18c1.34-0.67,2.73-1.28,4.13-1.81c0.46-0.17,0.97,0.05,1.14,0.51
				c0.17,0.45-0.05,0.97-0.51,1.14C31.71,6.41,30.37,7,29.08,7.64C28.95,7.71,28.82,7.74,28.69,7.74z M70.65,7.41
				c-0.13,0-0.26-0.03-0.38-0.09c-1.3-0.62-2.65-1.19-4.01-1.69c-0.46-0.17-0.69-0.67-0.53-1.13s0.67-0.7,1.13-0.53
				c1.41,0.52,2.81,1.1,4.16,1.75c0.44,0.21,0.63,0.74,0.42,1.18C71.3,7.23,70.98,7.41,70.65,7.41z M37.8,4.33
				c-0.39,0-0.75-0.26-0.85-0.66c-0.12-0.47,0.16-0.96,0.63-1.08c1.45-0.38,2.93-0.69,4.41-0.94C42.47,1.56,42.92,1.9,43,2.38
				c0.08,0.48-0.25,0.94-0.73,1.01c-1.42,0.23-2.86,0.54-4.25,0.9C37.95,4.32,37.87,4.33,37.8,4.33z M61.48,4.15
				c-0.07,0-0.14-0.01-0.21-0.03c-1.4-0.34-2.84-0.63-4.27-0.84c-0.48-0.07-0.81-0.52-0.74-1c0.07-0.48,0.52-0.81,1-0.74
				c1.48,0.22,2.97,0.51,4.43,0.87c0.47,0.12,0.76,0.59,0.65,1.07C62.24,3.88,61.88,4.15,61.48,4.15z M47.41,2.83
				c-0.47,0-0.86-0.36-0.88-0.84c-0.03-0.49,0.35-0.9,0.83-0.93C48.25,1.02,49.13,1.01,50,1c0.63,0,1.25,0.01,1.88,0.04
				c0.49,0.02,0.87,0.43,0.85,0.92c-0.02,0.49-0.41,0.89-0.92,0.85c-0.62-0.02-1.24-0.04-1.86-0.03c-0.82,0-1.66,0.02-2.49,0.07
				C47.45,2.83,47.43,2.83,47.41,2.83z"/>
		</g>
		<ellipse class="st1" cx="50" cy="50.03" rx="35.76" ry="35.78"/>
	</g>
	<g>
		<path class="st2" d="M80.4,73.81c-4.8,6.24-13.56,14.85-21.81,9.1C42.67,71.82,67.13,56.26,74.94,50c0.11-0.09,0.23-0.11,0.34-0.1
			c-0.03-0.05-0.06-0.09-0.09-0.14c-0.05-0.07-0.07-0.14-0.05-0.2c-0.17,0.14-0.51,0.09-0.55-0.16c-0.73-4.59,5.7-5.95,9.13-4.87
			c-0.23-2.25,0.62-4.51,2.28-6.1c0.18-0.17,0.44-0.28,0.69-0.21c1.24,0.39,2.23,1.22,3.11,2.16c0.21,0.23,0.26,0.59,0.03,0.82
			c-1.39,1.41-1.43,3.45-2.44,5.05c2.87,2.5,3.84,6.08,2.42,9.64c-0.07,0.17-0.2,0.27-0.34,0.31c-0.05,0.2-0.18,0.38-0.38,0.46
			c-0.33,0.11-0.7,0.17-1.09,0.18c0.03,0.04,0.06,0.09,0.07,0.15c0.48,2.26-1.69,5.83-2.52,7.9C84.26,68.1,82.52,71.05,80.4,73.81z
			 M59.6,81.51c8.38,6.01,17.97-5.62,21.9-12.07c1.41-2.31,2.51-4.68,3.5-7.2c0.54-1.36,1.05-2.75,1.61-4.11
			c0.14-0.34,0.25-0.68,0.47-1c0.08-0.11,0.14-0.16,0.19-0.17c0.01-0.02,0.01-0.03,0.02-0.05c0.02-0.03,0.04-0.05,0.07-0.08
			c-1.03-0.08-2.11-0.38-2.9-0.69c-1.43-0.56-2.69-1.29-3.66-2.5c-0.36-0.46,0.34-0.93,0.74-0.61c1.27,1.02,2.55,1.67,4.15,2
			c0.93,0.2,1.97,0.17,2.9,0.41c0-0.01,0-0.01,0-0.02c1.14-3.13,0.13-6-1.96-8.45c-0.13-0.15-0.15-0.31-0.13-0.45
			c-0.13-0.1-0.2-0.26-0.12-0.47c0.6-1.74,1.08-3.7,2.21-5.19c-0.53-0.48-1.12-0.89-1.79-1.13c-1.18,1.67-1.98,3.24-2.11,5.36
			c-0.01,0.18-0.13,0.32-0.27,0.39c-0.13,0.29-0.41,0.52-0.75,0.39c-3.32-1.2-6.98,0.27-8.4,3.47c0.12-0.09,0.3-0.12,0.42,0.01
			c0.38,0.38,0.79,1.09,1.29,1.32c0.16,0.07,0.9-0.63,1.07-0.71c1.05-0.55,2.29-0.87,3.17-1.69c0.47-0.43,1.23,0.07,0.93,0.66
			c-0.66,1.23-0.39,2.79-1.16,3.97c-0.3,0.46-1.11,0.23-0.93-0.35c0.23-0.8,0.38-1.61,0.56-2.41c-0.95,0.5-2,0.84-2.79,1.6
			c-0.26,0.25-0.6,0.24-0.87,0.03c-0.42-0.32-0.72-0.65-1-1.01c-0.03,0.09-0.08,0.18-0.16,0.25C69.02,56.79,45.87,71.66,59.6,81.51z
			"/>
		<path class="st3" d="M78.04,49.97c1.05-0.55,2.29-0.87,3.17-1.69c0.47-0.43,1.23,0.07,0.93,0.66c-0.6,1.12-0.44,2.51-0.98,3.63
			c0.08,0.12-0.62,0.58-0.55,0.71c0.06,0.02,0.89-0.28,0.93-0.24c1.27,1.02,2.55,1.67,4.15,2c0.93,0.2,1.97,0.17,2.9,0.41
			c0-0.01,0-0.01,0-0.02c1.14-3.13,0.13-6-1.96-8.45c-0.13-0.15-0.15-0.31-0.13-0.45c-0.13-0.1-0.2-0.26-0.12-0.47
			c0.6-1.74,1.08-3.7,2.21-5.19c-0.53-0.48-1.12-0.89-1.79-1.13c-1.18,1.67-1.98,3.24-2.11,5.36c-0.01,0.18-0.13,0.32-0.27,0.39
			c-0.13,0.29-0.41,0.52-0.75,0.39c-3.32-1.2-6.98,0.27-8.4,3.47c0.12-0.09,0.3-0.12,0.42,0.01c0.38,0.38,0.79,1.09,1.29,1.32
			C77.13,50.75,77.88,50.05,78.04,49.97z"/>
		<path class="st4" d="M81.5,69.44c1.41-2.31,2.51-4.68,3.5-7.2c0.54-1.36,1.05-2.75,1.61-4.11c0.14-0.34,0.25-0.68,0.47-1
			c0.08-0.11,0.14-0.16,0.19-0.17c0.01-0.02,0.01-0.03,0.02-0.05c0.02-0.03,0.04-0.05,0.07-0.08c-1.03-0.08-2.11-0.38-2.9-0.69
			c-1.43-0.56-2.69-1.29-3.66-2.5c-0.08-0.1-0.1-0.2-0.09-0.29c-0.04-0.07-0.08-0.15-0.12-0.22c-0.32,0.04-0.67-0.18-0.54-0.58
			c0.23-0.8,0.38-1.61,0.56-2.41c-0.95,0.5-2,0.84-2.79,1.6c-0.26,0.25-0.6,0.24-0.87,0.03c-0.42-0.32-0.72-0.65-1-1.01
			c-0.03,0.09-0.08,0.18-0.16,0.25c-6.77,5.76-29.92,20.63-16.18,30.49C67.98,87.52,77.57,75.88,81.5,69.44z"/>
	</g>
	<g>
		<path class="st2" d="M75.75,19.21c0.18,6.98-0.77,14.59-5.36,20.18c-4.6,5.58-11.57,8.08-18.66,8.37
			c-8.09,0.33-15.68-2.38-20.77-8.87c-4.35-5.54-5.98-13.65-3.43-20.3c0.15-0.4,0.67-0.49,0.94-0.26
			c7.45-1.17,14.72,0.73,22.09,1.58c7.82,0.91,15.24-1.57,22.98-1.33C74.07,17.71,75.72,17.92,75.75,19.21z M73.36,20.86
			c-0.61,0.06-1.22,0.13-1.84,0.2c0.48,6.75-1.11,13.48-6.64,17.86c-4.5,3.55-10.58,4.47-16.14,3.78
			C37.61,41.31,27.1,31.91,31.15,20.14c-0.85-0.03-1.7-0.04-2.56-0.03c-0.14,6.64,0.52,13.37,5.38,18.47
			c4.97,5.22,11.76,7.24,18.86,6.54c6.35-0.62,12.93-2.97,16.49-8.62C72.31,31.76,73.26,26.35,73.36,20.86z M64.55,36.96
			c4.45-4.11,5.69-9.88,5.42-15.71c-6.47,0.84-12.87,2.01-19.42,1.23c-6.1-0.72-12.07-1.92-18.19-2.27
			c-2.42,11.4,6.44,20.02,17.57,20.89C55.03,41.5,60.67,40.54,64.55,36.96z"/>
		<path class="st3" d="M71.52,21.06c0.61-0.08,1.22-0.14,1.84-0.2c-0.1,5.49-1.05,10.9-4.03,15.64c-3.56,5.65-10.14,8-16.49,8.62
			c-7.1,0.71-13.88-1.32-18.86-6.54c-4.86-5.1-5.53-11.83-5.38-18.47c0.86-0.01,1.71,0.01,2.56,0.03
			C27.1,31.91,37.61,41.31,48.75,42.7c5.56,0.69,11.64-0.23,16.14-3.78C70.41,34.55,72.01,27.81,71.52,21.06z"/>
		<path class="st5" d="M69.98,21.25c0.26,5.83-0.98,11.61-5.42,15.71c-3.89,3.58-9.52,4.54-14.62,4.14
			c-11.13-0.87-19.99-9.49-17.57-20.89c6.11,0.35,12.08,1.55,18.19,2.27C57.1,23.26,63.51,22.09,69.98,21.25z M63.37,28.36
			c0.34,1.37,2.55,0.75,2.09-0.58c-0.14-0.42-0.26-0.53-0.42-0.93c-0.14-0.37-0.24-0.75-0.37-1.12c-0.2-0.65-1.15-0.68-1.33,0
			c-0.13,0.45-0.13,0.9-0.09,1.36C63.28,27.5,63.28,27.97,63.37,28.36z M62.27,35.63c0.86,0.32,1.56-0.62,1.39-1.39
			c-0.09-0.44-0.34-0.67-0.46-1.08c-0.14-0.48-0.2-0.99-0.26-1.5c-0.14-1.07-1.54-1.07-1.67,0C61.1,32.97,60.73,35.04,62.27,35.63z
			 M57.78,32.9c0.79,0,1.42-0.79,1.19-1.56c-0.34-1.15-0.39-2.33-1.08-3.37c-0.42-0.64-1.47-0.25-1.25,0.53
			c0.25,0.88,0.21,1.96-0.05,2.84C56.36,32.11,56.99,32.9,57.78,32.9z M53.01,37.88c0.77,0.26,1.73-0.43,1.65-1.27
			c-0.01-0.12-0.04-0.23-0.09-0.34c0,0,0,0,0-0.01c0,0,0-0.01,0-0.02c-0.01-0.03-0.03-0.05-0.05-0.09
			c-0.01-0.03-0.02-0.05-0.03-0.08c-0.03-0.1-0.07-0.2-0.14-0.29c-0.09-0.12-0.14-0.19-0.17-0.23c-0.11-0.16-0.22-0.32-0.33-0.48
			c-0.3-0.46-0.46-0.72-0.55-1.23c-0.15-0.76-1.45-0.8-1.57,0c-0.13,0.86-0.08,1.85,0.13,2.68C52.02,37.18,52.35,37.65,53.01,37.88z
			 M53.8,29.96c0.83-0.23,1.23-1.41,0.54-2.02c-0.56-0.48-0.89-1.54-0.99-2.24c-0.15-1-1.61-0.66-1.67,0.23
			c-0.03,0.5,0.02,0.99,0.13,1.49c0.05,0.22,0.12,0.43,0.19,0.64c0.07,0.22,0.26,0.52,0.28,0.75C52.32,29.56,52.99,30.18,53.8,29.96
			z M46.28,33.01c1.07,0,1.5-1.01,1.19-1.85c-0.21-0.93-0.26-1.91-0.36-2.85c-0.12-1.07-1.54-1.07-1.66,0
			c-0.11,0.94-0.14,1.92-0.36,2.85C45.03,31.34,45,31.53,45,31.71C45,32.38,45.45,33.01,46.28,33.01z M42.43,33.92
			c0.39-0.24,0.65-0.77,0.49-1.22c-0.15-0.45-0.4-0.89-0.6-1.33c-0.2-0.42-0.42-0.9-0.77-1.21c-0.62-0.54-1.73,0.18-1.2,0.93
			c0.03,0.03,0.04,0.07,0.07,0.11c0,0.03,0.07,0.2,0.08,0.22c0.07,0.21,0.12,0.43,0.16,0.65c0.02,0.09,0.03,0.2,0.06,0.3
			c0.01,0.04,0.01,0.07,0.02,0.09v0.01c0.01,0.03,0.01,0.07,0.01,0.1c0.03,0.23,0.04,0.48,0.1,0.7c0.12,0.43,0.56,0.82,1.04,0.79
			C42.1,34.05,42.24,34.03,42.43,33.92z M39.72,27.37c0.03-0.26-0.04-0.55-0.06-0.81c-0.05-0.65-0.16-1.31-0.26-1.96
			c-0.18-1.27-2.36-1.27-2.54,0c-0.09,0.62-0.2,1.24-0.25,1.86c-0.03,0.28-0.04,0.57-0.06,0.85c-0.03,0.35,0.08,0.64,0.25,0.91
			c0.07,0.13,0.15,0.26,0.27,0.37c0.26,0.32,0.65,0.45,1.05,0.44c0.4,0.01,0.8-0.12,1.06-0.44c0.16-0.16,0.27-0.33,0.34-0.52
			C39.63,27.87,39.69,27.66,39.72,27.37z"/>
		<path class="st6" d="M65.46,27.78c0.46,1.33-1.75,1.95-2.09,0.58c-0.09-0.38-0.09-0.86-0.12-1.27c-0.03-0.46-0.03-0.91,0.09-1.36
			c0.19-0.68,1.13-0.65,1.33,0c0.13,0.37,0.23,0.76,0.37,1.12C65.2,27.25,65.33,27.36,65.46,27.78z"/>
		<path class="st6" d="M63.66,34.24c0.17,0.77-0.53,1.71-1.39,1.39c-1.55-0.59-1.17-2.66-1.01-3.96c0.14-1.07,1.54-1.07,1.67,0
			c0.06,0.5,0.13,1.01,0.26,1.5C63.32,33.57,63.57,33.8,63.66,34.24z"/>
		<path class="st6" d="M58.97,31.33c0.23,0.77-0.4,1.56-1.19,1.56c-0.79,0-1.42-0.79-1.19-1.56c0.26-0.88,0.3-1.96,0.05-2.84
			c-0.22-0.77,0.83-1.16,1.25-0.53C58.58,29,58.63,30.19,58.97,31.33z"/>
		<path class="st6" d="M54.66,36.61c0.09,0.84-0.88,1.53-1.65,1.27c-0.66-0.23-0.99-0.7-1.16-1.36c-0.2-0.83-0.26-1.82-0.13-2.68
			c0.12-0.8,1.42-0.76,1.57,0c0.09,0.51,0.26,0.77,0.55,1.23c0.11,0.16,0.22,0.32,0.33,0.48c0.03,0.04,0.08,0.11,0.17,0.23
			c0.07,0.09,0.1,0.19,0.14,0.29c-0.02-0.03-0.03-0.06-0.06-0.09c0.03,0.05,0.06,0.11,0.09,0.17c0,0.01,0.01,0.02,0.01,0.03
			c0.02,0.04,0.03,0.08,0.04,0.09C54.62,36.38,54.66,36.49,54.66,36.61z"/>
		<path class="st7" d="M54.58,36.25c-0.02-0.03-0.03-0.04-0.04-0.07c0-0.01-0.01-0.02-0.01-0.03C54.55,36.2,54.57,36.22,54.58,36.25
			z"/>
		<path class="st6" d="M54.33,27.93c0.7,0.61,0.3,1.79-0.54,2.02c-0.81,0.22-1.48-0.39-1.54-1.16c-0.02-0.23-0.21-0.53-0.28-0.75
			c-0.07-0.21-0.14-0.42-0.19-0.64c-0.11-0.49-0.16-0.99-0.13-1.49c0.07-0.89,1.52-1.23,1.67-0.23
			C53.44,26.39,53.77,27.45,54.33,27.93z"/>
		<path class="st6" d="M47.47,31.16c0.31,0.83-0.12,1.85-1.19,1.85c-0.83,0-1.28-0.63-1.28-1.3c0-0.18,0.03-0.37,0.09-0.54
			c0.21-0.93,0.25-1.91,0.36-2.85c0.12-1.07,1.54-1.07,1.66,0C47.22,29.25,47.26,30.24,47.47,31.16z"/>
		<path class="st6" d="M40.74,32.46c-0.01-0.02-0.01-0.04-0.02-0.09c-0.03-0.1-0.04-0.2-0.06-0.3c-0.04-0.22-0.09-0.44-0.16-0.65
			c-0.01-0.03-0.08-0.2-0.08-0.22c-0.03-0.04-0.04-0.08-0.07-0.11c-0.54-0.75,0.58-1.47,1.2-0.93c0.36,0.31,0.58,0.79,0.77,1.21
			c0.2,0.43,0.44,0.88,0.6,1.33c0.16,0.45-0.1,0.98-0.49,1.22c-0.19,0.11-0.33,0.13-0.54,0.14c-0.48,0.03-0.92-0.36-1.04-0.79
			c-0.06-0.22-0.07-0.47-0.1-0.7C40.75,32.54,40.75,32.51,40.74,32.46L40.74,32.46z"/>
		<path class="st6" d="M39.67,26.56c0.02,0.26,0.09,0.55,0.06,0.81c-0.03,0.29-0.09,0.5-0.19,0.71c-0.07,0.19-0.18,0.36-0.34,0.52
			c-0.26,0.32-0.66,0.45-1.06,0.44c-0.4,0.01-0.8-0.12-1.05-0.44c-0.12-0.12-0.2-0.25-0.27-0.37c-0.17-0.27-0.27-0.56-0.25-0.91
			c0.02-0.28,0.03-0.57,0.06-0.85c0.04-0.62,0.16-1.24,0.25-1.86c0.18-1.27,2.36-1.27,2.54,0C39.5,25.25,39.61,25.91,39.67,26.56z"
			/>
	</g>
	<g>
		<g>
			<g>
				<g>
					<path class="st8" d="M16.48,53.23c0,0-5.62-9.36,5.59-8.28c11.21,1.08,11.19,10.91,8.21,13c-2.98,2.08-4.81,0.67-7.12-2.43
						C20.84,52.41,18.39,56.07,16.48,53.23z"/>
				</g>
				<g>
					<path class="st2" d="M27.65,59.82c-2.15,0-3.74-1.82-5.2-3.78c-0.87-1.17-1.61-1.05-2.74-0.89c-1.15,0.17-2.72,0.41-3.96-1.44
						l-0.02-0.04c-0.11-0.19-2.7-4.57-0.88-7.45c1.13-1.79,3.59-2.51,7.31-2.15c7.82,0.75,9.88,5.45,10.4,7.44
						c0.75,2.85-0.01,5.92-1.77,7.15C29.61,59.48,28.58,59.82,27.65,59.82z M20.71,53.3c0.99,0,2.11,0.31,3.14,1.69
						c2.45,3.29,3.72,3.77,5.92,2.24c1-0.7,1.7-2.91,1.08-5.27c-0.91-3.45-4.14-5.69-8.87-6.14c-2.07-0.2-4.73-0.13-5.66,1.34
						c-1.03,1.63,0.28,4.57,0.89,5.6c0.59,0.87,1.09,0.84,2.23,0.66C19.83,53.36,20.26,53.3,20.71,53.3z"/>
				</g>
			</g>
			<g>
				<g>
					<path class="st9" d="M20.31,52.1c0,0,3.88,0.46,4.71,1.92c0.84,1.46-0.08,0.98-1.72,0.16c-1.65-0.82-2.98-0.5-3.29-1.19
						C19.7,52.29,20.05,52.06,20.31,52.1z"/>
				</g>
				<g>
					<path class="st2" d="M25.17,55.4c-0.41,0-1.01-0.3-1.97-0.78l-0.09-0.05c-0.73-0.36-1.4-0.49-1.94-0.59
						c-0.7-0.13-1.3-0.24-1.55-0.81c-0.28-0.61-0.15-0.99,0-1.19c0.17-0.23,0.46-0.34,0.75-0.31c0.44,0.05,4.12,0.54,5.04,2.13
						c0.28,0.49,0.56,1.05,0.22,1.41C25.5,55.34,25.36,55.4,25.17,55.4z M20.33,52.54c0.01,0.05,0.03,0.14,0.08,0.26
						c0.07,0.15,0.46,0.23,0.92,0.31c0.56,0.11,1.34,0.25,2.17,0.67l0.09,0.05c0.39,0.2,0.81,0.41,1.13,0.54
						c-0.02-0.04-0.05-0.09-0.08-0.14C24.12,53.33,21.75,52.72,20.33,52.54z"/>
				</g>
			</g>
		</g>
		<g>
			<g>
				<g>
					<path class="st8" d="M35.24,61.18c0,0,2.61-10.6,9.8-1.93s0.24,15.63-3.34,15c-3.58-0.63-3.89-2.92-3.34-6.75
						C38.91,63.68,34.59,64.54,35.24,61.18z"/>
				</g>
				<g>
					<path class="st2" d="M42.16,75.17c-0.21,0-0.41-0.02-0.61-0.05c-4.65-0.81-4.53-4.42-4.06-7.73c0.21-1.44-0.4-1.88-1.32-2.56
						c-0.94-0.69-2.22-1.63-1.8-3.81l0.01-0.04c0.05-0.21,1.3-5.14,4.63-5.91c2.05-0.47,4.31,0.75,6.7,3.63
						c5.02,6.04,3.16,10.83,2.13,12.61C46.51,73.6,44.16,75.17,42.16,75.17z M36.1,61.37c-0.2,1.04,0.18,1.36,1.12,2.05
						c1,0.73,2.37,1.74,2.02,4.22c-0.58,4.06-0.02,5.3,2.62,5.76c1.2,0.21,3.26-0.87,4.48-2.97c1.79-3.08,1.07-6.95-1.96-10.61
						c-1.33-1.6-3.28-3.42-4.96-3.04C37.53,57.2,36.39,60.21,36.1,61.37z"/>
				</g>
			</g>
			<g>
				<g>
					<path class="st9" d="M38.76,63.08c0,0,2.42,3.06,1.99,4.68c-0.43,1.63-0.74,0.64-1.33-1.1c-0.59-1.74-1.76-2.45-1.49-3.17
						S38.6,62.87,38.76,63.08z"/>
				</g>
				<g>
					<path class="st2" d="M40.31,69.03c-0.56,0-0.78-0.67-1.27-2.13L39,66.8c-0.26-0.77-0.65-1.33-0.96-1.79
						c-0.4-0.58-0.75-1.08-0.53-1.67c0.24-0.63,0.59-0.8,0.84-0.84c0.28-0.04,0.57,0.08,0.75,0.31c0.27,0.34,2.54,3.28,2.07,5.07
						c-0.15,0.55-0.34,1.14-0.84,1.15C40.32,69.03,40.31,69.03,40.31,69.03z M38.46,63.41c-0.03,0.04-0.08,0.11-0.12,0.24
						c-0.06,0.16,0.17,0.49,0.43,0.87c0.33,0.47,0.77,1.12,1.07,2l0.04,0.1c0.14,0.41,0.29,0.86,0.42,1.18
						c0.01-0.05,0.03-0.1,0.04-0.15C40.59,66.64,39.34,64.54,38.46,63.41z"/>
				</g>
			</g>
		</g>
		<g>
			<g>
				<g>
					<path class="st8" d="M19,68.44c0,0-4.13-10.11,6.79-7.33c10.92,2.78,9.39,12.5,6.12,14.1c-3.27,1.6-4.86-0.07-6.67-3.49
						C23.44,68.3,20.45,71.54,19,68.44z"/>
				</g>
				<g>
					<path class="st2" d="M29.64,76.71c-2.49,0-3.92-2.22-5.17-4.58c-0.68-1.29-1.43-1.29-2.57-1.29c-1.16,0-2.75-0.01-3.7-2.03
						l-0.02-0.04c-0.08-0.2-1.97-4.93,0.27-7.5c1.38-1.59,3.92-1.93,7.55-1.01c7.61,1.94,8.92,6.9,9.14,8.94
						c0.3,2.93-0.92,5.85-2.85,6.79C31.29,76.49,30.42,76.71,29.64,76.71z M19.8,68.09c0.45,0.95,0.95,0.99,2.11,1
						c1.24,0,2.94,0.01,4.11,2.23c1.92,3.63,3.11,4.29,5.51,3.11c1.1-0.54,2.13-2.62,1.87-5.04c-0.37-3.55-3.22-6.25-7.83-7.43
						c-2.01-0.51-4.66-0.85-5.8,0.46C18.51,63.87,19.36,66.98,19.8,68.09z"/>
				</g>
			</g>
			<g>
				<g>
					<path class="st9" d="M22.96,67.91c0,0,3.76,1.05,4.37,2.62c0.61,1.57-0.22,0.96-1.72-0.11s-2.87-0.95-3.07-1.68
						C22.33,68.01,22.71,67.83,22.96,67.91z"/>
				</g>
				<g>
					<path class="st2" d="M27.38,71.92c-0.41,0-0.98-0.4-1.94-1.08l-0.08-0.06c-0.66-0.47-1.31-0.7-1.83-0.88
						c-0.67-0.23-1.24-0.44-1.41-1.04c-0.18-0.65,0-1,0.19-1.18c0.2-0.2,0.5-0.27,0.79-0.19c0.42,0.12,3.99,1.16,4.65,2.88
						c0.2,0.53,0.39,1.12,0,1.43C27.63,71.88,27.51,71.92,27.38,71.92z M22.91,68.35c0,0.05,0.01,0.14,0.04,0.27
						c0.05,0.16,0.42,0.3,0.86,0.45c0.54,0.19,1.28,0.45,2.05,0.99l0.08,0.06c0.36,0.25,0.74,0.53,1.03,0.71
						c-0.02-0.04-0.03-0.09-0.05-0.15C26.54,69.71,24.29,68.75,22.91,68.35z"/>
				</g>
			</g>
		</g>
	</g>
</g>
</svg>
