<?xml version="1.0" encoding="utf-8"?>
<!-- Generator: Adobe Illustrator 23.1.0, SVG Export Plug-In . SVG Version: 6.00 Build 0)  -->
<svg version="1.1" id="Capa_1" xmlns="http://www.w3.org/2000/svg" xmlns:xlink="http://www.w3.org/1999/xlink" x="0px" y="0px"
	 viewBox="0 0 100 100" style="enable-background:new 0 0 100 100;" xml:space="preserve">
<style type="text/css">
	.st0{fill:#4B65EE;}
	.st1{fill:#DCDCDC;}
	.st2{fill:#5D5F67;}
	.st3{fill:#E3827E;}
	.st4{fill:#F5F5F5;}
	.st5{fill:#95F089;}
	.st6{fill:#555551;}
	.st7{fill:#222221;}
	.st8{fill:#9FD1B7;}
	.st9{fill:#F0D357;}
</style>
<g>
	<g>
		<g>
			<path class="st0" d="M47.61,99c-0.01,0-0.03,0-0.04,0c-1.5-0.07-3.01-0.22-4.49-0.43c-0.48-0.07-0.82-0.52-0.75-1
				s0.52-0.82,1-0.75c1.43,0.2,2.88,0.34,4.33,0.41c0.49,0.02,0.86,0.44,0.84,0.93C48.47,98.63,48.08,99,47.61,99z M52.92,98.97
				c-0.46,0-0.85-0.36-0.88-0.83c-0.03-0.49,0.34-0.9,0.83-0.93c1.44-0.09,2.9-0.24,4.32-0.46c0.48-0.07,0.93,0.26,1.01,0.74
				c0.07,0.48-0.26,0.93-0.74,1.01c-1.48,0.23-2.99,0.39-4.48,0.48C52.96,98.97,52.94,98.97,52.92,98.97z M37.99,97.55
				c-0.07,0-0.15-0.01-0.22-0.03c-1.45-0.37-2.9-0.82-4.31-1.33c-0.46-0.16-0.7-0.67-0.53-1.13c0.16-0.46,0.67-0.7,1.13-0.53
				c1.36,0.49,2.76,0.92,4.16,1.28c0.47,0.12,0.76,0.6,0.64,1.08C38.74,97.28,38.38,97.55,37.99,97.55z M62.53,97.41
				c-0.39,0-0.75-0.26-0.85-0.65c-0.13-0.47,0.15-0.96,0.62-1.08c1.4-0.38,2.79-0.82,4.14-1.32c0.46-0.17,0.97,0.06,1.14,0.52
				c0.17,0.46-0.06,0.97-0.52,1.14c-1.4,0.52-2.85,0.98-4.3,1.37C62.68,97.4,62.61,97.41,62.53,97.41z M28.86,94.17
				c-0.13,0-0.26-0.03-0.39-0.09c-1.34-0.66-2.67-1.39-3.96-2.17c-0.42-0.25-0.55-0.8-0.29-1.21c0.25-0.42,0.8-0.55,1.21-0.29
				c1.24,0.75,2.52,1.46,3.81,2.09c0.44,0.21,0.62,0.74,0.4,1.18C29.5,93.99,29.19,94.17,28.86,94.17z M71.62,93.94
				c-0.32,0-0.63-0.18-0.79-0.49c-0.22-0.44-0.04-0.97,0.39-1.19c1.29-0.65,2.57-1.37,3.79-2.13c0.42-0.26,0.96-0.13,1.22,0.28
				c0.26,0.41,0.13,0.96-0.28,1.22c-1.27,0.79-2.59,1.54-3.93,2.21C71.89,93.9,71.75,93.94,71.62,93.94z M20.6,89.03
				c-0.19,0-0.38-0.06-0.54-0.18c-1.18-0.92-2.34-1.9-3.44-2.92c-0.36-0.33-0.38-0.89-0.05-1.25c0.33-0.36,0.89-0.38,1.25-0.05
				c1.06,0.99,2.18,1.93,3.32,2.82c0.39,0.3,0.46,0.85,0.16,1.24C21.12,88.91,20.86,89.03,20.6,89.03z M79.82,88.7
				c-0.26,0-0.52-0.11-0.69-0.34c-0.3-0.38-0.24-0.94,0.14-1.24c1.13-0.9,2.24-1.86,3.28-2.85c0.35-0.33,0.91-0.32,1.25,0.03
				c0.34,0.35,0.32,0.91-0.03,1.25c-1.08,1.03-2.23,2.03-3.41,2.96C80.21,88.64,80.01,88.7,79.82,88.7z M13.54,82.33
				c-0.25,0-0.49-0.1-0.67-0.31c-0.98-1.14-1.92-2.33-2.79-3.55c-0.28-0.4-0.19-0.95,0.21-1.23c0.4-0.28,0.95-0.19,1.23,0.21
				c0.84,1.17,1.74,2.33,2.68,3.42c0.32,0.37,0.28,0.93-0.09,1.25C13.94,82.26,13.74,82.33,13.54,82.33z M86.81,81.92
				c-0.2,0-0.4-0.07-0.57-0.21c-0.37-0.31-0.42-0.87-0.11-1.24c0.93-1.11,1.82-2.27,2.65-3.45c0.28-0.4,0.83-0.5,1.23-0.22
				c0.4,0.28,0.5,0.83,0.22,1.23c-0.86,1.23-1.78,2.43-2.75,3.58C87.31,81.81,87.06,81.92,86.81,81.92z M7.96,74.35
				c-0.31,0-0.61-0.16-0.77-0.45c-0.73-1.31-1.41-2.67-2.01-4.04c-0.2-0.45,0-0.97,0.45-1.17c0.45-0.2,0.97,0,1.16,0.45
				c0.59,1.32,1.24,2.63,1.94,3.89c0.24,0.43,0.09,0.96-0.34,1.2C8.25,74.31,8.1,74.35,7.96,74.35z M92.3,73.88
				c-0.14,0-0.29-0.03-0.42-0.11c-0.43-0.23-0.59-0.77-0.35-1.2c0.69-1.27,1.33-2.59,1.9-3.91c0.19-0.45,0.71-0.66,1.16-0.46
				c0.45,0.19,0.66,0.71,0.46,1.16c-0.59,1.38-1.25,2.74-1.97,4.06C92.92,73.71,92.61,73.88,92.3,73.88z M4.1,65.41
				c-0.38,0-0.72-0.24-0.84-0.62c-0.45-1.43-0.84-2.9-1.16-4.36c-0.1-0.48,0.2-0.95,0.68-1.05c0.48-0.11,0.95,0.2,1.05,0.68
				c0.3,1.41,0.68,2.83,1.11,4.2c0.15,0.46-0.11,0.96-0.58,1.11C4.28,65.4,4.19,65.41,4.1,65.41z M96.06,64.89
				c-0.08,0-0.17-0.01-0.26-0.04c-0.47-0.14-0.73-0.63-0.59-1.1c0.42-1.38,0.78-2.8,1.07-4.22c0.1-0.48,0.57-0.79,1.04-0.69
				c0.48,0.1,0.79,0.56,0.69,1.04c-0.3,1.47-0.67,2.94-1.11,4.38C96.79,64.65,96.44,64.89,96.06,64.89z M2.13,55.88
				c-0.45,0-0.83-0.34-0.88-0.79c-0.15-1.48-0.24-3-0.25-4.5c-0.01-0.49,0.39-0.89,0.87-0.89c0,0,0.01,0,0.01,0
				c0.48,0,0.88,0.39,0.88,0.87c0.02,1.45,0.1,2.91,0.25,4.34c0.05,0.48-0.3,0.92-0.79,0.97C2.19,55.88,2.16,55.88,2.13,55.88z
				 M97.92,55.34c-0.03,0-0.05,0-0.08,0c-0.49-0.04-0.84-0.47-0.8-0.96c0.13-1.44,0.2-2.9,0.2-4.35l0-0.2
				c0-0.49,0.39-0.88,0.88-0.88S99,49.34,99,49.83l0,0.19c0,1.51-0.07,3.03-0.2,4.52C98.75,54.99,98.37,55.34,97.92,55.34z
				 M2.11,46.14c-0.03,0-0.06,0-0.09,0c-0.49-0.05-0.84-0.48-0.79-0.97c0.15-1.5,0.36-3,0.65-4.47c0.09-0.48,0.55-0.79,1.03-0.7
				c0.48,0.09,0.79,0.55,0.7,1.03c-0.27,1.41-0.48,2.86-0.62,4.3C2.95,45.8,2.56,46.14,2.11,46.14z M97.81,45.41
				c-0.44,0-0.83-0.33-0.88-0.78c-0.16-1.44-0.4-2.88-0.69-4.29c-0.1-0.48,0.21-0.95,0.68-1.04c0.47-0.1,0.94,0.21,1.04,0.68
				c0.31,1.46,0.55,2.96,0.72,4.45c0.06,0.48-0.29,0.92-0.78,0.98C97.87,45.4,97.84,45.41,97.81,45.41z M4.04,36.6
				c-0.09,0-0.18-0.01-0.26-0.04c-0.47-0.14-0.73-0.64-0.58-1.11c0.45-1.43,0.96-2.86,1.54-4.24c0.19-0.45,0.7-0.66,1.15-0.48
				c0.45,0.19,0.66,0.7,0.48,1.16c-0.55,1.33-1.05,2.71-1.48,4.09C4.77,36.36,4.42,36.6,4.04,36.6z M95.73,35.9
				c-0.37,0-0.72-0.24-0.84-0.61c-0.45-1.37-0.97-2.74-1.54-4.07c-0.19-0.45,0.01-0.97,0.46-1.16c0.45-0.19,0.97,0.01,1.16,0.46
				c0.6,1.38,1.14,2.8,1.6,4.22c0.15,0.46-0.1,0.96-0.56,1.11C95.91,35.88,95.82,35.9,95.73,35.9z M7.86,27.64
				c-0.14,0-0.29-0.04-0.43-0.11c-0.43-0.24-0.58-0.77-0.35-1.2c0.72-1.31,1.52-2.6,2.36-3.85c0.27-0.4,0.82-0.51,1.23-0.23
				c0.4,0.27,0.51,0.82,0.23,1.23c-0.81,1.2-1.58,2.44-2.28,3.71C8.48,27.48,8.17,27.64,7.86,27.64z M91.77,27
				c-0.31,0-0.6-0.16-0.77-0.44c-0.72-1.25-1.5-2.49-2.33-3.67c-0.28-0.4-0.18-0.95,0.21-1.23c0.4-0.28,0.95-0.18,1.23,0.21
				c0.86,1.23,1.68,2.51,2.42,3.81c0.24,0.42,0.1,0.96-0.33,1.21C92.07,26.97,91.92,27,91.77,27z M13.41,19.64
				c-0.2,0-0.41-0.07-0.57-0.21c-0.37-0.32-0.41-0.87-0.1-1.24c0.98-1.14,2.01-2.25,3.09-3.29c0.35-0.34,0.91-0.33,1.25,0.02
				c0.34,0.35,0.33,0.91-0.02,1.25c-1.03,1-2.03,2.07-2.97,3.17C13.91,19.54,13.66,19.64,13.41,19.64z M86.11,19.09
				c-0.24,0-0.49-0.1-0.66-0.3c-0.96-1.09-1.98-2.14-3.02-3.13c-0.35-0.33-0.37-0.89-0.04-1.25c0.34-0.35,0.89-0.37,1.25-0.04
				c1.08,1.02,2.14,2.12,3.14,3.24c0.32,0.37,0.29,0.92-0.08,1.25C86.52,19.02,86.32,19.09,86.11,19.09z M20.45,12.91
				c-0.26,0-0.52-0.12-0.7-0.34c-0.3-0.38-0.23-0.94,0.15-1.24c1.18-0.92,2.42-1.8,3.68-2.61C24,8.46,24.54,8.58,24.8,8.99
				c0.26,0.41,0.14,0.96-0.27,1.22c-1.22,0.78-2.41,1.63-3.55,2.51C20.83,12.85,20.64,12.91,20.45,12.91z M78.97,12.47
				c-0.19,0-0.37-0.06-0.53-0.18c-1.16-0.87-2.36-1.7-3.59-2.46c-0.41-0.26-0.54-0.8-0.29-1.22c0.26-0.41,0.8-0.55,1.22-0.29
				c1.27,0.79,2.52,1.65,3.72,2.55c0.39,0.29,0.47,0.85,0.17,1.24C79.5,12.35,79.24,12.47,78.97,12.47z M28.69,7.74
				c-0.33,0-0.64-0.18-0.79-0.49c-0.22-0.44-0.04-0.97,0.4-1.18c1.34-0.67,2.73-1.28,4.13-1.81c0.46-0.17,0.97,0.05,1.14,0.51
				c0.17,0.45-0.05,0.97-0.51,1.14C31.71,6.41,30.37,7,29.08,7.64C28.95,7.71,28.82,7.74,28.69,7.74z M70.65,7.41
				c-0.13,0-0.26-0.03-0.38-0.09c-1.3-0.62-2.65-1.19-4.01-1.69c-0.46-0.17-0.69-0.67-0.53-1.13s0.67-0.7,1.13-0.53
				c1.41,0.52,2.81,1.1,4.16,1.75c0.44,0.21,0.63,0.74,0.42,1.18C71.3,7.23,70.98,7.41,70.65,7.41z M37.8,4.33
				c-0.39,0-0.75-0.26-0.85-0.66c-0.12-0.47,0.16-0.96,0.63-1.08c1.45-0.38,2.93-0.69,4.41-0.94C42.47,1.56,42.92,1.9,43,2.38
				c0.08,0.48-0.25,0.94-0.73,1.01c-1.42,0.23-2.86,0.54-4.25,0.9C37.95,4.32,37.87,4.33,37.8,4.33z M61.48,4.15
				c-0.07,0-0.14-0.01-0.21-0.03c-1.4-0.34-2.84-0.63-4.27-0.84c-0.48-0.07-0.81-0.52-0.74-1c0.07-0.48,0.52-0.81,1-0.74
				c1.48,0.22,2.97,0.51,4.43,0.87c0.47,0.12,0.76,0.59,0.65,1.07C62.24,3.88,61.88,4.15,61.48,4.15z M47.41,2.83
				c-0.47,0-0.86-0.36-0.88-0.84c-0.03-0.49,0.35-0.9,0.83-0.93C48.25,1.02,49.13,1.01,50,1c0.63,0,1.25,0.01,1.88,0.04
				c0.49,0.02,0.87,0.43,0.85,0.92c-0.02,0.49-0.41,0.89-0.92,0.85c-0.62-0.02-1.24-0.04-1.86-0.03c-0.82,0-1.66,0.02-2.49,0.07
				C47.45,2.83,47.43,2.83,47.41,2.83z"/>
		</g>
		<ellipse class="st1" cx="50" cy="50.03" rx="35.76" ry="35.78"/>
	</g>
	<g>
		<g>
			<path class="st2" d="M57.79,35.98c1.41,12.5-12.74,15.85-22.33,12.97c-5.32-1.59-9.85-4.56-12.09-9.79
				c-2.07-4.8-1.84-10.6-0.35-15.51c0.02-0.07,0.07-0.13,0.12-0.17c0.59-1.35,1.59-2.55,3.11-3.5c3.45-2.13,7.65-2.65,11.09-0.3
				c3.15,2.16,4.61,5.99,7.93,7.93c0.11-0.14,0.24-0.25,0.43-0.32c4.13-1.54,9.72-0.67,11.61,3.86c0.65,1.56,0.76,3.19,0.44,4.75
				C57.77,35.92,57.79,35.95,57.79,35.98z M55.79,35.71c1.18-5.89-4.77-8.36-9.57-6.62c-0.48,0.17-0.84-0.04-1.01-0.38
				c-0.04,0-0.08,0.01-0.12-0.01c-5.14-1.49-6.83-9.31-12.78-8.89c-8.63,0.6-9.6,8.98-5.37,15.03c3.97,5.67,11.83,8.1,18.56,7.58
				C49.58,42.11,54.85,40.35,55.79,35.71z M56,39.71c-0.8,1.05-1.82,1.95-3,2.61c-7.14,4.01-19.28,2.41-25.13-3.45
				c-1.76-1.76-3.48-4.37-4.49-7.15c0.07,2.13,0.36,4.23,1.14,6.23c1.82,4.69,5.76,7.78,10.53,9.17
				C42.99,49.43,53.84,48.19,56,39.71z"/>
			<path class="st3" d="M46.21,29.09c4.8-1.74,10.76,0.73,9.57,6.62c-0.93,4.64-6.21,6.4-10.29,6.71
				c-6.73,0.51-14.58-1.92-18.56-7.58c-4.23-6.04-3.26-14.43,5.37-15.03c5.95-0.41,7.64,7.4,12.78,8.89
				c0.04,0.01,0.08,0.01,0.12,0.01C45.38,29.05,45.73,29.26,46.21,29.09z M33.58,33.44c2.55,0.38,4.74-1.83,4.24-4.43
				c-0.35-1.83-1.63-3.23-3.15-4.21c-0.84-0.54-2.09-1.07-3.22-1.06c0.01-0.22-0.15-0.44-0.41-0.34c-2.42,0.97-3.88,3.08-2.89,5.67
				C28.99,31.26,31.26,33.1,33.58,33.44z"/>
			<path class="st4" d="M53,42.32c1.18-0.66,2.2-1.56,3-2.61c-2.16,8.48-13.01,9.72-20.95,7.42c-4.78-1.39-8.71-4.48-10.53-9.17
				c-0.78-2-1.07-4.1-1.14-6.23c1.01,2.78,2.72,5.38,4.49,7.15C33.73,44.73,45.87,46.33,53,42.32z"/>
			<path class="st2" d="M37.82,29.01c0.5,2.6-1.69,4.81-4.24,4.43c-2.32-0.34-4.59-2.18-5.42-4.36c-0.99-2.59,0.47-4.7,2.89-5.67
				c0.26-0.11,0.41,0.11,0.41,0.34c1.13-0.01,2.37,0.52,3.22,1.06C36.19,25.79,37.47,27.18,37.82,29.01z M33.23,31.87
				c1.62,0.44,3.37-0.42,3.16-2.36c-0.3-2.87-3.49-4.37-6-4.55c-0.03-0.01-0.07-0.01-0.1-0.03c-0.95,1.03-1.46,2.36-0.74,3.78
				C30.29,30.15,31.64,31.44,33.23,31.87z"/>
			<path class="st4" d="M36.39,29.51c0.21,1.94-1.55,2.8-3.16,2.36c-1.59-0.43-2.94-1.72-3.67-3.17c-0.72-1.42-0.21-2.74,0.74-3.78
				c0.03,0.01,0.07,0.02,0.1,0.03C32.9,25.14,36.09,26.64,36.39,29.51z M34.25,30.18c0.14-0.9,0.18-1.8-0.47-2.51
				c-0.49-0.53-1.45-0.93-2.14-1.11c-0.45-0.11-0.89,0.48-0.55,0.83c-0.07,0.72-0.18,1.46,0.12,2.15c0.4,0.91,1.66,1.01,2.51,1.03
				C33.95,30.59,34.22,30.42,34.25,30.18z"/>
			<path class="st2" d="M33.78,27.68c0.64,0.71,0.61,1.61,0.47,2.51c-0.03,0.23-0.3,0.4-0.52,0.4c-0.85-0.02-2.11-0.12-2.51-1.03
				c-0.3-0.69-0.2-1.43-0.12-2.15c-0.35-0.35,0.1-0.94,0.55-0.83C32.33,26.74,33.29,27.14,33.78,27.68z M33.25,29.5
				c0.03-0.46-0.04-0.93-0.47-1.19c-0.28-0.17-0.58-0.3-0.87-0.43c0.01,0.39,0.04,0.78,0.18,1.13
				C32.25,29.41,32.79,29.49,33.25,29.5z"/>
		</g>
		<g>
			<path class="st2" d="M54.45,55.38c0.13,5.25-0.58,10.97-4.03,15.17c-3.46,4.19-8.7,6.07-14.02,6.29
				c-6.08,0.25-11.78-1.79-15.61-6.67C17.52,66,16.3,59.91,18.22,54.91c0.12-0.3,0.5-0.37,0.7-0.2c5.6-0.88,11.06,0.55,16.6,1.19
				c5.88,0.68,11.45-1.18,17.27-1C53.19,54.25,54.43,54.41,54.45,55.38z M52.66,56.62c-0.46,0.04-0.92,0.1-1.38,0.15
				c0.36,5.08-0.84,10.14-4.99,13.43c-3.38,2.67-7.95,3.36-12.13,2.84c-8.37-1.05-16.27-8.11-13.22-16.96
				c-0.64-0.02-1.28-0.03-1.92-0.03c-0.11,4.99,0.39,10.05,4.04,13.89c3.74,3.93,8.84,5.45,14.17,4.92
				c4.77-0.47,9.72-2.23,12.4-6.48C51.86,64.81,52.58,60.75,52.66,56.62z M46.04,68.73c3.34-3.09,4.27-7.43,4.08-11.81
				c-4.86,0.63-9.67,1.51-14.59,0.93c-4.59-0.54-9.07-1.44-13.67-1.71c-1.82,8.57,4.84,15.06,13.2,15.71
				C38.88,72.14,43.12,71.42,46.04,68.73z"/>
			<path class="st5" d="M51.28,56.77c0.46-0.06,0.92-0.11,1.38-0.15c-0.08,4.13-0.79,8.2-3.03,11.76c-2.68,4.25-7.62,6.02-12.4,6.48
				c-5.34,0.53-10.43-0.99-14.17-4.92c-3.65-3.84-4.15-8.89-4.04-13.89c0.65-0.01,1.28,0.01,1.92,0.03
				c-3.05,8.85,4.85,15.91,13.22,16.96c4.18,0.52,8.75-0.17,12.13-2.84C50.44,66.91,51.64,61.85,51.28,56.77z"/>
			<path class="st3" d="M50.11,56.91c0.2,4.39-0.73,8.73-4.08,11.81c-2.92,2.69-7.16,3.41-10.98,3.11
				c-8.36-0.65-15.02-7.13-13.2-15.71c4.59,0.26,9.08,1.16,13.67,1.71C40.44,58.42,45.25,57.55,50.11,56.91z M45.15,62.26
				c0.26,1.03,1.92,0.56,1.57-0.43c-0.1-0.31-0.2-0.4-0.31-0.7c-0.1-0.27-0.18-0.56-0.27-0.84c-0.15-0.49-0.86-0.51-1,0
				c-0.1,0.34-0.1,0.68-0.07,1.02C45.08,61.61,45.08,61.97,45.15,62.26z M44.32,67.72c0.65,0.24,1.17-0.47,1.04-1.04
				c-0.07-0.33-0.26-0.51-0.35-0.81c-0.1-0.36-0.15-0.75-0.2-1.13c-0.1-0.81-1.16-0.81-1.26,0C43.44,65.72,43.16,67.28,44.32,67.72z
				 M40.95,65.67c0.59,0,1.07-0.59,0.89-1.18c-0.26-0.86-0.29-1.75-0.81-2.53c-0.31-0.48-1.11-0.19-0.94,0.4
				c0.19,0.66,0.16,1.47-0.04,2.14C39.88,65.08,40.36,65.67,40.95,65.67z M37.37,69.42c0.58,0.2,1.3-0.32,1.24-0.95
				c-0.01-0.09-0.03-0.17-0.06-0.26c0,0,0,0,0-0.01c0,0,0-0.01,0-0.01c-0.01-0.02-0.02-0.04-0.04-0.07
				c-0.01-0.02-0.01-0.04-0.03-0.06c-0.03-0.08-0.05-0.15-0.1-0.22c-0.07-0.09-0.1-0.14-0.13-0.17c-0.08-0.12-0.17-0.24-0.25-0.36
				c-0.22-0.35-0.35-0.54-0.42-0.93c-0.12-0.57-1.09-0.6-1.18,0c-0.1,0.65-0.06,1.39,0.1,2.01C36.62,68.89,36.87,69.24,37.37,69.42z
				 M37.95,63.46c0.63-0.17,0.93-1.06,0.4-1.52c-0.42-0.36-0.67-1.16-0.75-1.69c-0.12-0.75-1.21-0.5-1.26,0.17
				c-0.03,0.38,0.01,0.75,0.1,1.12c0.04,0.17,0.09,0.32,0.14,0.48c0.05,0.17,0.2,0.39,0.21,0.56
				C36.84,63.16,37.35,63.63,37.95,63.46z M32.31,65.75c0.81,0,1.12-0.76,0.89-1.39c-0.16-0.7-0.19-1.44-0.27-2.14
				c-0.09-0.81-1.16-0.81-1.25,0c-0.08,0.7-0.11,1.44-0.27,2.14c-0.05,0.13-0.07,0.27-0.07,0.41
				C31.35,65.28,31.68,65.75,32.31,65.75z M29.41,66.44c0.29-0.18,0.49-0.58,0.37-0.91c-0.12-0.34-0.3-0.67-0.45-1
				c-0.15-0.31-0.31-0.68-0.58-0.91c-0.47-0.41-1.3,0.13-0.9,0.7c0.02,0.03,0.03,0.05,0.05,0.08c0,0.02,0.05,0.15,0.06,0.17
				c0.05,0.16,0.09,0.33,0.12,0.49c0.01,0.07,0.03,0.15,0.04,0.22c0.01,0.03,0.01,0.05,0.01,0.06v0.01
				c0.01,0.03,0.01,0.05,0.01,0.08c0.03,0.17,0.03,0.36,0.08,0.52c0.09,0.33,0.42,0.62,0.78,0.59
				C29.16,66.53,29.27,66.52,29.41,66.44z M27.38,61.52c0.02-0.19-0.03-0.42-0.04-0.61c-0.04-0.49-0.12-0.98-0.19-1.47
				c-0.13-0.95-1.78-0.95-1.91,0c-0.06,0.47-0.15,0.93-0.19,1.4c-0.02,0.21-0.03,0.43-0.04,0.64c-0.02,0.26,0.06,0.48,0.19,0.68
				c0.05,0.1,0.12,0.19,0.2,0.28c0.19,0.24,0.49,0.34,0.79,0.33c0.3,0.01,0.6-0.09,0.8-0.33c0.12-0.12,0.2-0.25,0.26-0.39
				C27.31,61.89,27.35,61.73,27.38,61.52z"/>
			<path class="st6" d="M46.72,61.82c0.35,1-1.32,1.46-1.57,0.43c-0.07-0.29-0.07-0.65-0.09-0.95c-0.03-0.35-0.03-0.68,0.07-1.02
				c0.14-0.51,0.85-0.49,1,0c0.1,0.28,0.17,0.57,0.27,0.84C46.52,61.43,46.62,61.51,46.72,61.82z"/>
			<path class="st6" d="M45.37,66.68c0.13,0.58-0.4,1.28-1.04,1.04c-1.16-0.44-0.88-2-0.76-2.98c0.1-0.81,1.16-0.81,1.26,0
				c0.04,0.38,0.1,0.76,0.2,1.13C45.11,66.18,45.3,66.35,45.37,66.68z"/>
			<path class="st6" d="M41.84,64.49c0.17,0.58-0.3,1.18-0.89,1.18s-1.07-0.59-0.89-1.18c0.2-0.66,0.22-1.47,0.04-2.14
				c-0.17-0.58,0.63-0.88,0.94-0.4C41.55,62.74,41.59,63.63,41.84,64.49z"/>
			<path class="st6" d="M38.61,68.46c0.06,0.63-0.66,1.15-1.24,0.95c-0.5-0.17-0.75-0.52-0.87-1.02c-0.15-0.63-0.19-1.37-0.1-2.01
				c0.09-0.6,1.07-0.57,1.18,0c0.07,0.38,0.19,0.58,0.42,0.93c0.08,0.12,0.17,0.24,0.25,0.36c0.03,0.03,0.06,0.08,0.13,0.17
				c0.05,0.06,0.08,0.14,0.1,0.22c-0.01-0.02-0.03-0.04-0.04-0.07c0.03,0.04,0.04,0.08,0.07,0.13c0,0.01,0.01,0.01,0.01,0.02
				c0.01,0.03,0.03,0.06,0.03,0.07C38.57,68.29,38.6,68.38,38.61,68.46z"/>
			<path class="st7" d="M38.54,68.19c-0.01-0.02-0.03-0.03-0.03-0.05c0-0.01-0.01-0.01-0.01-0.02
				C38.52,68.15,38.54,68.17,38.54,68.19z"/>
			<path class="st6" d="M38.36,61.94c0.52,0.46,0.22,1.35-0.4,1.52c-0.61,0.17-1.11-0.29-1.16-0.88c-0.01-0.17-0.16-0.4-0.21-0.56
				c-0.05-0.16-0.1-0.31-0.14-0.48c-0.08-0.37-0.12-0.74-0.1-1.12c0.05-0.67,1.14-0.93,1.26-0.17
				C37.69,60.78,37.93,61.57,38.36,61.94z"/>
			<path class="st6" d="M33.2,64.37c0.23,0.63-0.09,1.39-0.89,1.39c-0.63,0-0.96-0.47-0.96-0.98c0-0.13,0.02-0.27,0.07-0.41
				c0.16-0.7,0.19-1.44,0.27-2.14c0.09-0.81,1.16-0.81,1.25,0C33.01,62.93,33.04,63.67,33.2,64.37z"/>
			<path class="st6" d="M28.14,65.34c-0.01-0.01-0.01-0.03-0.01-0.06c-0.02-0.08-0.03-0.15-0.04-0.22
				c-0.03-0.17-0.07-0.33-0.12-0.49c-0.01-0.02-0.06-0.15-0.06-0.17c-0.02-0.03-0.03-0.06-0.05-0.08c-0.4-0.56,0.43-1.11,0.9-0.7
				c0.27,0.23,0.43,0.59,0.58,0.91c0.15,0.33,0.33,0.66,0.45,1c0.12,0.34-0.08,0.74-0.37,0.91c-0.14,0.08-0.25,0.1-0.41,0.11
				c-0.36,0.03-0.69-0.27-0.78-0.59c-0.04-0.17-0.05-0.35-0.08-0.52C28.15,65.4,28.15,65.38,28.14,65.34L28.14,65.34z"/>
			<path class="st6" d="M27.33,60.91c0.01,0.19,0.06,0.42,0.04,0.61c-0.03,0.22-0.07,0.38-0.14,0.54c-0.05,0.14-0.13,0.27-0.26,0.39
				c-0.2,0.24-0.5,0.34-0.8,0.33c-0.3,0.01-0.6-0.09-0.79-0.33c-0.09-0.09-0.15-0.19-0.2-0.28c-0.13-0.2-0.2-0.42-0.19-0.68
				c0.01-0.21,0.03-0.43,0.04-0.64c0.03-0.47,0.12-0.93,0.19-1.4c0.13-0.95,1.78-0.95,1.91,0C27.21,59.92,27.3,60.42,27.33,60.91z"
				/>
		</g>
		<g>
			<g>
				<g>
					<path class="st8" d="M78.09,46.33c-1.59,0-2.87-1.11-2.87-2.48v-9.89h0.9V33.4c0-1.37-1.29-2.48-2.87-2.48h-3.91
						c-1.59,0-2.87,1.11-2.87,2.48v0.56h1.23v9.89c0,1.37-1.29,2.48-2.87,2.48l0,0c-1.59,0-2.87,1.11-2.87,2.48v30.06
						c0,1.37,1.29,2.48,2.87,2.48h13.27c1.59,0,2.87-1.11,2.87-2.48V48.81C80.96,47.44,79.68,46.33,78.09,46.33L78.09,46.33z"/>
				</g>
				<g>
					<path class="st2" d="M78.09,81.86H64.82c-1.87,0-3.4-1.35-3.4-3V48.81c0-1.65,1.52-3,3.4-3c1.3,0,2.35-0.88,2.35-1.95v-9.37
						h-1.23V33.4c0-1.65,1.52-3,3.4-3h3.91c1.87,0,3.4,1.35,3.4,3v1.08h-0.9v9.37c0,1.08,1.05,1.95,2.35,1.95c1.87,0,3.4,1.35,3.4,3
						v30.06C81.49,80.52,79.96,81.86,78.09,81.86z M66.98,33.44h1.23v10.42c0,1.66-1.52,3-3.4,3c-1.3,0-2.35,0.88-2.35,1.95v30.06
						c0,1.08,1.05,1.95,2.35,1.95h13.27c1.3,0,2.35-0.88,2.35-1.95V48.81c0-1.08-1.05-1.95-2.35-1.95c-1.87,0-3.4-1.35-3.4-3V33.44
						l0.9-0.03c0-1.08-1.05-1.95-2.35-1.95h-3.91c-1.3,0-2.35,0.88-2.35,1.95V33.44z"/>
				</g>
			</g>
			<g>
				<rect x="64.18" y="49.94" class="st9" width="14.53" height="29.14"/>
				<path class="st2" d="M79.24,79.6H63.66V49.42h15.58V79.6z M64.71,78.56h13.48V50.47H64.71V78.56z"/>
			</g>
		</g>
	</g>
</g>
</svg>
