<?xml version="1.0" encoding="utf-8"?>
<!-- Generator: Adobe Illustrator 23.1.0, SVG Export Plug-In . SVG Version: 6.00 Build 0)  -->
<svg version="1.1" id="Capa_1" xmlns="http://www.w3.org/2000/svg" xmlns:xlink="http://www.w3.org/1999/xlink" x="0px" y="0px"
	 viewBox="0 0 100 85" style="enable-background:new 0 0 100 85;" xml:space="preserve">
<style type="text/css">
	.st0{fill-rule:evenodd;clip-rule:evenodd;fill:#3B65F5;}
	.st1{fill-rule:evenodd;clip-rule:evenodd;fill:#252C38;}
	.st2{fill-rule:evenodd;clip-rule:evenodd;fill:#C4C4C4;}
	.st3{fill-rule:evenodd;clip-rule:evenodd;fill:#999A9A;}
	.st4{fill-rule:evenodd;clip-rule:evenodd;fill:#EDCBAB;}
	.st5{fill-rule:evenodd;clip-rule:evenodd;fill:#FFFFFF;}
	.st6{fill-rule:evenodd;clip-rule:evenodd;fill:#DF9F75;}
</style>
<g>
	<path class="st0" d="M49.68,1.72c22.03,0,39.9,17.86,39.9,39.9c0,22.03-17.86,39.9-39.9,39.9c-22.03,0-39.9-17.86-39.9-39.9
		C9.79,19.58,27.65,1.72,49.68,1.72z"/>
	<g>
		<path class="st1" d="M19.78,47.59c18.52-1.17,44.35-2.32,62.37-1.71c-0.1-3.47-0.89-6.79-2.25-9.84
			c-37.37-0.13-53.34,2.69-59.26,3.91c-0.22,0.82-0.4,1.65-0.54,2.5c-0.09,0.57-0.17,1.52-0.23,2.53
			C19.83,45.85,19.79,46.79,19.78,47.59L19.78,47.59z M30.16,73.47c-0.58-0.26-0.9-0.91-0.73-1.54l1.74-6.49
			c0.13-0.6,0.66-1.05,1.29-1.05h1.89c0.11-0.83,0.19-1.66,0.21-2.41c0.02-0.86-0.04-1.62-0.22-2.14c-0.46-1.28-2.57-3.18-4.34-4.78
			c-1.54-1.39-2.88-2.59-3.13-3.67c-7.6,0.65-15.28,1.4-23.15,2.26c-1.35,0.14-2.55-0.85-2.69-2.2c-0.13-1.35,0.85-2.55,2.2-2.69
			c3.53-0.3,8.33-0.66,13.93-1.02c0.02-0.83,0.06-1.9,0.11-2.94c0.06-1.09,0.15-2.13,0.26-2.81c1.23-7.54,5.42-14.18,11.44-18.91
			c3.86-3.03,8.48-5.28,13.56-6.48c-0.03-0.11-0.05-0.23-0.05-0.36c0-1.53,0.67-2.91,1.76-3.9c1.05-0.96,2.5-1.56,4.09-1.56
			c1.59,0,3.04,0.6,4.09,1.56c0.97,0.89,1.61,2.09,1.74,3.42c8.05,0.69,15.28,3.96,20.69,8.9c5.99,5.47,9.75,12.97,9.95,21.29
			c5.99,0.27,10.95,0.77,14.22,1.57c-3.28,0.47-1.35,0.26-6.69,0.39c-4.45,0.12-8.84,0.25-13.19,0.4c0.46,0.23,0.8,0.48,1.04,0.74
			c0.45,0.48,0.63,1.01,0.57,1.57c-0.05,0.53-0.32,0.99-0.76,1.36c-0.56,0.47-1.5,0.84-2.65,1.03c-4.99,0.81-10.65,1.85-15.62,3.84
			c-4.17,1.67-7.86,4.03-10.26,7.52h1.19v0c0.14,0,0.28,0.02,0.42,0.07c0.69,0.23,1.06,0.98,0.83,1.66l-2.17,6.46
			c-0.14,0.57-0.65,0.99-1.26,1l-2.65,9.7l-2.54-0.68l2.47-9.02H32.85l-1.26,4.68l-2.54-0.68L30.16,73.47L30.16,73.47z M21.07,38.51
			c1.73-5.24,5.07-9.85,9.51-13.33c5.47-4.3,12.59-6.89,20.38-6.89c8.64,0,16.46,3.19,22.11,8.35c2.55,2.33,4.66,5.06,6.2,8.08
			C43.56,34.62,27.49,37.23,21.07,38.51L21.07,38.51z M36.39,70.95H49.5l1.32-3.93H37.28L36.39,70.95L36.39,70.95z M35.93,67.03
			h-2.47l-1.05,3.93h2.63L35.93,67.03L35.93,67.03z M48.36,64.39c2.66-4.82,7.2-7.89,12.37-9.96c5.21-2.09,11.04-3.15,16.17-3.99
			c0.11-0.02,0.21-0.04,0.31-0.06c-0.16-0.05-0.34-0.11-0.54-0.16c-3.14-0.88-8.2-0.7-13.44-0.03c-5.79,0.75-11.74,2.11-15.58,3.34
			c-0.08,0.05-0.16,0.09-0.25,0.12c-0.45,0.16-0.87,0.29-1.26,0.4c-0.24,0.09-0.47,0.18-0.68,0.26c-0.3,0.12-0.63,0.12-0.92,0.03
			c-1.84,0.17-3.2-0.35-4.93-1c-0.46-0.17-0.94-0.36-1.32-0.49l0,0l0,0l-0.36-0.12c-1.97-0.69-4.11-1.43-5.84-1.76
			c-0.89,0.07-1.78,0.14-2.67,0.22c-0.01,0.02-0.01,0.05-0.02,0.07c-0.04,0.21,1.08,0.73,2.33,1.86c1.99,1.79,4.38,3.94,5.06,5.85
			c0.3,0.83,0.39,1.91,0.37,3.08c-0.02,0.77-0.08,1.57-0.18,2.36H48.36L48.36,64.39z M45.42,51.51c1.71-0.62,4.03-1.29,6.66-1.92
			c-4.26,0.25-8.51,0.53-12.77,0.83c0.51,0.18,0.89,0.32,1.24,0.46C42.23,51.51,43.46,51.97,45.42,51.51L45.42,51.51z M50.96,15.65
			c0.17,0,0.33,0,0.5,0c-0.13-0.52-0.42-0.98-0.82-1.34c-0.59-0.54-1.41-0.87-2.32-0.87c-0.92,0-1.74,0.33-2.32,0.87
			c-0.52,0.47-0.85,1.11-0.89,1.8C47.01,15.81,48.96,15.65,50.96,15.65z"/>
		<path class="st2" d="M50.96,18.28c8.64,0,16.46,3.19,22.11,8.35c2.55,2.33,4.66,5.06,6.2,8.08c-35.7-0.09-51.78,2.52-58.2,3.8
			c1.73-5.24,5.07-9.85,9.51-13.33C36.05,20.88,43.17,18.28,50.96,18.28z"/>
		<path class="st3" d="M20.64,39.94c5.92-1.22,21.89-4.04,59.26-3.91c1.36,3.05,2.15,6.37,2.25,9.84
			c-18.01-0.6-43.85,0.55-62.37,1.71c0.02-0.79,0.05-1.74,0.1-2.62c0.06-1.01,0.13-1.96,0.23-2.53
			C20.24,41.59,20.42,40.76,20.64,39.94z"/>
		<path class="st2" d="M50.96,15.65c-2,0-3.95,0.16-5.86,0.46c0.04-0.7,0.37-1.33,0.89-1.8c0.59-0.54,1.41-0.87,2.32-0.87
			c0.91,0,1.73,0.33,2.32,0.87c0.4,0.37,0.69,0.83,0.82,1.34C51.29,15.65,51.13,15.65,50.96,15.65z"/>
		<path class="st4" d="M44.56,54.34c0.29,0.1,0.61,0.1,0.92-0.03c0.21-0.09,0.44-0.17,0.68-0.26c0.4-0.1,0.82-0.24,1.26-0.4
			c0.09-0.03,0.17-0.07,0.25-0.12c3.83-1.23,9.78-2.59,15.58-3.34c5.23-0.68,10.3-0.85,13.44,0.03c0.2,0.06,0.38,0.11,0.54,0.16
			c-0.1,0.02-0.2,0.04-0.31,0.06c-5.13,0.84-10.96,1.9-16.17,3.99c-5.17,2.07-9.71,5.14-12.37,9.96H37c0.1-0.78,0.16-1.59,0.18-2.36
			c0.02-1.17-0.07-2.25-0.37-3.08c-0.68-1.9-3.07-4.05-5.06-5.85c-1.25-1.12-2.37-1.65-2.33-1.86c0-0.02,0.01-0.05,0.02-0.07
			c0.89-0.07,1.78-0.15,2.67-0.22c1.73,0.33,3.87,1.08,5.84,1.76l0.36,0.12l0,0c0.38,0.13,0.86,0.31,1.32,0.49
			C41.36,53.99,42.71,54.5,44.56,54.34z"/>
		<polygon class="st5" points="37.28,67.03 50.82,67.03 49.5,70.95 36.39,70.95 		"/>
		<polygon class="st5" points="35.93,67.03 35.05,70.95 32.42,70.95 33.47,67.03 		"/>
		<path class="st6" d="M41.82,62.84c0.02,0.39-0.08,0-0.08,0H41.82L41.82,62.84z M36.09,52.08c-1.39-0.47-2.78-0.89-3.98-1.12
			c-0.89,0.07-1.78,0.14-2.67,0.22c-0.01,0.02-0.01,0.05-0.02,0.07c-0.04,0.21,1.08,0.73,2.33,1.86c1.99,1.79,4.38,3.94,5.06,5.85
			c0.3,0.83,0.39,1.91,0.37,3.08c-0.02,0.77-0.08,1.57-0.18,2.36h11.36c0.3-0.54,0.62-1.05,0.96-1.55h-7.5
			c-0.01-0.27-0.09-0.91-0.29-2.3c-0.49-3.42-3.42-4.6-5.79-6.56C34.33,52.82,34.83,52.3,36.09,52.08z"/>
		<path class="st3" d="M20.64,39.94c2.09-0.43,5.42-1.06,10.51-1.69c-0.85,3.12-1.34,6.1-1.6,8.76c-3.42,0.19-6.7,0.38-9.78,0.57
			c0.02-0.79,0.05-1.74,0.1-2.62c0.06-1.01,0.13-1.96,0.23-2.53C20.24,41.59,20.42,40.76,20.64,39.94z"/>
		<path class="st3" d="M31.55,36.88c-4.91,0.59-8.27,1.19-10.48,1.63c1.73-5.24,5.07-9.85,9.51-13.33c4.37-3.43,9.8-5.78,15.78-6.58
			C38.74,22.71,34.06,28.77,31.55,36.88z"/>
		<path class="st5" d="M75.83,31c-7.03-8.91-12.73-12.63-24.39-11.4c11.42,2.92,14.42,3.24,21.36,13.43
			c0.56,0.84,1.69,1.06,2.53,0.5C76.17,32.97,76.39,31.84,75.83,31z"/>
	</g>
	<path class="st5" d="M45.63,81.3c-4.91-0.5-9.56-1.88-13.77-3.99l1-3.72h14.89L45.63,81.3z"/>
</g>
</svg>
