<?xml version="1.0" encoding="utf-8"?>
<!-- Generator: Adobe Illustrator 23.1.0, SVG Export Plug-In . SVG Version: 6.00 Build 0)  -->
<svg version="1.1" id="Capa_1" xmlns="http://www.w3.org/2000/svg" xmlns:xlink="http://www.w3.org/1999/xlink" x="0px" y="0px"
	 viewBox="0 0 100 85" style="enable-background:new 0 0 100 85;" xml:space="preserve">
<style type="text/css">
	.st0{fill-rule:evenodd;clip-rule:evenodd;fill:#A8A8A8;}
	.st1{fill-rule:evenodd;clip-rule:evenodd;fill:#252C38;}
	.st2{fill-rule:evenodd;clip-rule:evenodd;fill:#C4C4C4;}
	.st3{fill-rule:evenodd;clip-rule:evenodd;fill:#999A9A;}
	.st4{fill-rule:evenodd;clip-rule:evenodd;fill:#EDCBAB;}
	.st5{fill-rule:evenodd;clip-rule:evenodd;fill:#FFFFFF;}
	.st6{fill-rule:evenodd;clip-rule:evenodd;fill:#DF9F75;}
</style>
<g>
	<path class="st0" d="M50.32,1.72c-22.03,0-39.9,17.86-39.9,39.9c0,22.03,17.86,39.9,39.9,39.9c22.03,0,39.9-17.86,39.9-39.9
		C90.21,19.58,72.35,1.72,50.32,1.72z"/>
	<g>
		<path class="st1" d="M80.22,47.59c-0.02-0.79-0.05-1.74-0.1-2.62c-0.06-1.01-0.13-1.96-0.23-2.53c-0.14-0.85-0.32-1.68-0.54-2.5
			c-5.92-1.22-21.89-4.04-59.26-3.91c-1.36,3.05-2.15,6.37-2.25,9.84C35.87,45.27,61.7,46.42,80.22,47.59L80.22,47.59z M69.84,73.47
			l1.11,4.11l-2.54,0.68l-1.26-4.68H52.26l2.47,9.02l-2.54,0.68l-2.65-9.7c-0.61-0.01-1.12-0.43-1.26-1l-2.17-6.46
			c-0.23-0.69,0.14-1.43,0.83-1.66c0.14-0.05,0.28-0.07,0.42-0.07v0h1.19c-2.4-3.49-6.09-5.85-10.26-7.52
			c-4.97-1.99-10.63-3.02-15.62-3.84c-1.15-0.19-2.09-0.56-2.65-1.03c-0.44-0.37-0.71-0.83-0.76-1.36
			c-0.06-0.56,0.12-1.09,0.57-1.57c0.24-0.26,0.58-0.5,1.04-0.74c-4.34-0.15-8.73-0.28-13.19-0.4C2.35,47.8,4.28,48.01,1,47.54
			c3.27-0.8,8.22-1.29,14.22-1.57c0.2-8.31,3.96-15.82,9.95-21.29c5.41-4.94,12.64-8.21,20.69-8.9c0.13-1.34,0.77-2.53,1.74-3.42
			c1.06-0.96,2.5-1.56,4.09-1.56c1.59,0,3.04,0.6,4.09,1.56c1.09,0.99,1.76,2.37,1.76,3.9c0,0.12-0.02,0.25-0.05,0.36
			c5.08,1.2,9.7,3.45,13.56,6.48c6.02,4.73,10.21,11.37,11.44,18.91c0.11,0.67,0.2,1.71,0.26,2.81c0.06,1.04,0.1,2.1,0.11,2.94
			c5.6,0.37,10.4,0.72,13.93,1.02c1.35,0.13,2.33,1.34,2.2,2.69c-0.14,1.35-1.34,2.33-2.69,2.2c-7.87-0.87-15.56-1.62-23.15-2.26
			c-0.26,1.08-1.59,2.28-3.13,3.67c-1.77,1.59-3.88,3.5-4.34,4.78c-0.18,0.52-0.24,1.28-0.22,2.14c0.02,0.75,0.09,1.58,0.21,2.41
			h1.89c0.63,0,1.17,0.45,1.29,1.05l1.74,6.49C70.74,72.56,70.42,73.21,69.84,73.47L69.84,73.47z M78.93,38.51
			c-6.42-1.28-22.5-3.89-58.2-3.8c1.54-3.02,3.65-5.75,6.2-8.08c5.65-5.16,13.47-8.35,22.11-8.35c7.79,0,14.91,2.6,20.38,6.89
			C73.86,28.66,77.21,33.27,78.93,38.51L78.93,38.51z M63.61,70.95l-0.89-3.93H49.18l1.32,3.93H63.61L63.61,70.95z M64.07,67.03
			l0.89,3.93h2.63l-1.05-3.93H64.07L64.07,67.03z M51.64,64.39H63c-0.1-0.78-0.16-1.59-0.18-2.36c-0.02-1.17,0.07-2.25,0.37-3.08
			c0.68-1.9,3.07-4.05,5.06-5.85c1.25-1.12,2.37-1.65,2.33-1.86c0-0.02-0.01-0.05-0.02-0.07c-0.89-0.07-1.78-0.15-2.67-0.22
			c-1.73,0.33-3.87,1.08-5.84,1.76l-0.36,0.12l0,0l0,0c-0.38,0.13-0.86,0.31-1.32,0.49c-1.73,0.65-3.08,1.17-4.93,1
			c-0.29,0.1-0.61,0.1-0.92-0.03c-0.21-0.09-0.44-0.17-0.68-0.26c-0.4-0.1-0.82-0.24-1.26-0.4c-0.09-0.03-0.17-0.07-0.25-0.12
			c-3.83-1.23-9.78-2.59-15.58-3.34c-5.23-0.68-10.3-0.85-13.44,0.03c-0.2,0.06-0.38,0.11-0.54,0.16c0.1,0.02,0.2,0.04,0.31,0.06
			c5.13,0.84,10.96,1.9,16.17,3.99C44.44,56.5,48.98,59.57,51.64,64.39L51.64,64.39z M54.58,51.51c1.96,0.47,3.19,0,4.87-0.64
			c0.35-0.13,0.72-0.27,1.24-0.46c-4.26-0.31-8.51-0.58-12.77-0.83C50.55,50.22,52.87,50.89,54.58,51.51L54.58,51.51z M54.9,16.11
			c-0.04-0.7-0.37-1.33-0.89-1.8c-0.59-0.54-1.41-0.87-2.32-0.87c-0.91,0-1.73,0.33-2.32,0.87c-0.4,0.37-0.69,0.83-0.82,1.34
			c0.17,0,0.33,0,0.5,0C51.04,15.65,52.99,15.81,54.9,16.11z"/>
		<path class="st2" d="M49.04,18.28c-8.64,0-16.46,3.19-22.11,8.35c-2.55,2.33-4.66,5.06-6.2,8.08c35.7-0.09,51.78,2.52,58.2,3.8
			c-1.73-5.24-5.07-9.85-9.51-13.33C63.95,20.88,56.83,18.28,49.04,18.28z"/>
		<path class="st3" d="M79.36,39.94c-5.92-1.22-21.89-4.04-59.26-3.91c-1.36,3.05-2.15,6.37-2.25,9.84
			c18.01-0.6,43.85,0.55,62.37,1.71c-0.02-0.79-0.05-1.74-0.1-2.62c-0.06-1.01-0.13-1.96-0.23-2.53
			C79.76,41.59,79.58,40.76,79.36,39.94z"/>
		<path class="st2" d="M49.04,15.65c2,0,3.95,0.16,5.86,0.46c-0.04-0.7-0.37-1.33-0.89-1.8c-0.59-0.54-1.41-0.87-2.32-0.87
			c-0.91,0-1.73,0.33-2.32,0.87c-0.4,0.37-0.69,0.83-0.82,1.34C48.71,15.65,48.87,15.65,49.04,15.65z"/>
		<path class="st4" d="M55.44,54.34c-0.29,0.1-0.61,0.1-0.92-0.03c-0.21-0.09-0.44-0.17-0.68-0.26c-0.4-0.1-0.82-0.24-1.26-0.4
			c-0.09-0.03-0.17-0.07-0.25-0.12c-3.83-1.23-9.78-2.59-15.58-3.34c-5.23-0.68-10.3-0.85-13.44,0.03c-0.2,0.06-0.38,0.11-0.54,0.16
			c0.1,0.02,0.2,0.04,0.31,0.06c5.13,0.84,10.96,1.9,16.17,3.99c5.17,2.07,9.71,5.14,12.37,9.96H63c-0.1-0.78-0.16-1.59-0.18-2.36
			c-0.02-1.17,0.07-2.25,0.37-3.08c0.68-1.9,3.07-4.05,5.06-5.85c1.25-1.12,2.37-1.65,2.33-1.86c0-0.02-0.01-0.05-0.02-0.07
			c-0.89-0.07-1.78-0.15-2.67-0.22c-1.73,0.33-3.87,1.08-5.84,1.76l-0.36,0.12l0,0c-0.38,0.13-0.86,0.31-1.32,0.49
			C58.64,53.99,57.29,54.5,55.44,54.34z"/>
		<polygon class="st5" points="62.72,67.03 49.18,67.03 50.5,70.95 63.61,70.95 		"/>
		<polygon class="st5" points="64.07,67.03 64.95,70.95 67.58,70.95 66.53,67.03 		"/>
		<path class="st6" d="M58.18,62.84h0.08C58.25,62.84,58.15,63.23,58.18,62.84L58.18,62.84z M64.25,53.99
			c-2.37,1.95-5.3,3.14-5.79,6.56c-0.2,1.39-0.27,2.03-0.29,2.3h-7.5c0.34,0.49,0.66,1.01,0.96,1.55H63
			c-0.1-0.78-0.16-1.59-0.18-2.36c-0.02-1.17,0.07-2.25,0.37-3.08c0.68-1.9,3.07-4.05,5.06-5.85c1.25-1.12,2.37-1.65,2.33-1.86
			c0-0.02-0.01-0.05-0.02-0.07c-0.89-0.07-1.78-0.15-2.67-0.22c-1.2,0.23-2.59,0.65-3.98,1.12C65.17,52.3,65.67,52.82,64.25,53.99z"
			/>
		<path class="st3" d="M79.36,39.94c-2.09-0.43-5.42-1.06-10.51-1.69c0.85,3.12,1.34,6.1,1.6,8.76c3.42,0.19,6.7,0.38,9.78,0.57
			c-0.02-0.79-0.05-1.74-0.1-2.62c-0.06-1.01-0.13-1.96-0.23-2.53C79.76,41.59,79.58,40.76,79.36,39.94z"/>
		<path class="st3" d="M68.45,36.88c4.91,0.59,8.27,1.19,10.48,1.63c-1.73-5.24-5.07-9.85-9.51-13.33
			c-4.37-3.43-9.8-5.78-15.78-6.58C61.26,22.71,65.94,28.77,68.45,36.88z"/>
		<path class="st5" d="M24.17,31c7.03-8.91,12.73-12.63,24.39-11.4c-11.42,2.92-14.42,3.24-21.36,13.43
			c-0.56,0.84-1.69,1.06-2.53,0.5C23.83,32.97,23.61,31.84,24.17,31z"/>
	</g>
	<path class="st5" d="M54.37,81.3c4.91-0.5,9.56-1.88,13.77-3.99l-1-3.72H52.26L54.37,81.3z"/>
</g>
</svg>
